<svg width="21" height="24" viewBox="0 0 21 24" fill="none" xmlns="http://www.w3.org/2000/svg">
<path d="M0 4.125C0 3.50391 0.503906 3 1.125 3H19.875C20.4984 3 21 3.50391 21 4.125C21 4.74844 20.4984 5.25 19.875 5.25H1.125C0.503906 5.25 0 4.74844 0 4.125ZM0 11.625C0 11.0016 0.503906 10.5 1.125 10.5H19.875C20.4984 10.5 21 11.0016 21 11.625C21 12.2484 20.4984 12.75 19.875 12.75H1.125C0.503906 12.75 0 12.2484 0 11.625ZM19.875 20.25H1.125C0.503906 20.25 0 19.7484 0 19.125C0 18.5016 0.503906 18 1.125 18H19.875C20.4984 18 21 18.5016 21 19.125C21 19.7484 20.4984 20.25 19.875 20.25Z" fill="black"/>
</svg>
