<svg viewBox="0 0 96 96" fill="none" xmlns="http://www.w3.org/2000/svg">
<g>
<path d="M90.5 15C90.5 23.2875 83.7875 30 75.5 30C67.2125 30 60.5 23.2875 60.5 15C60.5 6.71625 67.2125 0 75.5 0C83.7875 0 90.5 6.71625 90.5 15ZM78.5 81C78.5 89.2875 71.7875 96 63.5 96C55.2125 96 48.5 89.2875 48.5 81C48.5 72.7125 55.2125 66 63.5 66C71.7875 66 78.5 72.7125 78.5 81ZM0.5 39C0.5 30.7125 7.21625 24 15.5 24C23.7875 24 30.5 30.7125 30.5 39C30.5 47.2875 23.7875 54 15.5 54C7.21625 54 0.5 47.2875 0.5 39Z" fill="#1EC69C"/>
<path opacity="0.4" d="M78.95 29.6062L71.8625 68.55C69.4813 66.9375 66.5938 66 63.5 66C62.3188 66 61.1563 66.1312 60.05 66.3937L67.1375 27.45C69.5188 29.0625 72.4063 30 75.5 30C76.6813 30 77.8438 29.8687 78.95 29.6062ZM29.8063 43.5375L57.1063 67.425C53.3563 69.1875 50.4688 72.4687 49.1938 76.4625L21.8938 52.575C25.6438 50.6437 28.5313 47.5312 29.8063 43.5375ZM30.5 39C30.5 34.8187 28.7938 31.05 26.0375 28.3312L60.5 14.535C60.5 14.6906 60.5 14.8443 60.5 15C60.5 19.1812 62.2063 22.95 64.9625 25.6687L30.3313 39.4687C30.3313 39.3187 30.5 39.15 30.5 39Z" fill="#1EC69C"/>
</g>
</svg>
