<svg width="56" height="64" viewBox="0 0 56 64" fill="none" xmlns="http://www.w3.org/2000/svg">
<path d="M44 0V12H56L44 0ZM44.2875 28H38V21.7125C38 20.7625 37.2375 20 36.2875 20H31.7162C30.7625 20 30 20.7625 30 21.7125V28H23.7125C22.7625 28 22 28.7625 22 29.7125V34.2837C22 35.2375 22.7625 36 23.7125 36H30V42.2863C30 43.2375 30.7625 44 31.7125 44H36.2837C37.2375 44 38 43.2375 38 42.2875V36H44.2863C45.2375 36 46 35.2375 46 34.2875V29.7125C46 28.7625 45.2375 28 44.2875 28ZM41 64H15C6.72875 64 0 57.275 0 49V15C0 13.35 1.34375 12 3 12C4.65625 12 6 13.35 6 15V49C6 53.9625 10.0375 58 15 58H41C42.6562 58 44 59.3438 44 61C44 62.6562 42.6625 64 41 64Z" fill="#1A73E8"/>
<path opacity="0.4" d="M44 12V0H18C14.6875 0 12 2.68625 12 6V46C12 49.3125 14.6875 52 18 52H50C53.3138 52 56 49.3138 56 46V12H44ZM46 34.2875C46 35.2375 45.2375 36 44.2875 36H38V42.2863C38 43.2375 37.2375 44 36.2875 44H31.7162C30.7625 44 30 43.2375 30 42.2875V36H23.7125C22.7625 36 22 35.2375 22 34.2875V29.7125C22 28.7625 22.7625 28 23.7125 28H30V21.7125C30 20.7625 30.7625 20 31.7125 20H36.2837C37.2375 20 38 20.7625 38 21.7125V28H44.2863C45.2375 28 46 28.7625 46 29.7125V34.2875Z" fill="#1A73E8"/>
</svg>
