<svg width="48" height="48" viewBox="0 0 48 48" fill="none" xmlns="http://www.w3.org/2000/svg">
<path d="M24 0C37.2562 0 48 10.7438 48 24C48 37.2562 37.2562 48 24 48C10.7438 48 0 37.2562 0 24C0 10.7438 10.7438 0 24 0ZM24 45C25.5656 45 27.7875 43.65 29.8031 39.6281C30.7312 37.7719 31.5094 35.4469 31.9781 33H15.9375C16.4906 35.4469 17.2688 37.7719 18.1969 39.6281C20.2125 43.65 22.4344 45 24 45ZM15.4031 30H32.5969C32.8594 28.1063 33 26.0906 33 24C33 21.9094 32.8594 19.8937 32.5969 18H15.4031C15.1406 19.8937 15 21.9094 15 24C15 26.0906 15.1406 28.1063 15.4031 30ZM31.9781 15C31.5094 12.4688 30.7312 10.2281 29.8031 8.37094C27.7875 4.34719 25.5656 3 24 3C22.4344 3 20.2125 4.34719 18.1969 8.37094C17.2688 10.2281 16.4906 12.4688 15.9375 15H31.9781ZM35.5406 18C35.8688 19.9219 36 21.9281 36 24C36 26.0719 35.8688 28.0781 35.5406 30H44.1281C44.7 28.0969 45 26.0812 45 24C45 21.9188 44.7 19.9031 44.1281 18H35.5406ZM30.7031 4.09312C32.6719 6.74906 34.2281 10.5375 35.1281 15H42.975C40.5562 9.89062 36.1219 5.9175 30.7031 4.09312ZM17.2969 4.09312C11.8781 5.9175 7.4475 9.89062 5.02125 15H12.8719C13.7719 10.5375 15.3281 6.74906 17.2969 4.09312ZM3 24C3 26.0812 3.30375 28.0969 3.87 30H12.375C12.1313 28.0781 12 26.0719 12 24C12 21.9281 12.1313 19.9219 12.375 18H3.87C3.30375 19.9031 3 21.9188 3 24ZM42.975 33H35.1281C34.2281 37.4625 32.6719 41.25 30.7031 43.9031C36.1219 42.0844 40.5562 38.1094 42.975 33ZM12.8719 33H5.02125C7.4475 38.1094 11.8781 42.0844 17.2969 43.9031C15.3281 41.25 13.7719 37.4625 12.8719 33Z" fill="#1EC69C"/>
</svg>
