<svg width="64" height="52" viewBox="0 0 64 52" fill="none" xmlns="http://www.w3.org/2000/svg">
<g clip-path="url(#clip0_460_978)">
<path d="M43.5999 1.77815C40.5299 -0.931118 35.9199 -0.439675 33.1099 2.55992L31.9099 3.74068L30.8899 2.56296C28.0699 -0.437143 23.4699 -0.931118 20.3099 1.77815C16.8699 4.87891 16.6699 10.4404 19.8299 13.8025L30.7199 25.367C31.4199 26.1138 32.5699 26.1138 33.2699 25.367L44.0799 13.8025C47.3199 10.4404 47.1399 4.87891 43.5999 1.77815Z" fill="#E71F54"/>
<path opacity="0.4" d="M21.61 23.8076C20.51 22.5013 18.58 22.1874 17.2 23.3013C15.819 24.4213 15.595 26.4598 16.7 27.8582L18.586 30.9529C19.476 32.08 19.387 33.7043 18.3794 34.7241C17.2004 35.918 15.2594 35.8086 14.2184 34.4907L8 26.0051V10.4405C8 8.20356 6.209 6.38989 4 6.38989C1.791 6.38989 0 8.2947 0 10.4405V31.1696C0 32.642 0.4949 34.0709 1.403 35.2203L13.413 50.5317C14.0196 51.2999 14.938 51.7479 15.909 51.7479H25.6C27.367 51.7479 28.803 50.2927 28.803 48.5033L28.8 36.2937C28.8 34.0871 28.0586 31.9463 26.698 30.2238L21.61 23.8076ZM60 6.38989C57.791 6.38989 56 8.20356 56 10.4405V25.9139L49.78 34.4942C48.739 35.8127 46.797 35.921 45.619 34.7276C44.611 33.7079 44.522 32.0836 45.4124 30.9565L47.2984 27.8618C48.4034 26.4633 48.1796 24.4248 46.7984 23.3048C45.4214 22.1879 43.4044 22.4188 42.3014 23.8112L37.3024 30.1403C35.94 31.9494 35.2 34.0861 35.2 36.2937L35.1969 48.5975C35.1969 50.3869 36.6329 51.842 38.3999 51.842H48.0019C48.9732 51.842 49.8919 51.394 50.4979 50.6258L62.5079 35.3145C63.51 34.1671 64 32.7393 64 31.2608V10.4405C64 8.2947 62.21 6.38989 60 6.38989Z" fill="#E71F54"/>
</g>
<defs>
<clipPath id="clip0_460_978">
<rect width="64" height="51.8481" fill="white"/>
</clipPath>
</defs>
</svg>
