<svg width="56" height="64" viewBox="0 0 56 64" fill="none" xmlns="http://www.w3.org/2000/svg">
    <path
        d="M6 28C7.11 28 8 27.1125 8 26V24C8 12.9688 16.9688 4 28 4C39.0312 4 48 12.9688 48 24V26C48 31.5125 43.5125 36 38 36H34C34 33.7975 32.2025 32 30 32H26C23.7975 32 22 33.7975 22 36C22 38.2025 23.7975 40 26 40H38C45.735 39.9844 51.9875 33.7337 52 26V24C52 10.7625 41.2337 0 28 0C14.7662 0 4 10.7662 4 24V26C4 27.1125 4.89125 28 6 28ZM26 28H30C32.86 28 35.4975 29.525 36.92 31.9937L38 32C41.3125 32 44 29.3125 44 26.1125V24C44 15.1562 36.8438 8 28 8C19.1562 8 12 15.1562 12 24C12 29.0475 14.39 33.4987 18.0462 36.4362C18.025 36.275 18 36.1625 18 36C18 31.575 21.575 28 26 28ZM39.3375 44H16.6625C7.4625 44 0 51.4625 0 60.6625C0 62.5125 1.4925 64 3.3325 64H52.6625C54.5125 64 56 62.5125 56 60.6625C56 51.4625 48.5375 44 39.3375 44Z"
        fill="#1A73E8" />
</svg>