<svg width="64" height="64" viewBox="0 0 64 64" fill="none" xmlns="http://www.w3.org/2000/svg">
    <path d="M20 28C20 23.5875 23.5875 20 28 20H44V36C44 40.4125 40.4125 44 36 44H20V28Z" fill="#E71F54" />
    <path opacity="0.4"
        d="M8 44C3.58125 44 0 40.4125 0 36V8C0 3.58125 3.58125 0 8 0H36C40.4125 0 44 3.58125 44 8V20H56C60.4125 20 64 23.5875 64 28V56C64 60.4125 60.4125 64 56 64H28C23.5875 64 20 60.4125 20 56V44H8ZM8 36H20V44H28V56H56V28H44V20H36V8H8V36Z"
        fill="#E71F54" />
</svg>