<svg width="48" height="64" viewBox="0 0 48 64" fill="none" xmlns="http://www.w3.org/2000/svg">
    <path
        d="M33.9625 0C37.3 0 40 2.70375 40 6.04V8.2C39.35 8.06875 38.6875 8 38 8H10C9.315 8 8.64625 8.06875 8 8.2V6.04C8 2.70375 10.7038 0 14.0375 0H33.9625ZM8 58V55.8C8.64625 55.925 9.315 56 10 56H38C38.6875 56 39.35 55.925 40 55.8V58C40 61.3125 37.3125 64 34 64H14C10.6862 64 8 61.3125 8 58ZM22.6125 41.6625L12.6 32.0125C10.09 29.5875 10.09 25.5625 12.6 23.125C14.8875 20.825 18.7875 20.825 21.175 23.125L24 25.8625L26.825 23.125C29.2125 20.825 33 20.825 35.4 23.125C37.9125 25.5625 37.9125 29.5875 35.4 32.0125L25.3875 41.6625C24.6125 42.4125 23.3875 42.4125 22.6125 41.6625Z"
        fill="#6F52E7" />
    <path opacity="0.4"
        d="M38 8C43.525 8 48 12.4775 48 18V46C48 51.525 43.525 56 38 56H10C4.4775 56 0 51.525 0 46V18C0 12.4775 4.4775 8 10 8H38ZM25.3875 41.6625L35.4 32.0125C37.9125 29.5875 37.9125 25.5625 35.4 23.125C33 20.825 29.2125 20.825 26.825 23.125L24 25.8625L21.175 23.125C18.7875 20.825 14.8875 20.825 12.6 23.125C10.09 25.5625 10.09 29.5875 12.6 32.0125L22.6125 41.6625C23.3875 42.4125 24.6125 42.4125 25.3875 41.6625Z"
        fill="#6F52E7" />
</svg>