<svg width="42" height="48" viewBox="0 0 42 48" fill="none" xmlns="http://www.w3.org/2000/svg">
<path d="M9 12C9 5.37281 14.3719 0 21 0C27.6281 0 33 5.37281 33 12C33 18.6281 27.6281 24 21 24C14.3719 24 9 18.6281 9 12ZM30 12C30 7.02938 25.9688 3 21 3C15.9469 3 12 7.02938 12 12C12 16.9688 15.9469 21 21 21C25.9688 21 30 16.9688 30 12ZM0 45.1125C0 35.9344 7.43719 28.5 16.6125 28.5H25.3875C34.5656 28.5 42 35.9344 42 45.1125C42 46.7063 40.7063 48 39.1125 48H2.88937C1.29375 48 5.625e-05 46.7063 5.625e-05 45.1125H0ZM15 37.5C14.175 37.5 13.5 38.175 13.5 39C13.5 39.825 14.175 40.5 15 40.5C15.825 40.5 16.5 39.825 16.5 39C16.5 38.175 15.825 37.5 15 37.5ZM16.5 31.5V34.7531C18.2437 35.3719 19.5 37.0406 19.5 39C19.5 41.4844 17.4844 43.5 15 43.5C12.5156 43.5 10.5 41.4844 10.5 39C10.5 37.0406 11.7563 35.3719 13.5 34.7531V31.8562C7.51688 33.2531 3.05156 38.6063 3 45H38.9156C38.9531 39.15 35.2125 34.1813 30 32.2969V34.7531C31.7437 35.3719 33 37.0406 33 39V42C33 42.825 32.325 43.5 31.5 43.5C30.675 43.5 30 42.825 30 42V39C30 38.175 29.325 37.5 28.5 37.5C27.675 37.5 27 38.175 27 39V42C27 42.825 26.325 43.5 25.5 43.5C24.675 43.5 24 42.825 24 42V39C24 37.0406 25.2563 35.3719 27 34.7531V31.5938C26.475 31.5281 25.9312 31.5 25.3875 31.5H16.6125C16.575 31.5 16.5375 31.5 16.4156 31.5H16.5Z" fill="#FF4400"/>
</svg>
