<svg width="56" height="64" viewBox="0 0 56 64" fill="none" xmlns="http://www.w3.org/2000/svg">
<path d="M8.82875 34C7.26625 34 5.8875 32.7375 5.8875 31.175C5.8875 30.425 6.2975 29.7 6.82875 29.175L7.31375 28.6875C10.3137 25.6875 11.8875 21.6125 11.8875 17.2625V16C11.8875 7.16375 19.1625 0 28 0C36.825 0 43.975 7.1375 44 15.95V16.05V16.075V17.2625C44 21.6125 45.6875 25.6875 48.6875 28.6875L49.175 29.175C49.7 29.7 50 30.425 50 31.175C50 32.7375 48.7375 34 47.175 34H8.82875ZM15.8875 14V20C15.8875 26.625 21.2625 32 27.8875 32C34.625 32 39.8875 26.625 39.8875 20L40 12H39C36.15 12 33.65 10.5113 32.2375 8.27C30.0125 11.7075 26.325 14 22 14H15.8875ZM35.8875 45.25C32.55 46.1375 29.8875 49.275 29.8875 53V56C29.8875 56.525 30.2125 57.0375 30.5875 57.4125L32.5875 59.4125C33.3625 60.2 34.6375 60.2 35.4125 59.4125C36.2 58.6375 36.2 57.3625 35.4125 56.5875L33.8875 55.175V53C33.8875 50.7875 35.7875 49 37.8875 49C40.2125 49 42 50.7875 42 53V55.175L40.5875 56.5875C39.8 57.3625 39.8 58.6375 40.5875 59.4125C41.3625 60.2 42.6375 60.2 43.4125 59.4125L45.4125 57.4125C45.7875 57.0375 46 56.525 46 56V53C46 49.275 43.45 46.1375 40 45.25V38.6C49.1875 40.8375 56 49.125 56 59V60C56 62.2125 54.2125 64 52 64H4C1.79125 64 0 62.2125 0 60V59C0 49.125 6.81625 40.8375 16 38.6V46.2875C13.1125 47.15 11 49.825 11 53C11 56.8625 14.1375 60 18 60C21.8625 60 25 56.8625 25 53C25 49.825 22.8875 47.15 20 46.2875V38.025C20.3375 38.0125 20.6625 38 21 38H35C35.3375 38 35.6625 38.0125 36 38.025L35.8875 45.25ZM20.8875 53C20.8875 54.6625 19.6625 56 17.8875 56C16.3375 56 14.8875 54.6625 14.8875 53C14.8875 51.3375 16.3375 50 17.8875 50C19.6625 50 20.8875 51.3375 20.8875 53Z" fill="#7451F0"/>
<path opacity="0.4" d="M39 12H40V20C40 26.625 34.625 32 28 32C21.2625 32 16 26.625 16 20V14H22C26.325 14 30.0125 11.7075 32.2375 8.27002C33.65 10.5125 36.15 12 39 12Z" fill="#7451F0"/>
</svg>
