<svg width="64" height="64" viewBox="0 0 64 64" fill="none" xmlns="http://www.w3.org/2000/svg">
    <path
        d="M45.8 26.6875L51.525 27.6375C51.8375 29.05 52 30.5 52 32C52 43.05 43.05 52 32 52C20.95 52 12 43.05 12 32C12 20.95 20.95 12 32 12C33.3875 12 34.95 12.165 36.3625 12.4762L37.3125 18.2L36.7 18.8125C35.2375 18.2875 33.65 17.8875 32 17.8875C24.2625 17.8875 18 24.2625 18 31.8875C18 39.7375 24.2625 46 32 46C39.7375 46 46 39.7375 46 31.8875C46 30.35 45.7125 28.7625 45.1875 27.3L45.8 26.6875ZM62.2125 21.4375C63.2625 24.6375 64 28.3 64 32C64 49.675 49.675 64 32 64C14.325 64 0 49.675 0 32C0 14.325 14.325 0 32 0C35.7 0 39.25 0.628 42.5625 1.78375L37.7125 6.63C35.7625 6.2175 33.9625 6 32 6C17.6375 6 6 17.6375 6 32C6 46.3625 17.6375 58 32 58C46.3625 58 58 46.3625 58 32C58 30.0375 57.7875 28.125 57.2625 26.2875L62.2125 21.4375ZM34.0125 34.0125C32.95 35.2875 31.05 35.2875 29.875 34.0125C28.7125 32.95 28.7125 31.05 29.875 29.875L41.4 18.3625L40.3375 12.03C40.125 10.7562 40.5375 9.4575 41.45 8.545L47.85 2.145C48.7625 1.12937 50.5875 1.4825 51.125 2.81625L54 9.8875L61.1875 12.7625C62.5125 13.4125 62.7625 15.125 61.85 16.15L55.45 22.55C54.5375 23.4625 53.2375 23.7625 51.975 23.6625L45.6375 22.6L34.0125 34.0125Z"
        fill="#E71F54" />
</svg>