<svg width="48" height="48" viewBox="0 0 48 48" fill="none" xmlns="http://www.w3.org/2000/svg">
<path d="M24 0C10.7438 0 0 10.7438 0 24C0 37.2562 10.7438 48 24 48C37.2562 48 48 37.2562 48 24C48 10.7438 37.2562 0 24 0ZM24 45C19.5712 45 15.465 43.6144 12.075 41.265C12.4594 36.6469 16.2938 33 21 33H27C31.7109 33 35.5444 36.6506 35.9259 41.265C32.5312 43.6125 28.425 45 24 45ZM38.5969 39.0656C37.275 33.8719 32.5969 30 27 30H21C15.4003 30 10.725 33.8719 9.40313 39.0675C5.46281 35.1656 3 29.9062 3 24C3 12.4219 12.4219 3 24 3C35.5781 3 45 12.4219 45 24C45 29.9062 42.5344 35.1656 38.5969 39.0656ZM24 12C19.8563 12 16.5 15.3562 16.5 19.5C16.5 23.6437 19.8563 27 24 27C28.1437 27 31.5 23.6419 31.5 19.5C31.5 15.3562 28.1437 12 24 12ZM24 24C21.5156 24 19.5 21.9844 19.5 19.5C19.5 17.0156 21.5156 15 24 15C26.4844 15 28.5 17.0184 28.5 19.5C28.5 21.9816 26.4844 24 24 24Z" fill="#E71F54"/>
</svg>
