<svg width="64" height="52" viewBox="0 0 64 52" fill="none" xmlns="http://www.w3.org/2000/svg">
    <path
        d="M18.4 9.20004C18.4 12.29 15.89 14.8 12.8 14.8C9.707 14.8 7.2 12.29 7.2 9.20004C7.2 6.10704 9.707 3.60004 12.8 3.60004C15.89 3.60004 18.4 6.10704 18.4 9.20004ZM20.84 20.03C17.87 22.67 16 26.52 16 30.8C16 34.23 17.11 37.38 19.2 39.85V42C19.2 43.77 17.77 45.2 16 45.2H9.6C7.833 45.2 6.4 43.77 6.4 42V39.32C2.616 37.52 0 33.67 0 29.2C0 23.01 5.014 18 11.2 18H14.4C16.71 18 19.02 18.75 20.84 20.03ZM6.4 24.97C5.404 26.09 4.8 27.58 4.8 29.2C4.8 30.82 5.404 32.31 6.4 33.43V24.97ZM44.8 42V39.85C46.8 37.38 48 34.23 48 30.8C48 26.52 46.13 22.67 43.16 20.03C44.98 18.75 47.2 18 49.6 18H52.8C58.99 18 64 23.01 64 29.2C64 33.67 61.38 37.52 57.6 39.32V42C57.6 43.77 56.17 45.2 54.4 45.2H48C46.23 45.2 44.8 43.77 44.8 42ZM57.6 33.43C58.51 32.31 59.2 30.82 59.2 29.2C59.2 27.58 58.51 26.09 57.6 24.97V33.43ZM56.8 9.20004C56.8 12.29 54.29 14.8 51.2 14.8C48.11 14.8 45.6 12.29 45.6 9.20004C45.6 6.10704 48.11 3.60004 51.2 3.60004C54.29 3.60004 56.8 6.10704 56.8 9.20004ZM25.6 10C25.6 6.46504 28.47 3.60004 32 3.60004C35.53 3.60004 38.4 6.46504 38.4 10C38.4 13.53 35.53 16.4 32 16.4C28.47 16.4 25.6 13.53 25.6 10ZM44.8 30.8C44.8 35.27 42.18 39.12 38.4 40.92V45.2C38.4 46.97 36.97 48.4 35.2 48.4H28.8C27.03 48.4 25.6 46.97 25.6 45.2V40.92C21.82 39.12 19.2 35.27 19.2 30.8C19.2 24.61 24.21 19.6 30.4 19.6H33.6C39.79 19.6 44.8 24.61 44.8 30.8ZM25.6 35.03V26.57C24.6 27.69 24 29.18 24 30.8C24 32.42 24.6 33.91 25.6 35.03ZM38.4 26.57V35.03C39.31 33.9 40 32.42 40 30.8C40 29.18 39.31 27.69 38.4 26.57Z"
        fill="#1EC69C" />
</svg>