<svg height="100%" viewBox="0 0 57 64" fill="none" xmlns="http://www.w3.org/2000/svg">
<g clip-path="url(#clip0_376_779)">
<path d="M12.0193 52.5405C18.6574 52.5405 24.0385 47.168 24.0385 40.5405C24.0385 33.913 18.6549 28.5405 12.0193 28.5405C9.81823 28.5405 7.78372 29.178 6.00963 30.203V27.5405C6.00963 22.578 10.0549 18.5405 15.0241 18.5405H17.0273C18.6925 18.5405 20.0321 17.203 20.0321 15.5405C20.0321 13.878 18.6925 12.5405 17.0273 12.5405H15.0241C6.7408 12.5405 0 19.2655 0 27.5405V40.5405C0 47.1655 5.38112 52.5405 12.0193 52.5405ZM12.0193 34.5405C15.3333 34.5405 18.0289 37.2318 18.0289 40.5405C18.0289 43.8493 15.3371 46.5405 12.0193 46.5405C8.70144 46.5405 6.00963 43.853 6.00963 40.5405C6.00963 37.228 8.7052 34.5405 12.0193 34.5405ZM44.0706 52.5405C50.7088 52.5405 56.0899 47.168 56.0899 40.5405C56.0899 33.913 50.7088 28.5405 44.0706 28.5405C41.8696 28.5405 39.8351 29.174 38.061 30.2043V27.5405C38.061 22.578 42.1062 18.5405 47.0754 18.5405H49.0787C50.7438 18.5405 52.0835 17.203 52.0835 15.5405C52.0835 13.878 50.7438 12.5405 49.0787 12.5405H47.0754C38.7872 12.5405 32.0514 19.2655 32.0514 27.5405V40.5405C32.0514 47.1655 37.3223 52.5405 44.0706 52.5405ZM44.0706 34.5405C47.3847 34.5405 50.0803 37.2318 50.0803 40.5405C50.0803 43.8493 47.3847 46.5405 44.0706 46.5405C40.7566 46.5405 38.061 43.8493 38.061 40.5405C38.061 37.2318 40.7528 34.5405 44.0706 34.5405Z" fill="#224475"/>
</g>
<defs>
<clipPath id="clip0_376_779">
<rect width="56.0899" height="64" fill="white" transform="translate(0 0.540527)"/>
</clipPath>
</defs>
</svg>
