<svg width="84" height="96" viewBox="0 0 84 96" fill="none" xmlns="http://www.w3.org/2000/svg">
<path d="M72 36C78.6188 36 84 41.3813 84 48V84C84 90.6188 78.6188 96 72 96H12C5.37188 96 0 90.6188 0 84V48C0 41.3813 5.37188 36 12 36H72ZM48 60C48 56.6812 45.3187 54 42 54C38.6813 54 36 56.6812 36 60V72C36 75.3187 38.6813 78 42 78C45.3187 78 48 75.3187 48 72V60Z" fill="#1A73E8"/>
<path opacity="0.4" d="M42 12C33.7125 12 27 18.7162 27 27V36H15V27C15 12.0881 27.0938 0 42 0C56.9062 0 69 12.0881 69 27V36H57V27C57 18.7162 50.2875 12 42 12Z" fill="#1A73E8"/>
</svg>
