<svg width="96" height="96" viewBox="0 0 96 96" fill="none" xmlns="http://www.w3.org/2000/svg">
<g clip-path="url(#clip0_464_1139)">
<path d="M30.3125 29.8125C32.075 28.0688 34.925 28.0688 36.5187 29.8125L51.5187 44.8125C53.4312 46.575 53.4312 49.425 51.5187 51.0188C49.925 52.9313 47.075 52.9313 45.3125 51.0188L30.3125 36.0188C28.5687 34.425 28.5687 31.575 30.3125 29.8125Z" fill="#E71F54"/>
<path opacity="0.4" d="M42.5 6C42.5 2.68687 45.1813 0 48.5 0C75.0125 0 96.5 21.4875 96.5 48C96.5 74.5125 75.0125 96 48.5 96C21.9875 96 0.5 74.5125 0.5 48C0.5 34.575 6.02375 22.425 14.9075 13.7137C17.2737 11.3962 21.0688 11.4338 23.3937 13.8C25.7188 16.1681 25.6812 19.9688 23.3 22.2938C16.6306 28.8188 12.5 37.9313 12.5 48C12.5 67.875 28.4562 84 48.5 84C68.375 84 84.5 67.875 84.5 48C84.5 30.1688 71.525 15.3544 54.5 12.4969V18C54.5 21.3188 51.8187 24 48.5 24C45.1813 24 42.5 21.3188 42.5 18V6Z" fill="#E71F54"/>
</g>
<defs>
<clipPath id="clip0_464_1139">
<rect width="96" height="96" fill="white" transform="translate(0.5)"/>
</clipPath>
</defs>
</svg>
