<svg width="64" height="64" viewBox="0 0 64 64" fill="none" xmlns="http://www.w3.org/2000/svg">
    <path
        d="M47.2999 24.0125C47.2999 24.5244 47.1047 25.0361 46.7139 25.4263L29.4249 42.825C29.0343 43.2155 28.5224 43.4108 28.0112 43.4108C27.4999 43.4108 26.9874 43.2125 26.5999 42.825L17.2999 33.5375C16.9124 33.15 16.7124 32.6375 16.7124 32.0125C16.7124 31.5006 16.9077 30.9889 17.2984 30.5988L18.7122 29.185C19.1124 28.9 19.5124 28.7125 20.1249 28.7125C20.7374 28.7125 21.1499 28.9 21.5499 29.2875L28.0149 35.7525L42.4774 21.29C42.868 20.8995 43.3799 20.7043 43.8912 20.7043C44.4024 20.7043 44.9148 20.8995 45.3049 21.29L46.7187 22.7038C47.1124 23.1 47.2999 23.6125 47.2999 24.0125Z"
        fill="#30BB98" />
    <path opacity="0.4"
        d="M58.3125 10.4638L34.3125 0.46376C33.7031 0.209885 32.6675 0.00088501 32.0075 0.00088501C31.3435 0.00088501 30.3138 0.209885 29.7 0.46376L5.70125 10.4638C3.4625 11.3875 2 13.575 2 15.8875C2 48.15 25.65 64 31.9875 64C38.3875 64 62 47.975 62 15.8875C62 13.575 60.5375 11.3875 58.3125 10.4638ZM47.3 24.0125C47.3 24.5244 47.1048 25.0361 46.714 25.4263L29.425 42.825C29.0344 43.2155 28.5225 43.4108 28.0112 43.4108C27.5 43.4108 26.9875 43.2125 26.6 42.825L17.3 33.5375C16.9125 33.15 16.7125 32.6375 16.7125 32.0125C16.7125 31.5006 16.9078 30.9889 17.2985 30.5988L18.7122 29.185C19.1125 28.9 19.5125 28.7125 20.125 28.7125C20.7375 28.7125 21.15 28.9 21.55 29.2875L28.015 35.7525L42.4775 21.29C42.8681 20.8995 43.38 20.7043 43.8913 20.7043C44.4025 20.7043 44.9149 20.8995 45.305 21.29L46.7188 22.7038C47.1125 23.1 47.3 23.6125 47.3 24.0125Z"
        fill="#30BB98" />
</svg>