<svg width="56" height="64" viewBox="0 0 56 64" fill="none" xmlns="http://www.w3.org/2000/svg">
    <path
        d="M48 24C52.4125 24 56 27.5875 56 32V56C56 60.4125 52.4125 64 48 64H8C3.58125 64 0 60.4125 0 56V32C0 27.5875 3.58125 24 8 24H48ZM32 40C32 37.7875 30.2125 36 28 36C25.7875 36 24 37.7875 24 40V48C24 50.2125 25.7875 52 28 52C30.2125 52 32 50.2125 32 48V40Z"
        fill="#3E70B7" />
    <path opacity="0.4"
        d="M28 8C22.475 8 18 12.4775 18 18V24H10V18C10 8.05875 18.0625 0 28 0C37.9375 0 46 8.05875 46 18V24H38V18C38 12.4775 33.525 8 28 8Z"
        fill="#3E70B7" />
</svg>