<?xml version="1.0" encoding="UTF-8" standalone="no"?>
<!DOCTYPE svg PUBLIC "-//W3C//DTD SVG 1.1//EN" "http://www.w3.org/Graphics/SVG/1.1/DTD/svg11.dtd">
<svg width="100%" height="100%" viewBox="0 0 524 608" version="1.1" xmlns="http://www.w3.org/2000/svg" xmlns:xlink="http://www.w3.org/1999/xlink" xml:space="preserve" xmlns:serif="http://www.serif.com/" style="fill-rule:evenodd;clip-rule:evenodd;stroke-linejoin:round;stroke-miterlimit:2;">
    <g transform="matrix(1,0,0,1,-0.004,-0.001)">
        <g transform="matrix(1,0,0,1,-523.553,-607.753)">
            <g transform="matrix(1,0,0,1,1047.11,1200.98)">
                <path d="M0,-578.694L0,-271.022C0,-263.764 -2.309,-257.035 -6.251,-251.558L-8.181,-249.497L-8.198,-249.464L-8.363,-249.282L-10.557,-246.957L-10.573,-246.94L-10.606,-246.907L-12.189,-245.224L-118.398,-131.841L-176.458,-69.855L-179.84,-66.259C-182.957,-63.059 -186.256,-60.041 -189.737,-57.253C-189.605,-56.874 -189.473,-56.494 -189.341,-56.115L-250.436,9.105L-251.838,10.606C-254.445,13.046 -257.925,14.532 -261.768,14.532C-265.677,14.532 -269.224,12.997 -271.83,10.49L-271.863,10.457L-273.001,9.253L-273.034,9.22L-287.945,-6.73L-288.077,-6.862L-291.211,-10.194L-291.227,-10.211L-334.212,-56.098C-334.097,-56.477 -333.948,-56.857 -333.816,-57.253C-337.478,-60.206 -340.975,-63.405 -344.241,-66.803L-344.422,-67.002L-346.599,-69.31L-346.715,-69.442L-346.748,-69.475L-405.155,-131.825L-511.347,-245.175L-511.363,-245.192L-517.219,-251.443L-517.252,-251.476C-521.211,-256.968 -523.553,-263.731 -523.553,-271.022L-523.553,-578.694C-523.553,-586.727 -517.037,-593.226 -509.005,-593.226L-14.532,-593.226C-6.515,-593.226 0,-586.727 0,-578.694" style="fill:rgb(153,153,153);fill-rule:nonzero;"/>
            </g>
        </g>
    </g>
</svg>
