<?xml version="1.0" encoding="UTF-8" standalone="no"?>
<!DOCTYPE svg PUBLIC "-//W3C//DTD SVG 1.1//EN" "http://www.w3.org/Graphics/SVG/1.1/DTD/svg11.dtd">
<svg width="100%" height="100%" viewBox="0 0 607 705" version="1.1" xmlns="http://www.w3.org/2000/svg" xmlns:xlink="http://www.w3.org/1999/xlink" xml:space="preserve" xmlns:serif="http://www.serif.com/" style="fill-rule:evenodd;clip-rule:evenodd;stroke-linejoin:round;stroke-miterlimit:2;">
    <g transform="matrix(1,0,0,1,606.645,687.376)">
        <path d="M0,-670.538L0,-314.035C0,-305.626 -2.676,-297.828 -7.244,-291.483L-9.48,-289.094L-9.499,-289.056L-9.69,-288.846L-12.232,-286.15L-12.251,-286.132L-12.289,-286.094L-14.124,-284.143L-137.188,-152.766L-204.464,-80.941L-208.382,-76.774C-211.994,-73.067 -215.817,-69.569 -219.849,-66.34C-219.697,-65.9 -219.544,-65.46 -219.391,-65.02L-290.183,10.55L-291.807,12.289C-294.827,15.117 -298.86,16.838 -303.313,16.838C-307.843,16.838 -311.952,15.061 -314.972,12.155L-315.01,12.117L-316.329,10.722L-316.367,10.684L-333.644,-7.798L-333.797,-7.951L-337.429,-11.811L-337.448,-11.831L-387.255,-65.002C-387.121,-65.441 -386.949,-65.881 -386.796,-66.34C-391.039,-69.761 -395.091,-73.469 -398.875,-77.405L-399.085,-77.635L-401.608,-80.31L-401.742,-80.464L-401.78,-80.502L-469.457,-152.746L-592.502,-284.087L-592.521,-284.105L-599.306,-291.35L-599.344,-291.388C-603.931,-297.752 -606.645,-305.588 -606.645,-314.035L-606.645,-670.538C-606.645,-679.846 -599.096,-687.376 -589.788,-687.376L-16.838,-687.376C-7.549,-687.376 0,-679.846 0,-670.538" style="fill:white;fill-rule:nonzero;"/>
    </g>
</svg>
