<?xml version="1.0" encoding="UTF-8" standalone="no"?><!DOCTYPE svg PUBLIC "-//W3C//DTD SVG 1.1//EN" "http://www.w3.org/Graphics/SVG/1.1/DTD/svg11.dtd"><svg width="100%" height="100%" viewBox="0 0 12305 12305" version="1.1" xmlns="http://www.w3.org/2000/svg" xmlns:xlink="http://www.w3.org/1999/xlink" xml:space="preserve" xmlns:serif="http://www.serif.com/" style="fill-rule:evenodd;clip-rule:evenodd;stroke-miterlimit:2.6131;"><g id="Layer_2"><g id="Meet_Patients"><path d="M4053.68,8469.04l1672.26,-1233.51l8.554,-3.229c363.475,-61.246 566.467,42.575 678.867,195.134c111.508,151.333 131.641,349.516 131.641,480.983l-48.654,-0c0,-124.6 -18.691,-311.875 -122.137,-452.283c-102.096,-138.58 -289.059,-232.563 -627.313,-176.655l-1672.6,1235.45l-20.625,-45.896Z" style="fill:#633;"/><path d="M6389.33,6661.92c142.909,-6.459 285.346,-20.905 426.642,-43.267c102.017,-14.442 208.708,-30.617 316.767,-45.429c20.691,-2.834 41.429,-5.617 62.204,-8.342c-15.388,-38.433 -20.138,-80.308 -13.754,-121.212c-240.338,39.662 -485.263,69.425 -796.188,44.958c-7.366,-0.525 -14.625,-2.096 -21.55,-4.667c-0.996,52.625 -4.541,96.246 -5.733,146.296c-0.004,0.246 -0.008,0.492 -0.008,0.734c-0,16.975 13.962,30.937 30.937,30.937c0.229,0 0.454,0 0.683,-0.008Z" style="fill:#a7173d;"/><path d="M6379.67,6809.79c170.254,-2.863 354.77,-32.925 436.32,-191.171c-141.295,22.362 -283.733,36.808 -426.641,43.266l-9.679,147.905Z" style="fill:#3e5fbe;"/><path d="M6816,6618.62c-81.55,158.246 -266.067,188.308 -436.321,191.171l-101.529,1551.25l101.721,1379.7c22.054,18.633 48.133,31.9 76.183,38.754c106.971,32.104 285.113,34.667 407.492,-12.1c20.229,-7.55 39.608,-17.196 57.821,-28.783c18.929,-11.875 35.546,-27.079 49.046,-44.88l-138.521,-1316.87l300.362,-1162.72c3.213,-10.912 13.609,-18.225 24.959,-17.562c1.725,0.033 3.441,0.233 5.125,0.595c4.595,-98.862 3.05,-197.912 -4.63,-296.583c-7.375,-115.483 -18.433,-232.3 -24.941,-327.408c-108.059,14.812 -214.75,30.987 -316.767,45.429Z" style="fill:#3e5fbe;"/><path d="M7132.75,6573.21c6.508,95.109 17.567,211.925 24.938,327.409c129.004,-0 81.383,-242.092 74.845,-340.575c-12.529,1.579 -25.054,3.187 -37.579,4.833c-20.767,2.708 -41.504,5.488 -62.204,8.333Z" style="fill:#3e5fbe;"/><path d="M7232.54,6560.04c6.537,98.483 54.158,340.575 -74.842,340.575c7.679,98.671 9.225,197.721 4.629,296.583c9.196,1.979 16.567,8.913 19.104,17.975l274.63,943.896l-33.917,1185.96c-1.7,42.659 23.696,82.025 63.258,98.063c6.767,2.829 13.688,5.521 20.767,8.075c13.883,5.008 28.337,9.466 43.2,13.358c103.125,26.958 226.433,26.263 322.191,-11.746c6.176,-2.458 12.234,-5.066 18.18,-7.833l0.941,-0.442c36.188,-16.437 59.455,-52.762 59.255,-92.504l10.004,-1268.02l-160.979,-1380.37c-164.117,-6.771 -278.092,-37.6 -346.509,-167.271c-72.783,6.208 -146.429,14.429 -219.912,23.696Z" style="fill:#3e5fbe;"/><path d="M7452.46,6536.33c68.417,129.671 182.392,160.5 346.509,167.271l-22,-188.625c-5.913,6.479 -14.388,10.042 -23.159,9.734c-100.583,-1.388 -201.171,2.491 -301.35,11.62Z" style="fill:#3e5fbe;"/><path d="M6456.04,9779.5c-15.434,25.629 -33.338,49.683 -53.467,71.817c-1.071,1.304 -2.229,2.629 -3.458,3.979c139.046,1.4 250.741,100.171 250.741,100.171c63.579,23.121 212.367,-46.779 212.367,-163.796c-0,-8.242 0.525,-16.363 1.308,-24.271c-122.379,46.767 -300.521,44.204 -407.491,12.1Z" style="fill:#ed915d;"/><path d="M6649.88,9955.46c0,0 -111.696,-98.771 -250.742,-100.171c-91.387,100.001 -612.846,321.034 -355.429,430.088c312.742,132.487 513.263,-120.808 845.979,-173.767c148.284,-23.6 46.305,-246.07 31.692,-373c-18.217,11.588 -37.596,21.234 -57.825,28.784c-0.783,7.908 -1.308,16.029 -1.308,24.27c-0,117.017 -148.788,186.917 -212.367,163.796Z" style="fill:#633;"/><path d="M7549.38,9464.5c1.092,59.417 -11.029,150.6 2.767,202.017c103.329,-36.367 216.029,-36.471 319.429,-0.296l-0.004,-213.467c-95.759,38.009 -219.067,38.704 -322.192,11.746Z" style="fill:#ed915d;"/><path d="M7871.58,9666.25c-103.4,-36.175 -216.1,-36.071 -319.429,0.296c-13.796,-51.417 -1.675,-142.6 -2.766,-202.017c-14.863,-3.891 -29.317,-8.35 -43.2,-13.358c21.054,143.737 -5.063,262.571 -5.063,395.179c0,119.808 87.438,282.933 194.317,282.933c106.879,0 194.316,-163.137 194.316,-282.933l0,-401.4c-5.941,2.767 -12,5.379 -18.179,7.833l0.004,213.467Z" style="fill:#633;"/><path d="M6830.5,4057.47c1.896,58.929 -4.729,117.825 -19.667,174.858c85.154,62.517 158.113,140.142 215.238,229.004c67.175,-103.979 155.571,-192.595 259.379,-260.029c-9.358,-49.712 -13.333,-100.287 -11.854,-150.85c0.654,-55.891 5.079,-115.241 9.646,-176.412c-5.417,7.646 -10.979,15.07 -16.684,22.283c-57.662,72.867 -129.679,121.912 -214.55,121.912c-81.62,0.001 -151.345,-45.354 -207.862,-113.633c-8.058,-9.737 -15.85,-19.925 -23.367,-30.554c4.775,63.729 9.367,125.496 9.721,183.421Z" style="fill:#ed915d;"/><path d="M6674.08,3410.34c0,-38.967 1.667,-77.455 5,-115.463c18.909,-217.279 179.404,-244.958 372.925,-244.958c193.517,-0 354.009,27.687 372.917,244.958c3.304,37.979 4.967,76.467 5,115.463c-0,213.583 -137.258,607.9 -377.917,607.9c-240.662,-0.001 -377.925,-394.317 -377.925,-607.901Z" style="fill:#ed915d;"/><path d="M7322,2932.12c87.588,0.054 159.629,72.141 159.629,159.729c0,19.908 -3.721,39.637 -10.971,58.175c39.742,40.196 62.054,94.496 62.054,151.021c0,76.812 -41.204,148 -107.816,186.258c0.016,-0.8 0.025,-1.6 0.025,-2.396c-0.05,-61.425 -50.608,-111.946 -112.033,-111.946c-7.38,0 -14.738,0.729 -21.971,2.18c-14.696,3.12 -29.684,4.695 -44.709,4.695c-109.5,0 -202.395,-83.654 -213.825,-192.558c-63.504,-14.929 -108.762,-72.063 -108.762,-137.296c-0,-77.375 63.671,-141.046 141.046,-141.046c39.875,0 77.941,16.913 104.67,46.509c31.405,-47.142 83.346,-76.738 139.913,-79.717c-45.142,11.4 -84.138,39.892 -108.721,79.429c14.942,-3.217 30.188,-4.837 45.475,-4.825l1.863,0.008c22.858,-12.008 48.308,-18.262 74.133,-18.22Z" style="fill:#3c3835;"/><path d="M6942.79,2978.99c-12.571,21.537 -19.175,46.037 -19.138,70.97c0,2.171 0.046,4.326 0.146,6.471c2.896,62.788 47.412,116.425 108.592,130.842c1.058,10.346 2.875,20.6 5.421,30.679c-27.134,-8.708 -55.463,-13.141 -83.963,-13.141c-150.729,-0 -274.758,124.029 -274.758,274.754l-0,0.608l-0.821,0c-92.563,-20.942 -158.842,-103.896 -158.842,-198.8c0,-76.283 42.821,-146.429 110.675,-181.292c53.45,-118.095 193.638,-172.383 312.688,-121.091Z" style="fill:#1e1c1a;"/><path d="M6842.46,3921.59c-4.6,16.862 26.009,85.729 64.867,78.937c24.758,-4.325 2.442,10.663 55.671,37.534c20.562,10.379 78.429,-6.888 116.304,14.591c34.604,19.621 122.8,-42.308 155.817,-56.691c26.6,-11.588 45.745,-89.638 27.554,-104.917c-2.596,-3.942 8.721,-120.846 -36.65,-164.675c-19.142,-18.479 -54.592,-27.238 -129.588,-24.833c-4.296,0.133 -6.771,14.866 -1.475,25.27c4.834,9.505 92.904,17.734 101.109,28.042c24.671,31.013 30.558,117.629 1.258,137.221c-62.379,41.717 -210.054,51.892 -270.846,9.729c-23.775,-16.492 -23.846,-86.929 -10.412,-121.271c9.516,-24.341 85.687,-39.904 112.65,-50.616c10.454,-4.146 5.566,-24.442 4.133,-31.146c-0.883,-4.159 -133.512,26.496 -158.658,46.483c-37.184,29.563 -26.029,155.421 -31.734,176.342Z" style="fill:#3c3835;"/><path d="M6830.5,4057.47c-199.329,30.437 -375.767,111.912 -458.45,246.708c239.208,57.667 453.633,159.688 637.058,320.083c4.663,4.126 10.75,6.284 16.967,6.025l0,-168.954c-57.125,-88.862 -130.083,-166.487 -215.238,-229.004c14.938,-57.033 21.563,-115.929 19.663,-174.858Z" style="fill:#a7173d;"/><path d="M7285.46,4201.29c-103.808,67.429 -192.204,156.046 -259.379,260.025l0,168.954c6.125,-0.292 12.029,-2.388 16.967,-6.025c228.221,-162.929 325.212,-391.934 584.587,-433.442c-108.379,-91.529 -215.966,-127.287 -354.029,-140.366c-1.479,50.562 2.496,101.141 11.854,150.854Z" style="fill:#a7173d;"/><path d="M7009.08,4624.25c-183.425,-160.396 -397.85,-262.417 -637.058,-320.083l-238.879,178.658c-150.6,109.337 -254.896,271.237 -292.184,453.571l-144.091,656.891c-4.279,18.988 -6.288,38.413 -5.971,57.876l11.65,1135.16c0.196,16.837 14.092,30.587 30.933,30.608l279.13,0c16.391,0.008 30.087,-13.021 30.887,-29.396l51.467,-1035.83c1.075,-25.246 6.037,-50.171 14.708,-73.904l127.513,-357.05c2.191,-6.142 8.041,-10.267 14.566,-10.267c8.334,0 15.246,6.734 15.459,15.063c7.887,302.25 116.6,632.142 104.812,963.737c-59.967,23.3 -84,166.1 -8.562,194.638c6.925,2.571 14.183,4.142 21.55,4.667c310.925,24.47 555.85,-5.296 796.187,-44.967c-33.325,-307.504 -73.55,-397.429 -58.604,-893.013c14.029,-465.083 19.504,-493.662 -96.546,-919.945l0,-0.392c-6.217,0.258 -12.304,-1.9 -16.967,-6.025Z" style="fill:#e61f54;"/><path d="M7627.62,4190.83c-259.375,41.509 -356.367,270.513 -584.587,433.442c-4.938,3.637 -10.842,5.733 -16.967,6.025l-0,0.392c116.05,426.283 110.575,454.862 96.546,919.946c-14.946,495.583 25.279,585.508 58.604,893.02c196.237,-32.387 389.412,-71.379 612.962,-92.845c110.655,-10.621 97.292,-157.246 11.784,-166.863l31.841,-1327.53c0.642,-52.704 28.98,-101.354 74.509,-127.913l491.4,-297.441c18.983,-11.038 33.708,-28.154 41.791,-48.571l438.459,-1078.86c1.533,-3.733 2.325,-7.729 2.325,-11.766c-0,-12.771 -7.909,-24.284 -19.825,-28.871l-0.717,-0.25l-247.4,-88.358l-1.475,-0.525c-15,-5.392 -31.837,1.683 -38.483,16.17l-393.421,852.8c-13.6,30.655 -41.704,52.53 -74.754,58.18l-482.592,89.82Z" style="fill:#e61f54;"/><path d="M8692.25,3059.4l198.383,70.846c3.663,1.3 7.046,3.283 9.967,5.85l16.95,-24.054l105.129,-202.246c3.925,-9.596 142.575,-181.925 144.113,-194.717c1.575,-13.975 -4.575,-27.754 -16.03,-35.912c-6.087,-4.342 -14.166,-4.788 -20.695,-1.142c-32.763,24.588 -62.421,53.059 -88.325,84.796c-13.696,16.013 -28.329,31.196 -43.829,45.475c8.091,-30.487 66.083,-135.458 88.499,-176.012l0.188,-0.363c16.433,-31.088 20.438,-37.042 21.133,-39.8c5.021,-13.317 2.875,-28.317 -5.679,-39.692c-10.966,-9.962 -26.225,-13.804 -40.604,-10.225c-8.942,1.259 -17.637,15.355 -54.129,80.425c-18.571,33.121 -66.992,119.409 -83.233,129.605c-0.684,-23.696 36.408,-133.05 52.512,-180.55c8.967,-23.938 16.654,-48.338 23.025,-73.092c0.888,-15.967 -7.921,-30.983 -22.287,-38.004c-11.413,-5.709 -25.317,-3.263 -34.092,6.004c-13.888,6.454 -28.575,43.321 -58.571,125.512c-14.858,40.7 -45.508,124.692 -56.5,130.834c-5.379,-5.546 -6.046,-42.55 19.221,-183.221c4.787,-18.763 7.562,-37.979 8.275,-57.333c0.854,-19.55 -9.517,-37.967 -26.683,-47.367c-0.434,-0.158 -0.88,-0.296 -1.325,-0.413c-12.013,-3.387 -30.18,1.246 -48.746,42.575c-44.679,168.975 -65.229,267.338 -69.113,286.613c-8.391,5.254 -17.633,10.808 -23.737,14.446c-1.479,0.529 -3.038,0.783 -4.609,0.758c-16.641,-1.004 -48.825,-60.642 -70.937,-85.642c-32.258,-36.475 -86.2,0.075 -75.542,13.388c88.446,75.408 63.171,231.125 142.004,351.254c5.125,-0.829 10.379,-0.346 15.267,1.404Z" style="fill:#ed915d;"/><path d="M8890.62,3130.25l-198.383,-70.846c-15.984,-5.683 -33.813,2.763 -39.542,18.729l-34.362,96.242l247.408,88.35l0.708,0.258l8.538,3.05l34.366,-96.246c4.238,-11.941 0.755,-25.329 -8.77,-33.683c-2.917,-2.567 -6.3,-4.554 -9.963,-5.854Z" style="fill:#a7173d;"/><path d="M5698.42,7045.54c-36.346,65.504 -57.321,138.425 -61.338,213.233c-5.971,46.2 26.583,89.296 72.658,96.179c4.275,18.863 16.563,34.954 33.634,44.042c6.491,3.104 13.491,5.016 20.658,5.637c10.763,0.846 21.588,-0.358 31.9,-3.541c6.271,17.046 19.575,30.6 36.504,37.187c4.509,1.559 9.188,2.575 13.934,3.025c33.066,3.496 42.7,-12.412 42.7,-12.412c10.916,21.112 31.6,35.516 55.191,38.437c38.313,3.167 51.113,-22.35 53.867,-54.554l15.146,-160.871c16.3,-5.621 45.604,-10.075 63.842,-29.058c32.47,-33.854 21.954,-65.596 10.366,-89.858c-26.125,-54.875 -85.562,-119.7 -94.25,-156.58c-1.75,-7.566 -3.029,-15.229 -3.829,-22.954c-2.517,0.646 -5.108,0.971 -7.708,0.967l-217.267,-0c-6.333,0.004 -12.517,-1.946 -17.696,-5.588c-13.825,33.325 -29.967,65.642 -48.312,96.709Z" style="fill:#ed915d;"/><path d="M7181.21,6443.67c-6.383,40.904 -1.633,82.783 13.755,121.216c12.52,-1.637 25.045,-3.245 37.579,-4.829c73.483,-9.267 147.129,-17.487 219.912,-23.696c100.179,-9.129 200.767,-13.008 301.35,-11.62c0.213,0.004 0.421,0.008 0.629,0.008c16.967,-0 30.925,-13.963 30.925,-30.929c0,-0.838 -0.033,-1.675 -0.1,-2.513c-3.02,-47.017 -0.025,-94.225 8.913,-140.483c-223.55,21.467 -416.725,60.458 -612.963,92.846Z" style="fill:#a7173d;"/><path d="M6012.62,6923.48l0,-106.554l-279.129,0l-0,106.529c0.025,16.959 13.971,30.904 30.929,30.934l217.292,-0c16.954,-0 30.908,-13.954 30.908,-30.909Z" style="fill:#a7173d;"/><path d="M6379.83,6820.79l-0.2,-0c-6.029,-0 -10.987,-4.959 -10.987,-10.988c-0,-5.975 4.871,-10.908 10.842,-10.987c84.07,1.021 167.766,-11.375 247.933,-36.717c76.737,-24.133 140.983,-77.504 178.775,-148.517c1.879,-3.67 5.671,-5.991 9.8,-5.991c6.037,-0 11.004,4.966 11.004,11.004c0,1.767 -0.425,3.508 -1.237,5.079c-40.296,76.054 -108.95,133.271 -191.021,159.196c-82.409,26.133 -168.463,38.937 -254.909,37.921Zm1062.87,-279.329c-0.821,-1.571 -1.254,-3.321 -1.254,-5.1c-0,-6.038 4.971,-11.005 11.008,-11.005c4.071,0 7.821,2.255 9.725,5.85c27.634,56.025 74.488,100.3 131.984,124.725c56.162,24.163 124.458,33.359 205.22,36.688c5.867,0.233 10.563,5.117 10.563,10.987c-0,6.029 -4.963,10.996 -10.996,10.996c-0.142,0 -0.287,-0.004 -0.433,-0.012c-83.342,-3.434 -154.113,-13.042 -213.059,-38.409c-62.166,-26.358 -112.846,-74.183 -142.758,-134.721Zm-269.396,656.463c-0.404,5.733 -5.233,10.237 -10.983,10.237c-6.038,0 -11.009,-4.97 -11.009,-11.012c0,-0.229 0.005,-0.458 0.021,-0.692c2.884,-42.771 3.413,-90.108 2.392,-139.825c-1.021,-49.396 -3.612,-101.721 -6.979,-154.55l-0.096,-1.529c-4.083,-63.875 -9.404,-129.287 -14.417,-191.012c-3.875,-47.684 -7.57,-93.167 -10.47,-135.609c-0.017,-0.229 -0.025,-0.458 -0.025,-0.691c-0,-6.038 4.97,-11.009 11.012,-11.009c5.75,0 10.579,4.5 10.983,10.238c2.792,40.829 6.546,86.966 10.475,135.346c4.704,57.929 9.684,119.12 13.75,181.083c54.1,-7.288 67.492,-73.129 67.492,-146.113c-0.775,-43.541 -3.788,-87.016 -9.025,-130.249c-2.058,-19.613 -3.925,-37.342 -4.879,-51.817c-0.017,-0.229 -0.025,-0.458 -0.025,-0.688c-0,-6.041 4.971,-11.008 11.008,-11.008c5.783,0 10.629,4.55 10.988,10.317c0.95,14.408 2.787,31.762 4.795,50.958c5.33,43.975 8.4,88.196 9.2,132.488c0,84.558 -17.441,160.787 -88.145,168.241c3.033,49.104 5.362,98.05 6.329,145.175c1.046,50.617 0.517,98.629 -2.392,141.721Z" style="fill:#4d75eb;"/><path d="M6703.83,4175.21c-3.395,-1.962 -5.491,-5.6 -5.491,-9.521c-0,-6.037 4.966,-11.004 11.004,-11.004c1.937,0 3.842,0.509 5.517,1.479c62.925,36.117 121.8,78.871 175.612,127.534c51.408,46.821 96.933,99.716 135.571,157.529c38.633,-57.817 84.158,-110.712 135.571,-157.529c53.816,-48.663 112.691,-91.417 175.616,-127.533c1.684,-0.984 3.6,-1.5 5.55,-1.5c6.038,-0 11.005,4.966 11.005,11.004c-0,3.933 -2.113,7.583 -5.525,9.541c-61.567,35.338 -119.171,77.171 -171.821,124.779c-54.163,49.313 -101.596,105.538 -141.084,167.23c-2.016,3.187 -5.537,5.125 -9.312,5.125c-3.742,-0 -7.242,-1.909 -9.267,-5.054c-39.5,-61.717 -86.95,-117.967 -141.125,-167.3c-52.658,-47.609 -110.258,-89.438 -171.821,-124.78Z" style="fill:#e61f54;"/><path d="M6810.83,4418.71c12.1,-0.004 22.059,-9.962 22.059,-22.062c-0,-12.104 -9.959,-22.063 -22.063,-22.063c-12.1,0 -22.062,9.959 -22.062,22.063l0.004,-0c0.021,12.091 9.966,22.037 22.062,22.062Z" style="fill:#6e0f29;"/><path d="M7285.46,4362.46l0.005,0c12.108,0 22.066,-9.958 22.066,-22.062c0,-12.109 -9.958,-22.067 -22.066,-22.067c-12.105,0 -22.063,9.958 -22.063,22.067c0.021,12.096 9.967,22.037 22.058,22.062Z" style="fill:#6e0f29;"/><path d="M7285.46,4340.38c7.092,31.454 29.854,425.108 59.717,485.875" style="fill:none;stroke:#fff;stroke-width:12.29px;"/><path d="M6810.83,4396.62c-35.754,38.5 20.404,260.925 20.404,328.242c0,68.125 -9.833,142.196 -9.833,192.771" style="fill:none;stroke:#fff;stroke-width:12.29px;"/><path d="M7173.5,6444.46c-8.308,-76.658 -17.046,-139.762 -25.242,-199.004c-24.737,-178.729 -44.633,-322.462 -33.391,-695.05l1.412,-46.533c12.754,-418.175 14.025,-460.313 -96.379,-866.233c-5.908,-0.955 -11.425,-3.567 -15.904,-7.538l10.208,-11.679c1.571,1.379 3.388,2.45 5.354,3.158c2.013,0.704 4.138,1.029 6.267,0.95l8.033,-0.262l0,7.387c112.05,411.667 110.796,452.904 97.93,874.646l-1.421,46.529c-11.196,371.238 8.629,514.425 33.271,692.5c8.22,59.396 16.983,122.684 25.304,199.484l-15.446,1.645l0.004,0Z" style="fill:#a7173d;"/><path d="M4091.92,9781.04c24.712,41.862 -5.184,360.712 -14.646,427.07c-167.7,26.08 -116.771,149.071 39.525,122.738l98.312,-5.517c26.075,-111.129 65.83,-437.979 70.3,-529.779l26.392,-133.825l-36.75,-62.254c-76.333,-8.946 -150.221,-32.575 -217.579,-69.579l34.446,251.146Z" style="fill:#452507;"/><path d="M3403.99,8286.62c-299.208,34.408 -333.129,54.696 -174.254,320.646l303.913,21.425c38.896,2.225 73.225,26.633 88.096,62.637c139.504,325.617 146.491,841.179 653.308,908.125l133.308,225.796c26.371,46.713 35.396,101.279 25.475,154l-37.641,263.875c-167.692,26.079 -116.767,149.071 39.529,122.733l98.316,-5.512l67.642,-443.55c4.071,-25.513 4.125,-51.504 0.167,-77.033l-36.763,-248.746c355.075,2.446 471.284,-82.925 713.534,-156.975c33.404,181.2 343.645,363.35 448.816,430.921c51.934,31.945 123.292,296.625 -40.758,325.675c-70.392,7.937 -69.796,83.858 -18.067,106.287c15.446,6.708 193.142,-5.679 228.779,-4.912l1.271,-470.967c-65.775,-76.163 -185.179,-193.042 -184.616,-317.417c30.187,-157.587 1.883,-495.666 -138.05,-604.216c-0,-0 237.091,-187.684 238.587,-467.088c1.733,-322.292 -303.354,-619.387 -555.704,-570.5c-19.442,3.779 -33.604,20.958 -33.604,40.763c-0,10.429 3.929,20.487 11,28.154l4.441,4.854c4.488,4.971 10.167,8.717 16.496,10.892c532.321,191.116 422.029,732.1 38.821,767.854c-250.446,-62.225 -553.517,-6.909 -840.433,-9.9c-165.579,-1.721 -273.967,-144.213 -320.2,-246.542c-144.121,-318.892 -416.259,-417.337 -731.409,-171.279Z" style="fill:#69390b;"/><path d="M4249.79,10117.6c-36.467,-4.812 -80.617,-4.983 -106.779,-33.125c-15.384,-17.079 -31.742,-33.254 -48.992,-48.441c-5.571,75.462 -12.871,144.933 -16.742,172.095c-167.696,26.084 -116.767,149.075 39.525,122.738l98.313,-5.517c10.421,-44.4 23.016,-123.229 34.675,-207.75Z" style="fill:#f0f0f0;"/><path d="M4415.79,10105.6l-19.613,137.529c-167.696,26.075 -116.771,149.063 39.529,122.725l98.313,-5.512l46.646,-305.871c-10.217,-5.117 -22.6,-3.388 -31.021,4.329c-66.629,72.821 -77.679,73.908 -133.854,46.8Z" style="fill:#f0f0f0;"/><path d="M3742.58,8173.29l71.417,307.758c14.845,64.008 42.979,53.733 66.404,9.554l134.221,-253.142c15.27,-28.791 -0.95,-37.6 -25.905,-53.179c-60.479,-37.758 -182.079,-77.312 -238.137,-67.8c-31.967,5.425 -12.912,35.638 -8,56.809Z" style="fill:#c0875c;"/><path d="M4904.46,9557.08c-111.3,25.242 -225.287,36.646 -339.383,33.954l7.987,54.038c115.867,151.929 252.713,135.121 275.175,222.462c26.838,104.296 -2.47,301.259 -137.645,295.942c-95.292,-3.758 -109.705,89.617 -70.771,131.379c21.625,23.196 236.15,-4.008 240.383,-6.091c17.338,-8.525 29.929,-27.759 33.454,-67.675c5.121,-57.967 139.292,-493.255 128.796,-502.705c-26.687,-24.054 -126.112,-109.3 -137.996,-161.304Z" style="fill:#452507;"/><path d="M4710.58,10163.5c-95.291,-3.758 -109.704,89.617 -70.775,131.379c21.629,23.196 236.154,-4.008 240.388,-6.092c17.337,-8.524 29.929,-27.758 33.454,-67.675c10.942,-55.791 24.675,-111 41.154,-165.412c-18.375,-4.517 -37.821,-1.271 -53.733,8.967c-51.875,32.57 -71.492,39.329 -81.442,36.662c-21.358,39.879 -63.85,64.104 -109.046,62.171Z" style="fill:#f0f0f0;"/><path d="M5686.67,10190.7c-70.392,7.941 -69.792,83.858 -18.067,106.287c15.454,6.709 193.133,-5.679 228.779,-4.912l0.663,-244.688c-33.975,-0.254 -68.621,-20.421 -109.767,-12.791c2.367,71.854 -21.679,141.945 -101.608,156.104Z" style="fill:#f0f0f0;"/><path d="M3666.49,8813.04c177.829,-0 454.816,-153.584 486.929,-319.217c-3.525,-6.383 -6.838,-12.687 -9.942,-18.912l-0.033,-0.084c-2.867,-5.737 -5.546,-11.379 -8.042,-16.921c-8.4,-18.587 -17.229,-36.412 -26.487,-53.479c-32.105,165.642 -291.517,331.275 -469.346,331.275c9.454,24.996 18.337,50.859 26.921,77.338Z" style="fill:#1a73e8;"/><path d="M4131.51,9403.88c-87.049,-132.525 -30.174,-291.854 -171.133,-202.575c-53.546,33.908 -166.925,-89.092 -215.971,-132.467c59.934,185.259 139.996,363.484 313.063,461.063c67.358,37.004 141.246,60.629 217.579,69.575c-126.896,-78.567 -94.917,-121.558 -143.538,-195.596Z" style="fill:#f0f0f0;"/><path d="M5257.21,7946.5c66.125,22.929 128.442,55.642 184.875,97.042c52.767,38.591 96.909,87.771 129.596,144.391c14.6,-5.037 28.709,-18.545 38.963,-52.537c12.5,-41.433 76.741,-1.508 115.058,-7.796c-40.433,-66.567 -92.646,-125.225 -154.079,-173.104c-96.538,-74.438 -209.092,-112.738 -312.746,-92.654c-19.442,3.775 -33.604,20.958 -33.604,40.758c-0,10.429 3.929,20.483 11,28.15l4.442,4.858c4.483,4.975 10.162,8.725 16.495,10.892Z" style="fill:#f0f0f0;"/><path d="M3603.51,8334.71c18.209,0 33.188,-14.983 33.188,-33.191c-0,-18.209 -14.979,-33.192 -33.188,-33.192c-18.208,0 -33.191,14.983 -33.191,33.188c0.033,18.195 14.995,33.158 33.191,33.195Z" style="fill:#452507;"/><path d="M6947.29,3799.08c0.008,47.93 47.575,86.8 106.216,86.8c58.654,0 106.213,-38.87 106.213,-86.808l-212.429,0.008Z" style="fill:#fff;"/></g></g></svg>