<svg xmlns="http://www.w3.org/2000/svg" viewBox="0 0 708.8089 600.3413"><g id="Layer_2" data-name="Layer 2"><g id="Modular_Solution" data-name="Modular Solution"><path d="M9.95364,209.4828c26.0866-64.7553,131.4589-116.1715,192.8398-116.1715,57.1529,0,40.9504-41.978,106.4474-76.3409,145.6464-76.4144,236.0106,127.6851,140.3405,167.6885-180.5794,75.5068-26.422,153.538-138.2837,249.1251-141.7663,121.1414-360.6125-77.1775-301.344-224.3012Zm536.7095,49.075c-55.0086-32.561-99.0703-10.0148-122.7592,37.2212-36.9439,73.6657,24.8763,200.272,156.2939,183.3988,183.4376-23.5526,113.0927-257.6246,22.3461-220.1882C576.65874,269.6677,559.35074,266.0677,546.66314,258.5578Z" fill="#fdeff2" fill-rule="evenodd"/><path d="M106.543,460.9728c-5.9531-8.3959-12.6383-15.9273-16.2562-25.9931l16.4019,164.7808h33.2404l16.4022-164.7808c-3.6179,10.0658-10.3031,17.5972-16.2562,25.9931a23.42964,23.42964,0,0,0-5.9641-9.9697l-7.1875,9.7991a5.80755,5.80755,0,0,1-.7838.8753l10.7898,109.671a2.77078,2.77078,0,0,1-.2758,1.5792l-12.0994,24.1444a1.39337,1.39337,0,0,1-2.4916,0l-12.0992-24.1444a2.76747,2.76747,0,0,1-.2758-1.5792l10.7895-109.671a5.82782,5.82782,0,0,1-.7835-.8753l-7.1872-9.7986A23.428,23.428,0,0,0,106.543,460.9728Z" fill="#a5d6f6" fill-rule="evenodd"/><path d="M90.28684,434.9797c3.6179,10.0658,10.3031,17.5972,16.2562,25.9931a23.428,23.428,0,0,1,5.9635-9.9692,16.59,16.59,0,0,1,10.8025-4.2134l-25.6861-15.8533Z" fill="#62b9e1" fill-rule="evenodd"/><path d="M123.309,446.7902a16.59,16.59,0,0,0-10.8025,4.2134l7.1872,9.7986a5.82782,5.82782,0,0,0,.7835.8753,4.0338,4.0338,0,0,0,5.6625,0,5.80755,5.80755,0,0,0,.7838-.8753l7.1875-9.7991A16.59194,16.59194,0,0,0,123.309,446.7902Z" fill="#e51e55" fill-rule="evenodd"/><path d="M123.309,446.7902a16.59194,16.59194,0,0,1,10.802,4.2129,23.42964,23.42964,0,0,1,5.9641,9.9697c5.9531-8.3959,12.6383-15.9273,16.2562-25.9926l-7.3375-4.0433Z" fill="#62b9e1" fill-rule="evenodd"/><path d="M136.92954,571.3485l-10.7898-109.671a4.0338,4.0338,0,0,1-5.6625,0l-10.7895,109.671a2.76747,2.76747,0,0,0,.2758,1.5792l12.0992,24.1444a1.39337,1.39337,0,0,0,2.4916,0l12.0994-24.1444A2.77078,2.77078,0,0,0,136.92954,571.3485Z" fill="#e51e55" fill-rule="evenodd"/><path d="M106.68874,599.7605,90.28684,434.9802l-69.4726,38.2873a12.28844,12.28844,0,0,0-6.3414,8.7738c-7.4752,40.0428-9.1054,79.759-9.7302,117.7192h101.9461Z" fill="#f4f4f4" stroke="#cbcbcb" stroke-linecap="round" stroke-linejoin="round" stroke-width="0.4989" fill-rule="evenodd"/><path d="M156.33134,434.9797l-16.4022,164.7808h101.9464c-.6251-37.9602-2.2553-77.6764-9.7302-117.7192a12.29,12.29,0,0,0-6.3414-8.7738Z" fill="#f4f4f4" stroke="#cbcbcb" stroke-linecap="round" stroke-linejoin="round" stroke-width="0.4989" fill-rule="evenodd"/><path d="M157.98644,354.0965c0,30.1663-15.2042,57.4619-34.6782,57.4619-19.4808,0-34.6779-27.2956-34.6779-57.4619,0-30.1697,15.1974-35.1924,34.6779-35.1924C142.78224,318.9041,157.98644,323.9268,157.98644,354.0965Z" fill="#f7c475" fill-rule="evenodd"/><path d="M98.23554,548.5376a17.75533,17.75533,0,0,0-.0148,3.9622,30.20189,30.20189,0,0,0,3.9512-.5306c4.5239-.6421,10.3156.1463,11.8715-5.3439.8099-2.8584-3.5061-17.0606-4.4288-20.6252-2.435-9.4104-3.3633-18.9683-12.9988-23.8484-1.3831-.7007-2.9308-.8736-4.3056-1.7793l-.4419-.2906-.15-.5071a4.73477,4.73477,0,0,0-2.8287-3.0656l-.8753-.3379-.0485-.9366c-.1321-2.541-.0992-5.2007-.1241-7.7494q-.06975-7.028-.1077-14.057c-.0454-7.2014-.0984-14.4209-.0984-21.6215,0-10.2878,1.1075-15.5106,8.5328-21.1414a17.94373,17.94373,0,0,1,11.3318-3.6258v-1.5491q-.6411-.00255-1.2829.0335a21.09938,21.09938,0,0,0-16.8588,10.3697c-3.0495,5.1358-3.0864,10.1145-2.965,15.8822.1508,7.1597.0722,14.4128.0739,21.5779q.0018,7.0425-.0309,14.0851c-.0153,2.539.0567,5.3453-.1269,7.8675l-.0655.8958-.8314.3387a4.73878,4.73878,0,0,0-2.7258,2.9554l-.1554.4955-.4351.2832a51.49754,51.49754,0,0,1-4.7778,2.0741,17.28374,17.28374,0,0,0-6.1846,5.1341c-3.5391,4.5848-5.0176,13.1165-6.5169,18.724-.9272,3.4667-5.1156,17.4878-4.3857,20.2779a6.24246,6.24246,0,0,0,5.6296,4.8197l5.9998.6203.0349.0048a37.94152,37.94152,0,0,0,4.1266.6262,15.52953,15.52953,0,0,0,.0729-3.7741,1.25239,1.25239,0,0,0-.042-.2599c-.6236-.2475-3.5798.5573-4.2148.7081-2.3006.5454-5.0689,1.072-7.217-.2138-3.8435-2.3003-2.7286-5.8354-1.8329-9.3914.7336-2.914,1.4865-5.8235,2.2351-8.7341,1.9471-7.5711,3.3466-19.082,9.2648-24.4826a19.92679,19.92679,0,0,1,7.0387-4.0584l1.1296-.3109.5386,1.0406a4.72191,4.72191,0,0,0,8.3826.0164l.5454-1.0431,1.1321.3217a19.11325,19.11325,0,0,1,11.0132,9.6364,34.08908,34.08908,0,0,1,1.4769,4.4254c.6366,2.2031,1.2223,4.4249,1.7949,6.6456,1.0612,4.115,2.0554,8.2445,3.0875,12.3661.6947,2.7743,1.788,5.2458,1.9301,8.1754.2097,4.3376-2.2808,6.4888-6.6153,6.1674C103.67634,549.6368,100.47144,548.4911,98.23554,548.5376Z" fill-rule="evenodd"/><path d="M139.267,427.0395a20.35335,20.35335,0,0,1,16.4664,8.7033q.3747.5391.6971,1.1012c2.3196,4.0329,2.7167,8.8855,2.7408,13.4646.0292,5.578-.0054,11.1662-.0318,16.7493q-.00165.4269-.0036.8547v.0116q-.0078,1.6833-.0131,3.3653-.0102,3.19365-.0116,6.3916-.00045.2049-.0003.4099c-.0045,3.6473-.0102,7.2963-.0388,10.9417a5.148,5.148,0,1,0,1.4958.0422c-.0292-3.2992-.0181-6.6126-.0017-9.9221.0139-2.7235.032-5.4439.0354-8.1519q.00345-2.4249.0068-4.8495.0129-8.0673.0278-16.1345c.0091-5.2625-.288-9.4654-2.7589-13.8061a22.23285,22.23285,0,0,0-1.2969-2.0112,21.58588,21.58588,0,0,0-17.3134-8.7098Z" fill-rule="evenodd"/><path d="M159.02364,348.0207a32.66593,32.66593,0,0,1-1.0375,6.3076c.0003-.0773.0003-.1547.0003-.2318q0-2.4555-.1327-4.6922a57.21186,57.21186,0,0,0-.9521-7.7499,74.30187,74.30187,0,0,0-7.3517-4.8669c-11.6311-6.7158-19.925-6.9071-20.876-6.906-7.2955,4.11-20.7116,10.7895-32.2189,11.6819a28.87287,28.87287,0,0,1-5.237-.0386q-.75135-.07905-1.4366-.201a56.76879,56.76879,0,0,0-1.0236,8.1672q-.1266,2.19915-.1275,4.6055c0,.0859,0,.1715.0003.2573a32.644,32.644,0,0,1-1.0375-6.2254,21.53807,21.53807,0,0,1-2.4664-8.5088c-8.3753-5.4357-.0797-20.2314,11.4916-26.0172,13.6208-6.8105,35.7542-8.513,42.5645-.5686.0357.0414.0706.0828.1051.1241C155.26234,317.0165,168.33174,332.1209,159.02364,348.0207Z" fill="#da574a" fill-rule="evenodd"/><path d="M123.30854,411.5584c-8.2761,0-15.7788-4.926-21.6717-12.9058a134.52405,134.52405,0,0,1-4.0139,32.2843l25.6861,15.8533,25.6848-15.8533a134.5104,134.5104,0,0,1-4.0133-32.2883C139.08644,406.6307,131.58314,411.5584,123.30854,411.5584Z" fill="#deb069" fill-rule="evenodd"/><rect x="46.00804" y="500.6695" width="1.4785" height="99.091" fill="#cbcbcb"/><rect x="199.13134" y="500.6695" width="1.4785" height="99.091" fill="#cbcbcb"/><path d="M120.47724,461.6775l-.6137,6.2391a21.89194,21.89194,0,0,1,6.7326-1.603l-.4564-4.6361A4.0338,4.0338,0,0,1,120.47724,461.6775Z" fill="#ba1944" fill-rule="evenodd"/><path d="M113.48534,388.604l19.6478-.0005c0,4.4333-4.3994,8.0285-9.8241,8.0285C117.88524,396.632,113.48644,393.0368,113.48534,388.604Z" fill="#fff" fill-rule="evenodd"/><path d="M99.68574,354.4083h16.3046a3.3975,3.3975,0,0,1,3.3911,3.3911v1.0961a9.137,9.137,0,0,1,3.9265-.904,9.29713,9.29713,0,0,1,3.9271.9145v-1.1066a3.37926,3.37926,0,0,1,.995-2.3919l.0042-.0043a3.37935,3.37935,0,0,1,2.3919-.9949h16.3046a3.40216,3.40216,0,0,1,3.2222,2.3349h7.7567a1.05615,1.05615,0,1,1,0,2.1123h-7.5878v4.7617a3.3842,3.3842,0,0,1-.9952,2.3916l-.0043.0042a3.386,3.386,0,0,1-2.3916.9953h-16.3046a3.39768,3.39768,0,0,1-3.3911-3.3911v-2.3284a7.68938,7.68938,0,0,0-3.9271-1.1934,7.52505,7.52505,0,0,0-3.9265,1.1894v2.3324a3.38429,3.38429,0,0,1-.9953,2.3916l-.0042.0042a3.386,3.386,0,0,1-2.3916.9953H99.68574a3.39768,3.39768,0,0,1-3.3911-3.3911v-4.7617h-7.5878a1.05615,1.05615,0,1,1,0-2.1123h7.7576a3.40716,3.40716,0,0,1,.8252-1.3357l.0042-.0043a3.37935,3.37935,0,0,1,2.3919-.9949Zm16.3046,2.1124H99.68574a1.27726,1.27726,0,0,0-1.2787,1.2787v5.8178a1.28569,1.28569,0,0,0,1.2787,1.2787h16.3046a1.272,1.272,0,0,0,.902-.3725l.0042-.0042a1.272,1.272,0,0,0,.3725-.902v-5.8178a1.28517,1.28517,0,0,0-1.2787-1.2787Zm30.9404,0h-16.3046a1.27743,1.27743,0,0,0-1.2787,1.2787v5.8178a1.28534,1.28534,0,0,0,1.2787,1.2787h16.3046a1.27162,1.27162,0,0,0,.902-.3725l.0043-.0042a1.27314,1.27314,0,0,0,.3724-.902v-5.8178a1.28517,1.28517,0,0,0-1.2787-1.2787Z" fill="#69390b" fill-rule="evenodd"/><path d="M115.99064,356.5207H99.68574a1.27726,1.27726,0,0,0-1.2787,1.2787v5.8178a1.28569,1.28569,0,0,0,1.2787,1.2787h16.3049a1.273,1.273,0,0,0,.9017-.3725l.0045-.0042a1.27369,1.27369,0,0,0,.3722-.902v-5.8178a1.28569,1.28569,0,0,0-1.2784-1.2787Z" fill="#fff" fill-rule="evenodd" opacity="0.5"/><path d="M129.34714,357.7994v5.8178a1.28586,1.28586,0,0,0,1.2787,1.2787h16.3049a1.2734,1.2734,0,0,0,.902-.3725l.0043-.0042a1.272,1.272,0,0,0,.3727-.902v-5.8178a1.28621,1.28621,0,0,0-1.279-1.2787h-16.3049a1.27743,1.27743,0,0,0-1.2787,1.2787Z" fill="#fff" fill-rule="evenodd" opacity="0.5"/><path d="M286.61364,339.5377a10.88575,10.88575,0,0,0-9.8391-18.606c.0927-.6579.1891-1.2855.2857-1.8729a47.22678,47.22678,0,0,0-.1528-17.2805c-2.0729-10.0202-6.2195-13.4759-6.2195-13.4759-17.009-17.0076-31.3299-9.2141-31.3299-9.2141s-14.3212-7.7935-31.3296,9.2146c0,0-4.1465,3.4552-6.2195,13.4754q-.37335,1.80315-.5822,3.6272a15.82066,15.82066,0,0,0-7.4574,25.9001,13.08385,13.08385,0,0,0-6.5515,19.2096,21.90313,21.90313,0,0,0,10.0707,42.4678,19.30854,19.30854,0,0,0,20.5316,10.7731,19.29528,19.29528,0,0,0,33.986-3.0297,19.294,19.294,0,0,0,29.7187-12.435q.5094.02115,1.0239.0212a24.55692,24.55692,0,0,0,4.0649-48.7749Z" fill="#333" fill-rule="evenodd"/><path d="M239.35774,266.589a44.29306,44.29306,0,0,0-28.5018,10.3609,2.78472,2.78472,0,0,0-.1646,4.0986l9.7304,9.7302a27.66621,27.66621,0,0,1,37.8723,0l9.7305-9.7302a2.78512,2.78512,0,0,0-.165-4.0986A44.29387,44.29387,0,0,0,239.35774,266.589Z" fill="#fdeff2" fill-rule="evenodd"/><path d="M210.75994,281.1174l1.9675,1.9675a37.90276,37.90276,0,0,1,53.2599,0l1.9678-1.9675a40.68533,40.68533,0,0,0-57.1952,0Z" fill="#e61f54" fill-rule="evenodd"/><path d="M239.37224,419.7429l14.3093-17.9017,2.7961-3.4982c-1.9806-6.4678-2.6309-17.1207-2.2074-28.8275-5.1755,4.102-12.2822,9.0893-14.9125,9.0899-2.6254-.0006-9.7095-4.9683-14.8824-9.0661.4215,11.6978-.2288,22.3402-2.2085,28.8037l11.3596,14.2112Z" fill="#b66b36" fill-rule="evenodd"/><path d="M259.213,365.327c8.7245-8.2802,9.6293-21.2303,9.6313-32.7943a14.91613,14.91613,0,0,0-6.0231-11.9772l-23.4635-19.3521L215.894,320.5555a14.91584,14.91584,0,0,0-6.0228,11.9772c.002,11.564.9068,24.5141,9.631,32.7943,1.0372.9851,2.8431,2.5249,4.9731,4.2123,5.1729,4.0978,12.257,9.0655,14.8824,9.0661,2.6303-.0006,9.737-4.9879,14.9125-9.0899C256.38724,367.8371,258.18064,366.3073,259.213,365.327Z" fill="#c17b36" fill-rule="evenodd"/><path d="M231.19714,360.4753l16.3213-.0006c0,3.6828-3.6544,6.6694-8.1607,6.6694C234.85214,367.1441,231.19794,364.1575,231.19714,360.4753Z" fill="#fff" fill-rule="evenodd"/><polygon points="233.626 412.554 222.267 398.343 215.724 400.238 222.562 408.793 235.343 424.783 239.372 419.743 233.626 412.554" fill="#e61f54" fill-rule="evenodd"/><polygon points="256.478 398.343 263.021 400.238 260.132 403.853 239.372 429.825 235.343 424.783 239.372 419.743 253.682 401.841 256.478 398.343" fill="#ba1944" fill-rule="evenodd"/><path d="M284.09724,560.4303c-3.5841-41.3784,8.0326-58.4892,15.6348-72.6006l4.1329,8.4838,35.4201-19.2028-27.4114-54.6032a23.54131,23.54131,0,0,0-14.9788-12.4571l-26.5326-7.6856-7.3414-2.1265-2.8891,3.6144-20.7595,25.9719-16.8103-21.0314-6.8383-8.5549-8.2054,2.3768-25.6686,7.4353a23.54319,23.54319,0,0,0-14.9789,12.4571l-27.411,54.6032,35.4198,19.2028,4.1329-8.4838c7.6025,14.1114,19.2189,31.2222,15.635,72.6006-1.3118,15.1642-6.1066,26.9391-11.0313,39.3304h111.5124C290.20364,587.3694,285.40884,575.5945,284.09724,560.4303Z" fill="#62b9e1" fill-rule="evenodd"/><polygon points="174.88 496.313 139.46 477.111 136.143 483.719 145.123 488.587 167.266 500.592 171.64 502.963 174.88 496.313" fill="#e61f54" fill-rule="evenodd"/><polygon points="339.285 477.111 303.865 496.313 307.105 502.963 311.479 500.592 333.622 488.587 342.602 483.719 339.285 477.111" fill="#e61f54" fill-rule="evenodd"/><path d="M155.56934,531.666l11.6963-31.0742-22.1425-12.0047-7.6649,38.3797c-3.9677,18.2871-.1503,46.4011,2.3034,72.7939h12.8747C155.80434,576.827,163.03894,553.4562,155.56934,531.666Z" fill="#c17b36" fill-rule="evenodd"/><path d="M311.47914,500.5918l11.6963,31.0742c-7.4696,21.7902-.2353,45.161,2.933,68.0947h12.8747c2.4536-26.3928,6.2711-54.5068,2.3031-72.7939l-7.6646-38.3797Z" fill="#c17b36" fill-rule="evenodd"/><path d="M300.51044,451.0025a.85053.85053,0,0,1,1.5508-.699c3.9688,8.7267,5.0658,15.4366,4.4215,21.369-.6446,5.9323-3.0197,11.0233-6.0021,16.5597a.85.85,0,1,1-1.4972-.8051c2.8942-5.3722,5.1965-10.2954,5.8093-15.9349C305.40564,465.8518,304.34094,459.4257,300.51044,451.0025Z" fill="#cdc1c4" fill-rule="evenodd"/><path d="M176.68344,450.3035a.85057.85057,0,0,1,1.5509.699c-3.8308,8.4232-4.8957,14.8493-4.2829,20.4897.6129,5.6395,2.9154,10.5627,5.8096,15.9349a.85.85,0,1,1-1.4972.8051c-2.9821-5.5364-5.3578-10.6274-6.0024-16.5597C171.61714,465.7401,172.71474,459.0302,176.68344,450.3035Z" fill="#0095ce" fill-rule="evenodd"/><path d="M270.07714,454.4015h10.222a.49109.49109,0,0,1,.4901.4904v6.3241a.47223.47223,0,0,1-.1233.3254l-5.1112,5.7646a.4902.4902,0,0,1-.7336,0l-5.1108-5.7646a.4725.4725,0,0,1-.1236-.3254v-6.3241A.49129.49129,0,0,1,270.07714,454.4015Z" fill="#e51e55" fill-rule="evenodd"/><rect x="203.10404" y="459.4617" width="2.8389" height="9.269" fill="#fff"/><path d="M204.52284,451.6213h0a1.77265,1.77265,0,0,1,1.7677,1.7666v8.2122h-3.5346v-8.2122A1.77222,1.77222,0,0,1,204.52284,451.6213Z" fill="#e61f54" fill-rule="evenodd"/><rect x="194.19674" y="462.4601" width="25.1547" height="6.2706" fill="#fff"/><path d="M206.72084,454.2955h.0002a.4301.4301,0,0,1,.4301.4301v10.3866a.4301.4301,0,0,1-.4301.4301h-.0002a.4303.4303,0,0,1-.4303-.4303V454.7258a.4303.4303,0,0,1,.4303-.4303Z" fill="#ba1944"/><path d="M566.45494,547.904c-13.1346,18.7325-16.2658,36.8306-15.7068,51.8567h103.0382a85.9503,85.9503,0,0,0-14.5097-50.0351q-.6063-.9099-1.2432-1.8185l-.0102-.0144q-4.4697,1.56945-8.8688,2.7944c-22.3566,6.2181-43.3304,5.6608-62.6913-2.7944Z" fill="#4d75eb" fill-rule="evenodd"/><path d="M579.18784,427.5098a32.41189,32.41189,0,0,1,.1205-19.7362l-.042-.1491-.0785.0278-19.351,6.8627-13.6199,4.8302a11.33,11.33,0,0,0-7.2365,6.5594l-23.5287,61.9622,5.9037,1.7566,18.2205,5.4213,2.8837.858,9.5397-24.6963a.8395.8395,0,0,1,.9522-.5244.80571.80571,0,0,1,.68.8513c-3.7429,30.0863,16.8279,11.5815,12.8234,76.3707l.0082-.0113c19.3609,8.4552,40.3347,9.0125,62.6913,2.7944q4.399-1.2234,8.8688-2.7944l.0102.0144a240.27329,240.27329,0,0,1-.9771-26.9776c.125-4.3211.4178-8.0569.8325-11.3193,1.2019-9.4518,3.4316-14.9284,5.5942-19.1389,4.1746-8.1295,8.0986-11.5413,3.8919-29.7375a.84483.84483,0,0,1,1.4202-.788l17.2726,17.2724,1.9352-1.7235,15.2589-13.5865,2.2811-2.0313-42.6311-45.8815a12.223,12.223,0,0,0-8.2301-4.0028l-7.803-.6509-20.2368-1.6889-.153-.0133-.0063.0128a32.421,32.421,0,0,1,.1593,19.8575,19.45681,19.45681,0,0,0-13.727-13.727A19.45694,19.45694,0,0,0,579.18784,427.5098Z" fill="#e61f54" fill-rule="evenodd"/><rect x="623.53244" y="457.762" width="2.4642" height="8.0447" fill="#fff"/><path d="M624.76384,450.9572h0a1.53875,1.53875,0,0,1,1.5344,1.5335v7.1274h-3.0676v-7.1274A1.53811,1.53811,0,0,1,624.76384,450.9572Z" fill="#00b9ff" fill-rule="evenodd"/><rect x="615.80184" y="460.3645" width="21.8319" height="5.4422" fill="#a7173d"/><path d="M626.67154,453.2784h.0003a.3733.3733,0,0,1,.3733.3733v9.0145a.3733.3733,0,0,1-.3733.3733h0a.3736.3736,0,0,1-.3736-.3736v-9.0142a.3733.3733,0,0,1,.3733-.3733Z" fill="#0086b9"/><rect x="599.82135" y="468.74618" width="51.11758" height="79.61489" transform="translate(-179.4411 553.16162) rotate(-42.29013)" fill="#cbcbcb"/><path d="M553.46744,375.8172l.108-.6488c4.4351-12.1241,5.6931-25.0189,5.9675-33.7023.3053-9.748,4.0909-18.7313,10.3878-24.6458a33.70645,33.70645,0,0,1,45.9746,0c6.2966,5.9145,10.0822,14.8978,10.3875,24.6458.2744,8.6834,1.5324,21.5782,5.9675,33.7023l.1083.6488C624.64994,396.1564,561.18614,396.1564,553.46744,375.8172Z" fill="#381e0e" fill-rule="evenodd"/><path d="M596.66654,390.9962a62.76094,62.76094,0,0,0,8.3172-5.883,61.21988,61.21988,0,0,0,4.7531-4.2347c6.9041-7.1646,7.4151-28.9236,7.4534-36.4258a21.89375,21.89375,0,0,1-16.6805-8.6683c-5.464,7.7507-13.8138,9.9377-20.0865,10.3634a39.53349,39.53349,0,0,1-11.7774-1.0048c.0691,7.8085.7489,28.7812,7.448,35.7355a60.70417,60.70417,0,0,0,4.7523,4.2341,62.83444,62.83444,0,0,0,8.3191,5.8836,5.78911,5.78911,0,0,0,7.5013,0Z" fill="#e29c79" fill-rule="evenodd"/><path d="M592.91774,381.7575c-3.8755,0-7.0189-2.5688-7.0197-5.7368l14.04-.0002C599.938,379.1887,596.79474,381.7575,592.91774,381.7575Z" fill="#fff" fill-rule="evenodd"/><path d="M580.84614,385.1126c.1718,1.8706.2801,3.5739.3251,5.2007.1522,5.4726-.4102,10.086-1.6653,17.339a30.21856,30.21856,0,0,0,13.409,6.1305,30.21956,30.21956,0,0,0,13.409-6.1305c-1.2552-7.2525-1.8176-11.8661-1.6654-17.3381.0451-1.6271.1534-3.3305.3252-5.201a62.76094,62.76094,0,0,1-8.3172,5.883,5.78911,5.78911,0,0,1-7.5013,0A62.83444,62.83444,0,0,1,580.84614,385.1126Z" fill="#ce8e6d" fill-rule="evenodd"/><path d="M579.34714,407.6523a32.42176,32.42176,0,0,0-.1593,19.8575,19.45694,19.45694,0,0,1,13.7271-13.727A31.6248,31.6248,0,0,1,579.34714,407.6523Z" fill="#fff" fill-rule="evenodd"/><path d="M592.91494,413.7828a19.45681,19.45681,0,0,1,13.727,13.727,32.421,32.421,0,0,0-.1593-19.8575A31.625,31.625,0,0,1,592.91494,413.7828Z" fill="#fff" fill-rule="evenodd"/><path d="M592.91494,432.9229a2.7067,2.7067,0,1,0-2.7065-2.7068A2.712,2.712,0,0,0,592.91494,432.9229Z" fill="#333" fill-rule="evenodd"/><path d="M592.91494,444.1075a2.70665,2.70665,0,1,0-2.7065-2.7068A2.71191,2.71191,0,0,0,592.91494,444.1075Z" fill="#333" fill-rule="evenodd"/><path d="M592.91494,455.2922a2.70665,2.70665,0,1,0-2.7065-2.7068A2.712,2.712,0,0,0,592.91494,455.2922Z" fill="#333" fill-rule="evenodd"/><path d="M590.20844,430.2163a2.7065,2.7065,0,1,0,2.7065-2.7065A2.70683,2.70683,0,0,0,590.20844,430.2163Z" fill="#333" fill-rule="evenodd"/><path d="M592.91494,438.6945a2.70665,2.70665,0,1,0,2.7065,2.7065A2.70677,2.70677,0,0,0,592.91494,438.6945Z" fill="#333" fill-rule="evenodd"/><path d="M595.62144,452.5859a2.7065,2.7065,0,1,0-2.7065,2.7066A2.70683,2.70683,0,0,0,595.62144,452.5859Z" fill="#333" fill-rule="evenodd"/><path d="M516.25614,519.4459c0,27.5505,7.6335,49.4889,9.1497,80.3148h10.8595c-2.035-28.2052,5.3558-61.7553-4.208-81.2429l7.5186-23.4731-18.2205-5.4213Z" fill="#e29c79" fill-rule="evenodd"/><path d="M592.81514,513.7834c-7.7754,3.6867-1.4803,8.2953,3.02,6.499.6684.0893,1.6421.9388,6.2328,6.0253,4.0839,4.525,7.223,6.1379,10.3357,5.9638,4.5323-.2531,9.0083-4.295,16.2607-8.6513a71.42564,71.42564,0,0,1,8.392-2.6907c10.0715-2.5818,20.3984-3.1793,30.3457-4.1626,14.6676-1.45,28.51-3.7387,39.4897-14.4689a6.31026,6.31026,0,0,0,.6231-8.3585l-24.253-32.0313-15.2589,13.5865,17.1029,17.1031c-10.1189,3.9646-18.1797,8.8844-28.2844,12.5374a83.91689,83.91689,0,0,1-18.9326,4.475,108.6403,108.6403,0,0,1-12.9436.7316c-9.9654-.82-17.5631-12.8939-17.8886-9.0994-.4147,4.8407,1.3105,6.804,2.3851,8.1102a80.00583,80.00583,0,0,0-14.6228,3.5869C594.10664,513.2094,593.43254,513.4909,592.81514,513.7834Z" fill="#e29c79" fill-rule="evenodd"/><path d="M614.76864,476.1572l4.479-4.074a.291.291,0,0,1,.4102.0193l2.5208,2.7714a.27859.27859,0,0,1,.0754.1916l.0579,4.563a.29014.29014,0,0,1-.3215.2922l-4.5368-.4887a.28034.28034,0,0,1-.1837-.0932l-2.5206-2.7715A.29085.29085,0,0,1,614.76864,476.1572Z" fill="#e51e55" fill-rule="evenodd"/><path d="M452.19974,472.3275V599.5941h104.3441V568.4019c1.984-15.7734-1.6208-28.4505-.9813-44.0765.4402-10.7555,1.091-21.8177,1.4419-32.9048l3.5079,9.9592,5.9253-2.0772,26.1428-9.165,10.3187-3.617-17.4685-58.7871a20.73046,20.73046,0,0,0-12.8279-13.8552l-44.4946-17.0419-37.9534,33.9245-32.2583,28.8337A16.53143,16.53143,0,0,0,452.19974,472.3275Z" fill="#22acc1" fill-rule="evenodd"/><path d="M521.97114,287.9253c-3.2185-12.3981-13.5556-21.3363-25.8146-21.3363h-13.1936c-12.2482,0-22.5816,8.9263-25.8077,21.3117a32.40384,32.40384,0,0,0-.9695,6.0032,21.25985,21.25985,0,0,0-2.3051,8.2052c-7.827,5.2415-.0745,19.5088,10.7396,25.0883,12.729,6.5673,33.4137,8.2088,39.7783.5482.0335-.04.0661-.0799.0984-.1196,27.688-6.9013,19.893-30.2862,19.893-30.2862-.0196.0164-.0389.0331-.0579.0499a17.61113,17.61113,0,0,0-1.3912-3.3818A32.42785,32.42785,0,0,0,521.97114,287.9253Z" fill="#22acc1" fill-rule="evenodd"/><path d="M490.18024,288.5867c17.7883,0,32.2087,14.9598,32.2087,33.4134v8.3307c0,15.0267-11.1617,44.5836-32.2597,44.5836-21.0268,0-32.2087-29.382-32.2087-44.3821l.0267-8.5322h.0244C457.97164,303.5465,472.392,288.5867,490.18024,288.5867Z" fill="#fca163" fill-rule="evenodd"/><path d="M462.91584,303.767c.3041,5.6849.6803,5.6101,1.3175,10.7969,1.2467,10.1461-3.6221,11.3701-4.9286,11.8273.5417.9754,3.0971,6.2892-1.3842,8.1286-3.8871,1.3507-6.2614-2.3014-6.2614-6.2776-5.2741,2.9668-12.5793-5.8527-4.7307-11.3298-9.423-1.9854-5.1951-14.5513,1.5652-12.8837-4.9821-9.1554,9.4269-13.3121,13.0125-7.5648,4.2826-5.5219,15.8332-10.4151,22.483-11.4024,13.8353-2.054,14.5295,10.601-3.9725,11.7547C473.12814,297.2457,467.93394,298.7528,462.91584,303.767Z" fill="#322638" fill-rule="evenodd"/><path d="M515.76154,301.2218c-2.535,4.4734,1.3153,6.448,4.1576,9.2855,2.4698,1.9165,2.8802,11.5415,2.3592,13.9487,5.5659.4385,13.7285-24.7399-6.0772-29.8341-2.5372-.6528-9.6525-8.8682-17.6567-7.5506-3.6402.5981-6.1302,3.4336-3.3726,6.2968,3.5844,3.7205,11.9483,3.1136,11.9338,3.1853C506.33264,300.3743,511.38284,303.811,515.76154,301.2218Z" fill="#322638" fill-rule="evenodd"/><path d="M490.15474,349.8394c1.8553,2.749,10.7995,1.4386,16.4943,3.8798.2182,2.4947.3597,7.3678-.4842,9.5918a22.19277,22.19277,0,0,1-2.6946,5.0752c-.8056,1.3269-5.9086,5.1046-9.2889,3.2386-2.8576-1.5772.5826-5.9587-.2667-8.5193-.2415-.0592-7.2785-.0592-7.52,0-.849,2.5606,2.5911,6.9421-.2665,8.5193-3.3806,1.866-8.4832-1.9117-9.2888-3.2386a22.17733,22.17733,0,0,1-2.6947-5.0752c-.8438-2.224-.7024-7.0971-.4841-9.5918,5.6948-2.4412,14.6389-1.1308,16.4942-3.8798Zm14.6687,28.7518c4.2021-4.5343,5.4326-23.6642,3.2451-26.9895-2.9687-4.5128-12.5815-5.953-17.9138-6.0075-5.3322.0545-14.9451,1.4947-17.9138,6.0075-2.1875,3.3253-.957,22.4552,3.2451,26.9895,3.0022,3.24,11.0545,3.289,14.6687,3.289S501.821,381.8312,504.82344,378.5912Z" fill="#322638" fill-rule="evenodd"/><path d="M482.19164,354.9293c.0006,3.5929,3.5663,6.5072,7.9626,6.5072,4.3968,0,7.9625-2.9143,7.9625-6.5078Z" fill="#fff" fill-rule="evenodd"/><path d="M459.127,394.1823l31.026,27.7331,31.0272-27.7325-12.4234-4.7585a102.3074,102.3074,0,0,1-1.201-17.0496c-.6908,2.7318-1.6047,4.9998-2.7321,6.2164-3.0024,3.24-11.0548,3.289-14.669,3.289s-11.6665-.049-14.669-3.289c-1.1276-1.2163-2.0407-3.4838-2.7315-6.2147a102.02476,102.02476,0,0,1-1.2033,17.0479Z" fill="#fca163" fill-rule="evenodd"/><path d="M387.72734,490.1376l-2.4077,29.2218c-3.6896,23.4051-.2557,53.2661-.0133,80.2347h11.0996c4.3401-25.9648,17.1261-49.6477,10.2535-78.6422l7.2108-21.6493Z" fill="#fca163" fill-rule="evenodd"/><path d="M573.64844,520.9519c-6.8726,28.9945,5.9133,52.6774,10.2534,78.6422h11.0994c.2426-26.9686,3.6765-56.8296-.0131-80.2347l-2.4077-29.2218-26.1428,9.1647Z" fill="#fca163" fill-rule="evenodd"/><path d="M465.84054,485.0032a2.91655,2.91655,0,1,0-2.9165-2.9165A2.92216,2.92216,0,0,0,465.84054,485.0032Z" fill="#156673" fill-rule="evenodd"/><path d="M465.84054,507.2127a2.9166,2.9166,0,1,0-2.9165-2.9166A2.92224,2.92224,0,0,0,465.84054,507.2127Z" fill="#156673" fill-rule="evenodd"/><path d="M465.84054,529.4221a2.91655,2.91655,0,1,0-2.9165-2.9165A2.92216,2.92216,0,0,0,465.84054,529.4221Z" fill="#156673" fill-rule="evenodd"/><path d="M452.19974,599.5941V472.3275a16.53143,16.53143,0,0,1,5.6967-12.7329l32.2583-28.8337-37.955-33.9245-44.4949,17.0419a20.72915,20.72915,0,0,0-12.8276,13.8552l-17.4685,58.7871,10.3186,3.617,26.1429,9.165,5.9252,2.0772,3.5079-9.9586c.3509,11.0865,1.0017,22.1487,1.442,32.9042.6395,15.626-2.9654,28.3031-.9814,44.0765v31.1922Z" fill="#22acc1" fill-rule="evenodd"/><polygon points="452.2 396.836 490.155 430.761 528.108 396.836 521.18 394.183 490.153 421.915 459.128 394.183 452.2 396.836" fill="#156673" fill-rule="evenodd"/><path d="M489.65874,430.2064a.74407.74407,0,0,1,.9921,1.1092l-32.2583,28.8337a15.77809,15.77809,0,0,0-5.4456,12.1782V599.5941a.74725.74725,0,0,1-1.4945,0V472.3275a17.28452,17.28452,0,0,1,5.948-13.2876l32.2583-28.8335Zm-66.6389,26.6927a.74632.74632,0,0,1,1.4885.1112c-.4334,5.6559-.6409,11.3615-.6931,17.0838-.0521,5.7399.0496,11.5234.2322,17.3035a.74447.74447,0,0,1-1.4882.0471c-.1831-5.7884-.2849-11.5889-.2325-17.3628.0528-5.7929.2603-11.5367.6931-17.1828Zm132.7796.1112a.74632.74632,0,0,1,1.4885-.1112c.4334,5.6467.6404,11.3905.6928,17.1828.0527,5.7739-.049,11.5744-.2322,17.3628a.74457.74457,0,0,1-1.4884-.0471c.1828-5.7801.2846-11.5636.2324-17.3035C556.44044,468.3718,556.23344,462.6662,555.79944,457.0103Z" fill="#156673" fill-rule="evenodd"/><path d="M280.20334,558.0178c40.7211,1.5701,57.8114,20.4531,106.2598,22.3012a45.38107,45.38107,0,0,0,20.986-4.0113l15.3706-6.7875a13.4108,13.4108,0,0,1,12.4889.4799l14.9434,8.6938q.42-5.69115.7248-11.4131c.6925-13.0136.9351-26.1133.741-39.1294-.1548-10.37-.5868-20.6864-1.2892-30.8645l58.4855-15.4233-21.8747-52.3667a46.00506,46.00506,0,0,0-29.4908-26.9637l-47.4959-15.0174c-8.3075,28.9191-73.3164,28.457-81.5071,0l-47.4959,15.0174a46.00529,46.00529,0,0,0-29.4908,26.9637l-23.0187,55.1061,54.6766,9.2404-.5411,11.5225Z" fill="#215365" fill-rule="evenodd"/><path d="M388.89274,353.809a38.51117,38.51117,0,0,1-39.189,0,39.17294,39.17294,0,0,1-9.716-8.1241q1.8342,23.2932-3.0776,39.1859c5.4079,20.1821,59.2384,20.6745,64.7782,0q-4.8771-15.93045-3.0785-39.1867A39.17335,39.17335,0,0,1,388.89274,353.809Z" fill="#bd7747" fill-rule="evenodd"/><path d="M408.03254,267.6103v52.8219a38.7343,38.7343,0,1,1-77.4686,0V228.876h77.4686Z" fill="#d2834f" fill-rule="evenodd"/><path d="M374.04794,263.546c5.1826-2.1288,8.5828-7.6683,12.1419-13.1077,6.9373-10.5934,22.0967,1.1846,22.0967,10.4471l.0005,15.4868c0,3.1632-.0618,6.3348-.2542,9.4603,7.8423,3.3922,14.1834-1.1117,14.1834-9.4603a11.2456,11.2456,0,0,0-.4527-3.1456,11.55623,11.55623,0,0,0,4.7245-18.2055,9.21745,9.21745,0,0,0-.7614-13.705,9.25909,9.25909,0,0,0-8.1533-13.6973,11.62116,11.62116,0,0,0-11.6081-11.6078,11.34428,11.34428,0,0,0-2.5444.2922,9.30453,9.30453,0,0,0-9.0635-7.2573,9.16689,9.16689,0,0,0-4.0555.9338,11.56163,11.56163,0,0,0-19.1602-.9261,11.56144,11.56144,0,0,0-19.16.9261,9.16158,9.16158,0,0,0-4.0555-.9335,9.30417,9.30417,0,0,0-9.0635,7.2573,11.3277,11.3277,0,0,0-2.5444-.2923,11.62124,11.62124,0,0,0-11.6081,11.6079,9.25909,9.25909,0,0,0-8.1533,13.6973,9.21711,9.21711,0,0,0-.7617,13.7044,11.58771,11.58771,0,0,0-2.6929,7.4216c0,4.3461,1.2305,7.7542,3.6541,10.1291C323.38,279.0654,363.74914,267.7761,374.04794,263.546Z" fill="#69390b" fill-rule="evenodd"/><path d="M330.56394,277.5162v-3.2745l-10.4304-.7892c-1.1279,7.2836,2.7099,13.6902,10.4304,14.2855Z" fill="#4d2908" fill-rule="evenodd"/><path d="M352.97574,350.7944a4.16873,4.16873,0,0,0,.5786,8.2655,5.23768,5.23768,0,0,0,5.2197,5.851,9.56433,9.56433,0,0,0,3.8217-1.1976,7.14114,7.14114,0,0,0,6.7495,4.7965,7.01764,7.01764,0,0,0,6.653-4.7965,9.59811,9.59811,0,0,0,3.8228,1.1976,5.25682,5.25682,0,0,0,5.2557-5.2574,5.68322,5.68322,0,0,0-.036-.5936,4.16846,4.16846,0,0,0,.9014-8.1929,5.92864,5.92864,0,0,1-2.7034-1.5319c-3.3914-3.2743-22.7228-3.9847-27.3013.0244A5.93277,5.93277,0,0,1,352.97574,350.7944Z" fill="#69390b" fill-rule="evenodd"/><path d="M334.97714,293.0844H330.031a1.78015,1.78015,0,1,1,0-3.5603h4.9461a16.03769,16.03769,0,0,1,31.7407-.9502,6.26685,6.26685,0,0,1,5.1608,0,16.03742,16.03742,0,0,1,31.7406.9502h4.9465a1.78015,1.78015,0,0,1,0,3.5603h-4.9465a16.03663,16.03663,0,0,1-31.8739.0048,2.70248,2.70248,0,0,0-.5102-.7118l-.0068-.0065a2.74585,2.74585,0,0,0-3.8602,0l-.0065.0065a2.69931,2.69931,0,0,0-.5106.7118,16.0367,16.0367,0,0,1-31.8739-.0048Zm24.7587-10.6013a12.46832,12.46832,0,1,0,3.2751,11.8826l-.0025-.0582a6.24,6.24,0,0,1,.3455-2.0528q.0357-.4707.0357-.9505a12.43513,12.43513,0,0,0-3.6538-8.8211Zm36.7673,0a12.47515,12.47515,0,0,0-21.2964,8.8211q0,.48015.0357.9505a6.23747,6.23747,0,0,1,.3456,2.0528l-.0026.0584a12.47635,12.47635,0,1,0,20.9177-11.8828Z" fill="#333" fill-rule="evenodd"/><path d="M351.93994,329.28c0-3.0229,12.8033,1.0264,16.458-1.942a1.41561,1.41561,0,0,1,1.8006,0c3.6552,2.9687,16.4579-1.0809,16.4579,1.942,0,3.526,2.509,3.526,2.509,0,0-3.5263,1.288-7.3242-10.0375-7.3242-5.5449,0-7.9787-1.559-9.0369-2.7929a.98667.98667,0,0,0-1.6718.0986c-1.1022,1.2172-3.5513,2.6943-8.951,2.6943-11.3244,0-10.0369,3.7979-10.0369,7.3242C349.43024,332.806,351.93994,332.806,351.93994,329.28Z" fill="#69390b" fill-rule="evenodd"/><path d="M357.00464,332.8749c.0011,5.5474,5.5063,10.0468,12.2939,10.0468,6.7887,0,12.2938-4.4994,12.2938-10.0477Z" fill="#fff" fill-rule="evenodd"/><path d="M342.09324,300.1257a12.47912,12.47912,0,0,0,20.9177-5.76l-.0025-.0582a6.24,6.24,0,0,1,.3455-2.0528q.0357-.4707.0357-.9505a12.475,12.475,0,1,0-21.2964,8.8215Z" fill="#fff" fill-rule="evenodd" opacity="0.5"/><path d="M375.24244,292.2547a6.23747,6.23747,0,0,1,.3456,2.0528l-.0026.0584a12.4957,12.4957,0,1,0-.3787-3.0617Q375.20674,291.78435,375.24244,292.2547Z" fill="#fff" fill-rule="evenodd" opacity="0.5"/><polygon points="242.836 498.192 282.676 505.366 283.217 493.843 228.54 484.603 224.261 494.846 242.836 498.192" fill="#33cb66" fill-rule="evenodd"/><path d="M282.67574,505.3659l-39.8398-7.1742c-9.9278,34.5694-14.1404,89.4467-6.5107,101.569h250.1351l-51.1517-29.7606a13.4108,13.4108,0,0,0-12.4889-.4799l-15.3706,6.7875a45.38107,45.38107,0,0,1-20.986,4.0113c-48.4484-1.8481-65.5387-20.7311-106.2598-22.3012Z" fill="#d2834f" fill-rule="evenodd"/><path d="M323.854,510.6168c-.4893,3.5864,2.4097,6.6288,5.1211,8.4353a1.17561,1.17561,0,0,1,.3875.5528c1.8121,4.9847,3.8123,9.9689,5.9986,14.802,1.0613,2.3459,3.4662,7.7368,5.3337,9.4424l.3413.3116.4314.1666c3.2488,1.2547,12.045.1361,15.5483-.3455,3.1967-.4402,6.4027-.9899,9.5534-1.6829,27.2849-6.003,52.4985,12.2235,84.2598,24.923,15.6334,6.2513,32.8533,11.1629,52.687,11.1872a9.4951,9.4951,0,0,0,9.4195-10.7747l-9.6145-70.6672-43.7868,8.4305,8.5099,25.7752c-5.1401-1.1942-10.6177-2.1475-16.3026-3.0181-19.3592-2.9639-41.1304-4.9654-60.2223-12.2315-5.9162-2.2515-9.3853-4.2899-15.9693-9.4166l-.9845-.7385a89.26759,89.26759,0,0,0-10.7186-7.0517c-6.0324-3.2825-11.4279-6.9979-13.754-13.7197-1.1273-3.2579-2.4361-8.0813-6.6665-8.0813a3.47371,3.47371,0,0,0-3.3435,2.6289c-2.1739,5.3058-.3625,16.6064,3.5759,20.5251.6021.5989-.0394,1.4624-.5269,1.5658-.6251.0862-1.4573.3019-1.9316.4057q-2.1336.4647-4.2621.9612a77.61209,77.61209,0,0,0-7.6717,2.0469c-2.5756.8348-4.934,2.6886-5.4015,5.4955Z" fill="#d2834f" fill-rule="evenodd"/><path d="M450.47654,497.2741q.15,2.15415.284,4.3132l2.1475,5.0868,6.6263-1.2762,43.7868-8.4305,11.0163-2.1209-5.4233-12.9829Z" fill="#33cb66" fill-rule="evenodd"/><path d="M328.54564,387.5158c8.1907,28.457,73.1996,28.9191,81.5071,0l-8.3644-2.645c-5.5398,20.6745-59.3703,20.1821-64.7782,0Z" fill="#33cb66" fill-rule="evenodd"/><path d="M284.66984,445.2422a.82836.82836,0,1,1,1.6549.0777l-2.2805,48.5626a.82832.82832,0,0,1-1.6548-.078Z" fill="#12333e" fill-rule="evenodd"/><path d="M445.51984,458.6835a.829.829,0,1,1,1.6416-.2332q1.35465,9.3993,2.3819,19.1296,1.0281,9.7344,1.7127,19.652a.82928.82928,0,0,1-1.6549.11q-.68415-9.9156-1.7061-19.5931Q446.87744,468.10155,445.51984,458.6835Z" fill="#12333e" fill-rule="evenodd"/><path d="M519.34674,342.4129a1.58808,1.58808,0,0,1,1.0183,2.1674,36.11892,36.11892,0,0,0-1.9364,7.2422,30.64594,30.64594,0,0,0-.2647,6.8922,2.176,2.176,0,0,1-.5528,1.5556,100.22165,100.22165,0,0,1-11.8395,12.6139c-9.667,8.1737-21.7698,8.1737-31.4365,0a100.1995,100.1995,0,0,1-11.8394-12.6139,2.17634,2.17634,0,0,1-.5531-1.5556,30.64008,30.64008,0,0,0-.2647-6.8922,36.11743,36.11743,0,0,0-1.9361-7.2422,1.58771,1.58771,0,0,1,1.0179-2.1674C491.03354,332.8891,489.07334,332.8891,519.34674,342.4129Z" fill="#22acc1" fill-rule="evenodd"/><path d="M505.93664,351.3571c-2.3658-.3943-4.7313-.7118-7.1144-.9264a105.31613,105.31613,0,0,0-17.5379,0c-2.3828.2146-4.7486.5321-7.1141.9264-3.9133.6604-8.1851,1.6177-12.3217,2.7127.0471.5718.0646,1.139.0825,1.7062h2.0098l-.0006.0045h52.2264l-.0009-.0045h2.0098c.0181-.5672.0357-1.1344.0827-1.7062-4.1368-1.095-8.4086-2.0523-12.3216-2.7127Zm-1.7271,14.3161a55.082,55.082,0,0,1-28.3125,0c-4.5195-1.3465-13.3843-6.8718-14.0309-7.4903.0059.288,0,.5717.0059.8509,1.0591,1.2099,2.1425,2.3168,3.1893,3.3903a40.3363,40.3363,0,0,0,11.0273,8.2531,30.20734,30.20734,0,0,0,27.9295,0,40.34119,40.34119,0,0,0,11.0274-8.2531c1.0465-1.0735,2.1302-2.1804,3.1892-3.3903.0057-.2792,0-.5629.0057-.8509C517.59414,358.8014,508.72934,364.3267,504.20954,365.6732Z" fill="#158aa2" fill-rule="evenodd"/></g></g></svg>