<?xml version="1.0" encoding="UTF-8" standalone="no"?><!DOCTYPE svg PUBLIC "-//W3C//DTD SVG 1.1//EN" "http://www.w3.org/Graphics/SVG/1.1/DTD/svg11.dtd"><svg width="100%" height="100%" viewBox="0 0 12305 12305" version="1.1" xmlns="http://www.w3.org/2000/svg" xmlns:xlink="http://www.w3.org/1999/xlink" xml:space="preserve" xmlns:serif="http://www.serif.com/" style="fill-rule:evenodd;clip-rule:evenodd;stroke-linecap:round;stroke-linejoin:round;"><g id="Layer_2"><g id="Streamline_Workflows"><path d="M3383.1,4960.46l227.825,60.442c16.425,4.154 28.584,18.196 30.346,35.046c17.533,150.871 12.133,303.533 -16.025,452.787c-3.092,17.367 -17.158,30.821 -34.646,33.138l-227.604,32.508c-15.812,2.054 -28.987,13.288 -33.517,28.575c-27.796,92.892 -66.425,182.192 -115.083,266.054c-7.85,12.805 -7.908,28.98 -0.15,41.842l117.846,201.471c8.75,14.571 7.437,33.167 -3.267,46.367c-94.525,119.241 -206.546,223.491 -332.262,309.216c-14.484,10.096 -33.971,9.642 -47.963,-1.125l-179.662,-135.204c-12.55,-9.7 -29.704,-11.142 -43.696,-3.667c-86.063,44.167 -177.033,78.025 -271.029,100.88c-14.692,3.412 -26.284,14.808 -29.946,29.437l-60.467,228.304c-4.15,16.438 -18.204,28.604 -35.062,30.363c-150.742,17.479 -303.259,12.058 -452.379,-16.084c-17.367,-3.087 -30.825,-17.158 -33.134,-34.65l-32.521,-227.75c-2.029,-15.641 -13.054,-28.725 -28.129,-33.375c-90.591,-30.291 -177.271,-71.225 -258.216,-121.941c-12.821,-8.071 -29.15,-8.25 -42.142,-0.467l-212.008,123.125c-14.588,8.696 -33.159,7.333 -46.325,-3.388c-117.35,-93.416 -220.096,-203.837 -304.834,-327.6c-10.116,-14.445 -9.712,-33.908 0.996,-47.92l141.646,-189.488c9.683,-12.617 11.046,-29.829 3.467,-43.812c-45.33,-84.671 -80.467,-174.413 -104.68,-267.355c-3.491,-14.633 -14.904,-26.137 -29.512,-29.745l-232.671,-60.796c-16.533,-4.125 -28.779,-18.25 -30.512,-35.2c-16.955,-149.634 -11.359,-300.967 16.604,-448.938c3.1,-17.366 17.179,-30.816 34.671,-33.125l228.17,-32.454c15.675,-2.025 28.78,-13.079 33.413,-28.192c29.933,-90.775 70.496,-177.691 120.842,-258.945c8.02,-12.817 8.17,-29.117 0.387,-42.08l-122.604,-210.758c-8.713,-14.587 -7.363,-33.175 3.367,-46.35c93.52,-117.517 204.091,-220.392 328.041,-305.2c14.45,-10.117 33.917,-9.708 47.929,1.004l188.321,140.892c12.609,9.683 29.817,11.058 43.8,3.492c84.875,-45.213 174.809,-80.2 267.925,-104.23c14.65,-3.47 26.179,-14.887 29.792,-29.504l60.787,-232.191c4.13,-16.521 18.25,-28.755 35.192,-30.488c149.746,-16.992 301.2,-11.4 449.288,16.6c17.366,3.096 30.82,17.175 33.125,34.667l32.42,227.896c2.046,15.837 13.309,29.037 28.625,33.55c93.055,27.425 182.567,65.687 266.688,114.004c12.808,7.829 28.967,7.871 41.812,0.112l200.196,-117.291c14.575,-8.759 33.179,-7.459 46.388,3.25c119.4,94.625 223.775,206.795 309.575,332.687c10.091,14.483 9.633,33.971 -1.134,47.967l-134.462,178.541c-9.704,12.542 -11.15,29.692 -3.688,43.684c44.034,86.208 77.738,177.316 100.413,271.429c3.404,14.704 14.796,26.308 29.433,29.983Zm-1580.62,-125.775c-112.842,100.475 -177.48,244.571 -177.48,395.659c0,290.625 239.146,529.77 529.771,529.77c290.625,0 529.771,-239.145 529.771,-529.77c0,-129.863 -47.75,-255.3 -134.112,-352.292c-193.267,-217.046 -530.896,-236.621 -747.95,-43.367Z" style="fill:#808080;"/><path d="M3498.53,4033.86c8,8.97 12.425,20.574 12.425,32.591c0,26.863 -22.104,48.967 -48.966,48.967c-13.979,-0 -27.309,-5.988 -36.596,-16.434c-35.154,-39.47 -72.034,-77.3 -110.638,-113.495c-38.416,-35.892 -78.445,-69.938 -120.095,-102.146c-11.992,-9.25 -19.026,-23.563 -19.026,-38.708c0,-26.821 22.071,-48.892 48.892,-48.892c10.846,-0 21.383,3.604 29.954,10.25c44.005,34.05 86.354,70.108 127.042,108.171c40.783,38.104 79.787,78 117.008,119.696Zm-649.833,-463.85c18.129,7.583 29.987,25.4 29.987,45.05c0,26.795 -22.05,48.841 -48.841,48.841c-6.475,0 -12.884,-1.287 -18.858,-3.787c-709.513,-295.271 -1535.12,-76.05 -2004.7,532.3c-64.634,83.795 -121.259,173.47 -169.129,267.85c-8.346,16.345 -25.213,26.675 -43.567,26.675c-26.829,-0 -48.908,-22.08 -48.908,-48.913c-0,-7.675 1.804,-15.242 5.27,-22.087c50.65,-99.83 110.563,-194.688 178.946,-283.317c68.667,-88.954 145.467,-171.325 229.404,-246.042c515.959,-459.521 1252.88,-582.929 1890.39,-316.575l0,0.004Z" style="fill:#e61f54;"/><path d="M3485.03,4045.89c5.05,5.654 7.842,12.979 7.842,20.562c-0,16.942 -13.942,30.883 -30.888,30.883c-8.82,0 -17.229,-3.775 -23.087,-10.37c-36.434,-40.913 -73.696,-79.142 -111.792,-114.684c-38.917,-36.354 -79.375,-70.766 -121.379,-103.233c-7.542,-5.833 -11.967,-14.842 -11.967,-24.375c0,-16.904 13.909,-30.813 30.813,-30.813c6.821,0 13.45,2.267 18.846,6.438c42.966,33.258 84.887,68.95 125.766,107.079c40.609,37.938 79.221,77.438 115.846,118.513Zm-643.287,-459.188c11.433,4.767 18.916,16 18.916,28.383c0,16.875 -13.887,30.763 -30.762,30.763c-4.104,-0 -8.167,-0.821 -11.946,-2.417c-717.046,-298.383 -1551.4,-76.846 -2025.98,537.934c-65.338,84.683 -122.571,175.325 -170.942,270.725c-5.25,10.32 -15.891,16.845 -27.475,16.845c-16.912,0 -30.829,-13.916 -30.829,-30.829c0,-4.862 1.15,-9.654 3.354,-13.983c50.125,-98.829 109.434,-192.725 177.142,-280.45c491.033,-637.584 1355.94,-867.138 2098.52,-556.971Z" style="fill:#e61f54;"/><path d="M1639.48,5689.17c-112.475,-126.321 -174.667,-289.688 -174.667,-458.825c0,-378.504 311.467,-689.971 689.971,-689.971c378.508,-0 689.971,311.466 689.971,689.971c-0,196.779 -84.183,384.45 -231.146,515.308c-282.708,251.654 -722.404,226.158 -974.129,-56.483Zm119.646,-106.529c100.471,112.841 244.571,177.475 395.658,177.475c290.625,-0.001 529.771,-239.146 529.771,-529.771c-0,-290.621 -239.146,-529.771 -529.771,-529.771c-129.867,-0 -255.304,47.754 -352.292,134.112c-217.041,193.271 -236.616,530.896 -43.366,747.954Z" style="fill:#666;"/><path d="M3995.06,6586.54l-374.062,5.333c-26.879,0.692 -51.479,-15.55 -61.404,-40.537c-91.496,-223.034 -148.704,-458.638 -169.688,-698.792c-2.725,-27.867 13.004,-54.463 38.734,-65.5l333.875,-147.292c23.279,-9.921 38.595,-32.737 38.954,-58.041c2.646,-153.871 23.375,-306.896 61.766,-455.921c6.509,-22.929 -0.337,-47.671 -17.712,-63.996l-266.488,-257.342c-19.616,-18.512 -25.591,-47.491 -14.896,-72.25c93.309,-222.754 219.792,-430.112 375.146,-615.021c17.8,-21.637 47.771,-29.295 73.775,-18.854l332.525,129.571c23.338,9.442 50.167,4.283 68.342,-13.137c112.575,-104.4 237.071,-195.159 370.908,-270.388c20.992,-11.517 33.821,-33.9 33.142,-57.833l-5.504,-374.809c-0.704,-26.895 15.55,-51.516 40.558,-61.437c222.854,-91.35 458.25,-148.471 698.188,-169.425c27.866,-2.725 54.462,13.008 65.496,38.737l147.37,334.092c9.809,23.038 32.263,38.3 57.296,38.938c151.429,7.441 301.442,32.825 446.892,75.616c23.046,6.825 48.075,0.096 64.596,-17.366l271.17,-279.071c18.563,-19.542 47.53,-25.434 72.246,-14.692c219.392,92.429 423.75,217.104 606.317,369.892c21.654,17.741 29.383,47.654 19.033,73.662l-135.196,350.296c-9.391,23.433 -4.091,50.325 13.492,68.446c105.583,109.946 197.767,232.012 274.625,363.654c11.608,20.871 33.983,33.563 57.854,32.813l381.629,-6.875c27.03,-0.8 51.805,15.537 61.721,40.695c90.079,221.388 146.421,455.046 167.146,693.155c2.721,27.87 -13.029,54.47 -38.775,65.487l-334.758,147.45c-23.088,9.817 -38.367,32.329 -38.967,57.408c-6.812,151.559 -31.521,301.775 -73.612,447.53c-6.759,23.029 -0.005,47.995 17.445,64.475l277.746,269.487c19.571,18.554 25.475,47.538 14.729,72.271c-92.52,219.687 -217.37,424.308 -370.404,607.075c-17.746,21.65 -47.662,29.371 -73.671,19.008l-348.208,-134.529c-23.421,-9.396 -50.304,-4.117 -68.429,13.442c-110.304,105.491 -232.738,197.525 -364.725,274.175c-20.9,11.591 -33.617,33.979 -32.875,57.871l6.687,380.883c0.771,27.017 -15.558,51.767 -40.7,61.683c-221.55,90.188 -455.391,146.588 -693.691,167.309c-27.871,2.712 -54.467,-13.03 -65.492,-38.771l-147.275,-334.354c-9.921,-23.325 -32.792,-38.663 -58.137,-38.992c-153.959,-2.004 -307.15,-22.092 -456.421,-59.846c-22.925,-6.471 -47.642,0.4 -63.942,17.771l-255.625,265.083c-18.512,19.638 -47.504,25.625 -72.283,14.925c-223.038,-93.396 -430.642,-220.046 -615.742,-375.629c-21.637,-17.812 -29.292,-47.787 -18.842,-73.792l128.909,-330.5c9.446,-23.329 4.304,-50.15 -13.1,-68.333c-104.259,-112.858 -194.834,-237.629 -269.846,-371.721c-11.504,-21.012 -33.896,-33.858 -57.842,-33.187Zm2469.34,-485.654c86.704,-135.363 132.804,-292.788 132.804,-453.534c0,-461.271 -379.567,-840.837 -840.837,-840.837c-461.267,-0 -840.834,379.566 -840.834,840.837c0,286.292 146.221,553.604 387.296,708.029c388.417,248.796 912.767,133.913 1161.57,-254.495Z" style="fill:#808080;"/><path d="M4231.5,8027.83c-14.054,-9.004 -22.579,-24.587 -22.579,-41.279c-0,-26.896 22.129,-49.025 49.021,-49.025c9.37,0 18.55,2.688 26.441,7.746c73.23,46.904 146.567,89.342 220.021,127.313c75.046,38.866 151.634,74.1 229.759,105.695c18.404,7.475 30.508,25.45 30.508,45.317c-0,26.825 -22.079,48.904 -48.904,48.904c-6.275,0 -12.488,-1.208 -18.304,-3.554c-79.921,-32.396 -159.292,-68.962 -238.109,-109.7c-78.321,-40.55 -154.275,-84.358 -227.854,-131.417Zm1179.95,425.825c-24.333,-3.021 -42.804,-23.929 -42.804,-48.45c0,-26.783 22.038,-48.82 48.821,-48.82c2.012,-0.001 4.021,0.124 6.017,0.37c1223.7,148.479 2403.7,-547.871 2865.28,-1690.87c63.529,-157.429 112.116,-320.483 145.116,-487.008c4.554,-22.787 24.746,-39.346 47.988,-39.346c26.841,0 48.933,22.092 48.933,48.934c0,3.22 -0.317,6.429 -0.95,9.587c-34.217,172.521 -84.579,341.442 -150.421,504.533c-476.946,1184.89 -1700.2,1906.6 -2967.97,1751.07Z" style="fill:#e61f54;"/><path d="M6347.08,4725.21c313.979,201.121 504.417,549.267 504.417,922.138c-0,600.758 -494.346,1095.11 -1095.1,1095.11c-600.759,0 -1095.1,-494.35 -1095.1,-1095.11c-0,-209.363 60.037,-414.396 172.966,-590.692c324.092,-505.804 1006.94,-655.408 1512.83,-331.446Zm-137.15,214.109c-135.362,-86.709 -292.791,-132.809 -453.546,-132.809c-461.27,0 -840.837,379.567 -840.837,840.838c-0,461.271 379.567,840.837 840.837,840.837c286.296,0 553.609,-146.221 708.034,-387.3c248.783,-388.416 133.904,-912.75 -254.488,-1161.57Z" style="fill:#666;"/><path d="M10562.2,3058.78c596.496,0 285.121,913.146 -0.004,913.146c-285.125,0 -596.5,-913.146 0.004,-913.146Z" style="fill:#a86d40;"/><path d="M11452.2,4319.33c-178.779,-81.412 -368.037,-137.496 -562.308,-166.625l-469.321,846.484c-57.417,103.554 -78.367,203.775 -98.587,320.441c-93.875,541.759 -142.584,1087.28 -167.392,1634.81c-5.229,115.087 -9.454,230.258 -12.683,345.508c-7.742,270.042 73.533,511.533 277.362,687.921c1.204,1.046 2.408,2.083 3.629,3.125c151.875,129.937 368.055,223.833 623.979,281.887c152.205,33.625 306.871,54.959 462.496,63.796c3.325,0.208 6.655,0.308 9.988,0.308c89.154,0 162.517,-73.362 162.517,-162.516c-0,-6.538 -0.396,-13.071 -1.184,-19.563c-50.808,-463.529 -72.608,-929.783 -65.267,-1396.04c134.684,-824.255 203.238,-1635.11 -18.82,-2280.87c-23.267,-71.042 -75.867,-128.833 -144.409,-158.667Z" style="fill:#f4f4f4;stroke:#cbcbcb;stroke-width:8.67px;"/><path d="M10889.9,4152.7c-159.938,133.554 -333.412,306.925 -517.179,509.317c-16.242,-137.592 -2.008,-277.092 41.692,-408.567l-340.842,721.975c-33.633,69.408 -51.325,145.467 -51.783,222.592c-9.438,589.054 22.183,1166.85 25.67,1752.36c35.784,1.492 71.496,2.842 107.142,4.054c24.808,-547.521 73.517,-1093.05 167.392,-1634.8c20.221,-116.667 41.171,-216.888 98.587,-320.442l469.321,-846.483Z" style="fill:#1981dc;"/><path d="M9245.42,5050.83l-941.909,-240.358l-9.879,46.308l-38.846,182.075l-46.383,217.425l1159.33,243.125c47.871,10.775 98.125,-1.391 135.767,-32.866l282.333,-229.134c-20.729,447.975 194.958,1146.06 25.137,3068.51c94.709,-53.471 149.675,-184.546 182.23,-339.225c35.87,-170.396 44.525,-369.458 49.133,-524.979c4.887,-164.654 6.1,-328.313 5.125,-491.363c-3.488,-585.508 -35.108,-1163.3 -25.671,-1752.36c0.459,-77.125 18.15,-153.183 51.783,-222.592l340.842,-721.975c11.088,-33.891 23.9,-67.383 38.254,-100.75l-314.412,195.667c-73.342,47.725 -141.675,102.742 -203.954,164.208l-539.113,500.838c-39.887,37.775 -96.787,52 -149.762,37.441Z" style="fill:#f4f4f4;stroke:#cbcbcb;stroke-width:8.67px;"/><path d="M8254.75,5038.88l38.846,-182.075c-54.55,-44.829 -106.379,-92.871 -155.208,-143.871c-184.421,-184.45 -541.167,-16.783 -345.688,-16.783l66.55,-0c86.379,-0 143.138,109.154 191.175,176.433c-28.175,28.167 -323.692,-131.062 -199.812,0.4l177.875,135.713c18.187,19.254 43.529,30.179 70.012,30.183l156.25,0Z" style="fill:#a86d40;"/><path d="M10388.4,2941.24c115.454,-122.35 308.029,-135.321 438.846,-29.559c242.058,191.517 323.408,698.021 0.767,809.788c-0,-0 111.82,-542.45 -231.417,-467.938c-0,0 -143.879,17.988 -145.713,-142.637c0.025,-1.729 -1.337,-3.192 -3.062,-3.292c-19.088,-0.704 -121.879,3.063 -121.879,166.746c-0,0 34.325,221.829 -99.28,221.829c-206.575,-175.075 -98.47,-554.941 161.738,-554.941l0,0.004Z" style="fill:#1a1a1a;"/><path d="M10722.4,5465.12c0.504,15.196 -0.692,30.4 -3.567,45.329c-15.096,-2.271 -30.025,-5.541 -44.688,-9.787c-51.133,-11.604 -118.116,-8.042 -130.737,-72.292c-6.575,-33.458 56.162,-191.817 70.067,-231.717c36.708,-105.337 56.325,-213.77 171.116,-260.512c17.296,-4.375 34.3,-9.817 50.921,-16.296l5.325,-2.908l2.196,-5.659c6.096,-15.658 19.121,-27.633 35.237,-32.395l10.33,-3.042l1.437,-10.667c3.9,-28.937 6.033,-59.383 8.713,-88.512c4.945,-53.542 9.77,-107.096 14.47,-160.667c7.3,-82.317 14.705,-164.837 21.48,-247.187c9.687,-117.659 1.933,-178.434 -77.68,-249.821c-34.904,-31.221 -79.429,-49.617 -126.187,-52.138l1.458,-17.716c4.892,0.383 9.771,0.912 14.638,1.587c79.483,11.638 148.175,62.1 183.05,134.471c30.041,61.608 25.775,118.587 18.954,184.433c-8.463,81.742 -14.392,164.771 -21.163,246.713c-4.433,53.696 -8.733,107.4 -12.908,161.116c-2.212,29.055 -5.675,61.084 -5.946,90.105l-0.096,10.304l9.188,4.658c14.383,7.3 24.8,20.638 28.392,36.367l1.308,5.812l4.708,3.646c17.079,10.288 34.667,19.708 52.696,28.225c26.729,16.033 49.308,38.146 65.896,64.533c36.154,55.771 45.033,154.738 56.904,220.284c7.338,40.521 42.042,204.816 31.067,236.041c-9.542,29.842 -37.6,50.121 -68.925,49.825l-69.204,1.442l-0.4,0.021c-15.859,1.971 -31.813,3.062 -47.792,3.279c-0.85,-14.467 0.062,-28.987 2.725,-43.233c0.137,-1 0.379,-1.984 0.725,-2.934c16.325,1.83 32.317,5.892 47.537,12.067c25.796,8.404 56.963,17.033 82.738,4.35c46.125,-22.692 36.704,-64.167 29.808,-105.683c-5.65,-34.013 -11.521,-68 -17.341,-101.992c-15.138,-88.425 -20.305,-221.387 -82.909,-288.725c-21.641,-22.762 -47.746,-40.821 -76.679,-53.042l-12.629,-4.62l-7.138,11.391c-9.895,15.821 -27.287,25.459 -45.945,25.459c-21.759,-0 -41.496,-13.109 -49.942,-33.159l-5.254,-12.446l-13.25,2.613c-56.45,14.042 -105.054,49.983 -135.029,99.837c-8.134,15.909 -15.171,32.355 -21.059,49.225c-9.354,24.6 -18.141,49.459 -26.787,74.313c-16.009,46.062 -31.263,92.358 -46.946,138.525c-13.029,29.462 -23.004,60.183 -29.775,91.683c-6.488,49.409 19.975,76.359 69.846,76.759c23.787,0.187 61.512,-9.896 87.046,-7.263Z"/><path d="M10474.4,4108.64c0.875,-0.312 1.8,-0.474 2.733,-0.474c4.438,-0 8.092,3.654 8.092,8.091c-0,3.409 -2.154,6.471 -5.363,7.621c-24.175,12.875 -44.833,31.479 -60.158,54.179c-19.317,25.309 -37.338,51.571 -54,78.696c-177.263,280.996 -289.317,479.762 -353.229,649.138c-59.45,149.708 -81.68,311.633 -64.78,471.825c0.025,0.241 0.034,0.487 0.034,0.729c-0,4.441 -3.654,8.096 -8.092,8.096c-4.167,-0 -7.687,-3.217 -8.062,-7.363c-17.171,-162.625 5.387,-327.012 65.733,-478.996c64.362,-170.562 176.846,-370.162 354.675,-652.062c16.958,-27.609 35.3,-54.338 54.954,-80.096c17.125,-25.158 40.333,-45.588 67.463,-59.383Z"/><path d="M9902,5460.42c-29.217,-0 -52.913,-36.38 -52.913,-81.255c0.001,-44.883 23.696,-81.262 52.913,-81.262c13.171,0.579 25.375,7.163 33.092,17.85c1.941,-0.487 3.937,-0.737 5.937,-0.737c21.55,-0 39.034,28.72 39.034,64.15c-0,35.42 -17.484,64.141 -39.034,64.141c-2,0.004 -3.996,-0.246 -5.937,-0.733c-7.717,10.687 -19.921,17.267 -33.092,17.846Z" style="fill:#1a1a1a;"/><path d="M10773.8,3818.33c-61.317,91.646 -137.379,153.604 -211.65,153.604c-35.679,-1.25 -70.179,-13.146 -99.042,-34.158c21.742,77.612 22.679,141.179 -10.467,214.929c-14.354,33.367 -27.166,66.858 -38.254,100.75c-43.7,131.475 -57.933,270.975 -41.696,408.567c183.771,-202.392 357.246,-375.763 517.184,-509.317c-84.546,-64.279 -125.784,-173.112 -116.075,-334.375Z" style="fill:#885834;"/><path d="M11367.6,6999l-171.917,-32.071c-5.491,2.017 -9.166,7.267 -9.183,13.117c-12.608,152.521 -86.371,230.642 -129.496,331.15c-0.558,2.467 -0.842,4.987 -0.842,7.517c0,18.712 15.396,34.108 34.109,34.108c12.604,-0 24.225,-6.992 30.129,-18.125c2.787,-3.967 5.783,-8.304 9.062,-13.038c17.538,-26.262 44.517,-44.8 75.321,-51.754c3.375,0.458 5.925,3.367 5.929,6.775l-37.387,326.942c0.312,16.292 13.842,29.504 30.138,29.433c1.083,0.129 2.17,0.192 3.258,0.192c14.329,-0 26.475,-10.979 27.912,-25.233c0.071,-0.134 37.38,-188.367 47.771,-230.421c0.167,-0.596 0.717,-1.013 1.338,-1.013c0.75,0 1.371,0.609 1.387,1.359l1.4,125.358l1.458,130.246c1.763,15.608 15.4,27.383 31.1,26.846c15.05,0.583 27.975,-11.18 28.8,-26.221c0.142,-1.329 18.209,-197.925 23.017,-256.154c0.075,-0.713 0.679,-1.255 1.392,-1.255c0.712,0 1.321,0.542 1.396,1.255l23.37,231.608c1.309,15.829 15.255,27.867 31.105,26.846c15.05,0.583 27.975,-11.184 28.8,-26.221c-0,-0.133 -4.396,-185.65 -5.646,-237.117l-0,-0.041c-0,-0.759 0.621,-1.38 1.375,-1.38c0.641,0 1.2,0.45 1.341,1.071l42.059,170.517c2.458,12.937 13.871,22.387 27.037,22.387c8.6,0 16.721,-4.033 21.921,-10.879c3.613,-8.387 4.325,-17.741 2.025,-26.575c-5.096,-35.496 -27.342,-200.296 -29.233,-214.246c-0.071,-0.625 -0.117,-1.254 -0.125,-1.883c1.054,-162.9 -42.134,-171.242 -42.134,-280.633c-0.02,-7.646 -6.304,-13.929 -13.95,-13.954l-94.037,-18.513Z" style="fill:#a86d40;"/><path d="M11603.6,6756.92c0.959,-5.759 5.988,-10.021 11.825,-10.021c6.58,-0 11.992,5.412 11.992,11.992c0,0.629 -0.05,1.258 -0.15,1.879c-7.771,47.583 -15.517,93.85 -23.233,138.8c-8.075,47.145 -16.154,93.425 -24.242,138.841c-1.138,6.492 -7.413,10.9 -13.904,9.771l-484.571,-90.421c-5.667,-1.037 -9.817,-6.021 -9.817,-11.783c0,-0.725 0.063,-1.45 0.196,-2.163l0.208,-0.933c74.892,-331.087 127.525,-666.817 157.538,-1004.94c24.1,-293.55 23.179,-565.075 -9.813,-793.438c-0.079,-0.558 -0.12,-1.121 -0.12,-1.687c-0,-6.579 5.412,-11.996 11.991,-11.996c5.946,-0 11.038,4.421 11.875,10.304c33.271,230.267 34.242,503.554 10.004,798.692c-29.745,335.291 -81.708,668.237 -155.541,996.645l460.404,85.88c7.617,-42.967 14.992,-85.238 22.125,-126.813c8.142,-47.525 15.921,-93.817 23.233,-138.612Z" style="fill:#cbcbcb;"/><path d="M10702.4,9987.67c-18.142,-499.834 -73.367,-996.317 -198.362,-1486.45c-23.58,-171.117 -53.467,-342.238 -84.759,-513.35c-203.829,-176.388 -285.104,-417.879 -277.362,-687.921c3.304,-115.25 7.529,-230.421 12.683,-345.508c-35.646,-1.209 -71.358,-2.563 -107.142,-4.054c0.975,163.05 -0.237,326.708 -5.125,491.362c-4.608,155.521 -13.262,354.583 -49.133,524.979c38.012,166.95 90.258,330.338 156.167,488.367c159.033,489.629 281.725,990.325 367.07,1498.01c15.659,10.521 33.08,18.146 51.43,22.521c43.97,10.821 89.337,14.884 134.533,12.038Z" style="fill:#3e5fbe;"/><path d="M10504,8501.21c124.996,490.129 180.221,986.613 198.363,1486.45c0.775,21.558 1.487,43.121 2.133,64.683c14.062,27.559 51.075,45.717 97.633,55.784c5.321,1.146 10.759,2.191 16.313,3.129c74.641,11.637 150.883,7.821 223.987,-11.217c39.2,-11.237 68.696,-27.471 78.409,-47.696c38,-571.52 31.708,-1132.82 -86.242,-1668.33c3.762,-39.112 7.85,-76.158 12.254,-111.137c-255.925,-58.054 -472.104,-151.95 -623.979,-281.888c-1.221,-1.041 -2.425,-2.079 -3.629,-3.125c31.296,171.113 61.179,342.238 84.758,513.35Z" style="fill:#4d75eb;"/><path d="M10772.8,10220.8c-208.583,136.083 -355.783,107.512 -395.833,11.871c-149.479,43.441 -292.796,100.341 -397.971,193.825c-136.833,121.633 299.654,159.729 386.704,89.124c171.542,-108.616 304.767,-13.041 437.017,-84.433c53.346,-136.429 56.591,-237.504 1.304,-285.858c0.154,4.087 0.354,8.2 0.596,12.333c1.846,25.267 -10.409,49.588 -31.817,63.138Z" style="fill:#333;"/><path d="M10376.9,10232.7c40.062,95.637 187.258,124.216 395.85,-11.871c21.404,-13.554 33.654,-37.875 31.808,-63.142c-0.242,-4.133 -0.438,-8.242 -0.596,-12.329c-0.471,-12.258 -1.079,-24.654 -1.825,-37.192c-46.558,-10.066 -83.571,-28.225 -97.633,-55.783c-0.646,-21.567 -1.359,-43.125 -2.133,-64.683c-45.196,2.846 -90.563,-1.217 -134.534,-12.042c-3.117,23.683 -8.829,46.954 -17.033,69.388c-32.613,86.916 -79.717,135.1 -173.904,187.654Z" style="fill:#a86d40;"/><path d="M10663.5,10376.8c-121.658,133.621 333.188,176.925 399.196,-109.805" style="fill:none;stroke:#000;stroke-width:8.67px;stroke-linecap:butt;stroke-linejoin:miter;stroke-miterlimit:2.6131;"/><path d="M10814.5,10155.9c-9.104,76.762 -30.454,133.187 -99.604,185.258c-15.612,11.75 -32.933,23.617 -51.408,35.625c-32.879,36.117 -23.65,65.629 8.637,83.825c87.159,49.108 342.392,15.608 390.559,-193.617c-13.642,-54.6 -20.425,-110.687 -20.192,-166.966c-73.104,19.037 -149.346,22.854 -223.988,11.216c-1.066,15.65 -2.329,30.5 -4.004,44.655l0,0.004Z" style="fill:#a86d40;"/><path d="M10526.2,10461.2c-112.604,69.358 -222.695,145.579 -244.708,234.917c-5.804,23.529 16.308,44.454 39.646,50.933c95.021,26.388 259.308,56.492 394.675,-21.15c149.883,-193.725 203.037,-87.083 375.967,-201.454c15.283,-71.288 29.104,-207.579 -29.142,-257.517c-48.167,209.225 -303.4,242.725 -390.559,193.617c-32.287,-18.196 -41.516,-47.709 -8.637,-83.825c-41.925,27.254 -89.804,55.254 -137.242,84.479Z" style="fill:#4d4d4d;"/><path d="M9999.33,4691.62c2.659,-3.146 6.571,-4.962 10.688,-4.962c7.675,-0 13.987,6.312 13.987,13.987c0,3.313 -1.175,6.521 -3.316,9.046c-68.788,77.158 -124.767,164.85 -165.804,259.725l-0.496,1.096c-33.629,85.321 -52.109,175.858 -54.596,267.529c-0.321,7.437 -6.525,13.379 -13.967,13.379c-7.666,0 -13.975,-6.308 -13.975,-13.975c0,-0.2 0.004,-0.4 0.013,-0.6c2.616,-94.867 21.791,-188.546 56.662,-276.808l0.404,-1.129c42.138,-97.634 99.671,-187.88 170.4,-267.288Z" style="fill:#cbcbcb;"/><path d="M2413.48,7487.08l-101.4,0.255c-7.291,0.099 -13.904,-4.384 -16.516,-11.188c-24.088,-60.746 -38.838,-124.788 -43.759,-189.95c-0.65,-7.563 3.7,-14.721 10.709,-17.629l90.966,-38.85c6.346,-2.617 10.567,-8.754 10.746,-15.613c1.209,-41.695 7.317,-83.108 18.2,-123.375c1.838,-6.195 0.059,-12.925 -4.6,-17.4l-71.404,-70.608c-5.258,-5.079 -6.783,-12.954 -3.808,-19.633c26.004,-60.075 60.95,-115.871 103.65,-165.496c4.895,-5.808 13.041,-7.788 20.058,-4.875l89.717,36.179c6.291,2.638 13.583,1.329 18.566,-3.337c30.846,-27.938 64.88,-52.142 101.396,-72.105c5.725,-3.054 9.271,-9.079 9.163,-15.566l-0.288,-101.609c-0.104,-7.291 4.375,-13.912 11.184,-16.525c60.699,-24.045 124.687,-38.775 189.791,-43.687c7.558,-0.65 14.717,3.7 17.625,10.712l38.875,91.021c2.583,6.275 8.625,10.484 15.408,10.738c41.021,2.504 81.6,9.862 120.884,21.925c6.229,1.925 13.033,0.179 17.566,-4.505l74.388,-74.774c5.096,-5.234 12.967,-6.738 19.633,-3.75c59.171,25.754 114.163,60.204 163.159,102.204c5.808,4.875 7.808,13.008 4.92,20.025l-37.766,94.516c-2.621,6.321 -1.267,13.625 3.441,18.592c28.263,30.138 52.859,63.517 73.271,99.442c3.08,5.696 9.104,9.208 15.575,9.083l103.463,-0.646c7.329,-0.129 13.992,4.379 16.6,11.229c23.708,60.296 38.233,123.809 43.087,188.417c0.646,7.563 -3.704,14.717 -10.716,17.621l-91.213,38.9c-6.287,2.587 -10.5,8.637 -10.741,15.433c-2.334,41.059 -9.509,81.696 -21.384,121.067c-1.904,6.221 -0.154,13.008 4.525,17.529l74.417,73.933c5.246,5.092 6.754,12.967 3.762,19.634c-25.783,59.25 -60.279,114.312 -102.341,163.362c-4.875,5.813 -13.013,7.809 -20.029,4.917l-93.95,-37.579c-6.317,-2.617 -13.617,-1.275 -18.588,3.425c-30.237,28.237 -63.717,52.796 -99.733,73.15c-5.704,3.075 -9.221,9.104 -9.096,15.579l0.592,103.262c0.125,7.321 -4.38,13.98 -11.225,16.588c-60.342,23.733 -123.905,38.271 -188.567,43.129c-7.558,0.646 -14.717,-3.708 -17.621,-10.717l-38.846,-91.1c-2.616,-6.354 -8.766,-10.583 -15.637,-10.754c-41.721,-1.037 -83.179,-6.971 -123.521,-17.679c-6.192,-1.825 -12.913,-0.046 -17.388,4.613l-70.133,71.033c-5.083,5.262 -12.958,6.792 -19.642,3.812c-60.154,-26.029 -116.02,-61.02 -165.695,-103.783c-5.805,-4.9 -7.784,-13.046 -4.867,-20.058l35.996,-89.171c2.637,-6.292 1.329,-13.579 -3.334,-18.563c-27.895,-30.925 -52.05,-65.033 -71.954,-101.62c-3.05,-5.73 -9.079,-9.284 -15.571,-9.18Zm670.863,-123.737c24.437,-37.175 37.462,-80.704 37.462,-125.192c0,-125.033 -102.887,-227.921 -227.92,-227.921c-125.034,0 -227.921,102.888 -227.921,227.921c-0,76.654 38.67,148.35 102.725,190.459c37.175,24.437 80.704,37.462 125.196,37.462c76.654,0 148.354,-38.671 190.458,-102.729Z" style="fill:#808080;"/><path d="M2383.41,8014.79c-13.7,-9.005 -21.971,-24.334 -21.971,-40.725c-0,-26.734 22,-48.729 48.729,-48.729c9.512,-0 18.817,2.783 26.762,8.004c21.609,14.2 43.825,27.404 66.65,39.612c22.688,12.088 45.905,23.104 69.646,33.05c18.063,7.567 29.879,25.329 29.879,44.913c0,26.712 -21.979,48.691 -48.691,48.691c-6.459,0 -12.854,-1.283 -18.813,-3.779c-26.504,-11.104 -52.45,-23.433 -77.833,-36.987c-25.433,-13.563 -50.221,-28.246 -74.358,-44.05Zm386.237,144.533c-24.029,-3.237 -42.158,-23.975 -42.158,-48.225c-0,-26.696 21.966,-48.662 48.662,-48.662c2.175,-0 4.35,0.145 6.504,0.437c155.734,20.625 314.175,-2.929 457.175,-67.967c142.371,-64.916 263.467,-168.875 349.2,-299.77c28.592,-43.43 53.075,-89.434 73.134,-137.405c19.916,-47.75 35.304,-97.262 45.971,-147.891c4.737,-22.438 24.716,-38.634 47.65,-38.634c26.716,0 48.7,21.984 48.7,48.7c-0,3.384 -0.355,6.755 -1.05,10.063c-11.934,56.587 -29.146,111.929 -51.417,165.296c-22.367,53.554 -49.667,104.912 -81.554,153.404c-95.829,146.217 -231.159,262.329 -390.238,334.829c-159.708,72.621 -336.658,98.9 -510.579,75.825Z" style="fill:#e61f54;"/><path d="M2401.64,7987c-4.367,-2.871 -7,-7.758 -7,-12.983c-0,-8.525 7.012,-15.538 15.537,-15.538c3.033,0 6,0.888 8.538,2.554c23.037,15.142 46.125,28.867 69.266,41.175c23.642,12.605 47.784,24.059 72.429,34.367c5.688,2.442 9.388,8.058 9.388,14.246c-0,8.504 -6.996,15.504 -15.5,15.504c-2.008,0 -3.996,-0.392 -5.854,-1.15c-25.213,-10.571 -50.238,-22.458 -75.071,-35.662c-24.671,-13.146 -48.579,-27.317 -71.733,-42.513Zm372.429,139.392c-7.634,-1.038 -13.388,-7.629 -13.388,-15.334c0,-8.491 6.984,-15.479 15.475,-15.479c0.7,0 1.396,0.05 2.088,0.142c387.329,51.642 763.971,-164.671 914.55,-525.25c20.729,-49.663 36.737,-101.163 47.821,-153.825c1.495,-7.158 7.866,-12.333 15.183,-12.333c8.508,-0 15.512,7.004 15.512,15.512c0,1.096 -0.116,2.188 -0.35,3.258c-11.491,54.559 -28.087,107.913 -49.562,159.363c-155.613,373.8 -546.054,597.992 -947.329,543.946Z" style="fill:#e61f54;"/><path d="M3056.94,6990.12c83.425,54.838 133.791,148.217 133.791,248.05c0,162.842 -134,296.842 -296.842,296.842c-162.845,-0 -296.845,-134 -296.845,-296.842c-0,-57.942 16.966,-114.637 48.795,-163.058c89.459,-136.059 275.021,-174.425 411.1,-84.992Zm-37.854,57.592c-37.175,-24.438 -80.708,-37.467 -125.196,-37.467c-125.037,0 -227.925,102.888 -227.925,227.925c0,125.033 102.888,227.921 227.925,227.921c76.655,-0 148.355,-38.675 190.459,-102.729c68.671,-104.484 39.212,-246.967 -65.263,-315.65Z" style="fill:#666;"/></g></g></svg>