<svg width="auto" height="auto"  viewBox="0 0 1239 336" fill="none" xmlns="http://www.w3.org/2000/svg">
<g clip-path="url(#clip0_376_684)">
<path d="M1215.5 344C1353.3 344 1465 232.295 1465 94.5C1465 -43.295 1353.3 -155 1215.5 -155C1077.7 -155 966 -43.295 966 94.5C966 232.295 1077.7 344 1215.5 344Z" stroke="#3E70B7" stroke-width="2"/>
<path d="M71 144C136.17 144 189 90.9458 189 25.5C189 -39.9457 136.17 -93 71 -93C5.8304 -93 -47 -39.9457 -47 25.5C-47 90.9458 5.8304 144 71 144Z" stroke="#3E70B7" stroke-width="2"/>
<path d="M423.093 414.311C465.671 414.311 500.187 379.767 500.187 337.156C500.187 294.544 465.671 260 423.093 260C380.516 260 346 294.544 346 337.156C346 379.767 380.516 414.311 423.093 414.311Z" stroke="#3E70B7" stroke-width="2"/>
</g>
<defs>
<clipPath id="clip0_376_684">
<rect width="1239" height="336" fill="white"/>
</clipPath>
</defs>
</svg>
