<?xml version="1.0" encoding="UTF-8" standalone="no"?><!DOCTYPE svg PUBLIC "-//W3C//DTD SVG 1.1//EN" "http://www.w3.org/Graphics/SVG/1.1/DTD/svg11.dtd"><svg width="100%" height="100%" viewBox="0 0 271 267" version="1.1" xmlns="http://www.w3.org/2000/svg" xmlns:xlink="http://www.w3.org/1999/xlink" xml:space="preserve" xmlns:serif="http://www.serif.com/" style="fill-rule:evenodd;clip-rule:evenodd;stroke-linejoin:round;stroke-miterlimit:2;"><g id="Image"><path id="path6306" d="M94.175,265.128c-0.54,-0.874 -0.878,-22.113 -0.75,-47.198l0.231,-45.61l-19.828,0c-16.264,0 -19.98,0.398 -20.677,2.213c-0.467,1.217 -2.116,2.212 -3.664,2.212c-1.549,0 -3.642,-0.995 -4.652,-2.212c-1.458,-1.757 -5.746,-2.213 -20.83,-2.213l-18.994,0l0,-35.841c0,-23.976 -0.534,-36.375 -1.613,-37.454c-0.887,-0.888 -1.385,-2.787 -1.106,-4.222c0.473,-2.436 3.508,-2.585 45.954,-2.261l45.447,0.346l-0.291,-45.189c-0.203,-31.45 0.205,-45.687 1.342,-46.824c1.195,-1.195 2.654,-1.169 5.431,0.096c2.58,1.176 15.59,1.73 40.601,1.73l36.804,0l0,8.87c0,4.878 0.824,10.188 1.83,11.799c1.456,2.332 1.456,3.528 0,5.86c-1.302,2.084 -1.83,11.662 -1.83,33.187l0,30.256l20.355,-0c13.67,-0 20.925,-0.571 22.094,-1.74c1.335,-1.335 2.519,-1.336 5.089,-0.004c1.906,0.988 11.29,1.896 21.785,2.109l18.437,0.373l0.395,36.017c0.233,21.203 1.002,36.748 1.869,37.793c3.402,4.099 -2.429,9.249 -7.436,6.569c-1.631,-0.872 -18.97,-1.469 -42.667,-1.469l-39.921,-0l0,42.478c0,27.251 0.546,43.025 1.524,44.002c0.837,0.838 1.118,2.578 0.623,3.868c-1.179,3.073 -5.186,4.549 -7.113,2.622c-2.039,-2.039 -71.21,-2.086 -72.469,-0.049c-1.205,1.951 -4.735,1.884 -5.97,-0.114l0,0Zm5.233,-3.573c0,-1.217 -0.996,-2.213 -2.212,-2.213c-2.304,0 -2.927,1.745 -1.23,3.442c1.698,1.697 3.442,1.074 3.442,-1.229Zm77.834,-0.461c0.321,-0.964 -0.467,-1.752 -1.751,-1.752c-1.285,0 -2.336,1.051 -2.336,2.336c0,2.604 3.176,2.151 4.087,-0.584Zm-60.501,-12.814c-0.63,-10.092 -0.382,-12.537 1.267,-12.537c1.127,0 2.049,-1.067 2.049,-2.37c0,-1.501 -0.811,-2.059 -2.212,-1.521c-1.491,0.572 -2.213,-0.07 -2.213,-1.968c0,-3.556 2.695,-5.311 4.849,-3.157c1.981,1.981 15.801,2.214 15.801,0.266c-0,-2.687 6.059,-3.362 8.703,-0.97c3.326,3.01 12.528,3.028 15.526,0.029c3.674,-3.674 4.249,-8.539 3.458,-29.269c-0.484,-12.699 -1.44,-20.562 -2.755,-22.667c-1.74,-2.787 -1.683,-3.554 0.425,-5.662c4.749,-4.749 11.047,1.63 6.533,6.618c-1.983,2.191 -2.391,6.449 -2.391,24.95c-0,28.102 -0.641,29.821 -11.119,29.821c-5.04,-0 -8.328,0.763 -9.531,2.212c-1.009,1.217 -3.001,2.212 -4.424,2.212c-1.424,0 -3.415,-0.995 -4.425,-2.212c-2.092,-2.52 -12.596,-3.03 -14.047,-0.682c-0.52,0.842 -1.321,7.811 -1.778,15.487l-0.833,13.957l24.553,-0c22.587,-0 24.79,-0.237 27.503,-2.95c2.815,-2.815 2.95,-4.917 2.95,-45.724l0,-42.773l6.294,-0c6.047,-0 6.929,-0.637 22.468,-16.225l16.174,-16.224l31.455,-0l6.001,7.006l6.002,7.006l0.103,-26.578l-21.387,-7.932c-20,-7.418 -21.389,-8.182 -21.433,-11.785c-0.096,-7.843 -2.557,-9.016 -18.921,-9.016l-14.956,0l-0,10.325c-0,6.328 0.609,10.325 1.573,10.325c0.865,-0 1.363,1.825 1.106,4.056c-0.334,2.907 -1.409,4.19 -3.792,4.528c-4.051,0.575 -5.979,-3.387 -3.545,-7.285c0.94,-1.504 1.708,-7.058 1.708,-12.342l0,-9.607l-4.425,0c-3.933,0 -4.425,-0.491 -4.425,-4.425l0,-4.424l-26.806,-0l-14.237,13.274l-14.238,13.275l-12.082,-0c-11.654,-0 -12.191,-0.152 -15.133,-4.284c-1.678,-2.356 -3.051,-6.339 -3.051,-8.85l0,-4.566l-33.923,0l-0,8.87c-0,4.878 0.824,10.19 1.832,11.805c2.233,3.574 -0.025,8.087 -4.045,8.087c-4.331,-0 -6.217,-4.502 -3.256,-7.773c1.802,-1.992 2.519,-5.373 2.519,-11.886l-0,-9.103l-4.425,0c-4.308,0 -4.425,0.189 -4.425,7.146c-0,5.273 -0.773,7.846 -2.95,9.816c-4.148,3.754 -4.01,13.431 0.257,17.973c3.126,3.328 3.89,3.414 30.246,3.414l27.038,-0l16.953,16.423l16.953,16.422l-0,-17.048l14.749,-14.989l14.75,-14.988l-0,-7.68c-0,-4.223 -0.769,-8.91 -1.708,-10.414c-0.939,-1.504 -1.292,-3.818 -0.784,-5.142c1.16,-3.021 7.785,-3.166 8.925,-0.195c1.008,2.626 -0.302,6.637 -2.166,6.637c-0.725,0 -1.317,4.161 -1.317,9.246l-0,9.246l-29.499,29.388l-0,7.772c-0,4.274 0.592,7.771 1.317,7.771c2.272,-0 3.239,4.702 1.418,6.895c-2.43,2.929 -7.762,1.826 -8.377,-1.733c-0.281,-1.622 -7.577,-10.085 -16.215,-18.805l-15.704,-15.856l-55.099,-0l-3.818,-4.538c-4.843,-5.756 -5.243,-15.378 -0.869,-20.939c1.859,-2.362 2.95,-5.983 2.95,-9.786l0,-6.036l-14.749,0l-0,48.018l13.187,12.865l13.188,12.865l8.936,-0c4.916,-0 8.937,-0.526 8.937,-1.168c0,-2.442 -12.696,-13.367 -16.074,-13.832c-5.249,-0.723 -7.391,-4.941 -4.154,-8.178c3.073,-3.073 7.42,-1.185 8.129,3.531c0.241,1.603 4.223,6.65 8.85,11.216l8.411,8.302l10.325,0.433l10.325,0.433l0.825,37.611l11.115,0c6.113,0 12.425,0.701 14.026,1.558c2.359,1.263 3.807,0.807 7.646,-2.404c2.605,-2.179 5.068,-5.629 5.474,-7.668c1.085,-5.458 5.041,-7.47 8.51,-4.329c3.438,3.11 7.575,3.259 8.498,0.306c2.261,-7.237 2.1,-7.053 4.467,-5.089c3.211,2.665 2.356,15.203 -1.081,15.856c-1.634,0.31 -2.63,-0.682 -2.95,-2.937c-0.381,-2.688 -1.259,-3.3 -4.17,-2.909c-2.028,0.273 -4.318,1.103 -5.088,1.844c-0.771,0.741 -2.541,1.347 -3.933,1.347c-1.392,0 -6.135,3.983 -10.539,8.85l-8.009,8.85l-24.054,-0l0,17.699c0,14.911 0.356,17.7 2.259,17.7c1.242,-0 2.641,0.995 3.107,2.212c0.6,1.561 3.035,2.212 8.274,2.212l7.425,0l-0.782,-12.536Zm-15.265,-8.694c-1.577,-4.109 0.059,-13.43 2.357,-13.43c1.217,-0 2.424,1.49 2.683,3.311c0.354,2.498 -0.099,3.093 -1.844,2.424c-1.511,-0.58 -2.314,-0.065 -2.314,1.482c-0,1.303 0.995,2.37 2.212,2.37c1.229,0 2.213,1.311 2.213,2.95c-0,3.357 -4.097,4.046 -5.307,0.893Zm1.118,-39.596c-0.941,-0.941 -1.711,-4.092 -1.711,-7.003c-0,-4.457 1.034,-6.157 6.549,-10.767c8.132,-6.797 14.763,-7.362 20.071,-1.711c2.789,2.967 4.576,3.623 8.456,3.1c7.807,-1.052 10.647,-4.63 10.647,-13.411c0,-7.178 0.399,-7.96 7.79,-15.259c7.568,-7.473 8.031,-7.693 16.245,-7.693c4.65,0 9.685,-0.768 11.189,-1.708c3.833,-2.393 7.55,-0.535 7.55,3.775c-0,4.663 -5.048,6.536 -8.703,3.228c-1.635,-1.48 -5.29,-2.345 -9.906,-2.345c-6.781,0 -7.82,0.514 -14.264,7.057c-6.432,6.53 -6.951,7.611 -6.951,14.492c0,10.091 -3.866,13.85 -14.247,13.85c-5.547,-0 -8.094,-0.745 -10.089,-2.95c-1.469,-1.623 -4.356,-2.95 -6.417,-2.95c-3.972,0 -12.02,6.604 -12.02,9.863c-0,1.065 -0.83,1.771 -1.844,1.568c-1.014,-0.203 -1.844,0.627 -1.844,1.844c0,1.216 0.83,2.046 1.844,1.843c2.043,-0.408 2.568,4.909 0.605,6.123c-0.681,0.421 -2.009,-0.004 -2.95,-0.946Zm83.836,-50.531c-0,-1.217 -0.625,-2.213 -1.388,-2.213c-1.86,0 -3.192,2.303 -2.013,3.482c1.661,1.661 3.401,1.011 3.401,-1.269Zm-69.827,51.364c-1.714,-1.714 -1.035,-6.391 0.873,-6.01c1.014,0.203 1.844,-0.627 1.844,-1.843c-0,-1.217 -0.83,-2.047 -1.844,-1.844c-1.908,0.382 -2.587,-4.296 -0.873,-6.01c2.043,-2.043 4.929,2.555 4.929,7.854c0,5.298 -2.886,9.896 -4.929,7.853Zm25.8,28.283c-0,-0.771 -0.714,-1.639 -1.586,-1.93c-0.872,-0.291 -1.585,0.578 -1.585,1.93c-0,1.352 0.713,2.22 1.585,1.93c0.872,-0.291 1.586,-1.16 1.586,-1.93Zm-0.221,-30.974c-0,-1.217 -0.996,-2.213 -2.213,-2.213c-1.217,0 -2.212,0.996 -2.212,2.213c-0,1.217 0.995,2.212 2.212,2.212c1.217,0 2.213,-0.995 2.213,-2.212Zm-91.447,-26.672c-0,-1.285 -0.788,-2.073 -1.752,-1.752c-2.735,0.912 -3.188,4.087 -0.584,4.087c1.285,0 2.336,-1.051 2.336,-2.335Zm116.521,0.123c-0,-1.217 -0.996,-2.213 -2.213,-2.213c-1.217,0 -2.212,0.996 -2.212,2.213c-0,1.217 0.995,2.212 2.212,2.212c1.217,0 2.213,-0.995 2.213,-2.212Zm-31.257,-0.848c-0.291,-0.872 -1.159,-1.586 -1.93,-1.586c-0.77,0 -1.639,0.714 -1.929,1.586c-0.291,0.872 0.577,1.585 1.929,1.585c1.352,0 2.221,-0.713 1.93,-1.585Zm128.824,-0.627c0,-0.771 -0.713,-1.639 -1.585,-1.93c-0.872,-0.291 -1.586,0.578 -1.586,1.93c0,1.352 0.714,2.22 1.586,1.93c0.872,-0.291 1.585,-1.159 1.585,-1.93Zm-220.472,-1.603c0.616,-1.607 -2.635,-5.894 -10.371,-13.676l-11.269,-11.335l-0,-47.871l-4.835,-0c-3.144,-0 -5.798,1.126 -7.59,3.219c-2.502,2.921 -2.751,6.014 -2.7,33.555c0.031,16.685 0.128,31.8 0.215,33.59c0.147,2.992 1.023,3.295 10.854,3.763c24.883,1.185 24.761,1.191 25.696,-1.245l-0,-0Zm168.186,-8.722l10.505,-9.587l26.754,0l5.505,7.375c3.028,4.056 6.028,7.375 6.666,7.375c3.203,-0 0.516,-8.601 -5.108,-16.351l-6.269,-8.638l-29.126,-0.085l-14.198,13.525c-7.81,7.439 -14.42,14.077 -14.69,14.75c-0.271,0.673 1.746,1.224 4.482,1.224c4.062,-0 6.902,-1.759 15.479,-9.588l0,0Zm46.165,8.325c0,-0.695 -2.353,-4.346 -5.229,-8.113l-5.23,-6.849l-24.202,0.075l-8.85,8.019l-8.849,8.019l26.18,0.057c14.399,0.034 26.18,-0.51 26.18,-1.205l0,-0.003Zm-203.542,-18.772c-0,-1.285 -0.789,-2.073 -1.752,-1.752c-2.735,0.912 -3.188,4.087 -0.584,4.087c1.285,0 2.336,-1.051 2.336,-2.335Zm-0,-29.376c-0,-1.217 -0.996,-2.213 -2.213,-2.213c-2.303,0 -2.926,1.745 -1.229,3.442c1.697,1.697 3.442,1.074 3.442,-1.229Zm131.381,0.331c-0.183,-1.763 -2.206,-1.422 -2.84,0.48c-0.324,0.973 0.207,1.504 1.18,1.18c0.974,-0.325 1.72,-1.072 1.66,-1.66Zm76.586,-12.131l0,-12.537l-17.471,-0c-15.372,-0 -17.779,0.341 -20.041,2.84c-5.078,5.612 -2.63,7.814 16.875,15.181c10.133,3.828 18.923,6.98 19.531,7.006c0.608,0.025 1.106,-5.595 1.106,-12.49Zm-130.533,-11.062l13.213,-13.275l28.823,0l0,-35.398l-8.112,-0c-9.034,-0 -8.596,-0.695 -8.147,12.905c0.256,7.781 -0.084,9.219 -2.181,9.219c-1.367,-0 -2.832,-1.328 -3.256,-2.95c-0.62,-2.37 -2.012,-2.95 -7.079,-2.95c-4.246,0 -6.585,-0.723 -7.157,-2.212c-0.672,-1.753 -3.771,-2.213 -14.907,-2.213c-7.732,0 -14.058,0.593 -14.058,1.317c-0,2.237 -4.687,3.252 -6.825,1.478c-5.102,-4.235 -0.109,-10.971 5.525,-7.452c1.538,0.96 8.472,1.707 15.849,1.707c9.857,0 13.569,0.55 14.95,2.213c2.515,3.03 13.274,3.014 13.274,-0.021c0,-1.228 0.767,-3.717 1.704,-5.531c0.938,-1.814 2.168,-4.294 2.734,-5.511c0.696,-1.496 3.728,-2.356 9.358,-2.655l8.328,-0.442l0,-7.144c0,-4.989 -0.667,-7.399 -2.212,-7.992c-1.217,-0.467 -2.212,-2.218 -2.212,-3.891c-0,-1.674 0.995,-3.425 2.212,-3.892c1.588,-0.609 2.212,-3.093 2.212,-8.803l0,-7.955l-17.699,0l-0,14.75l-33.131,-0l-13.671,13.614l-13.671,13.614l0,23.997c0,20.348 -0.336,23.997 -2.212,23.997c-3.072,0 -2.909,8.585 0.228,12.052c1.958,2.164 4.665,2.698 13.674,2.698l11.233,-0l13.213,-13.274Zm33.187,-34.661c-0,-7.138 0.369,-8.258 2.581,-7.832c2.045,0.394 2.581,2.019 2.581,7.832c-0,5.812 -0.536,7.437 -2.581,7.831c-2.212,0.426 -2.581,-0.693 -2.581,-7.831Zm-0,36.049c-0,-0.764 -0.996,-1.388 -2.213,-1.388c-2.281,-0 -2.93,1.74 -1.269,3.401c1.178,1.179 3.482,-0.153 3.482,-2.013Zm-156.345,-2.863c0,-0.811 -0.995,-1.475 -2.212,-1.475c-1.217,0 -2.213,0.664 -2.213,1.475c0,0.811 0.996,1.475 2.213,1.475c1.217,-0 2.212,-0.664 2.212,-1.475Zm215.005,-0.277c-0.912,-2.735 -4.087,-3.188 -4.087,-0.584c-0,1.285 1.051,2.336 2.335,2.336c1.285,-0 2.073,-0.788 1.752,-1.752Zm-116.521,-36.32c0.321,-0.964 -0.467,-1.752 -1.752,-1.752c-1.284,0 -2.335,1.051 -2.335,2.336c-0,2.604 3.175,2.151 4.087,-0.584Zm2.727,-29.776l12.291,-11.799l31.043,-0l0,-11.8l-25.654,-0c-21.442,-0 -25.793,0.363 -26.502,2.212c-0.467,1.217 -1.866,2.213 -3.108,2.213c-1.885,-0 -2.259,2.563 -2.259,15.487c0,8.518 0.427,15.487 0.949,15.487c0.522,-0 6.48,-5.31 13.24,-11.8Zm66.651,-3.06c-0.291,-0.872 -1.159,-1.586 -1.93,-1.586c-0.771,0 -1.639,0.714 -1.93,1.586c-0.291,0.872 0.578,1.585 1.93,1.585c1.352,0 2.22,-0.713 1.93,-1.585Zm-78.173,-20.649c-0.29,-0.873 -1.159,-1.586 -1.929,-1.586c-0.771,-0 -1.639,0.713 -1.93,1.586c-0.291,0.872 0.578,1.585 1.93,1.585c1.352,0 2.22,-0.713 1.929,-1.585Z" style="fill:#7e7e7e;fill-rule:nonzero;"/></g></svg>