<?xml version="1.0" encoding="UTF-8" standalone="no"?><!DOCTYPE svg PUBLIC "-//W3C//DTD SVG 1.1//EN" "http://www.w3.org/Graphics/SVG/1.1/DTD/svg11.dtd"><svg width="100%" height="100%" viewBox="0 0 271 267" version="1.1" xmlns="http://www.w3.org/2000/svg" xmlns:xlink="http://www.w3.org/1999/xlink" xml:space="preserve" xmlns:serif="http://www.serif.com/" style="fill-rule:evenodd;clip-rule:evenodd;stroke-linejoin:round;stroke-miterlimit:2;"><g id="Image"><path id="path6234" d="M0.572,265.412c-0.265,-0.691 -0.346,-49.264 -0.181,-107.942l0.3,-106.686l2.035,-5.813c1.12,-3.197 3.323,-8.363 4.896,-11.479l2.86,-5.665l5.227,-5.607c6.221,-6.672 13.101,-12.093 20.18,-15.9l5.172,-2.782l7.054,-1.769l7.053,-1.769l215.36,-0l-0,213.479l-2.14,7.385c-3.275,11.306 -7.475,18.176 -16.824,27.525l-5.055,5.056l-7.664,4.453l-7.665,4.453l-6.188,1.851l-6.188,1.852l-217.75,0.613l-0.482,-1.255Zm223.404,-5.665c2.328,-0.881 6.915,-2.977 10.194,-4.656l5.961,-3.054l7.453,-6.912l7.453,-6.912l3.631,-6.254c1.997,-3.44 4.425,-8.793 5.394,-11.897l1.764,-5.642l-0,-209.718l-212.539,0l-5.172,1.762c-2.845,0.969 -8.135,3.282 -11.756,5.14l-6.583,3.379l-7.614,7.711c-4.187,4.241 -8.348,9.122 -9.246,10.847c-0.898,1.725 -2.297,4.384 -3.108,5.91c-1.905,3.583 -3.047,7.975 -4.05,15.565l-0.807,6.112l-0.096,199.53l1.335,1.335l213.555,-0.643l4.231,-1.603Zm-187.083,-93.641l-1.004,-1.876l-0,-59.237l1.478,-1.478c3.461,-3.462 1.708,-5.216 30.017,30.027c11.771,14.655 13.356,16.413 14.821,16.443l0.706,0.014l-0,-43.992l3.408,-4.209l3.912,1.242l0.559,2.085c0.307,1.146 0.565,15.068 0.572,30.936l0.016,28.851l-1.477,1.478c-0.813,0.813 -2.059,1.478 -2.77,1.478l-1.292,-0l-6.401,-7.38c-3.52,-4.058 -11.055,-13.253 -16.745,-20.433c-5.689,-7.18 -11.766,-14.647 -13.503,-16.594l-3.159,-3.54l-1.676,1.036l-0.034,41.738l-1.185,2.352l-1.185,2.351l-4.058,0.584l-1.004,-1.876l0.004,0Zm84.179,0.365l-3.689,-1.314l-2.808,-2.808l-2.809,-2.809l-0.172,-8.13l5.144,-0.592l1.584,3.321l1.584,3.321l3.039,1.442l3.04,1.442l21.535,0l2.99,-1.042l2.99,-1.042l1.383,-2.673l1.382,-2.673l-0,-3.764c-0,-2.07 -0.482,-4.822 -1.071,-6.114l-1.071,-2.35l-3.068,-1.456l-3.068,-1.456l-21.346,-0.041l-3.762,-1.736c-2.069,-0.955 -4.721,-2.78 -5.894,-4.055l-2.133,-2.318l-1.109,-5.287l-1.109,-5.286l3.182,-10.093l2.134,-2.004c1.173,-1.103 3.701,-2.66 5.617,-3.461l3.484,-1.455l22.16,0.041l3.836,1.742l3.836,1.742l2.062,2.622c1.135,1.442 2.312,3.617 2.618,4.832l0.554,2.211l-1.16,1.398c-0.639,0.769 -1.97,1.399 -2.958,1.399l-1.798,-0l-1.883,-3.192l-1.883,-3.191l-2.759,-1.143l-2.759,-1.143l-10.816,0.343l-10.815,0.344l-1.674,1.673l-1.673,1.674l-0,13.031l3.331,3.332l13.381,0.56l13.382,0.56l2.821,1.48c6.129,3.216 8.934,8.662 8.934,17.347l0,5.062l-1.295,3.026c-0.712,1.665 -2.51,4.151 -3.997,5.525l-2.702,2.499l-7.523,2.045l-23.511,-0.071l-3.688,-1.315l-0,0Zm80.564,-1.189c-0.978,-1.423 -3.604,-6.818 -5.836,-11.991c-16.323,-37.824 -19.786,-46.162 -19.786,-47.635l-0,-1.672l3.991,-2.135l1.662,1.74c0.914,0.957 5.721,11.05 10.683,22.43c10.701,24.54 12.056,27.308 13.289,27.158c0.82,-0.1 8.739,-17.439 17.06,-37.352c3.81,-9.117 5.458,-12.139 7.228,-13.256l1.547,-0.976l4.072,4.073l-10.123,22.872c-5.567,12.58 -11.212,25.412 -12.544,28.515c-1.331,3.103 -3.217,6.806 -4.19,8.229l-1.769,2.586l-3.505,-0l-1.779,-2.586Z" style="fill:#7e7e7e;fill-rule:nonzero;"/></g></svg>