<?xml version="1.0" encoding="UTF-8" standalone="no"?><!DOCTYPE svg PUBLIC "-//W3C//DTD SVG 1.1//EN" "http://www.w3.org/Graphics/SVG/1.1/DTD/svg11.dtd"><svg width="100%" height="100%" viewBox="0 0 859 642" version="1.1" xmlns="http://www.w3.org/2000/svg" xmlns:xlink="http://www.w3.org/1999/xlink" xml:space="preserve" xmlns:serif="http://www.serif.com/" style="fill-rule:evenodd;clip-rule:evenodd;stroke-linejoin:round;stroke-miterlimit:2;"><g id="Layer_2"><g id="Layer_1-2"><path d="M34.792,595.833c-10.891,-6.098 -19.791,-15.215 -25.625,-26.25c-12.284,-24.939 -12.284,-54.227 -0,-79.166c5.819,-11.067 14.721,-20.215 25.625,-26.334c11.551,-6.35 24.571,-9.554 37.75,-9.291c18.944,-0 33.972,4.708 45.083,14.125c10.909,9.089 18.609,21.451 21.958,35.25l-34.375,6.75c-1.121,-7.872 -4.745,-15.178 -10.333,-20.834c-6.041,-5.931 -14.294,-9.075 -22.75,-8.666c-7.228,-0.158 -14.322,1.987 -20.25,6.125c-5.963,4.316 -10.574,10.242 -13.292,17.083c-3.221,8.035 -4.794,16.637 -4.625,25.292c0,14.791 3.459,26.541 10.417,35.333c6.709,8.669 17.212,13.579 28.167,13.167c8.44,0.467 16.713,-2.547 22.875,-8.334c5.777,-5.857 9.693,-13.296 11.25,-21.375l34.166,6.75c-3.981,14.115 -12.325,26.617 -23.833,35.709c-12.796,9.738 -28.6,14.706 -44.667,14.041c-13.117,0.213 -26.064,-3.02 -37.541,-9.375Z" style="fill:#7e7e7e;fill-rule:nonzero;"/><path d="M159.75,596.75c-7.07,-5.434 -11.094,-13.963 -10.792,-22.875c-0.562,-8.589 3.35,-16.885 10.334,-21.917c9.097,-5.819 19.295,-9.705 29.958,-11.416l12.5,-2.292c3.844,-0.691 7.547,-2.014 10.958,-3.917c2.296,-1.596 3.582,-4.295 3.375,-7.083c-0.031,-2.946 -1.493,-5.699 -3.916,-7.375c-3.212,-2.126 -7.031,-3.15 -10.875,-2.917c-5.045,-0.215 -9.985,1.516 -13.792,4.834c-3.591,3.405 -5.64,8.134 -5.667,13.083l-30.791,-1.917c0.659,-10.597 5.99,-20.373 14.541,-26.666c10.331,-7.265 22.805,-10.86 35.417,-10.209c15.208,0 26.708,3.042 34.583,9.167c7.875,6.125 11.792,15.333 11.792,27.708l0,69.792l-29.875,0l0,-9.5l-0.208,0c-3.214,3.779 -7.306,6.712 -11.917,8.542c-5.84,2.444 -12.129,3.636 -18.458,3.5c-9.767,0.365 -19.367,-2.654 -27.167,-8.542Zm51.333,-16.667c3.899,-3.582 6.021,-8.71 5.792,-14l0,-11.416c-8.716,1.08 -17.283,3.135 -25.542,6.125c-7,2.958 -10.541,7.083 -10.541,12.5c-0.121,3.418 1.436,6.689 4.166,8.75c3.236,2.273 7.133,3.416 11.084,3.25c5.493,0.252 10.88,-1.613 15.041,-5.209Z" style="fill:#7e7e7e;fill-rule:nonzero;"/><path d="M267.458,641.667l0,-143.084l31.834,0l-0,12.25c3.309,-4.452 7.582,-8.099 12.5,-10.666c5.689,-2.878 12.001,-4.309 18.375,-4.167c8.537,-0.144 16.931,2.233 24.125,6.833c7.276,4.714 13.059,11.408 16.666,19.292c7.88,18.197 7.835,38.879 -0.125,57.042c-3.595,7.891 -9.381,14.588 -16.666,19.291c-7.19,4.615 -15.583,7.007 -24.125,6.875c-6.309,0.176 -12.569,-1.167 -18.25,-3.916c-4.559,-2.405 -8.573,-5.725 -11.792,-9.75l-0,50l-32.542,-0Zm70.292,-68.625c7.71,-13.963 7.71,-30.954 -0,-44.917c-3.624,-5.42 -9.818,-8.58 -16.333,-8.333c-6.592,-0.175 -12.852,2.955 -16.667,8.333c-8.27,13.808 -8.27,31.109 -0,44.917c3.815,5.377 10.075,8.508 16.667,8.333c6.499,0.265 12.69,-2.862 16.333,-8.25l-0,-0.083Z" style="fill:#7e7e7e;fill-rule:nonzero;"/><path d="M425,487.208l-32.625,0l0,-29.5l32.625,0l0,29.5Zm0,115.542l-32.625,0l0,-104.167l32.625,0l0,104.167Z" style="fill:#7e7e7e;fill-rule:nonzero;"/><path d="M469.167,600.542c-7.457,-3.441 -12.696,-10.421 -13.917,-18.542c-0.501,-3.672 -0.724,-7.377 -0.667,-11.083l0,-48.292l-17.708,0l-0,-24.042l17.708,0l0,-32.875l32.5,0l0,32.875l21.25,0l0,24.042l-21.25,0l0,44.042c0,8.333 4.167,12.208 12.834,12.208c3.042,-0.086 6.076,-0.364 9.083,-0.833l-0,24.041c-6.525,1.358 -13.169,2.056 -19.833,2.084c-6.85,0.239 -13.671,-0.997 -20,-3.625Z" style="fill:#7e7e7e;fill-rule:nonzero;"/><path d="M529.167,596.75c-7.044,-5.451 -11.049,-13.973 -10.75,-22.875c-0.562,-8.589 3.349,-16.885 10.333,-21.917c9.078,-5.827 19.264,-9.714 29.917,-11.416l12.5,-2.292c3.844,-0.691 7.547,-2.014 10.958,-3.917c2.309,-1.585 3.599,-4.292 3.375,-7.083c-0.01,-2.951 -1.477,-5.714 -3.917,-7.375c-3.196,-2.126 -7.001,-3.15 -10.833,-2.917c-5.089,-0.261 -10.085,1.474 -13.917,4.834c-3.602,3.401 -5.665,8.129 -5.708,13.083l-30.792,-1.917c0.659,-10.597 5.99,-20.373 14.542,-26.666c10.343,-7.271 22.832,-10.867 35.458,-10.209c15.167,0 26.681,3.056 34.542,9.167c7.861,6.111 11.806,15.347 11.833,27.708l0,69.792l-29.958,0l0,-9.5c-3.204,3.789 -7.299,6.724 -11.917,8.542c-5.825,2.444 -12.1,3.636 -18.416,3.5c-9.795,0.381 -19.426,-2.638 -27.25,-8.542Zm51.333,-16.667c3.918,-3.568 6.044,-8.706 5.792,-14l-0,-11.416c-8.704,1.074 -17.258,3.129 -25.5,6.125c-7.042,2.958 -10.542,7.083 -10.542,12.5c-0.128,3.42 1.431,6.693 4.167,8.75c3.238,2.268 7.133,3.41 11.083,3.25c5.522,0.273 10.942,-1.593 15.125,-5.209l-0.125,0Z" style="fill:#7e7e7e;fill-rule:nonzero;"/><rect x="637.042" y="457.708" width="32.458" height="145.042" style="fill:#7e7e7e;fill-rule:nonzero;"/><path d="M131.083,66.333c0,-10.833 -5.791,-18.041 -15.875,-18.041l-61.041,-0l-0,49.75l61.041,-0c10.084,-0 15.875,-7.542 15.875,-18l0,-13.709Zm9,165.834l-37.5,-85.792l-48.416,0l-0,85.792l-53.25,-0l-0,-232.167l131.958,0c28.115,0.089 51.27,23.094 51.542,51.208l-0,38.209c-0.042,20.421 -11.445,39.206 -29.542,48.666l42.5,94.084l-57.292,-0Z" style="fill:#7e7e7e;fill-rule:nonzero;"/><path d="M350,66.333c0,-10.833 -5.75,-18.041 -15.875,-18.041l-46.292,-0c-10.083,-0 -15.875,7.208 -15.875,18.041l0,99.5c0,10.459 5.792,18.042 15.875,18.042l46.125,0c10.125,0 15.875,-7.583 15.875,-18.042l0.167,-99.5Zm1.792,165.834l-81.625,-0c-28.146,-0.357 -51.204,-23.397 -51.584,-51.542l0,-129.417c0.514,-28.036 23.545,-50.899 51.584,-51.208l81.458,0c28.115,0.089 51.27,23.094 51.542,51.208l-0,129.417c-0.248,28.181 -23.361,51.294 -51.542,51.542" style="fill:#7e7e7e;fill-rule:nonzero;"/><path d="M794.083,0l-64.791,89.417l-16,-0l-0,-89.417l-53.334,0l0,232.167l53.334,-0l-0,-94.459l15.625,0l66.958,94.459l62.375,-0l-84.25,-118.959l81.75,-113.208l-61.667,0Z" style="fill:#7e7e7e;fill-rule:nonzero;"/><path d="M571.833,144.792l0,20.833c0,10.458 -5.75,18.042 -15.875,18.042l-49.458,-0c-10.125,-0 -15.875,-7.584 -15.875,-18.042l0,-99.292c0,-10.833 5.75,-18.041 15.875,-18.041l49.458,-0c10.125,-0 15.875,7.208 15.875,18.041l0,20.834l53.375,-0l0,-35.959c-0.294,-28.121 -23.46,-51.119 -51.583,-51.208l-84.792,0c-28.039,0.309 -51.07,23.172 -51.583,51.208l0,129.417c0.379,28.145 23.438,51.185 51.583,51.542l84.792,-0c28.196,-0.225 51.336,-23.346 51.583,-51.542l0,-35.833l-53.375,-0Z" style="fill:#7e7e7e;fill-rule:nonzero;"/><path d="M89.833,268.125l0,62.333l-51.833,0l0,-62.333l-37.083,0l-0,161.25l37.083,0l0,-65.375l51.833,0l0,65.375l37.042,0l0,-161.25l-37.042,0Z" style="fill:#7e7e7e;fill-rule:nonzero;"/><path d="M151.583,268.125l0,161.25l120.959,0l-0,-33.583l-83.875,-0l-0,-30.292l72.583,0l0,-33.542l-72.583,0l-0,-30.291l83.875,-0l-0,-33.542l-120.959,0Z" style="fill:#7e7e7e;fill-rule:nonzero;"/><path d="M365.542,312.5l16.25,52.333l-32.792,0l16.542,-52.333Zm-20.042,-44.375l-55.583,161.042l38.541,-0l10.792,-33.334l52.417,0l10.916,33.334l38.542,-0l-55.583,-161.042l-40.042,0Z" style="fill:#7e7e7e;fill-rule:nonzero;"/><path d="M458.583,268.125l0,161.25l120.667,0l0,-33.583l-83.625,-0l0,-127.667l-37.042,0Z" style="fill:#7e7e7e;fill-rule:nonzero;"/><path d="M821.167,267.417l-0,62.333l-51.792,0l0,-62.333l-37.083,-0l-0,161.25l37.083,-0l0,-65.375l51.792,-0l-0,65.375l37.083,-0l0,-161.25l-37.083,-0Z" style="fill:#7e7e7e;fill-rule:nonzero;"/><path d="M711.25,330.667l-61.417,-0l0,-62.542l-37.208,0l0,62.542l-61.458,-0l-0,36.166l61.458,0l0,62.542l37.208,0l0,-62.542l61.417,0l0,-36.166Z" style="fill:#7e7e7e;fill-rule:nonzero;"/></g></g></svg>