<?xml version="1.0" encoding="UTF-8" standalone="no"?><!DOCTYPE svg PUBLIC "-//W3C//DTD SVG 1.1//EN" "http://www.w3.org/Graphics/SVG/1.1/DTD/svg11.dtd"><svg width="100%" height="100%" viewBox="0 0 688 267" version="1.1" xmlns="http://www.w3.org/2000/svg" xmlns:xlink="http://www.w3.org/1999/xlink" xml:space="preserve" xmlns:serif="http://www.serif.com/" style="fill-rule:evenodd;clip-rule:evenodd;stroke-linejoin:round;stroke-miterlimit:2;"><g id="Image"><path id="path291" d="M8.194,266.667l0,-266.667l671.112,0l-0,266.667l-671.112,-0Zm648.889,-22.223l0,-222.222l-626.666,0l-0,222.222l626.666,0Zm-558.518,-48.932c-8.494,-2.206 -14.371,-5.434 -19.993,-10.98c-5.408,-5.335 -9.385,-11.007 -8.404,-11.986c0.341,-0.34 3.779,-2.167 7.641,-4.06l7.023,-3.443l1.123,1.738c2.537,3.923 7.53,8.527 11.333,10.448c12.071,6.1 27.466,3.352 32.204,-5.748c1.479,-2.84 1.441,-9.816 -0.07,-12.737c-2.355,-4.555 -10.132,-9.508 -24.19,-15.406c-15.594,-6.542 -24.981,-15.309 -27.741,-25.908c-3.854,-14.795 2.362,-28.784 15.71,-35.358c4.673,-2.302 5.492,-2.457 14.237,-2.697c8.002,-0.22 9.941,-0.031 14.092,1.359c7.755,2.601 13.563,6.847 17.812,13.022c1.993,2.898 2.05,3.171 0.863,4.191c-1.907,1.639 -11.978,7.986 -12.589,7.934c-0.293,-0.025 -1.533,-1.409 -2.755,-3.075c-1.222,-1.666 -4.04,-4.05 -6.261,-5.296c-3.432,-1.926 -4.825,-2.269 -9.259,-2.281c-3.572,-0.01 -5.973,0.394 -7.604,1.275c-8.086,4.367 -9.764,14.322 -3.564,21.131c2.608,2.863 6.734,5.15 23.437,12.99c15.241,7.153 21.878,12.714 25.266,21.168c1.392,3.475 1.655,5.547 1.655,13.022c0,10.588 -1.343,14.834 -6.584,20.82c-8.338,9.524 -27.739,13.941 -43.382,9.877l-0,0Zm109.629,0.425c-28.53,-5.693 -47.987,-31.154 -46.425,-60.752c1.28,-24.253 14.461,-43.275 36.055,-52.032c7.774,-3.152 12.056,-3.894 22.493,-3.894c14.445,0 22.641,2.18 32.437,8.628c4.977,3.276 13.229,11.449 13.206,13.081c-0.007,0.486 -3.009,2.994 -6.671,5.573l-6.659,4.69l-4.41,-4.478c-18.4,-18.689 -51.48,-13.176 -62.615,10.436c-3.489,7.396 -4.82,13.09 -4.807,20.559c0.035,20.179 11.194,35.97 29.064,41.128c2.534,0.731 6.912,1.23 10.8,1.23c12.091,-0 21.389,-3.667 29.523,-11.642l4.935,-4.839l6.908,4.649c3.799,2.557 6.907,4.902 6.907,5.211c0,1.349 -10.261,11.266 -14.736,14.241c-11.943,7.939 -30.641,11.277 -46.005,8.211Zm238.344,0.385c-15.258,-2.786 -30.109,-12.131 -38.377,-24.148c-3.198,-4.648 -7.107,-13.182 -8.631,-18.841c-1.814,-6.739 -1.797,-24.366 0.03,-31.111c5.506,-20.333 21.68,-36.198 42.272,-41.464c8.052,-2.06 22.346,-2.087 30.28,-0.057c11.672,2.985 20.981,8.501 29.046,17.211c10.901,11.772 15.77,25.814 15.017,43.307c-0.317,7.345 -0.783,9.992 -2.851,16.184c-5.961,17.843 -19.224,30.769 -37.722,36.765c-5.993,1.942 -8.411,2.318 -16.296,2.537c-5.093,0.142 -10.838,-0.033 -12.768,-0.383l-0,-0Zm24.431,-18.399c12.664,-4.83 21.9,-15.321 24.976,-28.37c1.473,-6.249 1.446,-17.467 -0.057,-23.58c-7.401,-30.103 -45.041,-40.668 -66.886,-18.775c-17.46,17.498 -15.756,49.957 3.4,64.753c10.311,7.964 26.692,10.501 38.566,5.972l0.001,0Zm-183.915,16.706c-0.195,-0.509 -0.267,-26.425 -0.162,-57.592l0.191,-56.667l18.148,-0.416l0,63.721l1.667,0.406c0.917,0.223 13.167,0.313 27.222,0.199l25.556,-0.206l0.37,-31.852l0.37,-31.852l17.778,-0l0.379,115.185l-18.527,0l-0,-34.815l-54.815,0l0,34.815l-8.912,0c-6.447,0 -9.01,-0.256 -9.266,-0.926l0.001,0Zm230.231,0c0.198,-0.509 8.776,-14.259 19.062,-30.555c10.286,-16.296 18.856,-30.031 19.045,-30.521c0.188,-0.491 -2.133,-4.824 -5.159,-9.63c-22.692,-36.04 -27.224,-43.297 -27.224,-43.591c0,-0.183 4.631,-0.332 10.29,-0.332l10.29,-0l5.033,7.963c14.84,23.478 17.523,27.592 17.993,27.592c0.283,0 3.076,-4.083 6.208,-9.074c3.132,-4.99 8.129,-12.907 11.105,-17.592l5.41,-8.519l9.428,-0.207c6.88,-0.151 9.429,0.028 9.429,0.669c-0,0.482 -2.459,4.742 -5.465,9.466c-3.005,4.725 -10.171,16.016 -15.923,25.091l-10.459,16.501l13.456,21.277c7.401,11.703 16.409,25.944 20.018,31.648l6.562,10.37l-9.798,0.208c-5.389,0.114 -10.16,0.069 -10.601,-0.101c-0.442,-0.169 -7.292,-10.663 -15.223,-23.32c-7.93,-12.657 -14.598,-23.028 -14.816,-23.048c-0.219,-0.021 -3.263,4.548 -6.764,10.15c-3.502,5.602 -10.105,16.102 -14.674,23.333l-8.306,13.148l-9.638,0c-7.41,0 -9.556,-0.214 -9.279,-0.925l-0,-0.001Z" style="fill:#7e7e7e;fill-rule:nonzero;"/></g></svg>