<?xml version="1.0" encoding="UTF-8" standalone="no"?><!DOCTYPE svg PUBLIC "-//W3C//DTD SVG 1.1//EN" "http://www.w3.org/Graphics/SVG/1.1/DTD/svg11.dtd"><svg width="100%" height="100%" viewBox="0 0 191 204" version="1.1" xmlns="http://www.w3.org/2000/svg" xmlns:xlink="http://www.w3.org/1999/xlink" xml:space="preserve" xmlns:serif="http://www.serif.com/" style="fill-rule:evenodd;clip-rule:evenodd;stroke-linejoin:round;stroke-miterlimit:2;"><path d="M145.167,39.875l-0.834,0l-1.291,-0.667l-0,-0.291l-0.834,-0l0,-0.459l-0.791,0c-0.439,-0.756 -1.158,-1.31 -2,-1.541l-0,-0.375l-0.792,-0l-0,-0.375c0.458,-0.292 0.958,-0 1.333,-0l0.5,0.5l0.584,-0c-0,0.791 0.791,0.916 1.25,1.25c0.432,0.271 0.893,0.495 1.375,0.666c0.333,0 0.5,0.5 0.958,0.542c0.458,0.042 0.583,0.417 1,0.792m-7.875,-23l1.292,-0c0.249,0.177 0.514,0.33 0.791,0.458l0.792,-0c0.255,0.155 0.492,0.336 0.708,0.542c-0.111,0.244 -0.208,0.494 -0.291,0.75l-1.375,-0l-0.75,-1.375c-0.375,-0 -0.917,-0 -1.167,-0.5m-46.75,3.75l-0.667,-0l-0.416,0.416l-4.167,0l-0,-0.416l1.083,-0l0.375,-0.5l3.792,-0l-0,0.375m-8.333,18.083c-0.384,0.051 -0.745,0.21 -1.042,0.458c-0.292,0 -0.708,0 -0.917,0.542l-0.833,0c0.008,0.139 0.008,0.278 0,0.417l-1.375,-0l0.792,-0.875l1.25,-0l0.833,-0.875l1.542,-0.334l-0.25,0.667Zm93.083,30.917l0.417,-0l-0,0.833l0.5,0c0.017,0.222 0.017,0.445 -0,0.667l1.416,1.583l0,0.458l0.459,0l-0,0.959l0.375,-0c0.542,0.646 0.757,1.507 0.583,2.333l-0.375,-0l0,-0.792l-1.375,-1.291c-0.156,-1.105 -0.668,-2.13 -1.458,-2.917c-0,-0.708 -0.75,-1.333 -0.5,-2.208m6.208,48.083l0,-0.792l1,-0.333l0,-1.083l0.5,-0.5c-0.091,-0.532 0.013,-1.08 0.292,-1.542c0.061,-0.246 0.061,-0.504 -0,-0.75l-0,-4.167c0.833,-1 0.333,-2.166 0.541,-3.25l0.292,0l0,4.084c-0.625,0.833 0,1.625 0,2.458c0,-0 0,0.417 0.292,0.625c0.291,0.208 -0.292,0.625 -0.542,1.042l0,2.666c0.082,0.564 -0.103,1.134 -0.5,1.542l0,1.208l-0.417,0l0,1.709l-0.5,0.5l0,2.416l-0.5,0.5l0,1.209l-0.458,0.333l0,1.083l-0.292,0.292c-0.318,0.587 -0.543,1.219 -0.666,1.875c-0,0.667 -0.792,0.917 -0.542,1.542l-0.417,-0c-0.023,0.277 -0.023,0.556 0,0.833l-0.458,0l0,0.792l-0.458,0.208l-0,1.292l-0.334,-0c0,0.375 -0.375,0.708 -0.625,1.25l0,0.541c-0.163,0.142 -0.316,0.296 -0.458,0.459l0,1.541l0.417,0l-0,0.625c-0,0.167 -0.25,1.5 -0.875,2.042c-0,0.625 -0.709,0.958 -0.584,1.625l-0.333,0c0,0.542 -0.417,0.958 -0.458,1.375c-0.042,0.417 -0.75,0.667 -0.542,1.25c0.208,0.583 -0.333,0.208 -0.458,0.375c-0.125,0.167 -0.459,0.417 -0.459,0.625c0,0.208 -0.375,0.5 -0.5,0.75c-0.125,0.25 -0.75,0.667 -0.833,1.083c-0.11,0.474 -0.392,0.89 -0.792,1.167c-0.341,0.374 -0.648,0.779 -0.916,1.208c-0.25,0.375 -0.792,0.5 -1.042,1c-0.16,0.356 -0.259,0.737 -0.292,1.125l-0.666,0l-0.75,1.125c-0.292,0.375 -0.625,0.709 -0.917,1.042c-0.321,0.413 -0.7,0.778 -1.125,1.083c-0.375,0.25 -0.583,0.625 -0.958,0.834c-0.375,0.208 -0.459,0.75 -1.084,0.875l-0.291,-0.459c-0,0 0.5,-0.25 0.458,-0.375c-0.042,-0.125 0.5,-0.208 0.542,-0.5c-0.042,-0.206 -0.042,-0.418 -0,-0.625c0.225,-0.433 0.537,-0.816 0.916,-1.125c0.5,-0.25 0,-0.916 0.667,-1c0.667,-0.083 0.417,-0.75 0.708,-0.833c0.292,-0.083 0.417,-0.75 0.834,-0.875l-0,-0.875c-0,-0.417 0.541,-0.5 0.541,-0.958c0,-0.459 0.459,-0.459 0.625,-0.792c0.228,-0.284 0.479,-0.549 0.75,-0.792c-0.018,-0.11 -0.018,-0.223 0,-0.333c0.018,-0.11 0,-0.208 0,-0.292l0.334,0l-0,-0.75l1,-0.833c-0.25,-0.75 0.75,-1.292 0.458,-2.208l0.458,-0c0,-0.417 0.292,-1.084 0.667,-1.334c0.375,-0.25 0.917,-1.708 1.792,-2.125l-0,-0.75l0.458,0l-0,-0.75l1.542,-1.208l-0,-1.792l0.416,0l0,-1.25c0.156,-0.177 0.323,-0.344 0.5,-0.5l0,-1.541l0.459,-0l-0,-1.084l0.458,-0.333c-0.089,-0.689 0.042,-1.39 0.375,-2c0.208,-0.292 -0,-0.833 -0,-1.292l0.375,0l-0,-1.041l0.458,-0.459l0,-4.166c-0.074,-0.51 -0.002,-1.03 0.209,-1.5c0.251,-0.532 0.338,-1.127 0.25,-1.709l0.458,0m-20.833,30.584c-0,0.583 -0.667,0.708 -0.792,1.25c-0.458,-0 -0.292,0.5 -0.708,0.541c-0.417,0.042 -0.334,0.459 -0.5,0.709c-0.167,0.25 -0.625,0.375 -0.625,0.833c-0,0.458 -0.292,0.292 -0.459,0.375c-1,0.417 -1.541,1.458 -2.416,2.083l-0,0.5l-0.542,-0.5c-0,-0.208 -0,-0.541 0.375,-0.625c0.375,-0.083 1.042,-1.041 1.583,-1.5c0.542,-0.458 0.959,-1 1.542,-1.458c0.289,-0.25 0.518,-0.564 0.667,-0.917c-0,-0.375 0.708,-0.375 0.875,-0.791c0.242,-0.336 0.522,-0.644 0.833,-0.917l0.333,0.417m-116.666,1.041c-0.75,0 -0.917,-0.625 -1.417,-0.833c-0.5,-0.208 -0.542,-0.375 -0.625,-0.792c-0.083,-0.416 -0.542,-0.375 -0.792,-0.625c-0.25,-0.25 -0.375,-0.541 -0.583,-0.791c-0.208,-0.25 -0.75,-0.375 -0.792,-0.584c-0.041,-0.208 -0.625,-0.375 -0.625,-0.833c0,-0.458 -0.458,-0.25 -0.625,-0.417c-0.166,-0.166 -0.291,-0.625 -0.458,-0.625c-0.167,0 -0.25,-0.375 -0.417,-0.416c-0.241,-0.093 -0.426,-0.294 -0.5,-0.542l-0.375,-0l0,-0.875l0.25,-0c0.792,0.958 1.625,1.917 2.417,2.917l0.583,-0c0,0.32 0.264,0.583 0.584,0.583c-0,0.5 0.333,0.292 0.541,0.417c0.521,0.291 0.987,0.672 1.375,1.125c0.231,0.245 0.44,0.51 0.625,0.791c0.25,0.3 0.473,0.62 0.667,0.959c0.047,0.233 0.047,0.474 -0,0.708m115.208,-106.958c-0.333,-0.375 -1,-0.459 -1,-1.125c0,-0.667 -0.75,-0.709 -1.041,-1l-0.834,-0c0,0.5 0.417,0.333 0.417,0.541c-0,0.209 0.542,0.375 0.625,0.834c0.083,0.458 0.542,0.333 0.792,0.583c0.25,0.25 0.375,0.583 0.583,0.792c0.208,0.208 0.667,0.333 0.792,0.625c0.125,0.291 0.916,0.625 0.791,1.333l-0.583,-0c-0.197,-0.467 -0.624,-0.799 -1.125,-0.875c-0.5,-0 -0.75,-0.75 -1.333,-0.583c-0.334,-0.667 -1.125,-0.875 -1.5,-1.584l-0,-0.5l-1,-0.333l-1.417,-1.375l-0.625,-0.75l-1.042,-0l-0.625,-0.583c-0.109,-0.298 -0.235,-0.59 -0.375,-0.875l-1.083,-0l-2.292,-1.917l-1.5,-0c-0.291,-0.208 -0.458,-0.5 -0.916,-0.542c-0.459,-0.041 -0.459,-0.416 -0.667,-0.666l-0.708,-0.75l-1.167,-0c0.018,-0.167 0.018,-0.334 -0,-0.5l-1.292,-0l0,-0.459l-0.833,0l-0,-0.458l-0.792,-0l0,-0.375l-1.375,-0.708c0.007,-0.139 0.007,-0.278 0,-0.417l-0.75,-0l-1.666,-1l1.125,-0l-0,-0.5l-1.084,-0c-0.119,0.182 -0.259,0.35 -0.416,0.5l-1.5,-0l-0.292,-0.458l-2.375,-0c0.008,-0.153 0.008,-0.306 -0,-0.459c-0.625,0 -0.958,-0.583 -1.625,-0.625c-0.667,-0.041 -0.208,-0.416 -0.333,-0.625l0.75,0l0.5,0.459c0.603,-0.11 1.223,0.076 1.666,0.5l1.25,-0l0,0.458l0.834,-0l-0,0.458l1.208,0c-0.045,-0.135 -0.045,-0.281 -0,-0.416l1.958,-0l0,0.5l1.292,-0c0.024,0.165 0.024,0.334 0,0.5l1.292,-0c0.01,0.152 0.01,0.305 -0,0.458l0.833,-0l0,0.417l0.75,-0l0.5,0.5l0.542,-0l-0,0.5l0.541,-0l0.417,0.916l0.708,0l1.292,0.959l0.708,-0c0,0.625 1.042,0.25 1.125,0.916c0.084,0.667 0.834,0.709 1.292,1l0.417,0c0.548,0.617 1.196,1.138 1.916,1.542l0.417,-0.792c-0.375,-1.166 -1.833,-1.208 -2.375,-2.166l-2.208,-1.167l-0,-0.292l-0.667,0l-0.5,-0.5c-0.333,-0.333 -0.875,-0.333 -1.125,-0.666c-0.25,-0.334 -0.75,-0.375 -0.917,-0.75c-0.541,0.291 -0.541,-0.459 -1,-0.542c-0.458,-0.083 -0.875,-0.458 -1.458,-0.542c-0.583,-0.083 -0.5,-0.458 -0.917,-0.375c0,-0.583 -0.541,-0.375 -0.791,-0.583l-1.042,-0.875l-1.083,-0l-0,-0.458c-0,-0.084 -0.25,-0 -0.5,-0.292l0.666,-0.333c-0.25,-0.959 -1.291,-0.709 -1.625,-1.375l-0.708,-0c-0.365,-0.52 -0.918,-0.879 -1.542,-1c0.02,-0.139 0.02,-0.279 0,-0.417l-1.541,-0l-0.459,-0.5l-1.25,-0l0,-0.458l-1.333,-0l0,-0.417l1.917,-0l0.291,0.458l1.959,0c0.178,-0.038 0.363,-0.038 0.541,0c0.457,0.294 1.005,0.412 1.542,0.334l0.458,0.458l0.834,-0l-0,0.417l0.833,-0c-0.017,0.138 -0.017,0.278 0,0.416l2.542,0c-0.013,-0.11 -0.013,-0.222 -0,-0.333l-0.584,-0c0.018,-0.152 0.018,-0.306 0,-0.458l-0.791,-0l-0,-0.5l-1.209,-0l0,-0.417c-0.669,-0.005 -1.317,-0.241 -1.833,-0.667c-0.516,-0.426 0,0 0,-0.25l0.875,0l0,0.375l1.583,0c-0.333,-0.333 -0.833,-0.375 -1.041,-0.666c-0.209,-0.292 -0.917,-0 -1.167,-0.417c-0.25,-0.417 -0.75,-0.25 -1.25,-0.375l-0.25,-0.458l-0.75,-0l-0.5,-0.5l-1,-0l-0.417,-0.459l-1,0l-0.5,-0.5l-1.5,0c0.013,-0.138 0.013,-0.278 0,-0.416l-1.333,-0l0,-0.459l-1.292,0c-0.01,-0.152 -0.01,-0.305 0,-0.458l-1.125,-0c-0.151,-0.146 -0.277,-0.314 -0.375,-0.5l-1.25,-0c-0.007,-0.153 -0.007,-0.306 0,-0.458l-0.916,-0l-0.625,-0.459l-0.417,-0.5l1.25,0c0.36,-0.039 0.723,-0.039 1.083,0c1.084,0 2.167,0.209 3.25,0.292l0.5,0.5l1.709,-0c-0.018,0.152 -0.018,0.306 -0,0.458l0.958,0l0.583,0.542l0.875,-0l0.25,0.458l1,0c0.024,0.152 0.024,0.307 0,0.459l1.292,-0c0.011,0.152 0.011,0.305 -0,0.458l1.583,-0l0.375,0.542l0.792,-0l-0,0.291l2.333,0.709l0,0.416l1.292,0l-0,0.459l1.125,-0l0,0.458l1.167,-0l0.333,0.542l1.25,-0l0.5,0.5l0.917,-0l-0,0.5l0.541,-0.375l-0.25,-0.792l-0.75,-0.833l-0.75,-0l-0.75,-0.459l0.334,-0.791l-0.834,-0l-0.625,-0.584l-0.791,0l-0,-0.375l1.541,0l0,0.459l0.959,-0l0.458,0.416l1.833,0l0,-0.458l-1,-0l-0.291,-0.458l-1.042,-0l0,-0.5l-0.792,-0c-0.625,-0.375 -1.041,-1.125 -1.75,-0.959l-1,-0.958l2.125,-0l0,-0.417l1,0l1.334,0.917l0.916,-0l0,0.5l0.792,-0l0,0.417l0.875,-0l0.375,0.5c0.567,-0.031 1.134,0.054 1.667,0.25c0.675,0.231 1.408,0.231 2.083,-0l0,-0.459c-0.274,0.141 -0.601,0.141 -0.875,0c0,-0.208 -0.542,-0.25 -0.792,-0.375c-0.25,-0.125 0,0 0,-0.375l-0.375,0c-0.017,-0.152 -0.017,-0.306 0,-0.458l-0.833,-0l0,-0.5l-0.792,-0c-0.017,-0.152 -0.017,-0.306 0,-0.458l-0.833,-0l-0,-0.5l-1.708,-0l-0,-0.417l-0.875,-0c-0.016,-0.138 -0.016,-0.278 -0,-0.417l-1.292,0l0,-0.458l-0.833,-0c-0,-0.75 -0,-0.75 0.291,-1.167c0.334,0.5 0.917,0 1.375,0.375l-0.25,0.459l0.292,0.333c0.708,-0 1.417,-0 2.042,0.333c0.625,0.334 -0,0.417 -0,0.709l1.708,-0l0.792,0.875l1.666,-0l0,0.541l1.209,0c-0.209,-0.583 -0.667,-0.791 -0.875,-1.083c-0.521,-0.079 -1.036,-0.19 -1.542,-0.333c-0.44,-0.158 -0.86,-0.368 -1.25,-0.625l0,-0.334c-0.875,0 -1.458,-0.708 -2.292,-0.5l0,-0.458l-0.791,-0l-0.459,-0.458l-0.708,-0l-0.583,-0.542l-0.75,-0l-0,-0.417l-1.292,0l-1.542,-0.416l0,-0.375l-0.75,-0l-0.541,-0.542l-1,-0l-0,-0.458l-1.292,-0l-0.208,-0.417c-0.459,-0.25 -0.709,-0 -0.959,0.375l-1.791,-0l-0,-0.375l-1,-0l-0.5,-0.542l-0.5,0l-1.334,-0.666l0.209,-0.459l-0.292,-0.291l-1.25,-0l-0,-0.5l-1.5,-0l-0.458,-0.459l-2.375,0c-0.148,-0.1 -0.275,-0.227 -0.375,-0.375l-2.417,-0.75c0.012,-0.083 0.012,-0.167 -0,-0.25l-1.125,-0.583l-3.75,-0l-0.333,-0.5l-1.417,-0c-0.458,-0.334 -1.018,-0.496 -1.583,-0.458c-0.595,0.108 -1.21,0.02 -1.75,-0.25c-0.168,0.135 -0.37,0.222 -0.584,0.25l-2.5,-0c-0.291,-0 -0.708,-0.292 -0.833,-0.209c-0.125,0.084 -0.625,-0.25 -0.917,0c-0.291,0.25 -0.75,-0.25 -1.125,-0.25l-12.5,0c-0.547,-0.051 -1.092,0.13 -1.5,0.5l-2.75,0l-0.416,0.542l-0.959,-1.667l-1.291,0.625l-1.792,0c0.019,0.139 0.019,0.279 0,0.417l-1.792,-0l0,0.417l-2.333,0.666l0,0.417l-1.583,-0l-0.375,0.458l-1.709,0c-0.541,0.584 -1.25,0.459 -1.916,0.459l-0.459,0.5l-1.5,-0l-0.416,0.5l-0.75,-0l-0.5,0.458l-0.959,-0l-0.416,0.458l-0.875,0l-0,-0.25l2,-0.958l1.166,-0l0.375,-0.458l1,-0l0.459,-0.459c0.333,0 0.875,0 1.041,-0.333l-0.291,-0.625l1.25,-0c-0.03,-0.179 -0.03,-0.362 -0,-0.542l1.166,0c0.053,-0.143 0.138,-0.271 0.25,-0.375l1.792,0l-0,-0.416l1.292,-0c0.012,-0.167 0.012,-0.334 -0,-0.5l2.083,-0l0.917,-0.459l1.5,0l0.416,-0.458c1.084,-0 2.292,0.292 3.292,-0.542c0.833,0.75 1.708,-0.208 2.5,0l0.458,-0.458c1.396,0.074 2.795,-0.024 4.167,-0.292l0.333,0.292c0.834,-0.5 1.709,-0 2.459,-0.292c0.851,-0.165 1.716,-0.249 2.583,-0.25l0,-0.458l0.792,-0l0.208,0.458l1.583,-0.666l0,-0.25l-12.5,-0c-0.291,-0.02 -0.583,-0.02 -0.875,-0c-0.695,0.242 -1.432,0.341 -2.166,0.291l-1.084,0c-0.543,-0.085 -1.097,0.084 -1.5,0.459c-0.895,-0.019 -1.79,0.065 -2.666,0.25c-0.792,0.208 -1.542,0.375 -1.834,1.208l-1.125,-0l0,0.458l-1.291,0c-0.018,0.153 -0.018,0.306 -0,0.459l-0.459,-0l0.417,-0.875l0.625,-0l0,-0.375l-0.625,-0l-0.458,0.458l-1.459,-0l-0.5,0.5l-0.958,-0l-0.333,0.333l-1.625,0.5l-1.209,0l-0.541,0.542l-1,-0l-0,0.375l-0.875,0l-0,0.458l-0.792,0l-0.5,0.5l-1.625,0l0,0.292l-1.292,0.667l-0.5,-0l-0.5,0.5l-0.708,-0l-1.292,0.583l0,0.375l-0.833,0l0,0.417l-0.875,-0c-0.016,0.138 -0.016,0.278 0,0.416l-0.833,0l-0,0.459l-0.5,-0l-0.584,0.541l-0.708,0l0,0.459l-0.833,-0c0.019,0.152 0.019,0.306 -0,0.458l-0.75,0c-0.347,0.546 -0.906,0.923 -1.542,1.042l0,0.333c-0.25,0 -0.583,0 -0.833,0.292c-0.25,0.291 -0.75,0.541 -1,0.916c-0.25,0.375 -0.917,0.25 -1.125,0.792c-0.375,0 -0.292,0.25 -0.417,0.458l-1.542,0l0,0.375l-1.041,0.584c-0.292,-0 -0.792,0.416 -0.792,0.583c0,0.167 -0.542,0.25 -0.542,0.625c0,0.375 -0.625,0 -0.875,0.458c-0.25,0.459 -0.625,0.542 -0.958,0.75c-0.663,0.348 -1.234,0.848 -1.667,1.459l-0.5,-0l-1.75,1.75c-0.255,0.186 -0.492,0.395 -0.708,0.625c0,0.25 -0.75,0.458 -0.75,0.625c0,0.166 -0.708,0.291 -0.542,0.75c-0.801,0.591 -1.528,1.277 -2.166,2.041c-0.572,0.482 -1.114,0.997 -1.625,1.542c-0.511,0.545 -0,0.333 -0.417,0.417c-0.417,0.083 0,0.458 -0.417,0.458c-0.416,0 -0.291,0.375 -0.416,0.583c-0.101,0.21 -0.227,0.406 -0.375,0.584c-0.037,0.119 -0.131,0.213 -0.25,0.25c-0.284,0.077 -0.506,0.3 -0.584,0.583c-0.25,0.458 -0.791,0.708 -1.041,1.25c-0.25,0.542 -0.375,0.25 -0.459,0.542c-0.833,0.625 -1.458,1.458 -2.25,2.125c-0.201,0.268 -0.424,0.519 -0.666,0.75c-0.352,0.206 -0.618,0.531 -0.75,0.916c-0,0.5 -0.584,0.459 -0.834,0.709c-0.25,0.25 0,-0 0,0.291c0,0.292 -0.5,0.625 -0.666,1c-0.167,0.375 -0.25,0 -0.292,0.25c-0.405,1.083 -1.279,1.926 -2.375,2.292l0,0.333l-0.5,0c-0.542,0.542 -1.208,1 -1.75,1.542c-0.482,0.545 -0.997,1.06 -1.542,1.542l0,0.791c-0.25,0.417 -0.375,0.875 -0.541,0.875c-0.167,0 -0.417,0.542 -0.667,0.75c-0.25,0.209 0,0.584 -0.375,0.75c-0.375,0.167 -0.75,0.5 -0.875,0.959c-0.125,0.458 -0.292,0.833 -0.833,1.125c-0.542,0.291 -0.417,0.75 -0.625,1.125l-0.959,1.041c0.25,0.542 -0.5,0.459 -0.458,0.75c0.042,0.292 -0.417,0.584 -0.458,0.875c-0.042,0.292 -0.875,0.792 -1.042,1.417c-0.167,0.625 -0.625,0.708 -0.75,1.125c-0.163,0.369 -0.388,0.708 -0.667,1c-0.282,0.323 -0.482,0.709 -0.583,1.125c-0.542,0 -0.417,0.542 -0.708,0.792c-0.292,0.25 -0.417,0.708 -0.667,1.041c-0.25,0.334 -0.292,0 -0.5,0.292l0,1.25l-0.417,0l0,1.042l-0.5,0.541l0,0.709l-0.5,0.5l0,1.708l-0.5,-0c-0.071,1.714 0.027,3.43 0.292,5.125c0.265,1.695 0,0.292 0,0.333c0,0.042 -0.208,1.084 -0.25,1.584l0.5,-0l0,2.208l0.458,-0l0,0.667l0.917,0.791c0,0.959 0,1.875 0.375,2.792l-1.042,-0c0,0.625 0,1.125 0.292,1.5l0.667,1.208l-0.334,0.542l0.584,0.375l-0,1.625l0.458,-0c0,0.75 0,0.75 0.917,0.917c0.498,1.118 1.158,2.157 1.958,3.083c0.8,0.926 0,0.417 0,0.542c0.579,0.361 1.212,0.628 1.875,0.791c0.663,0.163 0,0.209 0.333,0.334l0.834,-0c0.396,0.668 0.857,1.295 1.375,1.875l0.583,-0c0.417,0.375 0.667,0.708 1.042,0.833c0.377,0.162 0.74,0.357 1.083,0.583c0.371,0.175 0.763,0.301 1.167,0.375c0.375,0 0.916,0 1.208,0.209c0.62,0.347 1.338,0.479 2.042,0.375l2.916,-0c0.116,-0.14 0.214,-0.294 0.292,-0.459l2.042,0l-0,-0.416l-0.709,-0c0,-0.625 0.5,-0.625 0.792,-0.792c0.292,-0.167 0.792,-0.208 1.042,-0.583l0.666,-0c0.364,-0.548 0.936,-0.925 1.584,-1.042c0.019,-0.124 0.019,-0.251 -0,-0.375c0.75,0 1.125,-0.458 1.583,-0.958l0.417,-0c0.276,-0.192 0.516,-0.432 0.708,-0.709c0,-0.291 0.75,0 0.583,-0.583c0.524,-0.386 1.012,-0.818 1.459,-1.292c0.428,-0.462 0.887,-0.893 1.375,-1.291c0.487,-0.399 -0,-0.292 -0,-0.375c-0,-0.084 0.416,-0 0.375,-0.334c-0.042,-0.333 0.541,-0.708 0.625,-1.166c0.083,-0.459 0.5,-0.625 0.833,-0.875c0.265,-0.31 0.477,-0.662 0.625,-1.042l0.333,0l0,-1.083l0.792,-0c-1.083,-0.917 0,-1.667 -0.292,-2.459l0.459,0c0.021,-0.166 0.021,-0.334 -0,-0.5c-0.021,-0.166 -0,-0.291 -0,-0.375l-0.417,0l0,-1.25l0.958,-0.791l0,-0.667c0.25,-0.417 0.417,-0.792 0.667,-1.25c0.25,-0.458 0,-0.375 0,-0.625l0.458,0l0,-0.833l-1.041,0.875l-0.792,-0l0,-1.042c0.333,-0.458 0.625,-0.833 0.917,-1.292c0.291,-0.458 -0,-1.5 0.25,-2.25c-0.375,-0.458 -0,-1.041 -0.25,-1.583l0.291,0c0.244,-0.5 0.537,-0.975 0.875,-1.417c0.419,-0.397 0.722,-0.901 0.875,-1.458l0.459,0c-0,-0.417 -0,-0.833 -0.292,-1.292c0.583,-0.583 0.667,-1.666 1.667,-2.125l-0,-0.625c-0.917,0 -1.209,1 -1.959,1.417l0,0.625c-0.25,0.25 -0.458,0.583 -0.666,0.583c-0.209,0 -0,0.667 -0.584,0.542c-0.583,-0.125 0,0.75 -0.625,0.292c0.41,-1.022 0.898,-2.011 1.459,-2.959c0.315,-0.332 0.519,-0.755 0.583,-1.208c0.667,0 0.417,-0.833 0.833,-1.083c0.417,-0.25 0,-0.292 0,-0.292c0.709,0 0.25,-0.667 0.584,-0.833c0.333,-0.167 0.208,-0.792 0.458,-1.125c0.144,-0.088 0.271,-0.201 0.375,-0.334l0.458,-0.583l0,-1.167l1.042,-1.958c-0.179,-0.198 -0.346,-0.407 -0.5,-0.625l0,-0.833l0.667,-0l1.125,-1l1.041,-0l0,-0.834l-0.458,0l0,-0.625c0.284,-0.132 0.55,-0.3 0.792,-0.5c0.843,-0.738 1.636,-1.532 2.375,-2.375c0.5,-0.655 1.16,-1.171 1.916,-1.5l1.625,-0.916c0.997,-0.437 1.935,-0.997 2.792,-1.667l1,-0l0,-0.458l0.833,-0c0.009,-0.139 0.009,-0.278 0,-0.417c0.625,-0 1.459,-0.583 1.375,-1l-0.875,-0c0.012,0.139 0.012,0.278 0,0.417l-1.166,-0c0.228,-0.781 0.87,-1.375 1.666,-1.542c0.018,-0.124 0.018,-0.251 0,-0.375l0.834,-0l-0,-0.458l1.125,-0l1.166,-0.834l-0.208,-0.25c0.208,-0.375 0.792,-0.333 0.792,-0.75c-0,-0.416 0.791,-0.375 1,-0.25c0.328,0.08 0.671,0.08 1,0c0.632,-0.622 1.487,-0.968 2.375,-0.958l0.5,-0.458l1.916,-0l0.459,-0.459l1.583,0l0,0.459l-1.125,-0l0,0.5l-0.917,-0l0,0.5l-1.916,-0l-0,1.041c-1.044,0.928 -2.207,1.713 -3.459,2.334l-0.666,-0c-0.454,0.504 -0.941,0.977 -1.459,1.416c-0.68,0.374 -1.287,0.868 -1.791,1.459l-0.542,-0l-3.667,3.666c0.268,0.107 0.566,0.107 0.834,0c0.208,0 0.625,-0.291 0.625,-0.416c-0,-0.125 0.5,-0.334 0.5,-0.5c-0,-0.167 0.291,-0.292 0.416,-0.417c0.125,-0.125 0.292,-0.458 0.459,-0.667l0.583,-0.458l0,-0.333l0.708,-0l1.834,-1.917l0.875,-0c0.291,-0.375 0.791,-0.458 1,-0.917l0.541,0c0,0.459 -0.583,0.792 0,1.209l1.042,-0.75c0.292,-0.292 0.542,-0.625 0.833,-0.959l0.625,0l0.709,0.75c-0.232,0.258 -0.499,0.482 -0.792,0.667c-0.333,-0 -0.458,0.5 -0.875,0.542c-0.417,0.041 -0.542,0.375 -0.833,0.583l-0.709,0.5c-0.527,0.466 -1.083,0.898 -1.666,1.292c-0.601,0.367 -1.125,0.848 -1.542,1.416l-0.75,0c-0.292,0.709 -1.042,0.875 -1.542,1.25c-0.5,0.375 -0.875,0.959 -1.458,1.292l0,0.333l-0.833,0.959l-0.375,-0l-0.709,0.666l0,0.5l-0.5,0.375l0,1.25l-0.541,0l-0,1.792l-0.417,-0l0,0.833l-1.167,2l-0.291,0l-0,0.792c-0.156,0.177 -0.323,0.344 -0.5,0.5l-0,0.875l0.458,-0.75l0.542,-0l0.791,-0.792c-0.024,-0.165 -0.024,-0.334 0,-0.5c0.334,-0.291 0.875,-0.5 0.875,-0.75c0,-0.25 0.584,-0.958 0.792,-1.5c0.326,-0.851 0.855,-1.609 1.542,-2.208l0.625,-0c-0,-0.875 1.083,-0.875 0.958,-1.708c0.434,-0.386 0.838,-0.804 1.208,-1.25c0.375,-0.459 1,-0.75 1.292,-1.334l0.583,0c0.209,-0.666 1.084,-0.75 1.334,-1.416c0.25,-0.667 1.333,-0.917 1.916,-1.459l0.875,0l0,0.417l-0.666,-0c0.006,0.125 0.006,0.25 -0,0.375l-0.667,-0l0,0.917l-0.958,0.833l-0,0.542l0.458,-0l0,0.916l-0.583,0l-0.292,0.292l0,0.625l0.833,-0c0,-0.625 0.792,-0.708 1.084,-0.917c0.291,-0.208 -0,-1.625 1.333,-1.458l0,0.5l0.542,-0c1.217,-1.029 2.345,-2.158 3.375,-3.375l0.75,-0c0.007,-0.139 0.007,-0.278 -0,-0.417c0.5,0 0.25,-0.458 0.541,-0.458c0.27,-0.035 0.528,-0.135 0.75,-0.292c0.417,-0.291 1,-0.375 1.334,-0.708c0.333,-0.333 1.083,-0.333 1.291,-0.958c0.5,-0 0.667,-0.375 1.084,-0.5l0.625,-0l0.458,-0.5l1,-0c0.023,-0.124 0.023,-0.251 0,-0.375c0.667,-0 1.042,-0.75 1.75,-0.542c0.517,-0.41 1.18,-0.591 1.833,-0.5l0.375,-0.5l1.25,-0l0,-0.417c0.334,0 0.75,0 1,-0.25c0.25,-0.25 0.5,-0.291 0.917,0c0.417,0.292 0.667,0 1.042,0l1.083,0c0.346,0.037 0.695,0.037 1.042,0c0.329,0.212 0.754,0.212 1.083,0l0,-0.416l1.292,-0l-0,-0.417l4.166,-0l0,0.417l-1.708,-0l-0.792,1.041l-1.75,0l-0.416,0.459c-0.457,0.06 -0.919,0.06 -1.375,-0c-0.375,-0 -0.875,-0 -1.5,0.291l-0.25,0.417l-1.25,-0l-0.5,0.5l-1,-0l-0,0.5l-1.334,-0l0,0.333l1.792,0.25c0.667,-0.333 1.708,0 2.167,-1.125l1.208,0c0.395,-0.39 0.95,-0.575 1.5,-0.5l1.542,0c0.565,0.111 1.149,-0.078 1.541,-0.5l7.875,0l0.584,-0.791c1.363,0.322 2.769,0.435 4.166,0.333c-0.012,0.166 -0.012,0.334 0,0.5l0.875,-0l0,-0.292l-0.5,-0.25l0,-0.5c0.709,-0.333 1.25,0.459 1.875,0l0,-0.833l-1.291,-0c-0,-0.208 -0,-0.583 -0.542,-0.542c-0.011,-0.097 -0.011,-0.194 0,-0.291l0.708,-0.459c-0.108,-0.197 -0.192,-0.407 -0.25,-0.625l1.917,0l0,0.459l1.375,-0l0,0.458l-2.417,-0c0.009,0.139 0.009,0.278 0,0.417l0.875,-0c-0.017,0.138 -0.017,0.278 0,0.416l1.292,0l0,-0.416l0.833,-0c-0.017,0.152 -0.017,0.306 0,0.458c0.834,-0 1.75,-0 2.584,-0.25l1.333,0.708l1.583,0l0.542,0.5l3.208,0l0.5,0.459l2.459,-0c0.013,0.152 0.013,0.306 -0,0.458l1.666,-0l0.667,0.708c0,0.375 -0.75,0 -0.417,0.709l1.542,-0c0.182,0.355 0.56,0.569 0.958,0.541c0.399,-0.027 0,0 0,0.334l-0.75,-0c-0.018,0.124 -0.018,0.25 0,0.375l0.875,-0c0.152,0.17 0.291,0.351 0.417,0.541l0.958,0l0.334,0.5c0.416,-0.25 0.625,-0.791 1.166,-0.5l0,0.25l0.917,0.5c0.314,0.103 0.634,0.186 0.958,0.25c0,0.584 1.084,0.542 0.959,1.334l-1.209,-0l-0.208,0.75l0.708,0.708l0.709,-0c0.016,0.152 0.016,0.306 -0,0.458l1.291,0c0.461,0.737 1.171,1.284 2,1.542c-0.006,0.125 -0.006,0.25 0,0.375l0.834,-0l0.875,0.958l0.375,0l1.125,1l1.166,0l0.5,0.5l0.792,0c-0.022,0.305 -0.022,0.612 0,0.917l1.375,-0l0.875,0.542l0,0.375l-1.042,-0l0,0.375l1.709,-0l0.75,0.416c0.021,0.25 0.021,0.501 -0,0.75c-0.087,0.213 -0.184,0.422 -0.292,0.625l1.625,0l0.458,0.459l0.5,-0c0.5,0.791 1.334,1.25 1.584,2.25l-0.25,0.416l0.375,0.709l0.791,-0l0.375,0.5l1,-0l0,0.5l0.834,-0l-0,0.583l0.75,0.792c0.25,0.25 0.458,0.541 0.666,0.791c0.209,0.25 0.459,0.459 0.667,0.667l0.833,-0c0.087,-0.468 0.087,-0.948 0,-1.417c-0.291,-0.666 -0.708,-1.291 -1.083,-1.958l-0.958,-0l-0.75,-0.708c0.298,-0.257 0.576,-0.535 0.833,-0.834c0,0.459 0.542,0.584 0.667,0.792c0.125,0.208 0.666,0.375 0.791,0.75c0.125,0.375 0.542,0.542 0.875,0.833c0.334,0.292 0.417,0 0.625,0c0.209,0 0,0.625 0.5,0.5c0.101,0.158 0.185,0.325 0.25,0.5l0.834,0c0.121,0.145 0.232,0.299 0.333,0.459l1.042,-0c-0.018,0.166 -0.018,0.333 -0,0.5l0.791,-0l-0.75,-0.875l-0.875,-0l-1.208,-1.084l0,-0.625c0.492,0.127 1.008,0.127 1.5,0c-0.173,-0.215 -0.368,-0.41 -0.583,-0.583c-0.209,-0.208 -0.375,-0.458 -0.667,-0.542c-0.292,-0.083 0,-0.708 -0.625,-0.75c-0.625,-0.041 -0.333,-0.375 -0.625,-0.708l0,-0.333l-0.917,-1c-0.282,-0.323 -0.621,-0.592 -1,-0.792c-0.541,-0 -0.416,-0.708 -0.916,-0.583l-0,0.416l-0.792,-0.791c0,-0 0,-0.625 -0.583,-0.584c-0.584,0.042 -0.459,-0.375 -0.709,-0.5c-0.305,-0.131 -0.576,-0.33 -0.791,-0.583c-0.959,-1.125 -2.167,-2.042 -3.084,-3.25l-0.75,0l0,-0.458l-1.041,-0c-0.334,-0.25 -0.75,-0.375 -1.042,-0.625c-0.292,-0.25 -0.792,-0.334 -0.875,-0.792l-0.75,-0l-0.542,-0.75l-1.916,-1.417c-0,0 -0.209,-0.208 -0.292,-0.25c-0.964,-0.412 -1.779,-1.11 -2.333,-2l-0.625,0l-0.834,-0.833l1.125,0c-0.019,0.152 -0.019,0.306 0,0.458c0.359,0.067 0.7,0.209 1,0.417c0.292,0.208 0.459,0.625 0.875,0.708c0.417,0.084 0.75,0.292 1,0.709c0.303,0.357 0.671,0.654 1.084,0.875c0.25,-0 0.666,-0 0.791,0.333c0.125,0.333 0.917,0.875 1.375,1.375l1.042,0l0.417,0.5l1,0l-0,0.375c-0,0.042 0.75,0.375 0.791,0.583c0.042,0.209 0.709,0.292 0.959,0.667c0.32,0.31 0.669,0.589 1.041,0.833c0.375,0.375 0.667,0.792 1,1.125c0.334,0.334 0.459,0.667 0.709,0.667c0.25,0 0.75,0.583 1.208,0.625c-0.208,0.5 0.667,0.292 0.5,0.75c-0.167,0.458 0.375,0.667 0.833,0.583c0.459,-0.083 0.417,0.417 0.584,0.709c0.166,0.291 0.416,0.666 0.666,0.708c0.25,0.042 0,0.75 0.75,0.583c0.75,-0.166 0.542,0.417 0.75,0.75l0.417,0.625c0.75,-0.208 0.75,0.542 1.042,0.875c0.291,0.334 0.583,0.75 0.916,1.042c0.393,0.349 0.811,0.67 1.25,0.958l0.375,0c0,0.375 0.292,0.459 0.584,0.625c0.291,0.167 0.416,0.5 0.666,0.667c0.25,0.167 0,0.75 0.667,0.667c0.875,0.916 1.792,1.75 2.583,2.75c0.792,1 0.875,1.583 1.417,2.333c0.542,0.75 0.458,0.292 0.417,0.375c-0.042,0.083 0.541,0.708 0.583,1.25c0.042,0.542 0.5,0.792 0.458,1.375c-0.041,0.583 0.417,0.417 0.417,0.625c0,0.208 0.333,0.375 0.458,0.542c0.125,0.166 0,0.458 0.25,0.75c0.25,0.291 0.875,1.208 0.792,1.833l0.708,0.708l0.709,1.042l-0,0.292c0.29,0.2 0.474,0.523 0.5,0.875c-0,0.25 0.458,0.375 0.625,0.666c0.185,0.278 0.312,0.59 0.375,0.917l0.416,0l0,0.792c0.459,0.75 0.792,1.375 1.125,1.958l0.375,0l0,2.25l0.459,0l-0,0.625l0.958,1.75l0,1.333l0.5,0l0,1.417l-0.833,-0.75l-0,-0.792l-0.5,-0.333l-0,-1.042l-0.417,0c-0.018,-0.249 -0.018,-0.5 0,-0.75l-0.792,-0.625c0,0 0,-0.291 -0.208,-0.375c-0.208,-0.083 0,0 -0.375,0l0,0.959l0.417,-0l-0,1.291l0.5,0c-0.015,0.167 -0.015,0.334 -0,0.5l-0.875,-0.708l-0,-0.667l-0.875,-0.875l-0,1.125l0.416,0l0,0.875l0.917,1.667l0,2.208l0.375,0l0,-0.875l-0.375,-0.416l0,-0.584l-0.417,0l0,-1.125l-0.458,-0.333l0,-1l-0.458,-0.208c-0,-0.834 -0,-1.625 -0.5,-2.25l-0,-1.209l-0.417,0c-0.021,-0.263 -0.021,-0.528 -0,-0.791l-0.458,-0.459l-0,-0.458c-0,-0.125 -1,-0.667 -1.459,-0.958l0,-1.375c0,-0.209 -0.375,-0.334 -0.458,-0.542c-0.083,-0.208 -0.292,-0 -0.458,-0l-0,2.458l0.458,1.542l0.375,0l-0,1.083l0.542,0.417l-0,0.917l0.416,0.25l0,1.5l0.459,-0l-0,0.833l-0.959,0c0,-0.417 0,-0.75 -0.375,-0.875l-0.375,0.542l-0.458,-1l-1.625,-0l-0,0.833l0.375,0l-0,0.833l-0.375,0c-0.208,0.667 0.292,0.792 0.583,0.959c0.292,0.166 0,1.208 0,1.666c0,0.459 1.584,1 1.417,2.084l-0.375,-0c-0.333,0.666 0.625,0.875 0.458,1.5c-0.166,0.625 0.334,0.291 0.459,0.375l-0,2.166l1,1.125l-0,1.917l0.25,0l0.25,0.25c-0.792,0.75 -0.5,1.667 -0.584,2.667l0.542,0.291l-0,1.459l-0.917,-0.459l0,-2.875l-0.458,-0.5l-0,-0.958l-0.5,-0.5l-0,-1.708l-0.5,-0.459l-0,-1.416l-0.458,-0.5l-0,-0.875l-0.5,-0.292l-0,-0.292l-0.5,0l-0,-0.791l-0.459,-0l0,-0.959l-0.458,-0.5l-0,-0.5l-0.625,-0.833c-0.276,-0.242 -0.568,-0.465 -0.875,-0.667c-0,-0.666 -0.333,-1.375 -0.542,-2.125l-0.416,-0.25c-0.667,-0.541 -0.792,-1.375 -1.292,-2c-0.083,-0.218 -0.152,-0.44 -0.208,-0.666l-0.334,-0c-0.145,-1.042 -0.578,-2.024 -1.25,-2.834c-0.406,-0.335 -0.674,-0.811 -0.75,-1.333c-0.047,-0.549 -0.429,-1.014 -0.958,-1.167c0.02,-0.235 0.02,-0.472 -0,-0.708l-0.375,0l-0,-1c-0.542,-0.542 -0.833,-1.208 -1.583,-1.583l0.958,-0.5c0.25,0.208 0.375,0.458 0.833,0.541l-0.666,-0.916c-0,-0.292 -0.5,-0.625 -0.459,-0.875c0.042,-0.25 -0.5,-0.25 -0.541,-0.625c-0.042,-0.375 -0.417,-0.25 -0.417,-0.375c-0,-0.125 -0.667,-0.959 -0.75,-1.5c-0.083,-0.542 -0.833,-0.834 -0.792,-1.459c0.042,-0.625 -0.333,-0.791 -0.833,-0.833c-0,-0.75 -0.625,-1.125 -1,-1.625c-0.609,-0.634 -1.128,-1.349 -1.542,-2.125c-0.458,-0 -0.333,-0.542 -0.75,-0.583c-0.416,-0.042 -0.375,-0.5 -0.625,-0.709l-0.666,-0.666c-0,-0.25 -0.667,-0.375 -0.75,-0.625c-0.084,-0.25 -0.417,-0.584 -0.625,-0.834c-0.566,-0.628 -1.164,-1.226 -1.792,-1.791c-0.583,-0.459 -1.083,-1.042 -1.625,-1.542c-0.542,-0.5 -0.875,-1.083 -1.667,-1.042l0,-0.208c-0.493,-0.565 -1.053,-1.068 -1.666,-1.5c-0.377,-0.173 -0.727,-0.397 -1.042,-0.667c-0.315,-0.269 0,-0.416 -0.292,-0.416c-0.865,-0.253 -1.626,-0.779 -2.166,-1.5l-0.459,-0l-1.375,-1.459l-0.666,0l-0,-0.5l-0.834,0l0,-0.416l-0.791,-0l-0.459,-0.459l-0.541,0l-0,-0.416l-0.625,-0l-1.709,-0.959l-0.916,0c0.011,-0.138 0.011,-0.278 -0,-0.416l-2.042,-0l-0.625,-0.75l-0.792,-0c-0.155,-0.189 -0.281,-0.4 -0.375,-0.625c-0.468,-0.012 -0.932,-0.096 -1.375,-0.25c-0.498,-0.218 -1.04,-0.318 -1.583,-0.292l-2.542,0l0,-0.375l-1.708,-0l-0.458,-0.458l-0.709,-0l0,-1l-1.916,0.541c0.121,0.101 0.233,0.212 0.333,0.334l1.25,-0l0.917,0.958l0.583,0c0.125,0.143 0.236,0.296 0.333,0.458c1,0 1.917,0 2.75,0.542l1.209,0l0.416,0.458l1.042,0l0.542,0.709l0.708,0.75l1.083,-0c0.276,0.298 0.527,0.619 0.75,0.958l0.584,-0l-0,0.25l2.041,1.208l0.792,0l0,0.5l2.292,0l-0,0.375l0.875,0c0.016,0.153 0.016,0.306 -0,0.459l0.666,-0l0.917,0.791c-0.081,0.176 -0.15,0.357 -0.208,0.542l1.916,0.708l0,0.375l0.792,0l1.542,0.75c-0.253,0.455 -0.73,0.741 -1.25,0.75c-0.011,0.153 -0.011,0.306 -0,0.459l0.583,-0c-0.017,0.152 -0.017,0.306 0,0.458l0.667,-0l0.291,0.5l0.75,-0c0.109,0.227 0.283,0.415 0.5,0.542c0.25,-0 0.334,0.5 0.542,0.708c0.224,0.115 0.462,0.199 0.708,0.25l0.375,1.083l1.042,0.334c0.875,0.666 1.125,1.916 2.25,2.458l0,0.667c0.833,0.583 1.292,1.583 2.167,1.666l1.166,1.292c0,1 0.834,1.458 1.375,2.083l1.375,0l0.834,0.917l-1.042,-0l-0.333,0.708l0.75,0.417l-0,0.625l1.458,1.417l0,1.208l0.708,-0l0.75,0.708c-0.75,0.542 0,1.084 0,1.625l0.417,0l0,0.792l0.417,-0c0.162,0.697 0.541,1.324 1.083,1.792l0,1l0.417,-0l-0,0.875l0.25,-0l1.333,2.375l0.208,-0c0.25,0.791 0.459,1.583 0.709,2.333l0.375,-0l-0,1.292l0.5,1.041l0.375,0l-0,0.834l0.291,-0c0,0.583 0.334,1.083 0.5,1.541l0,1l0.917,1.042l0,1.583l0.5,0l0,1.209l0.458,0.458l0,1.167c0.293,0.41 0.413,0.919 0.334,1.416l-0,1.542l0.458,0.458c0,0.959 -0.292,2.042 0.5,2.959l0,2c-0.067,0.217 -0.067,0.449 0,0.666c0.333,0.5 0,0.875 0,1.292l0.5,0.917c0,0.541 0,1.166 -0.25,1.708c-0.105,0.224 -0.105,0.484 0,0.708c0.235,0.711 0.307,1.466 0.208,2.209c0.042,0.387 0.042,0.779 0,1.166c0,0.417 0,0.834 -0.208,1.25c-0.108,0.284 -0.192,0.577 -0.25,0.875c-0.021,0.361 -0.021,0.723 0,1.084l0,1.708c-0.833,1.125 -0.292,2.333 -0.542,3.458l-0.416,0.459l-0,1.916c-0.709,0.625 -0.417,1.459 -0.5,2.167l-0.542,0.542c0.542,0.958 -0.667,1.666 -0.417,2.666l-0.5,0l0,1.125l-0.333,0.25l-0.75,2.459l-0.375,0.333l0,1l-0.417,-0l0,0.875l-0.416,-0l-0,1.083c-0.25,0.417 -0.5,0.709 -0.459,0.875c0.042,0.167 -0.541,0.25 -0.541,0.625c-0,0.375 -0.542,0.25 -0.584,0.709c-0.041,0.458 -0.625,0.916 -0.916,1.416c-0.292,0.5 -0.667,1 -1,1.5l0.541,0l0,0.667l-0.875,1l-1.041,1.042l-0,1.708c-0.292,0.25 -0.709,0.5 -0.792,0.833c-0.083,0.334 -0.583,0.5 -0.75,0.875c-0.167,0.375 -0.458,0.625 -0.417,0.959c-0.315,0.236 -0.667,0.419 -1.041,0.541c-0.459,0 -0.417,0.584 -0.834,0.667c-0.416,0.083 -0.333,0.542 -0.583,0.75c-0.25,0.208 -0.625,0.417 -0.917,0.625l0,0.792l-0.416,-0c-0,-0 -0,0.458 -0.292,0.416c-0.292,-0.041 -0.458,0 -0.708,0.334c-0.25,0.333 -1.25,1.375 -2.125,1.708c-0,0.25 -0,0.792 -0.625,0.667c-0.625,-0.125 -0.334,0.791 -0.875,0.5l-1.459,0.875l0,0.458l-0.458,-0c-0.014,0.111 -0.014,0.223 -0,0.333l-0.75,0l-0.792,0.917l-0.916,-0l-0.792,0.958l-1.542,0c-0.51,0.281 -0.998,0.601 -1.458,0.959c-0.542,0.416 -1.042,0.583 -1.25,0.958l-0.875,-0l0,0.417l-0.792,-0l0,0.458l-0.833,-0l-0,0.417l-0.833,-0c-0.568,0.326 -1.226,0.458 -1.875,0.375c-0.177,0.156 -0.344,0.323 -0.5,0.5l-1,-0l-0,0.458l-0.75,-0l-0.542,0.542l-1,-0l-0,0.333l-2.333,0.667l-0,0.416l-1.292,0l-0.417,0.459l-2.75,-0c-0.075,0.17 -0.158,0.337 -0.25,0.5l-1.25,-0l-0.5,0.5l-1,-0c0.024,0.138 0.024,0.278 0,0.416l-2,0l-0.458,0.584c-0.603,-0.161 -1.247,-0.004 -1.708,0.416l-3.125,0c-0.25,0 -1.042,0 -1.5,0.25c-0.51,0.171 -1.047,0.242 -1.584,0.209l-2.166,-0c-0.084,-0 -0.959,-0 -1.417,0.333c-0.534,0.129 -1.091,0.129 -1.625,-0l-8.833,-0c-0.496,0.093 -1.009,0.02 -1.459,-0.208c-0.45,-0.228 -0.583,-0 -0.75,-0l-1.541,-0.459l-0.417,0.292l-3,0l-0.208,-0.542l-1.75,0c-0.018,-0.152 -0.018,-0.306 -0,-0.458l-3.209,0l-0.458,-0.542l-1.458,0l-0,-0.291l-1.625,-0.542l-1.167,-0l0,-0.458l-2.167,-0l-0.583,-0.542l-0.458,0c-0.011,-0.153 -0.011,-0.306 -0,-0.458l-1.25,-0c-0.031,-0.152 -0.031,-0.307 -0,-0.459l-1.334,0l0,-0.333l-1.333,-0.667l-0.542,0c-0.018,-0.166 -0.018,-0.333 0,-0.5l-0.791,0c-0.018,-0.152 -0.018,-0.306 -0,-0.458l-0.834,0l0,-0.458l-0.791,-0l-0.417,-0.417l-0.583,-0l-0,-0.417l-0.75,0l-0.25,-0.5l-1.792,0l-0.958,-0.958l-0.417,-0c-0.536,-0.548 -1.24,-0.9 -2,-1c-0.76,-0.1 0,-0 -0.292,-0.25c-0.383,-0.246 -0.733,-0.54 -1.041,-0.875c-0.25,-0.333 -0.75,-0 -0.917,-0.417c-0.167,-0.416 -0.667,-0.583 -1.083,-0.833c-0.421,-0.261 -0.801,-0.584 -1.125,-0.958c-0.417,-0.417 -1,-0.5 -1.417,-0.917c-0.417,-0.417 -1.208,-0.792 -1.583,-1.333l-0.959,-1.125l-0.291,-0c-0.385,-0.233 -0.702,-0.564 -0.917,-0.959l-0.708,0c-0.176,-0.288 -0.386,-0.554 -0.625,-0.791c-0.593,-0.489 -1.137,-1.033 -1.625,-1.625c-0.417,-0.459 -1.125,-0.667 -1.292,-1.375c-0.167,-0.709 -0.917,-0.875 -1.417,-1.292c-0.5,-0.417 -1.5,-1.417 -2.208,-2.167c-0.708,-0.75 -1.167,-0.75 -1.208,-1.583c-0,-0 -0.25,-0.292 -0.459,-0.458l0,-0.792l-0.916,-0l-0,0.708l-0.834,-0.291l-0.625,-0.875l0,-0.959c-0.541,0 -0.416,-0.666 -0.875,-0.583c0.014,-0.097 0.014,-0.195 0,-0.292l-0.458,0l-0,0.917l0.333,-0l0.625,1.333c-0.416,0 -0.541,0 -0.75,-0.291c-0.223,-0.108 -0.462,-0.178 -0.708,-0.209l0,-0.791l-0.5,-0l0,-0.709l-1.458,-1l-0,-0.458l-0.917,-0.792l-0,-0.75c-0.583,0 -0.375,-0.708 -0.875,-0.583c-0.5,0.125 -0.458,-0.833 -0.708,-0.833c-0.25,-0 -0.292,-0.792 -0.834,-0.625l0,-0.625l-0.5,-0.875c0.023,-0.124 0.023,-0.251 0,-0.375l-0.916,-0.917c-0.375,-0.333 -0,-1.042 -0.834,-1.125c0.25,-0.583 -0.5,-0.792 -0.541,-1.333c-0.042,-0.542 -0.5,-0.75 -0.917,-1.292l-0,-0.583l-0.333,-0c-0.118,-0.309 -0.272,-0.603 -0.459,-0.875c-0.291,-0.292 0,-0.709 -0.416,-0.959c-0.417,-0.25 -0.417,-0.458 -0.709,-0.833l0,-0.417l-0.666,-0.75l-0.292,0l0.625,1.834l0.292,-0l-0,0.875l0.458,-0l-0,0.833l0.417,-0l-0,0.792l0.416,-0l0,0.833l-0.375,0c-0.079,-0.257 -0.176,-0.507 -0.291,-0.75c-0.11,-0.217 -0.235,-0.426 -0.375,-0.625l-0.834,0c0.006,0.097 0.006,0.195 0,0.292c0.538,0.327 0.949,0.826 1.167,1.416c0.205,0.34 0.458,0.649 0.75,0.917c-0.016,0.166 -0.016,0.334 -0,0.5c0.283,0.194 0.592,0.348 0.917,0.458c0.416,0 0.291,0.709 0.75,0.709c0.375,0.791 0.791,1.541 1.125,2.291c0.333,0.75 0.25,0.584 -0,0.917c-0.25,0.333 -0,0.375 -0,0.583l0.458,0c-0.023,0.278 -0.023,0.556 -0,0.834l0.417,-0l-0,0.958c-0,1 -0,1 0.875,1.917c0.875,0.916 0.833,0.708 1,1.125c0.168,0.513 0.506,0.954 0.958,1.25c-0,0.5 0.708,0.333 0.5,0.875l-0.875,-0l-1.958,-2.125l-0,-0.584c-0.453,-0.458 -0.858,-0.96 -1.209,-1.5c-0.32,-0.378 -0.587,-0.798 -0.791,-1.25c-0,-0.416 -0.584,-0.75 -0.917,-1.166c-0,-0.375 -0.375,-0.375 -0.417,-0.5c-0.041,-0.125 -0.291,-0.375 -0.5,-0.5c-0.02,-0.264 -0.02,-0.529 0,-0.792l-0.5,0l0,-0.792c-0.541,-0.208 -0.708,-0.708 -0.958,-1.083c-0.25,-0.375 -0.375,-0.5 -0.708,-0.458l-0.709,-0.959l0,-1.375l-0.375,0l-0.333,-0.958l-1.208,0l-0,-0.833l-0.375,-0c-0.045,-0.619 -0.409,-1.172 -0.959,-1.459c-0.162,0.497 -0.069,1.044 0.25,1.459c0.209,0.375 0.542,0.708 0.584,1.083c0.041,0.375 0.833,0.667 0.541,1.25c0.584,0.292 0.334,1.125 0.959,1.375l-0,0.875c0.269,0.362 0.519,0.737 0.75,1.125c-0,0.375 0.5,0.542 0.708,0.917c0.208,0.375 0.542,0.541 0.458,1c-0.083,0.458 0.5,0.625 0.917,0.666c-0.003,0.426 0.219,0.822 0.583,1.042l-0.25,0.458c0.116,0.613 0.357,1.194 0.709,1.709c0.351,0.514 0.5,-0 0.458,0.416c-0.042,0.417 0.375,0 0.542,0.459c0.191,0.363 0.358,0.739 0.5,1.125c0.625,-0 0.416,0.75 0.916,0.833l0,0.75c0.334,0.375 0.667,0.667 0.917,1c0.25,0.333 0.333,0.792 0.667,1.042c0.333,0.25 0.25,0.791 0.333,1.166l0.292,0c0.416,0.834 0.791,1.625 1.208,2.375c0.542,0 0.375,0.584 0.708,0.75c0.334,0.167 0,0.459 0,0.709l-0.375,-0c0,-0.459 -0.625,-0.375 -0.583,-0.792c0.042,-0.417 -0.375,-0.708 -0.667,-0.917c-0.291,-0.208 -0.291,-0.666 -0.708,-0.791c-0.31,-0.227 -0.508,-0.576 -0.542,-0.959c0,-0.458 -0.666,-0.375 -0.583,-0.833c0.083,-0.458 -0.417,-0.875 -0.833,-1.208c-0.417,-0.334 -0.584,-1.167 -1.042,-1.584c-0.503,-0.381 -0.857,-0.927 -1,-1.541l-0.458,-0l-0,-0.75c-0.196,-0.158 -0.405,-0.297 -0.625,-0.417c-0.242,-0.107 -0.493,-0.191 -0.75,-0.25c-0.197,-0.47 -0.42,-0.929 -0.667,-1.375c-0.208,-0.25 -0.75,-0.417 -0.75,-0.625c-0,-0.208 -0.417,-0.667 -0.542,-1c-0.225,-0.708 -0.548,-1.381 -0.958,-2c-0.41,-0.619 -0.458,-0.292 -0.458,-0.417c-0,-0.875 -1.084,-1.208 -1,-2.125c-0.709,-0.25 -0.709,-1.041 -1.084,-1.541l-0.375,-0l0,-1.209l-0.916,-0.791l-0,1.291l0.458,0.334l-0,1.208l0.375,0l-0.208,0.458l-0.459,0l0.5,0.5c0,0.375 0,0.75 0.292,1.084c0.292,0.333 0.25,0.708 0.375,1.041l0.458,0.917l0.334,0l-0,1.042l0.458,0.458l-0,1.708c-0,0.25 0.542,0.417 0.5,0.875c-0.042,0.459 0.625,0.209 0.5,0.75c-0.125,0.542 0.333,0.709 0.625,0.917c0.292,0.208 0.25,0.625 0.375,0.917l0.417,-0c-0.022,0.263 -0.022,0.528 -0,0.791l0.458,0.5c-0.042,0.221 -0.042,0.447 -0,0.667c0.138,0.347 0.369,0.65 0.667,0.875c0.416,0 0.333,0.875 0.666,0.917c0.334,0.041 0.584,0.791 0.959,1.083c0.373,0.341 0.696,0.734 0.958,1.167c0.262,0.432 -0,0.375 -0,0.541c-0,0.167 0.333,0.25 0.458,0.375l0.709,0.75c0.375,0.375 0.833,0.709 0.75,1.417l-0.875,0c-0,-0.333 -0.334,-0.417 -0.542,-0.583c-0.776,-0.713 -1.437,-1.543 -1.958,-2.459c-0.209,-0.291 -0.667,-0.458 -0.542,-0.958c0.125,-0.5 -0.292,-0.792 -0.833,-0.833c-0.542,-0.042 -0.459,-0.459 -0.625,-0.792c-0.167,-0.333 -0.5,-0.667 -0.459,-1.042l-0.416,0l-0,-0.833l-0.25,-0l-1.125,-1.25c0.022,-0.166 0.022,-0.334 -0,-0.5l-0.375,0c-0.095,-0.667 -0.496,-1.253 -1.084,-1.583l0,-0.75l-0.333,-0l-0,-0.667c-0,-0.042 -0.208,-0.667 -0.625,-0.792c-0.417,-0.125 -0.417,-0.583 -0.542,-0.916c-0.125,-0.334 -0.583,-0.667 -0.708,-1.167c-0.125,-0.5 -0.542,-0.708 -0.833,-1.083c-0.292,-0.375 -0,-0.209 -0,-0.292c-0,-0.083 -0.542,-0.875 -0.584,-1.5c-0.041,-0.625 -0.708,-0.708 -0.708,-1.083c-0,-0.375 -0.625,-0.625 -0.667,-1.084c-0.041,-0.458 -0.791,-0.916 -1.375,-1.125c-0.019,-0.263 -0.019,-0.528 0,-0.791l-0.5,-0l0,-0.834l-0.458,0l-0,1.417l-0.208,-0l-0.375,-0.958l-0.375,-0c0.022,-0.278 0.022,-0.556 -0,-0.834l-0.459,0l0,-0.791l-0.458,-0l-0,-1.375c-0,-0.292 -0.458,-0.5 -0.458,-0.75c-0,-0.25 -0.292,-0.5 -0.542,-0.792c0.07,-0.841 -0.217,-1.673 -0.792,-2.292l-0.375,0.292c0,0.542 0,0.958 0.334,1.375l0.416,0.417l0,1l0.459,-0l-0,1.25l0.416,0.208l0,0.833l0.459,0l-0,1.042c-0,0 0.333,0.25 0.375,0.375c0.154,0.389 0.266,0.795 0.333,1.208c0.116,0.953 0.558,1.836 1.25,2.5l-0,1.042l0.417,0l-0,0.583c-0,0.042 0.458,0.917 0.625,1.25l0.291,0c0.021,0.278 0.021,0.556 0,0.834c-0.02,0.277 0.334,0.291 0.417,0.333l-0,1.25l-0.917,-0.333l0,-1c-0.157,-0.113 -0.324,-0.21 -0.5,-0.292l0,-0.833l-0.458,-0l-0,-0.917c-0.208,-0.333 -0.417,-0.875 -0.583,-0.875c-0.167,-0 -0,-0.708 -0.584,-0.917c-0.583,-0.208 -0.291,-0.541 -0.458,-0.833l-0.25,-0l-0,0.75l0.458,0.292l0,1.333l0.459,0.208l-0,0.75l0.458,0l-0,0.834l0.5,0.458l-0,1l0.458,-0l0,1.25l0.459,0.458l-0,0.542l0.416,-0c0.02,0.264 0.02,0.528 0,0.792l0.375,-0c0.29,0.903 0.841,1.701 1.584,2.291l-0,0.5l0.5,0l-0,1.292l0.208,-0l1.167,1.958l-0,0.459l0.708,1c-0,0.291 0.208,0.791 0.417,0.833c0.208,0.042 0.333,0.75 0.791,0.625l0,0.833l-0.5,0c-1.041,-0.666 -1.5,-1.708 -2.375,-2.625l0,-0.666l-0.458,-0c0.043,-0.371 -0.116,-0.737 -0.417,-0.959c-0.218,-0.26 -0.413,-0.539 -0.583,-0.833l-0.583,-1.042l-0.334,0l0,-0.833l-0.416,-0c-0,-0.958 -1.084,-1.375 -1.084,-2.292l-0.375,0l0,-0.833l-0.458,-0l-0,-0.792l-0.375,0c-0.273,-0.851 -0.681,-1.653 -1.208,-2.375c-0.528,-0.721 -0.334,-0.25 -0.292,-0.333c0.042,-0.083 -0.417,-1 -0.583,-1.5l-0.375,-0l-0,0.583l0.5,0.459l-0,0.625c0.25,0.541 0.416,0.875 0.625,1.25l0.333,-0l-0,0.833l0.458,-0l0,0.792l0.459,-0l-0,0.583c0.379,0.571 0.687,1.187 0.916,1.833c0,0.459 0.792,0.834 0.542,1.459l0.958,1.125l0,0.583c0.353,0.315 0.674,0.664 0.959,1.042c0.2,0.485 0.55,0.894 1,1.166l-0,0.75l0.416,0l0,0.75l0.959,0.834c0.016,0.18 0.016,0.361 -0,0.541c0.875,0.834 0.875,1.959 1.416,2.459l1,0.458l0,0.792c1.176,1.596 2.471,3.101 3.875,4.5l0,0.625c0.625,0.333 0.709,1.083 1.459,1.166l-0,1l-1.792,-1.833l-0,-0.75c-0.75,-0 -0.75,-0 -0.917,0.792c0.402,0.395 0.727,0.861 0.959,1.375c0.172,0.601 0.557,1.119 1.083,1.458c0.543,0.26 0.885,0.815 0.875,1.417l1.417,0.416l-0,0.292l0.375,0c-0,0.625 -0,1.208 0.333,1.708l0.542,0.625l0.5,0c0.25,0.667 1,0.875 1.291,1.5c0.292,0.625 0.417,0.292 0.625,0.459c0.072,0.643 0.464,1.208 1.042,1.5l-0,0.666l2.25,2.042l0.583,0l0,0.833c0,0.25 1.334,0.584 1.875,1.084c0.542,0.5 0.792,1.125 1.584,0.958c0.458,0.5 1.125,0.792 1.458,1.417l0.792,-0c-0,0.541 0.666,0.375 0.583,0.875c-0.083,0.5 0.25,-0 0.333,-0c0.084,-0 0,0.25 0,0.416l-0.958,0l-0,-0.416l-0.792,-0c-0.087,-0.159 -0.185,-0.312 -0.291,-0.459c-0.705,-0.396 -1.362,-0.871 -1.959,-1.416c-0.37,-0.532 -0.893,-0.939 -1.5,-1.167c-0.283,-0.086 -0.532,-0.261 -0.708,-0.5c-0,-0.333 -0.583,-0.417 -0.833,-0.708c-0.239,-0.378 -0.55,-0.704 -0.917,-0.959c-1.122,-0.789 -2.155,-1.697 -3.083,-2.708l-1.417,-1.417c0.018,-0.208 0.018,-0.417 -0,-0.625c-0.34,-0.316 -0.702,-0.609 -1.083,-0.875c-0.25,0 -0.625,0 -0.792,-0.375c-0.167,-0.375 -1.083,-1.083 -1.458,-1.666c-0.525,-0.704 -1.095,-1.373 -1.709,-2c-0.5,-0.75 -1.333,-1.209 -1.708,-2.084c-0.553,-0.719 -1.197,-1.364 -1.917,-1.916l0,-0.625c-0.291,-0.292 -0.458,-0.542 -0.666,-0.709l-0.709,-0.458l0,1.625l0.959,0.833l-0,0.667c1.083,0.667 1.458,1.917 2.375,2.667l-0,0.208c-0,0.208 -0.667,-0 -1,-0.292c-0.334,-0.291 -0.459,-0.625 -0.875,-0.666l-0,-0.375c-0.281,-0.456 -0.617,-0.876 -1,-1.25c-0.334,-0.25 -0.542,-0.667 -0.959,-0.792c-0.416,-0.125 -0.666,-0.75 -0.916,-1.25c-0.25,-0.5 -0,-0.333 -0,-0.5l-0.459,-0l0,-0.75c-0.375,-0.25 -0.708,-0.583 -1.041,-0.542c-0.334,0.042 -0.334,-0.75 -0.875,-0.625l-0,-0.75c-0,0 -0.375,0 -0.459,-0.333c-0.387,-0.468 -0.709,-0.987 -0.958,-1.542c-0.209,-0.56 -0.553,-1.061 -1,-1.458c-0.333,-0.375 -0.333,-0.833 -0.667,-1.125c-0.333,-0.292 -0.5,-0.792 -0.708,-1.208c-0.208,-0.417 -0.875,-0 -0.542,-0.709c0.334,-0.708 -0.625,-1.125 -1,-1.75l0,-0.958l-1.333,-1.208c-0.119,-0.41 -0.317,-0.792 -0.583,-1.125c-0.334,-0.292 -0.292,-0.875 -0.667,-1.084c-0.375,-0.208 -0,-1 -0.708,-1.041c-0.019,-0.278 -0.019,-0.556 -0,-0.834l-0.459,0l0,-0.791c-0.625,-0.209 -0.375,-0.917 -0.833,-1.292c-0.27,-0.275 -0.482,-0.601 -0.625,-0.958c-0,-0.375 -0.625,-0.584 -0.542,-1.125c0.084,-0.542 -0.25,-0.667 -0.416,-1c-0.193,-0.444 -0.512,-0.821 -0.917,-1.084l-0,1.25c0.201,0.361 0.328,0.757 0.375,1.167c-0,0.5 0.542,0.667 0.5,1c-0.042,0.333 0.375,0.792 0.458,1.125c0.084,0.333 0.5,0.708 0.5,1c0,0.292 0.417,0.667 0.542,1.083l-0,0.625l0.5,0l-0,0.792l0.292,-0c-0,0.417 0.375,0.792 0.666,1.292l0,0.666c0.989,1.222 1.7,2.644 2.084,4.167l-0,1l0.583,0.875l1.25,0.375c0.075,0.245 0.173,0.482 0.292,0.708l0.666,0.959c0.044,0.22 0.044,0.446 0,0.666l-0.333,0c-0.333,0.542 -0,0.959 0.208,1.334c0.341,0.543 0.634,1.114 0.875,1.708c0.242,0.594 0,-0 0,0.25l-0.5,-0l-0.708,-0.667l-0,-0.708l-0.458,-0l-0,-0.833l-0.459,-0c-0.006,-0.296 -0.092,-0.584 -0.25,-0.834c0,-0.416 -0.625,-0.5 -0.75,-1c-0.125,-0.5 -0.5,-0.791 -0.791,-1.208c-0.017,-0.097 -0.017,-0.195 -0,-0.292c-0,-0.625 -0.5,-0.875 -0.542,-1.375c-0.667,0 -0.583,-0.791 -0.875,-1.166c-0.292,-0.375 -0,-0.584 -0,-0.667c-0,-0.083 -0.292,-1.375 -0.917,-1.833c0,-0.292 0,-0.459 -0.333,-0.709c-0.333,-0.25 -0,-0.541 -0.375,-0.791c-0.471,-0.578 -0.735,-1.297 -0.75,-2.042l-0.5,-0l-0,-0.875l-0.333,-0c-0,-0.583 -0.375,-1.125 -0.584,-1.875c-0.208,-0.75 0,-0.792 0,-1.333c0.064,-0.204 0.064,-0.422 0,-0.625c-0.245,-0.415 -0.362,-0.894 -0.333,-1.375l-0.542,-0l0,-0.834l-0.416,0l-0,-1.958l-0.5,-0.542l-0,-0.958l-0.459,0l0,-0.875l-0.5,-0.417l0,-1.5l-0.416,0c-0,-0.833 0.208,-1.75 -0.542,-2.458l-0,-1.583c-0.458,-0.5 -0.458,-0.5 -0.917,-0.584c0,0.667 0.25,1.25 0.334,1.875c0.083,0.625 -0,1.292 -0,1.875l0.416,0l0,1.709l0.5,0.5l0,1.708c0.75,0.625 0.334,1.542 0.5,2.208l0.417,0l-0,2.292l0.458,-0l0,1.625l0.959,0.833c-0.068,0.942 0.301,1.865 1,2.5l-0,2l0.833,0.25c-0,0.584 -0,1.125 0.25,1.75c-0.109,0.241 -0.192,0.492 -0.25,0.75l0.75,0.334l0.75,0.208l-0,0.917c0.375,0.666 0.625,1.166 1.042,1.875l-0,0.625l0.416,0.333l0,2.708l0.375,0l0.5,0.917l0.584,0l0.958,0.833c-0.024,0.194 -0.024,0.39 -0,0.584l0.458,-0c-0.291,1.041 0.542,1.833 0.5,2.791l0.417,0l-0,0.417l1.417,0l0.583,1.083l0.958,0.875l0,1.459c0.409,0.414 0.786,0.86 1.125,1.333c0.375,0.542 0.834,1.042 1.25,1.625c0.417,0.583 0.834,1.042 1.125,1.708l0.459,0l0.625,0.667l-0,1l0.458,0.375c-0.292,0.292 -0.667,0.542 -0.375,0.958l0.833,0.875l0.667,0l0.5,0.792c0.208,0.25 0.542,0.417 0.667,0.708c0.128,0.252 0.332,0.456 0.583,0.584l-0,0.666l0.708,0.459c0.227,0.108 0.464,0.192 0.709,0.25c0.043,0.15 0.114,0.291 0.208,0.416c0.195,0.479 0.478,0.917 0.833,1.292c0.392,0.329 0.755,0.692 1.084,1.083c0.329,0.392 -0,0 0.25,0c0.25,0 -0,-0.625 -0,-0.916c-0,-0.292 0.333,0.375 0.375,0.333c0.041,-0.042 0.416,0.5 0.708,0.625l0.958,0.583c0.25,0.25 0.375,0.709 0.625,0.834c0.25,0.125 1.292,1.041 1.959,1.541c0.666,0.5 0.416,0.709 0.708,0.834c0.306,0.216 0.586,0.468 0.833,0.75c0.46,0.463 0.962,0.881 1.5,1.25c0.778,0.526 1.468,1.173 2.042,1.916l0.5,0c0.417,0.25 0.667,0.5 0.875,0.459c0.208,-0.042 0.25,0.5 0.625,0.541c0.375,0.042 0.333,0.417 0.5,0.417c0.363,0.011 0.674,0.27 0.75,0.625c0.076,0.355 0.333,0.25 0.542,0.375c0.208,0.125 0.25,0 0.291,0c0.042,0 0.417,0.542 0.625,0.792l1.25,-0c0.292,0.75 1.292,0.666 1.625,1.5l0.75,-0c0.5,0.916 1.709,0.958 2.167,1.916l1.208,0l0.417,0.5l0.792,0c-0,0.5 0.416,0.667 0.625,0.875l0.583,0l0.958,-0.75c0.459,0.334 0.917,0.667 1.292,1c0.375,0.334 0,0.792 0.75,0.75c0.75,-0.041 0.583,0.375 0.833,0.584c0.25,0.208 0.834,0.416 1.167,0.708c0.333,0.292 0.792,0 1.167,0.375c0.375,0.375 0.875,0.25 1.291,0.375c0.417,0.125 0,0 0,0.333l0.667,0l1.792,1l0.791,0c0.018,0.167 0.018,0.334 0,0.5l1.292,0c0.01,0.111 0.01,0.223 -0,0.334l2.125,0.708l0.708,0.5c-0.022,-0.375 -0.022,-0.75 0,-1.125l-1.458,0l-0,-0.458l1.292,-0l0.5,0.5l0.958,-0l0.458,0.458l1.834,0c0.875,0.792 1.958,0.333 3.125,0.542l0.25,0.416l1.541,0c0.178,-0.047 0.365,-0.047 0.542,0c0.478,0.318 1.061,0.438 1.625,0.334l0.417,0.5l1.25,-0l-0,0.5l1.25,-0l0.5,0.5l1.541,-0l0.334,0.458l1.458,0l0.5,0.458l2.583,0c0.55,-0.075 1.105,0.11 1.5,0.5l2.417,0c0.329,0.248 0.717,0.406 1.125,0.459c1.832,0.181 3.682,0.026 5.458,-0.459c0.204,-0.128 0.464,-0.128 0.667,0c0.292,0.25 0.625,0 0.917,0l3.125,0c0.669,0.047 1.322,-0.233 1.75,-0.75l6.666,0c0.466,-0.321 1.018,-0.495 1.584,-0.5l2.625,0c0.081,0.029 0.169,0.029 0.25,0c0.012,-0.124 0.012,-0.25 -0,-0.375l2.666,0l0.584,-0.541l1.958,-0l-0,-0.417l2.375,0l0.292,-0.5l2,0c0.142,-0.163 0.295,-0.316 0.458,-0.458l1.458,-0c0.75,-0.792 1.75,-0.375 2.459,-0.5l1.833,-1l1.542,-0l-0,-0.459l0.833,0l0,-0.458l1.292,0c-0.007,-0.139 -0.007,-0.278 -0,-0.417c0.464,-0.025 0.924,-0.095 1.375,-0.208c0.412,-0.251 0.893,-0.367 1.375,-0.333c0.012,-0.181 0.012,-0.362 -0,-0.542l1.291,0l0,-0.417l0.917,0l1.125,0.917l1.333,0c0.268,-0.354 0.56,-0.688 0.875,-1l0.75,0c0.016,-0.138 0.016,-0.278 0,-0.417l0.917,0l0,-0.375l0.833,0c-0.012,-0.152 -0.012,-0.305 0,-0.458l1.209,-0l0.75,-0.958l1.666,-0l0,-0.459c1.125,-0.468 2.224,-0.997 3.292,-1.583c-0.015,-0.125 -0.015,-0.25 0,-0.375l0.833,-0l0,-0.292c0.284,-0.193 0.592,-0.347 0.917,-0.458l0.958,-0.292c0,-0.458 0.417,-0.416 0.584,-0.708c0.166,-0.292 0.75,-0.333 1.125,-0.625c0.375,-0.292 0.208,-0 0.333,-0c0.292,-0.25 0.5,-0.542 0.792,-0.75c0.291,-0.208 0.791,-0.458 0.833,-0.708c0.042,-0.25 0.667,-0 0.833,-0.459c0.167,-0.458 0.834,-0.291 1.167,-0.666c0.333,-0.375 0.667,-0.542 0.917,-0.834c0.25,-0.291 0.916,-0.291 1.166,-0.791c0.25,-0.5 0.25,-0.25 0.417,-0.459l0.75,0l0.917,-0.958c0.484,-0.451 0.999,-0.869 1.541,-1.25c0.584,-0.333 0.75,-1.125 1.5,-1.292c0.027,-0.402 0.316,-0.742 0.709,-0.833c0.333,-0 0.333,-0.708 0.875,-0.542c0.541,0.167 0.25,-0.333 0.333,-0.541c0.083,-0.209 0,-0.292 0,-0.375c0,-0.084 0.75,-0.667 1.125,-1c0.493,-0.412 0.927,-0.888 1.292,-1.417l1.791,-0l1,-0.667l-0.875,-1.208l0.709,-0c0.231,-0.696 0.704,-1.288 1.333,-1.667l0,-1.708l0.417,-0c0.013,-0.222 0.013,-0.445 -0,-0.667l0.583,-0.708l-1.167,-0l-0.25,0.458l-0.666,0c-0,-0.666 0.625,-0.833 1,-1.083c0.375,-0.25 -0.334,-0.833 -0.875,-0.833l-0,-0.292l0.583,-0.333l0,-1.042c0.164,-0.222 0.345,-0.431 0.542,-0.625l0.833,-0.333l0,-1.75c0.625,-0 0.667,-0.709 0.958,-1.042c0.292,-0.333 0,-0.917 0,-1.375l0.459,-0c0.088,-0.67 0.491,-1.258 1.083,-1.583l0,-1.125l1.375,-1.334l0,-0.708l0.458,-0l0,-1.167l1,-0.791l0,-0.75l0.417,-0l0,-1.5l0.458,-0.5l0,-0.875l0.917,-0c-0.002,-1.013 0.54,-1.952 1.417,-2.459c0.877,-0.506 -0,0 -0,-0.291l-0.459,-0.209l0,-0.625l-0.375,0l0,1.084l-0.416,-0c-0.079,0.256 -0.177,0.507 -0.292,0.75c-0.153,0.245 -0.32,0.482 -0.5,0.708l-0.417,-0.292l-1.291,1.625c0.25,0.542 -0.5,0.709 -0.542,1.209c-0.042,0.5 -0.458,0.791 -0.667,1.166c-0.11,0.105 -0.196,0.233 -0.25,0.375c-0.124,0.558 -0.491,1.032 -1,1.292l0,1l-0.916,1.042l-0,0.541c-0.651,0.424 -1.159,1.034 -1.459,1.75c-0.299,0.717 0,0.334 0,0.334c0,-0 -0.458,0.666 -0.833,0.833c-0.375,0.167 -0.583,0.625 -0.583,1.125l-1.167,-0c0,0.292 -0.208,0.625 -0.333,0.958c-0.125,0.334 -0.292,0.709 -0.834,0.542l0,0.792c-0.88,0.572 -1.564,1.401 -1.958,2.375l-0.875,0.583c0.013,-0.25 0.013,-0.5 0,-0.75l-0.375,-0l-0.917,0.917c0.025,0.137 0.025,0.279 0,0.416c-1,0.709 -1.5,1.709 -2.375,2.292c-0.965,0.622 -1.835,1.379 -2.583,2.25l-0.542,-0l-1.958,1.542c-0.588,0.525 -1.338,0.834 -2.125,0.875c-0.016,0.11 -0.016,0.222 0,0.333c-0.542,-0 -1.167,0.375 -1.458,1c-0.649,0.086 -1.221,0.472 -1.542,1.042l-0.708,-0c-0.331,0.561 -0.898,0.944 -1.542,1.041l0,0.417l-1.25,-0c0.013,0.111 0.013,0.223 0,0.333l-1.25,0.625l0,-0.25c0.25,-0.25 0.5,-0.666 0.75,-0.666c0.25,-0 0.583,-0.542 0.875,-0.5c0.292,0.041 0.583,-0.375 0.917,-0.459c0.333,-0.083 0.5,-0.666 0.958,-0.791c0.458,-0.125 0.667,-0 0.792,-0.334c0.408,-0.54 1.002,-0.911 1.666,-1.041l-0.791,-0.625c0.541,-0 0.583,-0.542 1,-0.667c0.356,-0.161 0.67,-0.404 0.916,-0.708c0.209,-0.25 0.625,-0 0.709,-0.625c0.083,-0.625 0.708,-0.375 0.75,-0.584c0.041,-0.208 0.708,-0.375 0.625,-0.833c0.75,-0.417 1.166,-1.25 1.875,-1.667c0.334,-0.161 0.546,-0.503 0.541,-0.875c0,-0.5 0.542,-0.458 0.917,-0.5c0.125,-0.514 0.528,-0.916 1.042,-1.041l-0,-0.542l0.875,-0.375c0.185,-0.601 0.628,-1.09 1.208,-1.333c0.333,-0 0,-0.792 0.708,-0.584c0,-0.75 0.625,-1.041 0.917,-1.375c0.07,-0.273 0.168,-0.538 0.292,-0.791c0.144,-0.25 0.326,-0.475 0.541,-0.667c0.215,-0.192 0.375,-0.417 0.542,-0.667c0.082,-0.282 0.209,-0.549 0.375,-0.791c0.577,-0.457 1.059,-1.023 1.417,-1.667c0.257,-0.585 0.715,-1.058 1.291,-1.333l0,-0.542l1.459,-1.958l-0,-0.709c0.512,-0.343 0.883,-0.862 1.041,-1.458l0.375,-0l0,-0.958c0.709,-1.084 1.709,-1.792 2.459,-2.792l-0,-0.667c0.25,-0.625 0.416,-0.958 0.583,-1.291l0.333,-0l0,-0.792l0.292,-0c0.25,-0.5 0.625,-0.833 0.625,-1.167c0,-0.333 0.667,-1.291 1.042,-1.958l-0,-0.875l0.5,-0.5l-0,-0.708l0.458,-0l0,-0.792l0.375,-0l0.583,-1.208l0,-1.042c0.709,-0.75 0.625,-1.875 1.459,-2.417l-0,-1.958l0.416,-0c0.021,-0.277 0.021,-0.556 0,-0.833l0.5,-0c-0.25,-0.625 0.459,-1.084 0.417,-1.625c-0.042,-0.542 0.208,-1.25 0,-1.792l0.458,-0.458l0,-1.75c0.275,-0.6 0.404,-1.257 0.375,-1.917l0.5,-0l0,-1.5l0.459,-0.458l-0,-1.917l0.5,-0.542l-0,-2.75l0.458,-0.416c0,-0.917 -0.292,-1.917 0.5,-2.709l0,-5.208c-0.064,-0.26 -0.064,-0.532 0,-0.792c0.25,-0.291 0,-0.625 0,-0.916c0.089,-0.273 0.159,-0.551 0.208,-0.834l0,-3.25c-0.031,-0.219 -0.101,-0.431 -0.208,-0.625c0.206,-0.521 0.206,-1.103 0,-1.625l-0.417,0l0,-1.708c0.183,-1.132 0.024,-2.293 -0.458,-3.333c-0.482,-1.041 0,-0.375 0,-0.5l-0.667,-1c0.139,-0.73 0.139,-1.479 0,-2.209l-0.5,-0.5l0,-1.25c-0.349,-0.161 -0.553,-0.535 -0.5,-0.916l-0.291,-0c-0,-0 -0.209,0.375 -0.375,0.583l-0.792,-0.792l0,-0.666l-0.458,-0l-0,-1.042l-0.625,-1.292l-0.292,0l0,1.375l-0.417,0l0,-0.833l-0.541,-0.5l-0,-1.042l-0.417,0l0,-0.875l-0.292,0c-0.205,-0.348 -0.386,-0.71 -0.541,-1.083l-0,-1.292l-0.459,0l0,-0.75l-0.333,-0.333c-0.5,-0.875 -0.542,-1.917 -1.083,-2.792l-0,-0.791l-0.5,-0l-0,-1.75l-0.459,-0.5l0,-0.75l-0.458,-0l0,-0.792l-0.458,0l-0,-0.75l-0.542,-0.542l0,-1.5l-0.375,0c-0.019,-0.291 -0.019,-0.583 0,-0.875l-0.458,0l-0,-0.625l-1,-1.833l-0,-0.833l-0.417,-0c0.023,-0.292 0.023,-0.584 0,-0.875l-0.417,-0l0,-0.875l-0.333,-0l-0.458,-0.917c-0.236,-0.247 -0.432,-0.528 -0.584,-0.833c0,-0.417 -0.458,-0.625 -0.5,-0.834c-0.088,-0.351 -0.276,-0.67 -0.541,-0.916l-0,-1.25c-0.375,-0.875 -1.125,-1.334 -1.5,-2.084c-0.183,-0.343 -0.422,-0.653 -0.709,-0.916c-0.559,-0.455 -1.051,-0.989 -1.458,-1.584c0,-0.25 -0.292,-0.75 -0.375,-0.75c-0.083,0 -0,-0.666 -0.625,-0.5c-0.625,0.167 -0.417,-0.458 -0.625,-0.666c-0.143,-0.226 -0.311,-0.436 -0.5,-0.625c-0.458,-0.459 -0.958,-0.875 -1.5,-1.334l0,-1.041c-0.821,-0.928 -1.776,-1.728 -2.833,-2.375c0.022,-0.319 0.022,-0.64 -0,-0.959l0.791,0.292l-0.333,-0.75c-0.958,-0.625 -1.458,-1.625 -2.5,-1.708c-0.48,-0.331 -0.926,-0.708 -1.333,-1.125" style="fill:#7e7e7e;fill-rule:nonzero;"/><path d="M104.833,165.292l0,-0.417c0.375,-0.375 0.709,0.25 1.125,-0c0.417,-0.25 0.792,-0 1.209,-0l2.583,-0l0.375,-0.5l2.375,-0c0.495,0.04 0.991,-0.077 1.417,-0.333c0.176,-0.055 0.365,-0.055 0.541,-0l1.542,-0c0.792,-0.75 1.75,-0.417 2.708,-0.5l0.292,-0.417l1.917,-0l-0,0.375l-1.5,-0l-0.5,0.542l-2.25,-0c0.013,0.152 0.013,0.305 -0,0.458c-0.625,-0 -1.459,-0 -2.042,0.542l-1.292,-0l0,1.333c-0.875,0.292 -1.625,-0 -2.541,-0l0.666,-1.042l-0.25,0c-0.674,0.41 -1.465,0.586 -2.25,0.5l-0.791,0l-0.5,0.459l-1.959,-0l-0.208,0.5l-2.208,-0l-0,0.541l-0.625,-0.458l0.75,-0.25l-1.292,0c-1.208,1.083 -2.625,0.583 -3.917,0.75l0,-0.5c-0.625,-0 -1.25,-0 -1.916,0.25l-0.584,-0.5l-1.625,0.333l-0.375,-0.583l-2.625,-0c-0.133,0.209 -0.287,0.404 -0.458,0.583c-0.218,-0.203 -0.455,-0.384 -0.708,-0.541l-0.709,-0l-0.375,-0.5l-2,-0l-0.458,-0.5l-3.375,-0l-0.458,-0.459l-1.959,0l-0.416,-0.5l-0.792,0l-0.458,-0.458l-1.209,-0l-0.5,-0.5l-2.416,-0l-0.417,-0.5l-0.833,-0c-0.019,-0.152 -0.019,-0.306 -0,-0.458l-0.792,-0l-0.5,-0.459l-1,0l-0,-0.416l-1.083,-0c0.018,-0.167 0.018,-0.334 -0,-0.5l-1.042,-0c-0.375,-0.792 -1.208,-0.917 -1.833,-1.375c-0.625,-0.459 -0.584,-0 -0.792,-0c-0.875,-0.5 -1.708,-1.084 -2.542,-1.625l0,-0.25l-1.25,-0c-0.473,-0.742 -1.198,-1.29 -2.041,-1.542c0.011,-0.083 0.011,-0.167 -0,-0.25c-0.5,-0.25 -1.042,-0.375 -1.292,-0.708c-0.34,-0.33 -0.702,-0.636 -1.083,-0.917c-0.375,-0.292 -0.917,-0.375 -1.084,-0.917l-0.541,0c-0.334,-0.291 -0.625,-0.625 -0.917,-0.916l-0.708,-0l-0.792,-0.959l-0.75,0c-0.333,-0.708 -1.125,-1 -1.667,-1.666l0.667,-0.417l-1.5,-1.5c-0.019,-0.11 -0.019,-0.223 0,-0.333l0.333,-0c0.044,0.305 0.252,0.562 0.542,0.666c0.667,0.25 1.042,0.875 1.708,1.125c0.667,0.25 1.334,1.375 2.125,1.917c0,0.417 0.5,-0 0.5,0.5c0,0.5 0.459,-0 0.584,0.333c0.125,0.334 1.666,0.959 2.333,1.709c0.33,0.28 0.713,0.492 1.125,0.625c0.333,-0 -0,0.75 0.75,0.541c0.75,-0.208 0.5,0.417 0.75,0.459c0.25,0.041 -0,0.625 0.625,0.5c0.625,-0.125 0.458,0.25 0.875,0.458l0.625,-0c-0.02,0.152 -0.02,0.306 -0,0.458l0.708,0l0.834,0.959l0.708,-0c0.013,0.152 0.013,0.305 -0,0.458c0.917,-0 1.333,1.083 2.292,1.083l-0,0.375l0.75,0l0.541,0.542l0.625,-0c0.167,-0 1.709,0.75 2.542,1.417l0.667,-0c0.08,0.162 0.149,0.329 0.208,0.5l1,-0l0.375,0.5l0.875,-0l-0,0.458l1.5,-0l0.458,0.458c0.959,0 2.042,-0.291 2.959,0.542l1.25,-0l-0,0.417l1.708,-0c0.344,0.34 0.807,0.534 1.292,0.541c1.084,-0.028 2.167,0.113 3.208,0.417c0.677,0.105 1.365,0.105 2.042,-0c0.539,-0.097 1.092,0.092 1.458,0.5l12.958,-0.958Z" style="fill:#7e7e7e;fill-rule:nonzero;"/><path d="M109.958,167.667l1,-0.5l0.709,0.791l-1.375,0.75l-0.292,-0.5l-1.167,0c-0.014,0.153 -0.014,0.306 0,0.459l-6.041,-0l-0,0.458l-1.25,0l-0.625,-0.708l-0,-0.25l1.583,-0c1.375,-0 2.792,-0 4.167,-0.292l3.5,0" style="fill:#7e7e7e;fill-rule:nonzero;"/><path d="M49.958,146.375l0,0.5l0.417,0l0,0.667c-0.708,-0 -0.833,-0.667 -1.375,-0.792l0,-0.792c-0.5,0 -0.625,-0.75 -1.208,-0.666c-0.584,0.083 -0.25,-0 -0.25,-0.25c-0,-0.25 -0.334,-0.584 -0.5,-0.834c-0.272,-0.35 -0.579,-0.671 -0.917,-0.958l0,-1.167c0.25,0 0.25,0.209 0.417,0.25l0.5,0.25c-0.03,0.208 -0.03,0.418 -0,0.625l2.875,3.042" style="fill:#7e7e7e;fill-rule:nonzero;"/><path d="M160.708,38.583l-0.416,0l-0,-0.291c0.11,-0.087 0.246,-0.134 0.386,-0.134c0.299,0 0.558,0.215 0.614,0.509c0.055,0.293 0.25,-0 0.416,0.333c0.167,0.333 0,0.333 0,0.583l0.75,0l0.792,1l0.458,0l1.292,1.292l0,0.583l-0.875,0l0,-0.875c-0.833,0 -1.167,-0.75 -1.833,-1.041c-0.667,-0.292 -0.625,-0.75 -0.917,-0.875c-0.292,-0.125 -0.542,-0.542 -0.667,-0.959" style="fill:#7e7e7e;fill-rule:nonzero;"/><path d="M124.542,161.417l0.958,-0l0,-0.459l1.458,0c-0.083,0.162 -0.18,0.315 -0.291,0.459c-0.526,0.39 -1.186,0.556 -1.834,0.458c-0.145,0.187 -0.313,0.355 -0.5,0.5l-1.25,0l0,0.417c-0.435,0.216 -0.971,0.05 -1.208,-0.375l0.667,-0c-0.012,-0.167 -0.012,-0.334 -0,-0.5l1.208,-0l0.542,-0.5" style="fill:#7e7e7e;fill-rule:nonzero;"/></svg>