<svg viewBox="0 0 18 18" fill="none" xmlns="http://www.w3.org/2000/svg">
<path fill-rule="evenodd" clip-rule="evenodd" d="M7.06348 2C7.2855 1.13739 8.06855 0.5 9.00047 0.5C9.93239 0.5 10.7154 1.13739 10.9375 2H15C15.5523 2 16 2.44772 16 3V15C16 15.5523 15.5523 16 15 16H3C2.44772 16 2 15.5523 2 15V3C2 2.44772 2.44772 2 3 2H7.06348ZM9 2C8.72386 2 8.5 2.22386 8.5 2.5C8.5 2.77614 8.72386 3 9 3C9.27614 3 9.5 2.77614 9.5 2.5C9.5 2.22386 9.27614 2 9 2ZM6.96967 6.46967C7.26256 6.17678 7.73744 6.17678 8.03033 6.46967C8.32322 6.76256 8.32322 7.23744 8.03033 7.53033L6.56066 9L8.03033 10.4697C8.32322 10.7626 8.32322 11.2374 8.03033 11.5303C7.73744 11.8232 7.26256 11.8232 6.96967 11.5303L4.96967 9.53033C4.67678 9.23744 4.67678 8.76256 4.96967 8.46967L6.96967 6.46967ZM11.0303 6.46967C10.7374 6.17678 10.2626 6.17678 9.96967 6.46967C9.67678 6.76256 9.67678 7.23744 9.96967 7.53033L11.4393 9L9.96967 10.4697C9.67678 10.7626 9.67678 11.2374 9.96967 11.5303C10.2626 11.8232 10.7374 11.8232 11.0303 11.5303L13.0303 9.53033C13.3232 9.23744 13.3232 8.76256 13.0303 8.46967L11.0303 6.46967ZM3.5 3.5V14.5H14.5V3.5H3.5Z" fill="currentColor"/>
</svg>
