<svg viewBox="0 0 18 18" fill="none" xmlns="http://www.w3.org/2000/svg">
<path d="M9 11C10.1046 11 11 10.1046 11 9C11 7.89543 10.1046 7 9 7C7.89543 7 7 7.89543 7 9C7 10.1046 7.89543 11 9 11Z" stroke="currentColor" stroke-width="1.5" stroke-linecap="round" stroke-linejoin="round"/>
<path d="M13.9334 11C13.8447 11.2011 13.8182 11.4241 13.8574 11.6404C13.8966 11.8567 13.9997 12.0562 14.1534 12.2134L14.1934 12.2534C14.3174 12.3772 14.4157 12.5242 14.4828 12.6861C14.5499 12.848 14.5845 13.0215 14.5845 13.1967C14.5845 13.3719 14.5499 13.5454 14.4828 13.7073C14.4157 13.8691 14.3174 14.0162 14.1934 14.14C14.0696 14.264 13.9225 14.3623 13.7607 14.4294C13.5988 14.4965 13.4253 14.5311 13.2501 14.5311C13.0749 14.5311 12.9014 14.4965 12.7395 14.4294C12.5776 14.3623 12.4306 14.264 12.3067 14.14L12.2667 14.1C12.1096 13.9463 11.9101 13.8432 11.6938 13.804C11.4775 13.7648 11.2545 13.7913 11.0534 13.88C10.8562 13.9645 10.6881 14.1049 10.5696 14.2837C10.4512 14.4626 10.3876 14.6722 10.3867 14.8867V15C10.3867 15.3536 10.2463 15.6928 9.99622 15.9428C9.74618 16.1929 9.40704 16.3334 9.05341 16.3334C8.69979 16.3334 8.36065 16.1929 8.11061 15.9428C7.86056 15.6928 7.72008 15.3536 7.72008 15V14.94C7.71492 14.7194 7.64349 14.5054 7.51509 14.3258C7.38668 14.1463 7.20724 14.0095 7.00008 13.9334C6.799 13.8446 6.57595 13.8181 6.35969 13.8574C6.14343 13.8966 5.94387 13.9997 5.78675 14.1534L5.74675 14.1934C5.62292 14.3173 5.47587 14.4157 5.314 14.4828C5.15214 14.5499 4.97864 14.5844 4.80341 14.5844C4.62819 14.5844 4.45469 14.5499 4.29283 14.4828C4.13096 14.4157 3.98391 14.3173 3.86008 14.1934C3.73611 14.0695 3.63777 13.9225 3.57067 13.7606C3.50357 13.5987 3.46903 13.4252 3.46903 13.25C3.46903 13.0748 3.50357 12.9013 3.57067 12.7394C3.63777 12.5776 3.73611 12.4305 3.86008 12.3067L3.90008 12.2667C4.05377 12.1096 4.15687 11.91 4.19608 11.6937C4.2353 11.4775 4.20882 11.2544 4.12008 11.0534C4.03557 10.8562 3.89525 10.688 3.71639 10.5696C3.53753 10.4511 3.32794 10.3875 3.11341 10.3867H3.00008C2.64646 10.3867 2.30732 10.2462 2.05727 9.99616C1.80722 9.74611 1.66675 9.40698 1.66675 9.05335C1.66675 8.69973 1.80722 8.36059 2.05727 8.11055C2.30732 7.8605 2.64646 7.72002 3.00008 7.72002H3.06008C3.28074 7.71486 3.49475 7.64343 3.67428 7.51503C3.85381 7.38662 3.99056 7.20718 4.06675 7.00002C4.15549 6.79894 4.18196 6.57589 4.14275 6.35963C4.10354 6.14336 4.00044 5.94381 3.84675 5.78669L3.80675 5.74669C3.68278 5.62286 3.58443 5.4758 3.51734 5.31394C3.45024 5.15208 3.4157 4.97857 3.4157 4.80335C3.4157 4.62813 3.45024 4.45463 3.51734 4.29277C3.58443 4.1309 3.68278 3.98385 3.80675 3.86002C3.93058 3.73605 4.07763 3.63771 4.23949 3.57061C4.40136 3.50351 4.57486 3.46897 4.75008 3.46897C4.9253 3.46897 5.0988 3.50351 5.26067 3.57061C5.42253 3.63771 5.56958 3.73605 5.69341 3.86002L5.73341 3.90002C5.89053 4.05371 6.09009 4.15681 6.30636 4.19602C6.52262 4.23524 6.74567 4.20876 6.94675 4.12002H7.00008C7.19726 4.03551 7.36543 3.89519 7.48388 3.71633C7.60233 3.53747 7.66589 3.32788 7.66675 3.11335V3.00002C7.66675 2.6464 7.80722 2.30726 8.05727 2.05721C8.30732 1.80716 8.64646 1.66669 9.00008 1.66669C9.3537 1.66669 9.69284 1.80716 9.94289 2.05721C10.1929 2.30726 10.3334 2.6464 10.3334 3.00002V3.06002C10.3343 3.27454 10.3978 3.48414 10.5163 3.663C10.6347 3.84186 10.8029 3.98218 11.0001 4.06669C11.2012 4.15543 11.4242 4.1819 11.6405 4.14269C11.8567 4.10348 12.0563 4.00038 12.2134 3.84669L12.2534 3.80669C12.3772 3.68272 12.5243 3.58437 12.6862 3.51727C12.848 3.45018 13.0215 3.41564 13.1967 3.41564C13.372 3.41564 13.5455 3.45018 13.7073 3.51727C13.8692 3.58437 14.0163 3.68272 14.1401 3.80669C14.264 3.93052 14.3624 4.07757 14.4295 4.23943C14.4966 4.4013 14.5311 4.5748 14.5311 4.75002C14.5311 4.92524 14.4966 5.09874 14.4295 5.26061C14.3624 5.42247 14.264 5.56952 14.1401 5.69335L14.1001 5.73335C13.9464 5.89047 13.8433 6.09003 13.8041 6.30629C13.7649 6.52256 13.7913 6.74561 13.8801 6.94669V7.00002C13.9646 7.1972 14.1049 7.36537 14.2838 7.48382C14.4626 7.60227 14.6722 7.66583 14.8867 7.66669H15.0001C15.3537 7.66669 15.6928 7.80716 15.9429 8.05721C16.1929 8.30726 16.3334 8.6464 16.3334 9.00002C16.3334 9.35364 16.1929 9.69278 15.9429 9.94283C15.6928 10.1929 15.3537 10.3334 15.0001 10.3334H14.9401C14.7256 10.3342 14.516 10.3978 14.3371 10.5162C14.1582 10.6347 14.0179 10.8028 13.9334 11V11Z" stroke="currentColor" stroke-width="1.5" stroke-linecap="round" stroke-linejoin="round"/>
</svg>
