<?xml version="1.0" encoding="UTF-8" standalone="no"?><!DOCTYPE svg PUBLIC "-//W3C//DTD SVG 1.1//EN" "http://www.w3.org/Graphics/SVG/1.1/DTD/svg11.dtd"><svg width="100%" height="100%" viewBox="0 0 2954 2916" version="1.1" xmlns="http://www.w3.org/2000/svg" xmlns:xlink="http://www.w3.org/1999/xlink" xml:space="preserve" xmlns:serif="http://www.serif.com/" style="fill-rule:evenodd;clip-rule:evenodd;stroke-linejoin:round;stroke-miterlimit:2;"><g id="Layer_2"><g id="FPC:_Lifestyle_Modification"><path d="M2829.67,774.958c47.056,0.007 85.772,38.73 85.772,85.785c0,33.781 -19.953,64.548 -50.797,78.325c5.146,7.252 7.912,15.927 7.912,24.819c-0,23.527 -19.36,42.886 -42.886,42.886c-23.527,0 -42.886,-19.359 -42.886,-42.886c-0,-8.892 2.765,-17.567 7.911,-24.819c-30.845,-13.777 -50.8,-44.544 -50.8,-78.326c0,-47.056 38.718,-85.779 85.774,-85.784Z" style="fill:#d3d3d3;"/><rect x="357.972" y="1324.58" width="749.278" height="266.265" style="fill:#e0800b;"/><rect x="1107.25" y="1324.58" width="1272.71" height="266.265" style="fill:#f2edda;"/><circle cx="2424.33" cy="1368.96" r="44.378" style="fill:#4c4c4c;"/><circle cx="2513.09" cy="1368.96" r="44.378" style="fill:#4c4c4c;"/><path d="M2424.33,1502.09c24.345,-0 44.377,-20.033 44.377,-44.377c-0,-24.345 -20.033,-44.377 -44.377,-44.377c-24.345,-0 -44.377,20.032 -44.377,44.376c0.046,24.328 20.05,44.331 44.377,44.378Z" style="fill:#4c4c4c;"/><path d="M2513.09,1502.09c24.345,-0 44.377,-20.033 44.377,-44.377c-0,-24.345 -20.033,-44.377 -44.377,-44.377c-24.345,-0 -44.377,20.032 -44.377,44.376c0.046,24.328 20.05,44.331 44.377,44.378Z" style="fill:#4c4c4c;"/><path d="M2424.33,1590.85c24.344,-0.001 44.376,-20.033 44.376,-44.377c0,-24.345 -20.032,-44.377 -44.376,-44.377c-24.345,-0 -44.377,20.032 -44.377,44.376c0.047,24.327 20.05,44.331 44.377,44.378Z" style="fill:#4c4c4c;"/><path d="M2513.09,1590.85c24.344,-0.001 44.376,-20.033 44.376,-44.377c0,-24.345 -20.032,-44.377 -44.376,-44.377c-24.345,-0 -44.377,20.032 -44.377,44.376c0.047,24.327 20.05,44.331 44.377,44.378Z" style="fill:#4c4c4c;"/><path d="M1457.72,0c805.074,0 1457.72,652.644 1457.72,1457.72c0,805.075 -652.645,1457.72 -1457.72,1457.72c-805.075,-0 -1457.72,-652.644 -1457.72,-1457.72c0,-805.075 652.644,-1457.72 1457.72,-1457.72Zm816.455,499.494c-227.477,-194.428 -517.209,-301.142 -816.455,-300.714c-695.295,-0 -1258.94,563.644 -1258.94,1258.94c-0.428,299.244 106.285,588.975 300.714,816.45l1774.68,-1774.67Zm-1632.91,1916.44c227.472,194.439 517.208,301.155 816.456,300.719c695.295,-0 1258.94,-563.644 1258.94,-1258.94c0.435,-299.247 -106.28,-588.982 -300.714,-816.455l-1774.68,1774.67Z" style="fill:#e51e55;"/><path d="M2332.24,885.262c-619.758,-123.512 -425.621,-727.802 162.197,-685.855c440.301,31.422 618.359,401.664 289.856,546.382c-43.565,19.193 -287.901,63.742 -128.277,151.631c150.658,82.949 2.673,161.508 -102.905,201.045c-32.169,12.048 -57.382,38.766 -27.253,71.961c68.463,75.43 -20.295,106.57 -67.811,104.745c6.117,-10.634 66.694,-64.423 -85.045,-90.125c-78.269,-13.254 -77.562,-109.421 2.669,-144.852c125.416,-55.367 56.983,-134.922 -43.431,-154.932Z" style="fill:#d3d3d3;"/><path d="M357.972,1403.54l749.279,-0l-0,19.926l-749.279,0l0,-19.926Zm0,58.107l749.279,-0l-0,13.285l-749.279,-0l0,-13.285Zm0,58.107l749.279,-0l-0,6.642l-749.279,0l0,-6.642Zm0,-174.321l749.279,0l-0,26.569l-749.279,0l0,-26.569Z" style="fill:#e3a859;"/><path d="M2219.87,1053.78c-0,-0 0,-0 0,-0c28.435,-0 51.834,-23.398 51.834,-51.833c-0,-28.435 -23.399,-51.834 -51.834,-51.834c-28.434,0 -51.833,23.399 -51.833,51.834c0,-0 0,0 0,0c0.055,28.414 23.419,51.778 51.833,51.833Z" style="fill:#d3d3d3;"/><circle cx="2025.04" cy="748.625" r="169.022" style="fill:#d3d3d3;"/></g></g></svg>