<?xml version="1.0" encoding="UTF-8" standalone="no"?><!DOCTYPE svg PUBLIC "-//W3C//DTD SVG 1.1//EN" "http://www.w3.org/Graphics/SVG/1.1/DTD/svg11.dtd"><svg width="100%" height="100%" viewBox="0 0 2779 2948" version="1.1" xmlns="http://www.w3.org/2000/svg" xmlns:xlink="http://www.w3.org/1999/xlink" xml:space="preserve" xmlns:serif="http://www.serif.com/" style="fill-rule:evenodd;clip-rule:evenodd;stroke-linejoin:round;stroke-miterlimit:2;"><g id="Layer_2"><g id="FPC:_Targeted_Therapy"><path d="M1620.18,1238.08l1143.21,-966.739c9.323,-7.888 14.709,-19.5 14.709,-31.713c0,-13.395 -6.478,-25.994 -17.372,-33.787c-271.561,-194.142 -594.735,-242.797 -957.43,-180.042c-10.074,1.595 -19.166,6.981 -25.406,15.049c-182.458,229.066 -185.199,419.021 -547.371,687.193c22.872,32.755 32.307,71.413 7.302,109.376c-4.207,6.384 -8.95,13.111 -14.001,20.162c-38.532,167.204 57.16,288.837 161.991,334.414c53.15,11.725 101.789,38.583 140.024,77.32c30.1,-14.109 61.769,-24.594 94.341,-31.233Z" style="fill:#f0b19b;"/><path d="M705.667,1036.58c146.859,190.724 79.016,491.696 -96.12,606.846c96.354,151.325 235.965,324.114 349.273,466.449c93.886,-18.112 229.102,-31.939 323.801,-31.939c37.45,-2.431 70.948,-24.5 87.961,-57.951c66.266,-127.431 -290.545,-628.903 118.662,-781.905c-31.138,-21.964 -66.277,-37.621 -103.431,-46.085c-90.287,-22.319 -173.105,-12.73 -222.365,-112.677c-42.287,-85.806 19.255,-164.366 60.374,-221.737c5.051,-7.051 9.794,-13.778 14.001,-20.162c25.005,-37.963 15.57,-76.621 -7.302,-109.376c-20.404,-29.227 -49.273,-57.397 -85.184,-90.148l-19.4,-19.228c-3.888,-3.854 -9.145,-6.019 -14.619,-6.019c-11.014,-0 -20.209,8.763 -20.74,19.763c-2.831,58.772 -27.984,109.376 -73.589,153.653c-99.974,93.111 -214.84,165.952 -311.322,250.516Z" style="fill:#e3a859;"/><path d="M1062.03,2241.79c30.322,40.102 54.67,74.446 70.155,100.879c138.083,224.231 333.379,427.754 941.365,458.653c82.171,4.175 155.998,-33.107 200.328,-99.09c7.058,-10.522 13.274,-21.585 18.588,-33.087c40.205,-84.26 23.859,-185.191 -40.884,-252.455c-82.481,-87.694 -227.421,-143.14 -326.772,-236.295c-0.238,0.338 -0.475,0.674 -0.713,1.009c-109.883,154.806 -275.796,71.893 -442.666,26.87c-138.87,-37.468 -311.064,-16.962 -419.401,33.516Z" style="fill:#e51e55;"/><path d="M588.603,1609.72c102.491,-105.181 153.987,-350.61 16.907,-469.967c-14.051,17.666 -26.993,36.186 -38.751,55.453c-43.527,71.584 -65.445,137.614 -70.612,199.337c7.522,57.725 42.401,132.482 92.456,215.177Z" style="fill:#e51e55;"/><path d="M605.51,1139.75c137.08,119.357 85.584,364.786 -16.909,469.967c6.718,11.098 13.7,22.333 20.946,33.703c175.136,-115.15 242.979,-416.122 96.12,-606.846c-36.434,31.295 -69.957,65.829 -100.157,103.176Z" style="fill:#e5d5bf;"/><path d="M1489.24,1238.08c-409.207,153.001 -52.396,654.473 -118.662,781.904c-17.013,33.451 -50.511,55.52 -87.961,57.951c-94.699,0 -229.915,13.827 -323.802,31.94c38.308,48.123 73.609,92.765 103.214,131.917c108.337,-50.478 280.531,-70.984 419.401,-33.516c166.87,45.024 332.783,127.936 442.666,-26.87c-408.405,-303.95 -322.889,-580.554 -334.923,-763.292c-3.204,-48.656 -13.326,-90.656 -41.524,-124.747c-7.226,-8.734 -14.498,-16.752 -21.816,-24.053c-11.323,-11.395 -23.562,-21.841 -36.593,-31.234Z" style="fill:#184656;"/><path d="M1589.18,1418.11c93.244,-98.969 205.419,-59.659 167.468,12.235c24.565,-35.439 55.748,-65.8 91.83,-89.409c11.574,-7.686 18.549,-20.69 18.549,-34.583c-0,-15.134 -8.276,-29.114 -21.544,-36.394c-73.567,-40.391 -152.229,-46.541 -225.298,-31.883c-32.574,6.64 -64.244,17.124 -94.345,31.234c7.313,7.325 14.585,15.343 21.816,24.053c28.198,34.091 38.32,76.091 41.524,124.747Z" style="fill:#184656;"/><path d="M1385.82,1191.99c-104.833,-45.573 -200.524,-167.206 -161.993,-334.41c-41.119,57.371 -102.661,135.931 -60.374,221.737c49.26,99.947 132.078,90.358 222.367,112.673Z" style="fill:#184656;"/><path d="M1589.18,1418.11c12.034,182.738 -73.481,459.342 334.923,763.292c0.238,-0.334 0.476,-0.671 0.713,-1.009c-10.01,-9.385 -19.557,-19.154 -28.532,-29.376c-144.261,-164.336 -285.045,-508.946 -139.636,-720.672c37.951,-71.894 -74.224,-111.204 -167.468,-12.235Z" style="fill:#e3a859;"/><path d="M921.868,1560.56l86.6,139.21c2.269,3.664 1.132,8.546 -2.523,10.831l-86.129,53.578c-1.621,1.041 -3.58,1.425 -5.475,1.073l-121.804,-20.768c-3.762,-0.642 -6.541,-3.935 -6.541,-7.751c0,-0.759 0.11,-1.514 0.327,-2.241l35.203,-118.441c0.523,-1.855 1.734,-3.442 3.384,-4.436l86.128,-53.579c3.665,-2.269 8.546,-1.132 10.83,2.524Z" style="fill:#e51e55;"/><path d="M958.819,2109.87c-113.307,-142.336 -252.918,-315.125 -349.272,-466.45c-7.236,-11.363 -14.217,-22.597 -20.946,-33.703c-50.053,-82.695 -84.932,-157.452 -92.454,-215.177c-143.934,-7.762 -240.54,35.753 -269.74,70.412c-111.043,131.803 46.884,358.427 144.486,469.094c154.259,174.918 336.806,233.732 496.268,286.232c102.394,33.71 195.271,64.818 265.027,122.388c-15.485,-26.433 -39.832,-60.777 -70.155,-100.879c-29.605,-39.152 -64.906,-83.794 -103.214,-131.917Z" style="fill:#e5d5bf;"/><path d="M1132.19,2342.67c-69.756,-57.57 -162.633,-88.678 -265.026,-122.391c54.354,81.604 67.167,157.835 85.284,248.354c22.431,112.077 407.117,400.316 493.949,308.673c34.667,-36.589 102.358,-36.708 109.413,44.413c6.427,73.871 283.181,107.557 294.69,96.057c17.621,-17.6 67.155,-105.5 114.151,-0.928c30.896,68.733 276.337,10.578 312.319,-61.815c23.557,-47.391 34.326,-114.557 -3.088,-152.8c-44.329,65.983 -118.156,103.265 -200.327,99.09c-607.986,-30.899 -803.282,-234.422 -941.365,-458.653Z" style="fill:#e5c49d;"/><path d="M1517.82,1737.62c-0,-0 0,-0 0,-0c24.844,-0 45.287,20.443 45.287,45.286c-0,24.843 -20.443,45.286 -45.287,45.286c-24.843,0 -45.286,-20.442 -45.286,-45.285c0,-24.844 20.442,-45.287 45.286,-45.287Zm-0,18.821c-14.519,0 -26.465,11.947 -26.465,26.465c0,14.519 11.947,26.466 26.466,26.466c14.518,-0 26.465,-11.947 26.465,-26.465c-0,-0.001 -0,-0.002 -0,-0.003c-0,-14.517 -11.946,-26.463 -26.463,-26.463c-0.001,-0 -0.002,-0 -0.003,-0Z" style="fill:#fff;"/><path d="M1592.69,1912.36c24.843,0 45.285,20.443 45.285,45.285c-0,24.843 -20.443,45.286 -45.286,45.286c-24.843,0 -45.286,-20.443 -45.286,-45.286c0,0 0,-0 0,-0c0,-24.843 20.443,-45.285 45.285,-45.285c0.001,-0 0.001,-0 0.002,-0Zm0.001,18.819l-0.002,0c-14.518,0 -26.465,11.947 -26.465,26.466c-0,14.518 11.947,26.465 26.465,26.465c14.519,0 26.465,-11.946 26.466,-26.465c-0,-0 -0,-0.001 -0,-0.002c-0,-14.518 -11.946,-26.464 -26.464,-26.464Z" style="fill:#fff;"/><path d="M1688.01,2077.93l0,0c24.844,0 45.287,20.443 45.287,45.287c-0,24.843 -20.443,45.286 -45.287,45.286c-24.843,-0 -45.286,-20.443 -45.286,-45.286l-0,-0.001c-0,-24.843 20.443,-45.286 45.286,-45.286Zm0.003,18.821l-0.004,0c-14.518,0 -26.465,11.947 -26.465,26.466c-0,14.518 11.947,26.465 26.465,26.465c14.519,0 26.466,-11.947 26.466,-26.465l-0,-0.004c-0,-14.516 -11.945,-26.462 -26.462,-26.462Z" style="fill:#fff;"/><path d="M1525.77,1802.05c-2.52,1.047 -5.221,1.585 -7.949,1.585c-11.37,0 -20.727,-9.356 -20.727,-20.726c0,-8.359 5.058,-15.936 12.778,-19.141c35.22,-14.807 72.311,-24.695 110.227,-29.384c38.248,-4.557 76.953,-3.578 114.92,2.906c9.952,1.657 17.319,10.353 17.319,20.441c-0,6.172 -2.757,12.031 -7.513,15.966c-32.967,26.655 -62.084,57.747 -86.521,92.391c-14.882,21.438 -27.157,44.574 -36.564,68.917c30.456,-2.517 61.105,-1.312 91.269,3.588c36.296,5.906 71.096,18.831 102.448,38.05c6.096,3.764 9.818,10.437 9.818,17.601c0,8.057 -4.707,15.41 -12.023,18.784c-31.72,14.69 -54.53,32.295 -71.118,51.931c-15.651,18.952 -27.327,40.863 -34.329,64.423c-2.691,8.641 -10.743,14.568 -19.794,14.568c-11.372,-0 -20.73,-9.358 -20.73,-20.731c-0,-2.09 0.316,-4.167 0.937,-6.163c14.718,-50.63 47.521,-94.138 92.148,-122.218c-17.427,-7.123 -35.596,-12.276 -54.169,-15.363c-36.607,-5.685 -73.875,-5.666 -110.477,0.055c-1.186,0.209 -2.389,0.314 -3.593,0.314c-11.38,-0 -20.743,-9.364 -20.743,-20.743c-0,-1.806 0.236,-3.605 0.701,-5.35c10.9,-39.769 28.539,-77.377 52.147,-111.186c17.316,-24.925 37.029,-48.095 58.858,-69.179c-19.402,-0.855 -38.841,-0.117 -58.123,2.205c-34.123,4.225 -67.503,13.128 -99.198,26.459Z"/><path d="M2053.23,871.878c-321.257,220.083 -615.328,168.307 -807.833,-154.96c-4.89,3.692 -9.849,7.399 -14.874,11.122c22.872,32.755 32.307,71.413 7.302,109.376c-4.207,6.384 -8.95,13.111 -14.001,20.162c-38.529,167.189 57.141,288.814 161.963,334.401l0.028,0.013c53.15,11.725 101.789,38.583 140.024,77.32c30.1,-14.109 61.769,-24.594 94.341,-31.233l433.05,-366.201Z" style="fill:#eb8c63;"/></g></g></svg>