<?xml version="1.0" encoding="UTF-8" standalone="no"?><!DOCTYPE svg PUBLIC "-//W3C//DTD SVG 1.1//EN" "http://www.w3.org/Graphics/SVG/1.1/DTD/svg11.dtd"><svg width="100%" height="100%" viewBox="0 0 3334 1667" version="1.1" xmlns="http://www.w3.org/2000/svg" xmlns:xlink="http://www.w3.org/1999/xlink" xml:space="preserve" xmlns:serif="http://www.serif.com/" style="fill-rule:evenodd;clip-rule:evenodd;stroke-linecap:round;stroke-linejoin:round;stroke-miterlimit:2.6131;"><g id="Optimize_Approach"><g><rect x="1652.73" y="0" width="1652.12" height="1666.67" style="fill:#f3f8fe;"/><path d="M190.581,163.711c93.817,-109.297 282.859,-144.948 346.186,12.197c34.244,84.904 129.468,19.701 212.028,-37.527c312.412,-217.657 557.744,280.045 106.013,383.244c-169.809,38.934 -301.154,43.156 -410.451,221.409c-190.918,311.474 -554.93,50.661 -360.259,-194.202c91.003,-113.988 6.098,-268.318 106.483,-385.121Z" style="fill:#e71f54;fill-opacity:0.07;"/><g><path d="M734.722,356.506c11.727,0 21.109,9.382 21.109,21.109c-0,4.222 -1.407,7.975 -3.284,11.258c6.098,4.222 10.32,11.258 10.32,19.233c0,12.665 -10.32,23.454 -23.454,23.454c-3.753,0 -7.505,-0.938 -10.789,-2.814l-0.469,0.469c2.814,2.814 4.691,7.036 4.691,11.727c-0,9.382 -7.506,16.887 -16.887,16.887c-9.382,0 -16.888,-7.505 -16.888,-16.887c0,-3.753 1.408,-7.505 3.753,-10.32c-5.16,-3.753 -8.913,-9.851 -8.913,-16.887c0,-6.567 2.815,-12.196 7.506,-16.418l-0.469,0.469c-0.469,-5.16 -0.938,-10.32 -1.877,-15.949c1.877,1.407 4.222,2.814 6.568,3.284c-0,-0.939 -0.469,-1.877 -0.469,-3.284c1.876,1.407 3.752,2.345 6.098,2.814c0.938,-0.469 2.345,-0.469 3.283,-0.938l0,0.469c-0.469,-1.876 -0.938,-4.221 -0.938,-6.098c0,-12.196 9.382,-21.578 21.109,-21.578Z" style="fill:#722d54;"/><path d="M763.805,1342.06c47.378,-15.01 92.411,-38.465 132.283,-70.832l-136.035,-315.226l-46.909,9.381l-18.763,-239.703l0.938,-0l-0.938,-9.382l112.58,-16.418c-5.16,-34.243 -12.196,-68.018 -24.392,-101.792c-29.553,-30.96 -69.425,-53.945 -114.457,-73.177c8.443,17.825 9.85,38.934 2.814,57.697c-9.851,-15.48 -22.985,-21.578 -39.403,-19.232c43.625,200.3 29.552,492.072 15.949,798.386c14.072,-0.469 28.145,-1.876 41.749,-3.753c25.33,-2.814 50.192,-8.443 74.584,-15.949Z" style="fill:#00cff0;"/><path d="M544.273,897.833l-20.64,40.341l-165.588,327.423c37.527,33.774 84.436,59.574 136.035,75.992c23.455,7.506 47.847,13.135 73.178,16.418c26.738,3.753 53.476,5.16 80.683,4.222c13.603,-306.783 27.676,-598.086 -15.949,-798.386c-26.738,1.407 -37.058,15.949 -39.872,37.058c-18.764,-15.949 -27.677,-39.404 -17.826,-64.734c-42.218,17.825 -83.497,39.872 -122.901,67.548c-24.861,50.192 -46.439,101.792 -65.203,153.392l30.491,11.727l46.44,18.294l25.799,9.851l17.357,-49.723l37.996,150.577Z" style="fill:#00cff0;"/><path d="M560.691,925.04c19.701,4.222 46.908,25.8 58.636,13.134c-15.949,-16.418 -23.455,-40.341 -40.811,-55.821l-34.712,15.011c-54.884,-22.047 -62.389,-52.538 -94.287,-73.178l14.073,-38.465l-46.44,-18.294l-23.454,74.115c20.64,43.625 94.755,47.378 129.468,96.163c11.727,4.691 23.454,3.753 37.527,-12.665Z" style="fill:#c36f0b;"/><path d="M668.581,679.238c4.222,0 7.505,-3.283 7.505,-7.505c0,-4.222 -3.283,-7.506 -7.505,-7.506c-4.222,0 -7.506,3.284 -7.506,7.506c0.469,4.222 3.753,7.505 7.506,7.505Z" style="fill:#00a7c2;"/><path d="M676.086,816.212c4.222,-0 7.506,-3.284 7.506,-7.506c-0,-4.222 -3.284,-7.505 -7.506,-7.505c-4.222,-0 -7.505,3.283 -7.505,7.505c-0,4.222 3.283,7.506 7.505,7.506Z" style="fill:#00a7c2;"/><path d="M676.086,949.432c4.222,0 7.506,-3.283 7.506,-7.505c-0,-4.222 -3.284,-7.505 -7.506,-7.505c-4.222,-0 -7.505,3.283 -7.505,7.505c-0,4.222 3.283,7.505 7.505,7.505Z" style="fill:#00a7c2;"/><path d="M676.086,1083.12c4.222,0 7.506,-3.283 7.506,-7.505c-0,-4.222 -3.284,-7.506 -7.506,-7.506c-4.222,0 -7.505,3.284 -7.505,7.506c-0,4.222 3.283,7.505 7.505,7.505Z" style="fill:#00a7c2;"/><path d="M676.086,1216.81c4.222,0 7.506,-3.284 7.506,-7.505c-0,-4.222 -3.284,-7.506 -7.506,-7.506c-4.222,0 -7.505,3.284 -7.505,7.506c-0,4.221 3.283,7.505 7.505,7.505Z" style="fill:#00a7c2;"/><path d="M713.144,955.531l162.773,-22.986l-18.294,-239.703l-162.773,23.454l18.294,239.235Z" style="fill:#999;"/><path d="M713.144,965.381l162.773,-32.836l-18.294,-239.703l-162.773,32.836l18.294,239.703Z" style="fill:#e6e6e6;"/><path d="M862.314,756.638c-9.851,3.752 -58.636,4.221 -19.702,17.825c9.382,3.284 -1.407,15.48 11.727,30.491c0.469,0.469 7.506,18.294 13.135,20.17c1.876,0.469 3.752,-3.752 3.752,-3.752c15.48,-13.135 13.135,-60.982 -8.912,-64.734Z" style="fill:#c36f0b;"/><path d="M592.589,600.432c2.345,-20.64 12.665,-35.651 39.872,-37.058l-39.872,-35.182c0.938,-7.505 1.876,-15.011 2.345,-22.047c-9.851,9.851 -15.949,19.702 -20.171,29.083c-9.851,25.8 -0.938,49.255 17.826,65.204Z" style="fill:#00a7c2;"/><path d="M631.992,563.374c15.949,-2.346 29.083,4.221 39.403,19.232c7.037,-18.763 6.098,-40.341 -2.814,-57.697c-2.815,-5.16 -6.098,-10.32 -9.851,-15.011c-0,3.752 0.469,7.505 0.938,11.258l-27.676,42.218Z" style="fill:#00a7c2;"/><path d="M631.992,563.374l27.676,-42.218c-0.469,-3.753 -0.938,-7.506 -0.938,-11.258c-0,-4.691 -0,-9.851 0.938,-14.542c-2.345,0.938 -4.691,1.876 -7.505,2.815c-22.047,-10.789 -46.44,-21.578 -60.043,-44.095c2.345,15.949 3.752,33.306 2.345,52.069c-0.469,7.036 -1.407,14.542 -2.345,22.047l39.872,35.182Z" style="fill:#b65a18;"/><path d="M583.207,429.215c-1.407,-26.738 -2.346,-53.476 -3.753,-80.214c25.331,-30.491 99.916,-40.342 122.432,16.887c16.887,76.461 -4.222,116.334 -49.723,132.752c-29.084,-14.073 -61.92,-28.615 -68.956,-69.425Z" style="fill:#c36f0b;"/><path d="M594.465,411.859c7.036,1.407 12.196,7.974 12.196,15.479c0,8.913 -7.036,15.949 -15.949,15.949c-0.938,9.382 -8.912,17.357 -18.763,17.357c-9.382,-0 -17.356,-7.037 -18.764,-15.949c-3.752,5.629 -10.32,8.912 -17.356,8.912c-11.258,0 -20.171,-8.912 -21.109,-19.701c-8.443,-1.877 -14.542,-9.382 -14.542,-18.295c0,-10.32 8.444,-18.763 18.764,-18.763c1.876,-0 3.753,0.469 5.16,0.938c1.407,-6.567 5.629,-12.665 11.727,-15.48c0,-0.469 -0.469,-0.469 -0.469,-0.938l-1.876,-0c-10.32,-0 -19.233,-8.444 -19.233,-19.233c0,-10.789 8.444,-19.232 19.233,-19.232c4.691,-0 9.381,1.876 12.665,4.691c0.938,-4.222 3.753,-7.975 7.505,-9.851l-0.938,-0c-9.382,-0 -17.356,-7.506 -17.356,-17.356c-0,-9.382 7.505,-17.357 17.356,-17.357c9.382,0 16.887,7.037 17.356,16.418c1.408,-1.407 3.284,-2.814 5.16,-3.752c1.877,-15.48 14.542,-27.207 30.491,-27.207c9.851,-0 18.294,4.69 23.924,11.727c4.221,-7.037 11.727,-11.727 20.639,-11.727c8.913,-0 16.418,4.69 20.64,11.727c1.877,-6.098 7.506,-10.789 14.073,-10.789c7.974,-0 14.541,6.567 14.541,14.541l0,2.346c2.815,-1.407 6.099,-2.346 9.382,-2.346c10.32,0 18.764,8.444 18.764,18.764c-0,3.284 -0.938,6.098 -1.877,8.444c12.197,0.938 21.578,11.258 21.578,23.454c0,12.196 -9.381,22.047 -21.109,23.454c-2.814,3.753 -7.036,5.629 -11.727,5.629c-7.974,0 -14.541,-6.567 -14.541,-14.541c-0,-0.939 -0,-1.877 0.469,-2.815c-2.815,1.876 -6.098,2.815 -9.851,2.815c-10.32,-0 -18.295,-7.975 -19.233,-17.826c-2.814,2.815 -6.567,4.222 -10.32,4.222c-6.098,0 -11.258,-3.753 -13.603,-8.913c-2.346,2.815 -6.098,4.691 -9.851,4.691c-5.629,0 -10.32,-3.752 -12.196,-8.912c-5.16,4.221 -11.727,7.036 -19.233,7.036c-0.938,1.407 -1.876,2.814 -3.283,3.753c2.345,3.752 3.752,8.443 3.752,13.603c0,10.32 -6.098,19.233 -15.011,22.985c3.284,3.284 5.16,7.506 5.16,12.666c0,3.752 -0.938,7.036 -2.345,9.382Z" style="fill:#ac1d45;"/><path d="M507.215,1623.98c3.752,-15.011 10.32,-28.615 13.603,-41.749c3.753,-14.073 4.222,-26.738 -4.221,-39.403c-2.815,-70.833 33.774,-124.778 50.192,-185.29c-24.862,-3.283 -49.254,-8.912 -73.178,-16.418c-5.16,67.08 -9.851,133.69 -15.011,200.769c-9.85,35.182 -26.738,63.796 -51.599,84.436c29.083,-1.876 54.414,6.098 76.461,22.516c0.469,-8.443 1.876,-16.887 3.753,-24.861Z" style="fill:#c36f0b;"/><path d="M503.931,1649.31c-22.047,-16.887 -47.378,-24.392 -76.461,-22.516c-18.294,3.753 -31.898,11.258 -40.811,21.578c-2.814,3.284 -3.283,7.506 -1.876,11.727c1.407,3.284 4.691,5.629 8.444,6.099l66.61,-0c26.269,-1.408 45.032,-5.16 44.094,-16.888Z" style="fill:#999;"/><path d="M507.215,1623.98l3.752,42.218l5.16,-0l4.691,-83.967c-3.283,13.134 -9.381,26.738 -13.603,41.749Z" style="fill:#333;"/><path d="M748.795,1593.96l3.752,72.24l5.16,-0l3.284,-52.538c-4.691,-6.098 -8.913,-12.666 -12.196,-19.702Z" style="fill:#333;"/><path d="M748.795,1593.96c3.283,7.036 7.505,13.135 12.665,19.233c9.851,12.196 21.578,23.454 31.429,35.65c8.443,10.789 20.171,16.887 33.774,16.887l74.116,0c4.222,0 7.505,-2.814 8.443,-6.567c0.939,-3.752 -0.938,-7.974 -4.69,-9.381c-18.764,-9.382 -38.935,-17.826 -62.858,-23.455c-40.811,15.48 -56.76,-0.469 -93.348,-76.93c-7.037,17.825 -5.629,31.898 0.469,44.563Z" style="fill:#999;"/><path d="M748.326,1549.39c36.588,76.461 52.537,92.41 93.348,76.93c-22.516,-17.825 -34.713,-35.65 -46.909,-72.239c-9.382,-66.142 -21.109,-146.355 -30.49,-212.497c-24.393,7.506 -49.255,13.135 -74.116,16.418c19.232,62.858 59.574,96.163 58.167,191.388Z" style="fill:#c36f0b;"/><path d="M506.746,746.787l27.207,-41.749m-44.094,91.472l34.243,-99.916" style="fill:none;stroke:#00b9c3;stroke-width:2.66px;"/><path d="M647.941,1361.76c13.603,-306.783 27.676,-598.086 -15.949,-798.386" style="fill:none;stroke:#00b9c3;stroke-width:2.66px;"/></g><path d="M911.099,1111.74l-26.738,-1.877c-5.629,-0.469 -9.851,2.815 -12.196,7.975l-4.222,8.912" style="fill:none;stroke:#e6b88a;stroke-width:2.66px;"/><g><path d="M1168.16,1521.25c5.16,-0.939 10.789,-2.346 15.949,-3.284c5.159,-0.938 10.319,-2.345 15.948,-3.284c21.109,-4.221 41.749,-8.443 62.858,-12.665c26.738,22.047 77.4,32.836 100.385,53.945c1.876,1.876 3.753,4.222 2.814,7.036c-0.938,2.815 -3.283,4.222 -6.098,4.691c-28.614,4.222 -54.414,2.346 -79.276,-0.469c-8.912,-0.938 -17.356,-1.876 -26.268,-3.283c-13.135,-1.408 -26.269,-2.815 -39.873,-3.284l-16.887,-0c-1.876,-0 -3.753,-0 -5.629,0.469c-2.345,0 -4.691,0 -6.567,-0.938c-6.567,-1.876 -12.196,-7.036 -15.011,-13.604c-1.407,-3.283 -2.345,-6.567 -2.345,-10.32l-0,-15.01Z" style="fill:#633;"/><path d="M1217.88,1526.88c38.465,-0 69.425,30.959 69.425,69.425c-0,38.465 -30.96,69.424 -69.425,69.424c-38.465,0 -69.425,-30.959 -69.425,-69.424c-0.469,-37.996 30.96,-69.425 69.425,-69.425Zm-0,20.17c-27.207,0 -49.254,22.048 -49.254,49.255c-0,27.207 22.047,49.254 49.254,49.254c27.207,-0 49.254,-22.047 49.254,-49.254c-0,-27.207 -22.047,-49.255 -49.254,-49.255Z" style="fill:#666;"/><path d="M888.583,1297.5l256.121,0l7.975,-26.269l-267.38,0.469l3.284,25.8Z" style="fill:#7c7c7c;"/><path d="M1048.07,1132.85c29.084,0 57.698,1.408 86.781,4.222c10.32,0.938 20.64,1.877 30.96,3.284c8.444,0.938 16.887,2.345 25.8,3.283c5.16,0.939 10.32,1.408 15.48,2.346c42.687,6.567 85.374,15.48 128.061,25.331c24.861,-0 -44.564,219.532 -66.611,329.299c-1.876,0.469 -3.283,0.938 -5.16,0.938c-21.109,4.222 -41.749,8.444 -62.857,12.665c-5.16,0.939 -10.32,2.346 -15.949,3.284c-5.16,0.938 -10.789,2.345 -15.949,3.284c-3.753,0.938 -7.975,1.407 -11.728,2.345c5.16,-15.48 9.851,-30.96 15.011,-46.44c2.815,-8.912 5.629,-17.825 7.975,-27.207c17.825,-61.45 31.898,-122.431 34.243,-189.511c-9.382,-1.876 -18.763,-3.753 -27.676,-5.16c-3.753,-0.469 -7.975,-1.407 -11.727,-1.876c-5.16,-0.938 -10.32,-1.407 -15.48,-1.877c-15.011,-1.876 -30.022,-2.814 -44.563,-4.221l-0.469,-0c-5.63,-0.469 -11.259,-0.939 -16.888,-0.939c-2.345,0 -4.221,-0.469 -6.567,-0.469c-31.429,-1.407 -62.857,-2.345 -94.755,-4.69c-16.888,0.938 -31.429,0.938 -43.626,-0.47c-9.85,-0.938 -18.763,-2.814 -25.799,-5.629l2.814,-1.407l-6.567,0c-24.393,-10.32 -33.774,-30.491 -30.96,-63.796l5.16,0.938c0.938,0 1.407,0.47 2.346,0.47l37.996,-0c3.752,-0 6.567,-1.408 8.912,-4.222c2.346,-2.815 3.284,-6.098 2.815,-9.382l-0,-0.938l-0.469,-3.753c10.32,0.469 24.392,-1.407 38.465,-3.753c23.454,-3.752 48.785,-11.258 60.981,-15.949Z" style="fill:#4d4d4d;"/><path d="M901.717,1398.35l-7.974,-62.858l-1.877,-14.542l-6.098,-48.785l190.919,-89.595l17.825,55.352l115.864,361.197l15.48,-4.691l-41.279,-128.53l-38.466,-119.617l1.877,-6.567l63.327,-208.744l2.814,-8.913l-12.196,-3.752l-5.16,-10.789l-313.819,147.293l-29.553,-230.791l-28.614,-222.816l-15.011,-1.876l-136.035,-17.357l-1.877,14.542l140.257,17.825l27.207,211.09l48.316,373.862l8.913,70.363l257.998,-33.305l-7.974,-14.073l-236.889,30.491l-7.975,-54.414Zm235.951,-77.869l-46.44,-145.417l106.014,-49.723l-59.574,195.14Z" style="fill:#b3b3b3;"/><path d="M876.855,1271.23l290.365,0c10.32,0 18.764,-8.443 18.764,-18.763c-0,-10.32 -8.444,-18.764 -18.764,-18.764l-290.365,0c-10.319,0 -18.763,8.444 -18.763,18.764c-0,10.32 8.444,18.763 18.763,18.763Z" style="fill:#999;"/><path d="M894.681,1132.85c147.293,0 266.91,119.618 266.91,266.911c0,147.293 -119.617,266.911 -266.91,266.911c-147.294,-0 -266.911,-119.618 -266.911,-266.911c0,-147.293 119.617,-266.911 266.911,-266.911Zm-0,18.295c-137.443,-0 -248.616,111.174 -248.616,248.616c-0,137.443 111.173,248.616 248.616,248.616c137.442,0 248.616,-111.173 248.616,-248.616c-0,-137.442 -111.174,-248.616 -248.616,-248.616Z" style="fill:#666;"/><path d="M1206.15,861.244l6.098,36.12c-0,0.469 0.469,0.938 0.469,1.407c1.407,4.222 5.629,6.567 10.32,5.629l57.228,-9.851c5.16,-0.938 8.444,-5.629 7.506,-10.32l-18.295,-108.828c-0.938,-5.16 -5.629,-8.443 -10.32,-7.505l-57.228,9.851c-5.16,0.938 -8.444,5.629 -7.506,10.319l11.728,73.178Zm3.283,-3.753l-10.789,-62.857l67.549,-11.258l17.356,101.791l-67.549,11.259l-6.567,-38.935Z" style="fill:#808080;"/><circle cx="1236.64" cy="611.221" r="81.621" style="fill:#e71f54;"/><path d="M1236.64,644.995l-27.207,-27.207c-7.505,-7.506 -7.505,-19.702 0,-27.207c7.506,-7.506 19.702,-7.506 27.207,-0c7.506,-7.506 19.702,-7.506 27.207,-0c7.506,7.505 7.506,19.701 0,27.207l-27.207,27.207Z" style="fill:#fff;"/><path d="M1077.62,660.475c4.222,14.541 7.505,29.552 11.258,45.032c1.407,6.098 -1.877,12.196 -7.975,14.073c-15.949,5.16 -30.49,7.974 -44.094,7.974l-2.345,0l-18.295,67.549c-20.17,-18.295 -43.625,-29.084 -69.425,-34.244c9.382,-29.083 16.888,-53.476 -0.938,-78.337c-2.345,-3.284 -4.691,-6.567 -6.567,-10.32c-10.789,-18.295 -16.887,-40.811 -13.134,-60.512c3.752,-18.764 16.887,-34.713 44.563,-43.625c19.702,-6.099 44.563,-6.568 67.548,6.567c20.171,26.738 30.96,54.883 39.404,85.843Z" style="fill:#fcb37e;"/><path d="M1055.58,696.125c9.85,0 17.356,-7.974 17.356,-17.356c-0,-0.938 -0,-1.876 -0.469,-3.283c-4.222,7.036 -11.727,11.727 -20.64,11.727c-5.16,-0 -9.851,-1.408 -13.604,-4.222c1.877,7.505 8.913,13.134 17.357,13.134Z" style="fill:#fff;"/><path d="M932.208,675.486c2.814,-0 5.16,-0.939 7.505,-2.815c2.815,-2.345 4.222,-5.629 4.222,-9.382c-0,-2.345 -0.938,-4.691 -1.876,-6.567l16.418,6.098l0.469,0c7.974,-4.691 13.603,-13.603 13.603,-23.454c0,-15.011 -12.196,-27.207 -27.207,-27.207c-4.691,-0 -9.382,1.407 -13.134,3.283c-1.877,-1.407 -3.753,-2.345 -6.098,-3.283c-2.346,-0.938 -4.691,-0.938 -7.037,-0.938c-12.196,-0 -22.047,9.85 -22.047,22.047c0,12.196 9.851,22.047 22.047,22.047c1.408,-0 3.284,-0 4.691,-0.469c-2.345,2.345 -3.753,5.16 -3.753,8.443c0.47,6.567 5.63,12.197 12.197,12.197Z" style="fill:#999;"/><path d="M909.692,795.572c25.799,2.814 45.501,9.851 72.239,22.985c-0.938,-20.64 26.738,-26.738 34.712,-22.985c-20.17,-18.295 -43.625,-29.084 -69.424,-34.244c-9.851,-1.876 -20.171,-3.283 -30.96,-3.283c1.876,14.072 -2.346,25.8 -6.567,37.527Z" style="fill:#bb1944;"/><path d="M946.749,1118.77l16.888,22.985c7.974,1.876 15.479,4.691 22.985,7.506c23.923,-4.222 49.254,-11.259 61.45,-16.419c0,-3.752 0.469,-7.036 0.469,-10.319c0.469,-13.135 0.939,-25.8 1.877,-37.527c1.876,-35.182 4.221,-64.265 6.098,-88.189c1.407,-15.011 2.345,-28.145 3.753,-39.872c1.876,-21.109 3.283,-37.996 2.814,-52.069c-0.469,-37.996 -11.258,-59.574 -46.44,-108.828c-7.974,-3.753 -35.65,2.814 -34.712,22.985c-26.738,-13.134 -45.971,-20.171 -72.239,-22.985c-20.64,10.32 -41.28,20.171 -61.92,30.491c-6.098,7.036 -11.727,14.072 -17.356,21.108c-4.222,5.63 -8.444,11.259 -12.666,16.888c-15.01,20.639 -28.145,41.748 -39.403,64.734c2.346,1.407 4.691,2.814 7.036,4.221c14.073,8.913 29.084,17.357 44.564,25.331c5.16,2.815 10.32,5.16 15.949,7.506l0.469,3.752l7.036,54.883l3.284,23.924c16.418,22.516 32.836,49.254 54.883,63.796l26.738,1.876c2.345,0 4.222,0.938 5.629,1.876c0.938,0 1.876,0.939 2.814,2.346Z" style="fill:#e71f54;"/><path d="M861.845,830.284c27.207,8.913 48.785,22.986 47.847,57.698m-131.345,40.811c24.393,15.479 50.192,30.021 78.807,42.217c19.701,-24.392 39.403,-48.785 59.574,-73.646" style="fill:none;stroke:#bb1944;stroke-width:2.35px;stroke-linecap:butt;stroke-linejoin:miter;"/><path d="M1059.8,956.938l21.109,-16.418l7.975,-6.567l-26.269,-29.553c0.469,14.542 -0.938,30.96 -2.815,52.538Z" style="fill:#bb1944;"/><path d="M1237.58,778.685c0.47,-0 1.408,0.469 1.408,0.938c-0,0.469 -0.469,1.407 -0.938,1.407l-13.604,2.346c-0.469,-0 -1.407,-0.47 -1.407,-0.939c-0,-0.469 0.469,-1.407 0.938,-1.407l13.603,-2.345Z" style="fill:#fff;"/><path d="M1209.44,857.491l-10.32,-62.388l67.08,-11.727l17.356,102.261l-67.549,11.258l-6.567,-39.404Z" style="fill:#cfc;"/><path d="M1080.91,940.52l-21.109,16.418c-0.938,11.727 -2.345,24.861 -3.752,39.872c14.072,7.506 30.49,13.135 47.378,17.826c35.65,-24.862 45.97,-65.204 84.904,-89.596l9.382,-0.938c5.16,-0.469 8.913,-2.815 12.196,-6.568c2.815,-3.752 3.753,-8.443 3.284,-13.134l-0.938,-4.691c-0,-0.469 -0.469,-0.938 -0.469,-1.407l-4.222,-24.862c0.938,-1.407 2.345,-2.814 3.283,-4.221c3.284,-3.753 7.037,-7.975 10.789,-15.949c1.408,-3.284 0.47,-7.037 -2.345,-8.913c-2.814,-1.876 -7.036,-1.876 -9.382,0.938c-0.938,0.938 -1.876,1.876 -2.814,2.815c-1.407,0.938 -2.346,2.345 -3.753,3.283c-14.542,12.666 -21.578,15.011 -21.578,37.996c-27.207,33.305 -61.45,41.28 -86.312,67.549l-14.542,-16.418Z" style="fill:#fcb37e;"/><path d="M1222.57,852.331c-9.382,19.702 -20.171,17.357 -17.826,38.935" style="fill:none;stroke:#cc9166;stroke-width:2.66px;"/><path d="M867.005,1130.03l-2.346,4.691l-6.567,14.542c-0.469,1.407 -0.938,3.283 -0.938,4.69c-0,1.877 0.469,3.753 1.876,5.629c1.876,3.284 4.691,5.16 7.975,6.099l4.69,0.938l19.233,3.752l5.16,0.939c0.938,-0 1.407,0.469 2.345,0.469l37.997,-0c3.752,-0 6.567,-1.408 8.912,-4.222c2.346,-2.815 3.284,-6.098 2.815,-9.382l-0,-0.938l-2.346,-18.763l-2.814,-22.048c-1.877,-0.938 -3.753,-1.876 -5.629,-1.876l-53.476,-3.753c-5.629,-0.469 -9.851,2.815 -12.197,7.975l-4.221,8.913l-0.469,2.345Z" style="fill:#fcb37e;"/><path d="M943.466,1115.49l2.814,22.047c2.815,0.469 5.16,0.939 7.975,1.877l0.469,-0c0.938,-0 1.876,0.469 2.814,0.938l1.408,-0c0.938,-0 1.407,0.469 2.345,0.469l4.691,-0l-16.887,-22.985c-3.284,-0.469 -4.222,-1.408 -5.629,-2.346Z" style="fill:#e6b88a;"/><path d="M838.859,1026.36c-7.505,-7.506 -15.479,-13.604 -24.392,-16.418l19.232,-24.393l12.666,-16.418l2.345,-2.814c-0.938,-0.47 -1.876,-0.939 -2.814,-1.408c-5.629,-2.345 -10.789,-5.16 -15.949,-7.505c-15.48,-7.975 -30.022,-16.418 -44.564,-25.331c-20.639,27.207 -37.996,57.229 -51.13,91.941c24.862,37.996 74.116,61.451 115.395,89.127c5.629,3.753 11.258,7.505 16.418,11.727c0.47,0.469 1.408,0.938 1.877,1.407l4.222,-8.912c2.345,-5.16 7.036,-8.444 12.196,-7.975l26.738,1.876c-22.047,-14.072 -38.465,-40.81 -54.883,-63.795c-5.629,-7.037 -11.258,-14.542 -17.357,-21.109Z" style="fill:#fcb37e;"/><path d="M1008.67,1122.53l226.569,-0c10.32,-0 18.764,-8.444 18.764,-18.764c-0,-10.32 -8.444,-18.763 -18.764,-18.763l-226.569,-0c-10.32,-0 -18.764,8.443 -18.764,18.763c0,10.32 8.444,18.764 18.764,18.764Z" style="fill:#999;"/><path d="M894.681,1446.66c25.8,-0 46.908,-21.109 46.908,-46.909c0,-25.8 -21.108,-46.909 -46.908,-46.909c-25.8,0 -46.909,21.109 -46.909,46.909c0,25.8 21.109,46.909 46.909,46.909Z" style="fill:#666;"/><path d="M1217.88,1611.31c9.382,0 17.356,-7.974 17.356,-17.356c0,-9.382 -7.974,-17.356 -17.356,-17.356c-9.382,-0 -17.356,7.974 -17.356,17.356c-0,9.851 7.974,17.356 17.356,17.356Z" style="fill:#666;"/><path d="M732.377,786.19l-62.389,-7.974l-2.815,22.516l62.389,7.974l2.815,-22.516Z" style="fill:#4d4d4d;"/><path d="M1236.64,692.842l0,68.486" style="fill:none;stroke:#666;stroke-width:6.65px;"/><path d="M1080.91,720.049c-50.661,16.418 -89.126,7.974 -113.05,-31.429" style="fill:none;stroke:#cc9166;stroke-width:2.66px;"/><path d="M802.74,1008.54c8.912,0 16.418,2.815 23.923,7.506" style="fill:none;stroke:#cc9166;stroke-width:2.66px;"/><path d="M1089.35,963.974c9.851,-13.603 22.516,-22.985 35.651,-31.429" style="fill:none;stroke:#cc9166;stroke-width:2.66px;"/><path d="M1235.24,1265.6c-15.48,-3.753 -30.96,-7.036 -45.501,-9.382" style="fill:none;stroke:#333;stroke-width:2.66px;"/><path d="M1068.71,706.445l-20.64,4.222c-5.629,0.938 -10.789,-1.876 -12.665,-7.505l-6.098,-18.764c-1.407,-5.16 0.469,-10.32 5.16,-13.134l12.665,-6.567l-1.407,-4.691l-21.578,8.912c-4.691,1.877 -7.506,6.568 -6.567,11.727l4.69,35.182c0.939,7.505 7.037,12.665 14.542,12.665c13.604,0 28.145,-2.814 44.094,-7.974c6.098,-1.876 9.382,-7.975 7.975,-14.073c-3.753,-15.48 -7.036,-30.49 -11.258,-45.032l-22.986,-2.346l1.408,5.63l9.851,1.407c5.16,0.938 8.912,4.691 9.381,10.32l1.408,19.701c0.938,4.222 -2.815,8.913 -7.975,10.32Z" style="fill:#808080;stroke:#808080;stroke-width:2.66px;"/></g><g><path d="M1484.79,944.272c31.429,-11.727 57.229,-31.897 79.745,-56.759l-15.011,-37.996l-28.145,-0l-71.77,14.542c-2.815,0.469 -4.691,2.814 -4.691,5.629l-0,0.469c-0,3.283 2.345,5.629 5.629,5.629l28.145,-0l5.629,1.876c-18.294,15.949 -37.058,31.429 -55.352,47.378c11.727,14.542 26.738,25.331 55.821,19.232Z" style="fill:#fe9784;stroke:#fe9784;stroke-width:2.66px;"/><path d="M2368.55,500.047c45.032,-0 81.621,-36.589 81.621,-81.621c-0,-45.033 -36.589,-81.621 -81.621,-81.621c-45.033,-0 -81.622,36.588 -81.622,81.621c0.47,45.032 37.058,81.621 81.622,81.621Z" style="fill:#fff;stroke:#666;stroke-width:6.65px;"/><circle cx="2368.55" cy="418.426" r="39.403" style="fill:#1ccf94;"/><path d="M1902.75,292.241c23.923,-42.687 162.773,-46.439 113.519,84.436c0,51.13 -51.13,94.287 -88.188,94.287l-25.331,-65.673l-19.702,0c-3.283,0 -6.098,-1.876 -7.036,-4.691c-0.938,-2.814 0,-6.098 2.346,-7.974l19.701,-15.48l4.691,-84.905Z" style="fill:#fe9784;stroke:#fe9784;stroke-width:2.66px;"/><path d="M1979.68,313.819l13.135,49.724l7.974,-0l4.222,-28.615c6.567,-2.814 9.851,15.011 11.727,40.342c0.469,8.912 0.938,18.763 1.407,29.083c2.815,-8.443 4.222,-17.356 4.691,-26.269c8.913,-23.923 15.011,-53.007 6.098,-77.868c-7.036,-18.764 -21.108,-30.96 -39.872,-37.058c-16.887,-5.16 -36.12,-5.16 -53.007,-0.469c-14.541,4.222 -30.96,12.665 -38.934,26.269c-0.938,1.407 -0.938,4.691 -1.407,7.974c-0.469,4.222 2.345,7.975 6.098,9.851c0.938,0.469 1.876,0.469 2.814,0.469l75.054,6.567Z" style="fill:#1a1a1a;stroke:#000;stroke-width:2.66px;"/><path d="M1914.01,433.906c20.64,-0 30.96,-13.135 37.058,-31.429c-13.134,10.32 -26.269,18.763 -41.749,19.701l4.691,11.728Z" style="fill:#fff;"/><path d="M1966.08,501.923c7.505,10.789 19.232,11.727 27.676,21.109c5.16,6.098 9.382,15.48 10.32,32.836c0.938,-14.072 3.753,-23.923 7.974,-31.429c10.32,-19.701 27.207,-24.392 28.146,-48.316c-14.542,-22.047 -19.233,-44.094 -21.578,-71.77c-0.939,-8.443 -1.408,-17.825 -1.877,-27.676c0,37.058 -26.738,69.894 -55.352,84.905c1.876,5.16 2.814,10.32 3.753,15.949c0.938,7.505 1.407,15.949 0.938,24.392Z" style="fill:#ce7a6b;"/><path d="M2046.29,530.068c-9.851,-9.85 -23.455,-15.479 -34.244,-6.098c-4.221,7.506 -7.036,17.357 -7.974,31.429c-0.938,-17.356 -4.691,-26.738 -10.32,-32.836c-31.898,-16.418 -42.687,22.047 -63.796,32.836l3.753,91.003l0.938,20.64l-0,5.16l1.407,34.243l1.877,48.316l6.567,159.49c50.192,2.814 100.854,-0 151.984,-8.444l-5.629,-95.693l-5.16,-94.287l-11.727,-210.151c0.938,13.134 -4.691,28.614 -15.48,41.749c-1.876,-5.16 -6.567,-11.727 -12.196,-17.357Z" style="fill:#ffb000;"/><path d="M1929.96,555.868l3.753,91.003l0.938,20.64l-0,5.16l1.407,34.243l1.877,48.316l6.567,159.49l14.542,348.063c0.938,26.738 -14.073,50.192 -39.404,59.574l-104.137,39.403c-3.753,1.407 -7.975,0.938 -11.258,-1.407c-3.284,-2.346 -5.16,-6.098 -5.16,-10.32l8.912,-176.377l9.382,-179.191l11.727,-231.26l-30.49,52.068l-145.417,83.498l-27.676,15.949l-7.975,-22.516l-21.578,-61.92l-1.407,-3.752l58.167,-26.738l95.224,-43.626c16.418,-63.795 39.404,-127.591 65.672,-191.387c37.997,-26.738 79.276,-47.847 124.778,-62.858c-8.913,15.011 -11.258,32.836 -8.444,53.945Z" style="fill:#e6e6e6;stroke:#ccc;stroke-width:2.34px;"/><path d="M1798.14,994.934l-0,182.475l9.85,-3.753l4.222,-1.407c22.047,-7.975 36.589,-26.269 39.873,-49.254l16.418,-128.061l-70.363,-0Z" style="fill:#fbfbfb;stroke:#e6e6e6;stroke-width:2.34px;"/><path d="M1572.51,908.153l44.563,-15.48l-21.109,-61.92l-46.44,18.764l15.011,37.996l7.975,20.64Z" style="fill:#cf8e00;"/><path d="M1944.03,762.267c17.356,6.567 42.687,-7.975 68.017,-7.037l0,-37.527l-43.625,-30.959l-15.48,-4.691l7.975,19.701l-24.393,5.16l-26.269,5.629l-7.505,1.408l-3.753,0.938c-2.345,0.469 -4.221,1.876 -5.629,4.222c-0.938,2.345 -0.938,4.69 0.469,7.036l1.408,2.345c1.407,2.346 3.752,3.753 6.098,3.753l5.16,0c7.505,0 13.603,2.815 18.294,8.444l13.135,15.479l6.098,6.099Z" style="fill:#fe9784;"/><path d="M2011.58,713.482l0,58.166l42.218,3.753l0,-57.229l-42.218,-4.69Z" style="fill:#cf8e00;"/><path d="M2053.8,717.703l0,87.251c12.665,2.345 25.331,4.221 37.527,5.629l5.629,95.693l19.702,343.841c1.407,23.455 15.011,42.687 36.12,52.069l22.516,9.851l106.952,46.908c4.221,1.877 8.443,1.408 12.196,-1.407c3.753,-2.814 5.16,-7.036 4.691,-11.258l-26.269,-194.671l-21.578,-157.613l-24.862,-185.759c5.629,-0.938 10.789,-2.345 15.949,-3.753c-10.32,-91.941 -23.923,-183.882 -46.909,-275.354c-32.367,-20.17 -71.77,-32.367 -114.926,-40.81c-5.16,-0.938 -10.32,-1.877 -15.48,-2.815c3.284,3.753 5.629,7.975 6.567,12.666c0.47,2.345 0.939,4.69 0.939,7.036l11.727,210.151c-10.789,-1.407 -21.578,-2.346 -32.367,-3.753c1.876,2.815 1.876,4.222 1.876,6.098Z" style="fill:#e6e6e6;stroke:#ccc;stroke-width:2.34px;"/><path d="M2273.33,1152.55l13.603,0l0,-158.082l-103.199,-0c-4.222,101.323 3.753,155.268 89.596,158.082Z" style="fill:#fbfbfb;stroke:#e6e6e6;stroke-width:2.35px;"/><path d="M1861.47,1572.85c-28.145,27.676 -62.388,43.156 -93.817,64.265c-5.629,4.222 -8.444,10.789 -6.098,17.825c1.876,6.568 7.974,11.259 15.011,11.259l134.159,-0c16.887,-0 30.49,-12.666 31.428,-29.553l3.753,-53.476c-2.345,-0.469 -5.16,-0.469 -7.505,-0.938l-16.887,22.047l-16.419,-26.269c-14.541,-1.407 -29.083,-3.283 -43.625,-5.16Z" style="fill:#633;"/><path d="M1904.62,1578.48l16.418,26.269l16.888,-22.047c-10.789,-1.407 -22.048,-2.814 -33.306,-4.222Z" style="fill:#fff;"/><path d="M1831.45,713.012l-3.284,65.673" style="fill:none;stroke:#ccc;stroke-width:2.66px;"/><path d="M2130.26,1593.96l7.975,6.567l7.036,-13.134c-5.16,2.345 -9.851,4.691 -15.011,6.567Z" style="fill:#fff;"/><path d="M2145.27,1587.39l-7.036,13.134l-7.975,-6.567c-1.876,0.938 -3.752,1.877 -5.629,2.346l5.629,42.217c2.346,15.949 15.48,27.207 31.429,27.207l140.726,0c7.037,0 12.666,-4.221 15.011,-10.789c2.346,-6.567 0,-13.603 -5.629,-17.825c-35.181,-25.331 -76.461,-37.058 -105.545,-76.461c-20.639,8.913 -40.81,17.825 -60.981,26.738Z" style="fill:#633;"/><path d="M2130.26,1593.96c5.16,-2.345 9.851,-4.222 15.011,-6.567c20.171,-8.913 40.342,-17.825 60.981,-26.738c3.284,-1.407 7.037,-2.815 10.32,-4.691c-13.603,-75.523 -27.207,-167.933 -41.279,-243.456l-22.516,-9.851c-21.579,-9.382 -34.713,-28.614 -36.12,-52.069l-19.702,-343.841c-51.13,8.444 -101.792,11.259 -151.984,8.444l14.542,348.063c0.938,26.738 -14.073,50.192 -39.404,59.574l-52.068,19.701c-5.629,76.462 -11.258,152.923 -16.888,229.384c3.284,0.469 7.037,0.938 10.32,1.407c14.542,1.877 29.084,3.753 43.156,5.629c11.258,1.408 22.517,2.815 33.306,4.222c2.345,0.469 5.16,0.469 7.505,0.938c2.345,0.469 4.222,0.469 6.567,0.939c13.604,-179.661 30.491,-357.914 64.734,-527.254c0.469,-2.815 2.815,-4.691 5.629,-4.691c2.815,-0 5.16,1.407 6.098,3.752c49.724,129.938 68.487,344.31 86.312,545.08c3.284,-1.408 6.568,-2.815 9.851,-4.222c1.877,-1.876 3.753,-2.815 5.629,-3.753Z" style="fill:#184656;"/><path d="M1930.42,646.871l-138.381,28.145c-1.876,0.47 -3.283,1.408 -4.221,3.284c-0.938,1.876 -0.938,3.753 -0,5.16l37.058,82.559c1.407,3.284 5.16,5.16 8.443,4.691l103.199,-16.887l-11.727,-13.603c-4.691,-5.63 -11.258,-8.444 -18.294,-8.444l-5.16,-0c-2.815,-0 -5.16,-1.407 -6.098,-3.753l-1.408,-2.345c-1.407,-2.346 -1.407,-4.691 -0.469,-7.036c0.938,-2.346 2.815,-3.753 5.629,-4.222l1.877,-0.469l35.65,-7.506l24.393,-5.16l-7.975,-19.701l-12.196,-30.491c-2.345,-2.815 -6.567,-5.16 -10.32,-4.222Z" style="fill:#808080;"/><path d="M1933.24,660.006c-0.469,-1.408 -2.346,-1.877 -3.284,-1.408c-1.407,0.469 -1.876,2.346 -1.407,3.284c0.469,1.407 2.345,1.876 3.283,1.407c1.408,-0.469 1.877,-2.345 1.408,-3.283Z" style="fill:#ccc;"/><path d="M1936.99,669.387c-0.469,-1.407 -2.345,-1.876 -3.283,-1.407c-1.407,0.469 -1.877,2.346 -1.407,3.284c0.469,1.407 2.345,1.876 3.283,1.407c1.407,-0.469 1.877,-1.876 1.407,-3.284Z" style="fill:#ccc;"/><path d="M2151.83,723.332l-7.974,-73.177m23.454,75.992l32.367,11.258m-145.886,-24.862c37.996,4.691 75.523,8.913 113.519,13.604c8.913,8.913 17.826,17.825 26.738,26.738" style="fill:none;stroke:#ccc;stroke-width:2.66px;"/><path d="M2243.78,805.423c-55.352,15.48 -120.555,11.727 -189.511,-0" style="fill:none;stroke:#ccc;stroke-width:2.66px;"/><path d="M1479.16,875.786l26.269,7.505" style="fill:none;stroke:#ce7a6b;stroke-width:2.66px;"/><path d="M2347.91,419.364l15.48,15.011l26.269,-26.269l-6.099,-5.629l-20.17,20.171l-9.382,-9.382l-6.098,6.098Z" style="fill:#fff;"/><path d="M2046.29,530.068c5.629,5.63 10.32,12.197 12.665,18.295c10.789,-13.135 15.949,-28.614 15.48,-41.749c-0,-2.345 -0.469,-4.691 -0.938,-7.036c-1.407,-4.691 -3.284,-9.382 -6.567,-12.666c-5.629,-6.098 -14.542,-10.319 -26.269,-10.319c-0.938,23.923 -17.826,28.614 -28.146,48.316c10.32,-10.32 23.455,-4.691 33.775,5.159Zm-116.334,25.8c21.109,-10.789 31.898,-49.254 63.796,-32.836c-8.444,-9.382 -19.702,-9.851 -27.676,-21.109c0.469,-8.443 -0,-16.418 -1.407,-24.861c-12.197,6.567 -20.64,15.48 -26.738,25.799c-8.444,14.073 -10.789,31.898 -7.975,53.007Z" style="fill:#cf8e00;"/><path d="M1939.81,652.031l203.584,-233.605l144.01,-0" style="fill:none;stroke:#666;stroke-width:6.65px;"/><path d="M1869.91,712.543c2.814,6.099 8.913,9.382 12.665,7.506c3.753,-1.877 4.691,-8.444 1.877,-14.542c-2.815,-6.098 -8.913,-9.382 -12.666,-7.505c-3.752,1.876 -4.691,8.443 -1.876,14.541Z" style="fill:#ccc;"/></g><g><rect x="2835.29" y="258.936" width="297.401" height="622.479" style="fill:#fff;"/><g><path d="M3029.97,299.747l-112.58,-0l-0,4.221c-0,10.32 -0,19.233 0.469,22.048l-0,2.814l14.072,0c7.506,0 10.789,0 10.789,0.469c0.469,0.469 0.469,2.815 0.938,30.96c0,11.727 0,22.047 0.47,22.516l-0,25.8c-0,0.469 -0,0.469 -17.826,0.469l-7.505,0l-0,26.738l27.676,-0c67.079,-0.469 85.843,-0.469 90.065,-0.469l16.418,-0l-0,-52.538l-28.145,0l-0,12.196c-0,7.506 -0,12.197 -0.47,12.666c0,-0 -3.752,0.469 -8.443,0.469l-25.8,-0c-17.356,-0 -17.825,-0 -18.294,-0.469c-0,-0.469 -0.469,-4.691 -0,-13.135l-0,-12.196l26.269,0l-0,-27.207l-5.629,-0c-16.888,-0 -20.64,-0 -20.64,-0.469c-0,-0 -0.469,-4.691 -0.469,-10.32l-0,-12.665c-0,-2.815 -0,-2.815 0.469,-3.284c0.469,-0.469 2.814,-0.469 8.912,-0.469c4.691,-0 7.975,-0 7.975,-0.469l35.65,-0l0,27.676l8.444,-0c15.48,-0 19.702,-0 19.702,-0.469c-0,-0 -0,-13.135 0.469,-28.614l-0,-28.615l-11.727,0c-6.099,2.346 -11.259,2.346 -11.259,2.346Z" style="fill:#e71f54;"/><path d="M3032.31,466.273c-7.505,-0 -9.851,-0 -10.32,0.469l0,13.603l12.196,0l0,38.465l-12.196,0l0,13.135l39.403,-0l0,-13.135l-12.665,0l-0,-12.196l11.727,0c11.727,0 12.196,0 15.949,-1.407c3.284,-0.938 5.629,-2.346 7.975,-5.16c0.938,-0.938 2.814,-3.753 3.283,-5.16c0,-0.469 0.469,-0.938 0.469,-1.407c0.938,-2.346 1.408,-9.382 0.469,-12.666c-0.938,-2.814 -2.345,-5.629 -4.221,-7.974c-2.346,-2.346 -7.037,-5.16 -11.258,-6.098c-2.815,-0.469 -0,-0.469 -40.811,-0.469Zm40.811,14.541c1.407,0.939 1.876,2.346 1.876,4.691c-0,3.284 -1.407,5.629 -3.753,7.037c-0.938,0.469 -1.876,0.469 -11.727,0.469l-11.258,-0l-0,-12.666l23.923,0l0.939,0.469Z" style="fill:#e71f54;"/><path d="M2923.01,467.211l-17.826,-0c-9.851,-0 -17.825,-0 -17.825,0.469l-0,13.603l5.629,0c4.691,0 6.098,0 6.098,0.47c0.469,0.469 0.938,37.996 0.469,38.465c0,-0 -2.814,0.469 -6.098,0.469l-6.098,-0l-0,12.665l39.403,0l0,-6.098c0,-3.753 0,-6.098 -0.469,-6.567l-6.098,-0c-6.567,-0 -6.098,0.469 -6.567,-2.346c-0,-1.876 -0.469,-5.16 -0,-8.443l-0,-2.346l6.098,0c3.284,0 6.567,0 6.567,-0.469l0,-12.196l-12.665,-0l-0,-13.134l25.8,-0c-0,-0 0.469,3.283 0.469,6.567l-0,6.567l14.072,-0l0,-27.207l-15.01,-0c-8.913,-0.469 -15.949,-0.469 -15.949,-0.469Zm3.283,39.403l-0.469,0l0.469,0Z" style="fill:#e71f54;"/><path d="M2980.24,566.188c-6.567,1.407 -12.196,5.16 -15.949,10.32c-3.283,5.16 -4.221,11.727 -2.814,17.356c2.345,9.382 10.789,16.418 20.171,17.357c5.629,0.469 10.319,-0.47 15.01,-3.284c2.346,-1.407 5.16,-3.753 6.568,-6.567c2.814,-4.222 4.221,-7.975 4.221,-12.666c0,-5.16 -1.407,-9.85 -4.691,-13.603c-1.407,-1.876 -5.16,-5.16 -5.629,-5.16c0,-0 -0.469,-0 -0.469,-0.469c-0.469,-0.469 -3.283,-1.877 -5.629,-2.815c-2.345,-0.469 -8.443,-0.938 -10.789,-0.469Zm6.567,9.382c5.16,0.938 9.382,4.691 10.789,10.32c1.408,5.629 -1.407,11.727 -6.567,15.011c-2.345,1.407 -3.752,1.876 -7.036,1.876c-2.815,-0 -3.284,-0 -5.16,-0.938c-2.815,-1.407 -4.222,-2.346 -5.629,-4.222c-1.876,-2.345 -2.345,-4.691 -2.345,-8.444c-0,-2.345 -0,-3.283 0.469,-4.69c0.938,-2.815 2.814,-5.16 5.629,-7.037c3.283,-1.876 5.629,-2.345 9.85,-1.876Z" style="fill:#e71f54;"/><path d="M3062.33,567.126l-6.099,0l0,16.888l8.444,-0l-0,-8.444c0.469,-0.469 22.516,-0.469 22.516,-0c0,-0 -0.938,0.938 -1.876,1.876c-0.938,0.938 -1.877,1.408 -1.877,1.877c0,-0 -2.345,2.345 -5.16,4.691c-2.814,2.345 -5.159,4.221 -5.629,4.69c-0.469,0.469 -1.876,1.408 -3.283,2.815c-1.407,1.407 -4.691,3.753 -7.036,5.629c-2.346,1.876 -4.691,3.753 -5.16,4.222c-0.939,0.469 -1.408,1.407 -1.408,1.407l0,7.974l45.502,0l-0,-17.825l-8.444,0l0,9.382l-10.789,-0c-7.036,-0 -10.789,-0 -10.789,-0.469c0,-0.469 1.407,-1.407 4.691,-4.691c2.345,-2.345 5.629,-5.16 7.036,-6.098c0.939,-0.938 4.222,-3.753 4.691,-4.222c0,0 1.407,-1.407 2.815,-2.345c1.407,-0.939 3.283,-2.815 3.752,-3.284c0.939,-0.938 1.877,-1.407 2.346,-1.876c0.938,-0.939 2.814,-2.346 4.222,-3.753c0.938,-0.469 0.938,-0.938 0.938,-5.16l-0,-4.222l-16.887,0c-8.444,0.469 -18.764,0.469 -22.516,0.938Z" style="fill:#e71f54;"/><path d="M2898.15,568.534l-31.898,-0l0,16.418c0,0.469 0.938,0.469 7.505,0.469c0.47,-0 0.47,-0 0.47,-4.222l-0,-4.691c-0,-0.469 0.938,-0.469 4.69,-0.469c2.346,0 4.691,0 4.691,0.469c0,0 0,5.16 0.469,10.789c0,5.629 0,11.727 0.469,13.604l0,3.283c0,0 -2.345,0.469 -4.69,0.469l-4.222,0l-0,8.444l0.938,-0c0.469,-0 17.356,-0.469 23.923,-0.469l2.346,-0l-0,-8.444l-8.913,0c-0.469,-0.469 -0.469,-27.207 -0.469,-27.676c0.469,-0.469 9.851,-0.469 10.32,0l0,8.913l8.444,-0l-0,-7.975c-0,-4.221 -0,-7.974 -0.469,-8.443c-0,-0.469 -2.815,-0.469 -13.604,-0.469Z" style="fill:#e71f54;"/><path d="M3066.55,643.588l0,6.098l6.098,-0c0.47,-0 0.47,1.407 0.47,9.381l-0,9.382l-6.568,0l0,6.567l9.382,0c10.789,0 11.258,0 15.011,-2.345c1.876,-1.407 2.345,-1.407 3.283,-2.345c4.222,-3.753 5.629,-9.382 4.691,-15.48c-0.938,-4.222 -3.752,-7.506 -8.912,-9.851c-3.753,-1.877 -5.16,-1.877 -15.011,-1.877c-5.16,0 -8.444,0 -8.444,0.47Zm18.764,6.098c1.407,0.469 4.222,1.876 5.16,2.814c1.407,1.877 2.345,3.753 2.345,6.567c0,2.346 0,2.815 -0.938,4.222c-0.938,2.346 -3.753,4.691 -5.16,4.691c0,0 -0.469,0 -0.938,0.469c-0.938,0.469 -5.629,0.469 -6.098,0c-0.469,0 -0.469,-2.345 -0.469,-9.382c-0,-8.443 -0,-9.381 0.469,-9.381l5.629,-0Z" style="fill:#e71f54;"/><path d="M2947.41,644.057l-13.134,-0l-0,6.567l2.814,-0c2.346,-0 2.815,-0 2.815,0.469c0.469,0.938 -0,18.294 -0,18.294c-0,0 -1.408,0.469 -3.284,0.469l-2.814,0l-0,5.63l19.701,-0l0,-5.63l-2.814,0c-2.815,0 -3.284,0 -3.284,-0.469l0,-5.629c0,-0.469 0.938,-0.469 5.16,-0.469c6.567,0 8.444,-0.469 11.258,-2.345c2.346,-1.407 3.284,-3.753 3.284,-6.567c-0,-4.691 -2.346,-7.975 -7.036,-9.382c-1.408,-0.469 -2.815,-0.469 -7.037,-0.469c-3.283,-0.469 -5.629,-0.469 -5.629,-0.469Zm11.727,7.036c1.408,1.407 0.939,4.691 -0.469,5.629c-0.938,0.469 -11.258,0.938 -11.727,0.469l0,-6.098c0,-0.469 1.407,-0.469 6.098,-0.469c5.629,-0.469 5.629,-0.469 6.098,0.469Z" style="fill:#e71f54;"/><path d="M3000.41,646.871l-0,3.284l2.815,-0c1.876,-0 2.814,-0 3.283,0.469c0.469,0.469 0.469,18.294 0,18.763l-6.098,0l-0,3.284c-0,1.876 -0,3.284 0.469,3.284l32.367,-0l0,-12.197l-6.567,0l-0,5.629l-12.665,0c-0,0 -0.47,-1.407 -0.47,-3.283c0,-3.284 0,-3.284 3.753,-3.284c1.876,0 2.815,0 2.815,-0.469l-0,-6.098l-5.629,-0l-0,-3.284c-0,-2.814 -0,-3.283 0.469,-3.283l11.727,-0c0.469,-0 0.469,0.469 0.469,3.283l-0,3.284l6.567,-0l0,-13.135l-32.836,0l0,3.753l-0.469,0Z" style="fill:#e71f54;"/><path d="M2887.83,644.995l-18.294,-0l-0,6.567l6.567,0l-0,12.196c-0,5.629 -0,6.568 -0.469,6.568c-0.469,0.469 -1.407,0.469 -3.284,0.469c-3.283,-0 -3.283,-0 -3.283,3.283c-0,2.346 0.469,3.753 0.938,3.284c-0,-0 7.036,-0 15.011,-0.469c7.974,-0 15.01,-0 15.479,-0.469l0.47,-0l-0,-12.197l-5.63,0l0,2.346c0,1.407 0,2.814 -0.469,2.814c0,0.469 -0.938,0.469 -6.567,0.469l-6.567,0c-0.469,-0.469 -0.469,-17.825 -0,-18.294c0.469,-0.469 0.469,-0.469 3.284,-0.469l2.814,-0l0,-6.098Z" style="fill:#e71f54;"/><path d="M3071.71,705.976l0,4.691l2.346,0c2.345,0 2.345,0 2.814,0.469l0,14.542l-5.629,-0l0,4.691l7.506,-0c6.098,-0 7.505,-0 8.912,-0.469c1.877,-0.469 5.16,-2.346 6.567,-3.753c0.939,-1.407 2.815,-3.753 2.815,-3.753c-0,0 -0,-0.469 0.469,-0.938c0.938,-2.345 0.469,-6.098 -0.469,-8.913c-1.407,-2.814 -4.222,-5.16 -8.444,-6.567c-1.407,-0.469 -2.345,-0.469 -8.912,-0.469c-4.222,0.469 -7.975,0.469 -7.975,0.469Zm15.949,5.16c3.284,1.407 4.222,3.284 4.691,6.567c0,2.346 -0.469,4.222 -1.407,5.629c-1.407,1.408 -3.753,2.346 -6.098,2.815c-1.877,-0 -2.346,-0 -2.346,-0.469c0,-0.469 -0.469,-8.444 0,-14.073l0,-0.938l2.346,0c0.938,0 1.876,0 2.814,0.469Z" style="fill:#e71f54;"/><path d="M2989.16,706.914c-0,1.408 -0.469,1.877 -1.876,0.939c-0.939,-0.47 -2.346,-0.939 -2.815,-0.939c-0.938,0 -1.876,0 -2.345,-0.469c-0.939,0 -3.753,0.469 -5.629,0.938c-0.47,0 -0.939,0.47 -0.939,0.47c-0.469,-0 -2.345,1.876 -3.283,2.345c-4.691,5.16 -4.222,12.196 0.469,16.887c3.283,3.284 7.505,4.222 11.727,3.284c4.691,-0.938 8.913,-5.16 9.851,-8.913l-0,-0.938l-2.815,-0c-2.345,-0 -2.814,-0 -2.814,0.469c-0,0.469 -1.407,2.814 -2.815,3.753c-1.407,0.938 -3.283,1.876 -5.16,1.407c-0.938,-0 -1.876,-0 -1.876,-0.469c-0,-0 -0.469,-0.469 -1.407,-0.469c-1.408,-0.469 -1.877,-1.408 -3.284,-3.284c-0.469,-0.938 -0.938,-1.407 -0.938,-3.753c-0,-1.876 -0,-2.814 0.469,-3.752c0.938,-1.877 1.876,-2.815 3.753,-3.284c3.752,-1.876 7.974,0 9.851,3.284c0.469,0.938 0.469,0.938 0.938,0.938l5.16,-0l-0,-10.32l-4.691,-0l-0,1.876l0.469,0Z" style="fill:#e71f54;"/><path d="M3019.65,708.791l-0,2.345l2.345,0c1.876,0 2.345,0 2.345,0.469l0,14.542l-4.69,-0l-0,4.691l15.01,-0l0,-4.691l-4.221,-0c-0.47,-0 -0.47,-0.938 -0.47,-2.346c0,-2.814 -0.469,-2.345 3.284,-2.345l1.876,0l0,-4.691l-1.876,0c-3.284,0 -3.284,0 -3.284,-2.814l0,-2.346l5.16,0c5.629,0 5.16,-0.469 5.16,3.284c0,0.938 0,1.876 0.469,1.876c0.47,0 4.691,0 4.691,-0.469l0,-9.382l-25.33,0l-0.469,1.877Z" style="fill:#e71f54;"/><path d="M2916.91,707.383l0,4.222l2.346,0c2.345,0 2.345,0 2.345,0.469l0,15.011l-4.691,0l0,4.691l26.269,-0l0,-9.382l-2.345,0c-1.407,0 -2.346,0 -2.346,0.469l0,1.877c0,0.938 0,1.876 -0.469,2.345c-0.469,0.469 -0.469,0.469 -5.16,0.469c-3.283,0 -4.69,0 -4.69,-0.469c-0.47,-0.469 -0.47,-4.222 -0,-4.691c-0,0 0.938,-0.469 2.345,-0.469l2.345,0l0,-4.691l-4.69,0l-0,-5.16l10.319,0l0,4.691l5.16,0l0,-9.382l-26.738,0Z" style="fill:#e71f54;"/><path d="M2866.25,708.322l0,4.221l4.691,0c-0,0 -0,3.284 0.469,7.037l0,7.505c-0.469,0.469 -0.469,0.469 -2.345,0.469c-1.408,0 -1.877,0 -2.346,0.469l0,4.222l15.011,0l-0,-3.753l-2.345,0c-1.408,0 -2.346,0 -2.346,-0.469c-0.469,-0.469 -0.469,-3.283 0,-4.222l0,-0.938l4.691,0c5.16,0 6.098,-0.469 8.444,-1.876c2.345,-1.407 3.283,-5.16 1.876,-7.975c-0.469,-1.407 -1.876,-3.283 -2.346,-3.283l-0.469,-0c0,-0 -0.938,-0.469 -1.407,-0.938l-1.407,-0.469l-18.764,-0c-0.938,-0.469 -1.407,-0.469 -1.407,-0Zm20.171,4.69c0.938,0.939 0.938,3.284 -0.469,4.691c-0.469,0.469 -0.938,0.469 -4.691,0.469l-4.691,0c-0.469,0 -0.469,-4.69 -0,-5.16c-0,0 1.876,-0.469 4.691,-0.469c3.753,0 4.691,0 5.16,0.469Z" style="fill:#e71f54;"/><path d="M3009.8,769.303c-0,0.938 -0.469,0.938 -0.938,0.469c-0.939,-0.469 -3.753,-0.938 -5.629,-0.938c-1.877,-0 -3.284,0.938 -4.691,1.876c-4.222,3.284 -4.691,9.851 -0.469,13.604c1.876,1.407 3.752,2.345 6.567,2.345c3.752,0 6.567,-1.876 8.443,-5.16c0.469,-0.938 0.939,-1.876 0.469,-1.876l-1.876,-0c-1.407,-0 -1.876,-0 -1.876,0.469c-0,0.469 -0.469,0.938 -1.408,1.876c-2.345,2.815 -7.505,1.877 -8.912,-1.407c-0.469,-0.938 -0.938,-3.284 -0.469,-4.691c0.469,-2.345 2.814,-3.753 5.16,-3.753c2.345,0 2.814,0.47 4.691,1.877l1.407,1.876l3.753,0l-0,-3.283c-0,-3.753 -0,-3.753 -1.877,-3.753l-1.407,-0l-0.938,0.469Z" style="fill:#e71f54;"/><path d="M3041.69,768.834l-5.629,-0l-0,6.567l3.752,0l0,-3.753l4.691,0c3.284,0 4.691,0 4.691,0.469c0,0.47 -3.284,3.284 -7.036,6.099c-0.938,0.938 -2.346,1.876 -2.815,2.345c-0.469,0.469 -0.938,0.469 -0.938,0.469c0,0 -0.938,0.469 -2.345,1.876c-0.939,0.939 -0.939,0.939 -0.939,2.346l0,1.407l20.64,0l0,-6.567l-3.752,-0l-0,3.753l-4.222,-0c-3.753,-0 -4.222,-0 -4.691,-0.469l-0.469,-0.47c-0,0 2.345,-1.876 7.974,-6.567c6.098,-4.691 5.629,-4.222 5.629,-6.098l0,-1.876l-7.505,-0c-3.753,-0 -7.036,-0 -7.036,0.469Z" style="fill:#e71f54;"/><path d="M3080.63,768.834c-0,-0 -0.469,0.469 -0.469,1.407c-0,2.346 -0,2.346 1.407,1.876c1.876,0 1.876,0 1.876,5.63c0,5.629 0,5.629 -2.345,5.159l-1.407,0l-0,3.284c-0,0 2.345,0.469 5.629,0l5.16,0l-0,-1.407c-0,-1.407 -0,-1.407 -0.469,-1.877l-1.408,0c-0.938,0.47 -1.876,-0.469 -1.407,-2.345l0,-1.407l3.753,-0c3.753,-0 5.16,-0.469 5.16,-0.938l0.469,-0.469c0.469,-0 0.938,-0.939 1.407,-1.408c0.938,-1.407 0.938,-1.407 0.938,-2.814c0,-1.877 -0.938,-3.284 -2.814,-4.222c-0.938,-0.469 -1.407,-0.469 -7.975,-0.469l-7.505,-0Zm13.603,3.753c1.408,0.469 1.408,2.345 0.47,3.283c-0.47,0.469 -6.568,0.469 -7.037,0c-0.469,-0.469 -0.469,-1.876 0,-2.814c0,-0.469 0.469,-0.469 2.815,-0.469c1.407,-0.47 3.283,-0 3.752,-0Z" style="fill:#e71f54;"/><path d="M2968.98,768.834l-17.825,-0l-0,3.753l1.407,-0c0.938,-0 1.407,-0 1.876,0.469c0.47,0.469 0.47,10.789 0,11.258c0,0.469 -0.469,0.469 -1.876,0.469l-1.407,-0l-0,2.814l11.258,0l-0,-2.814l-1.407,-0c-1.877,-0 -1.877,-0 -1.877,-2.346c0,-1.407 0,-1.407 0.469,-1.876l1.877,0c1.407,0 1.407,0 1.407,-1.407c0,-1.407 -0.469,-1.407 -1.876,-1.407l-1.877,-0l0,-3.753l3.753,-0c4.222,-0 3.753,-0 3.753,2.345l-0,1.408l4.222,-0l-0,-7.037c-0.47,-1.407 -1.408,-1.876 -1.877,-1.876Z" style="fill:#e71f54;"/><path d="M2908.94,770.241l0,2.815l3.284,-0c0.469,0.469 0.469,10.32 -0,10.789c-0,0.469 -0.939,0.469 -1.877,0.469l-1.876,-0l-0,2.814l5.629,0c5.629,0 5.629,0 7.505,-0.938c3.753,-1.876 5.629,-4.222 5.629,-7.974c0,-3.753 -1.876,-6.568 -5.629,-7.975c-1.876,-0.938 -2.345,-0.938 -6.567,-0.938l-5.629,-0c0,-0 -0.469,0.469 -0.469,0.938Zm11.727,3.284c2.346,0.938 3.284,2.814 3.284,5.16c-0,1.876 -0.938,3.752 -2.346,4.691c-0.469,0.469 -0.938,0.469 -0.938,0.469c-0.469,0.469 -3.283,0.469 -3.753,-0c-0.469,-0.469 -0.469,-9.851 0,-10.789c0,-0.469 2.346,-0.469 3.753,0.469Z" style="fill:#e71f54;"/><path d="M2866.25,770.241l0,3.284l1.407,-0c0.939,-0 1.408,-0 1.877,0.469c0.469,0.938 0.469,10.32 -0,10.789c-0.469,0.469 -0.469,0.469 -1.877,0.469l-1.407,-0l0,3.753l19.233,-0c-0,-0 0.469,-0.469 -0,-0.939l-0,-5.16l-3.753,0l-0,1.408c-0,1.876 -0.469,2.345 -4.222,1.876c-3.753,0 -3.753,0 -3.283,-2.345c-0,-1.877 0.469,-1.877 1.876,-1.877c1.876,0 1.876,0 1.876,-1.407c0,-1.876 0,-1.876 -1.876,-1.876l-1.876,-0l-0,-1.408c-0,-2.814 -0.47,-2.814 3.752,-2.814c2.815,-0 3.753,-0 3.753,0.469l-0,3.753l1.876,-0c0.938,-0 1.877,-0 1.877,-0.469l-0,-6.568l-17.357,0c-1.407,-1.876 -1.876,-1.876 -1.876,-1.407Z" style="fill:#e71f54;"/></g></g><path d="M2668.77,660.944c-0.469,3.753 -0.469,8.912 0,12.665c3.753,0 9.382,-1.407 12.666,-1.876c14.072,-1.877 32.367,0.469 37.527,-16.887c2.345,-8.913 -11.258,-53.476 -14.073,-64.734c-7.505,-29.553 -10.789,-59.574 -40.81,-75.054c-4.222,-2.346 -9.382,-2.815 -13.604,-5.629l-1.407,-0.939l-0.469,-1.407c-1.408,-4.222 -4.691,-7.974 -8.913,-9.851l-2.815,-0.938l0,-2.814c-0.469,-7.975 -0.469,-16.418 -0.469,-24.393c0,-14.542 -0.469,-29.552 -0.469,-44.094c0,-22.516 -0.469,-45.501 -0.469,-68.018c0,-25.799 4.691,-50.192 26.738,-66.61c28.145,-20.64 68.018,-12.196 87.719,15.949c9.382,13.134 10.789,30.021 10.789,45.97l0,66.142c0,21.578 0,43.625 -0.469,65.203c-2.814,0.938 -4.69,3.753 -4.69,7.036c-0,4.222 3.283,7.036 7.036,7.036c4.222,0 7.036,-3.283 7.036,-7.036c0,-3.283 -1.876,-5.629 -4.691,-7.036c-0.469,-22.047 0,-44.094 0,-66.141l0,-66.142c0,-19.232 -1.407,-33.774 -12.665,-49.723c-13.135,-18.294 -36.12,-28.614 -58.636,-27.207c-22.047,1.407 -41.749,13.604 -53.007,32.836c-9.382,15.949 -9.851,31.898 -9.382,50.192c0.469,22.517 0,45.502 0,68.018l0,44.563c0,7.975 0,16.887 -0.469,24.862l0,2.814l-2.814,0.939c-4.222,1.876 -7.037,5.16 -8.444,9.381l-0.469,1.408l-1.407,0.938c-3.753,2.345 -10.32,4.222 -15.011,6.567c-7.974,3.753 -14.073,9.382 -19.232,15.949c-11.259,14.542 -15.949,41.28 -20.64,59.105c-2.815,10.789 -15.949,54.883 -13.604,63.796c2.346,8.443 8.913,14.072 17.825,15.011l18.764,1.876c1.876,0.469 10.789,2.345 13.134,1.876c0.939,-1.876 0.469,-9.85 0,-11.727l0,-0.938c-1.876,-0.938 -11.258,1.876 -13.134,2.345c-7.036,1.877 -15.949,3.284 -22.516,-0.469c-12.196,-7.036 -8.444,-18.294 -5.629,-29.552c2.345,-9.382 4.691,-18.295 7.036,-27.676c6.098,-23.924 10.32,-60.043 29.083,-76.931c5.629,-5.16 15.011,-10.789 22.048,-12.665l3.752,-0.938l1.877,3.283c2.345,5.16 7.505,7.975 13.134,7.975c5.629,-0 10.789,-3.284 13.134,-7.975l1.877,-3.283l3.753,0.938c14.072,4.222 28.614,17.356 34.712,30.491c1.876,4.221 3.284,9.381 4.691,14.072c1.876,7.037 3.753,14.073 5.629,21.109c3.283,13.135 6.567,25.8 9.851,38.934c2.345,8.913 5.629,16.419 6.098,25.8c0.469,13.604 -7.036,20.64 -20.64,19.233c-7.505,-1.876 -17.825,-5.629 -24.862,-5.629Zm94.287,-174.032c1.876,0 3.284,1.408 3.284,3.284c-0,1.876 -1.408,3.284 -3.284,3.284c-1.876,-0 -3.284,-1.408 -3.284,-3.284c-0.469,-1.876 1.408,-3.284 3.284,-3.284Z"/><path d="M2697.38,291.772c3.752,0 6.567,-2.814 6.567,-6.567c-0,-3.753 -2.815,-6.567 -6.567,-6.567c-3.753,-0 -6.568,2.814 -6.568,6.567c0,3.753 3.284,6.567 6.568,6.567Z" style="fill:#333;"/><path d="M2983.99,291.772c3.753,0 6.567,-2.814 6.567,-6.567c0,-3.753 -2.814,-6.567 -6.567,-6.567c-3.753,-0 -6.567,2.814 -6.567,6.567c-0,3.753 2.814,6.567 6.567,6.567Z" style="fill:#333;"/></g></g></svg>