<?xml version="1.0" encoding="UTF-8" standalone="no"?><!DOCTYPE svg PUBLIC "-//W3C//DTD SVG 1.1//EN" "http://www.w3.org/Graphics/SVG/1.1/DTD/svg11.dtd"><svg width="100%" height="100%" viewBox="0 0 3334 1667" version="1.1" xmlns="http://www.w3.org/2000/svg" xmlns:xlink="http://www.w3.org/1999/xlink" xml:space="preserve" xmlns:serif="http://www.serif.com/" style="fill-rule:evenodd;clip-rule:evenodd;stroke-miterlimit:2.6131;"><g id="Surgical_Optimization"><g><path d="M2138.47,742.136l22.55,-8.673l54.639,143.103l-22.55,8.673l-54.639,-143.103Zm28.187,0l22.55,-8.673l54.639,143.103l-22.55,8.673l-54.639,-143.103Zm28.187,0l22.55,-8.673l54.639,143.103l-22.55,8.673l-54.639,-143.103Zm89.764,-451.858l48.135,-3.035l13.443,216.388l-48.135,3.036l-13.443,-216.389Zm50.303,30.789l53.772,-8.239l28.187,185.6l-53.772,8.239l-28.187,-185.6Zm-196.007,990.011l332.605,-0l0,332.605l-332.605,0l-0,-332.605Zm-22.983,355.589l379.005,-0l0,-379.006l-379.005,0l-0,379.006Zm22.983,-734.595l332.605,0l0,332.606l-332.605,-0l-0,-332.606Zm-22.983,355.589l379.005,0l0,-379.005l-379.005,-0l-0,379.005Zm22.983,-734.594l332.605,-0l0,332.605l-332.605,0l-0,-332.605Zm-22.983,355.589l379.005,-0l0,-379.006l-379.005,0l-0,379.006Zm22.983,-734.595l332.605,0l0,332.606l-332.605,-0l-0,-332.606Zm-22.983,355.589l379.005,0l0,-379.005l-379.005,-0l-0,379.005Zm46.833,-266.258l48.135,0l-0,243.275l-48.135,-0l0,-243.275Zm54.64,0l67.214,0l0,243.275l-67.214,-0l-0,-243.275Zm137.465,509.966l56.374,0l28.187,112.314l-112.314,0l27.753,-112.314Zm243.275,165.219l666.078,0l-0,-787.932l-666.078,-0l-0,787.932Zm19.08,-768.852l628.351,-0l0,750.205l-628.351,0l-0,-750.205Zm-0,-0l301.817,-0l-0,32.523l-301.817,0l-0,-32.523Zm-0,32.523l301.817,0l-0,32.524l-301.817,-0l-0,-32.524Zm-0,32.524l301.817,-0l-0,32.523l-301.817,0l-0,-32.523Zm-0,32.523l301.817,0l-0,32.523l-301.817,0l-0,-32.523Zm-0,32.957l301.817,0l-0,32.523l-301.817,0l-0,-32.523Zm-0,32.523l301.817,0l-0,32.524l-301.817,-0l-0,-32.524Zm-0,32.524l301.817,-0l-0,32.523l-301.817,0l-0,-32.523Zm-0,32.523l301.817,0l-0,32.523l-301.817,0l-0,-32.523Zm-0,32.523l301.817,0l-0,32.524l-301.817,-0l-0,-32.524Zm-0,32.957l301.817,0l-0,32.524l-301.817,-0l-0,-32.524Zm-0,32.524l301.817,-0l-0,32.523l-301.817,0l-0,-32.523Zm-0,32.523l301.817,0l-0,32.524l-301.817,-0l-0,-32.524Zm-0,32.524l301.817,-0l-0,32.523l-301.817,-0l-0,-32.523Zm-0,32.523l301.817,-0l-0,32.523l-301.817,0l-0,-32.523Zm-0,32.957l301.817,-0l-0,32.523l-301.817,0l-0,-32.523Zm-0,32.523l301.817,0l-0,32.524l-301.817,-0l-0,-32.524Zm-0,32.524l301.817,-0l-0,32.523l-301.817,-0l-0,-32.523Zm-0,32.523l301.817,-0l-0,32.523l-301.817,0l-0,-32.523Zm-0,32.523l301.817,0l-0,32.524l-301.817,-0l-0,-32.524Zm-0,32.957l301.817,0l-0,32.524l-301.817,-0l-0,-32.524Zm-0,32.524l301.817,-0l-0,32.523l-301.817,0l-0,-32.523Zm-0,65.046l301.817,0l-0,32.524l-301.817,-0l-0,-32.524Zm-0,-32.523l301.817,0l-0,32.523l-301.817,0l-0,-32.523Zm326.535,-684.725l301.816,-0l0,32.523l-301.816,0l-0,-32.523Zm-0,32.523l301.816,0l0,32.524l-301.816,-0l-0,-32.524Zm-0,32.524l301.816,-0l0,32.523l-301.816,0l-0,-32.523Zm-0,32.523l301.816,0l0,32.523l-301.816,0l-0,-32.523Zm-0,32.957l301.816,0l0,32.523l-301.816,0l-0,-32.523Zm-0,32.523l301.816,0l0,32.524l-301.816,-0l-0,-32.524Zm-0,32.524l301.816,-0l0,32.523l-301.816,0l-0,-32.523Zm-0,32.523l301.816,0l0,32.523l-301.816,0l-0,-32.523Zm-0,32.523l301.816,0l0,32.524l-301.816,-0l-0,-32.524Zm-0,32.957l301.816,0l0,32.524l-301.816,-0l-0,-32.524Zm-0,32.524l301.816,-0l0,32.523l-301.816,0l-0,-32.523Zm-0,32.523l301.816,0l0,32.524l-301.816,-0l-0,-32.524Zm-0,32.524l301.816,-0l0,32.523l-301.816,-0l-0,-32.523Zm-0,32.523l301.816,-0l0,32.523l-301.816,0l-0,-32.523Zm-0,32.957l301.816,-0l0,32.523l-301.816,0l-0,-32.523Zm-0,32.523l301.816,0l0,32.524l-301.816,-0l-0,-32.524Zm-0,32.524l301.816,-0l0,32.523l-301.816,-0l-0,-32.523Zm-0,32.523l301.816,-0l0,32.523l-301.816,0l-0,-32.523Zm-0,32.523l301.816,0l0,32.524l-301.816,-0l-0,-32.524Zm-0,32.957l301.816,0l0,32.524l-301.816,-0l-0,-32.524Zm-0,32.524l301.816,-0l0,32.523l-301.816,0l-0,-32.523Zm-0,65.046l301.816,0l0,32.524l-301.816,-0l-0,-32.524Zm-0,-32.523l301.816,0l0,32.523l-301.816,0l-0,-32.523Z" style="fill:none;stroke:#ccc;stroke-width:4.34px;"/><path d="M2203.09,836.671c495.223,-101.04 420.202,459.663 196.875,615.342c-262.789,182.564 -591.058,201.211 -856.448,-28.621c-144.838,-125.757 -180.83,-356.456 -82.827,-515.604c242.841,-394.183 559.402,-33.39 742.4,-71.117Zm-1104.93,-823.058c-889.405,93.667 -998.684,1109.7 -349.517,1144.82c415.865,22.116 411.529,-131.828 648.732,-379.873c270.161,-282.736 746.303,-25.151 728.523,-457.495c-14.743,-352.553 -753.24,-336.075 -1027.74,-307.454Z" style="fill:#e71f54;fill-opacity:0.07;"/><g><rect x="2598.14" y="1337.53" width="369.899" height="329.136" style="fill:#8d5d15;"/><rect x="2625.89" y="1365.28" width="314.392" height="108.845" style="fill:#e6b88a;"/><rect x="2625.89" y="1501.88" width="314.392" height="108.845" style="fill:#e6b88a;"/><path d="M2783.3,1420.79c7.806,0 13.877,-6.071 13.877,-13.877c-0,-7.805 -6.071,-13.876 -13.877,-13.876c-7.806,-0 -13.877,6.071 -13.877,13.876c0,7.372 6.071,13.877 13.877,13.877Z" style="fill:#a87a24;"/><path d="M2783.3,1557.39c7.806,0 13.877,-6.071 13.877,-13.876c-0,-7.806 -6.071,-13.877 -13.877,-13.877c-7.806,-0 -13.877,6.071 -13.877,13.877c0,7.372 6.071,13.876 13.877,13.876Z" style="fill:#a87a24;"/><g><path d="M2658.41,1301.97l214.221,0l-0,4.771l-214.221,-0c-6.938,-0 -13.009,6.071 -13.009,13.009c-0,6.938 6.071,13.009 13.009,13.009l214.221,0l-0,4.77l-214.221,0c-9.54,0 -17.779,-7.805 -17.779,-17.779c-0,-9.54 7.805,-17.78 17.779,-17.78Z" style="fill:#886df4;"/><path d="M2866.99,1332.76l0,-26.018l-208.583,-0c-6.938,-0 -13.009,6.071 -13.009,13.009c-0,6.938 6.071,13.009 13.009,13.009l208.583,0Z" style="fill:#e6e6e6;"/></g><g><path d="M2658.41,1266.85l214.221,0l-0,4.77l-214.221,0c-6.938,0 -13.009,6.071 -13.009,13.01c-0,6.938 6.071,13.009 13.009,13.009l214.221,-0l-0,4.77l-214.221,0c-9.54,0 -17.779,-7.806 -17.779,-17.779c-0,-9.974 7.805,-17.78 17.779,-17.78Z" style="fill:#1ccf94;"/><path d="M2866.99,1297.63l0,-26.019l-208.583,0c-6.938,0 -13.009,6.071 -13.009,13.01c-0,6.938 6.071,13.009 13.009,13.009l208.583,-0Z" style="fill:#e6e6e6;"/></g><g><path d="M2658.41,1231.72l214.221,-0l-0,4.77l-214.221,0c-6.938,0 -13.009,6.071 -13.009,13.009c-0,6.939 6.071,13.01 13.009,13.01l214.221,-0l-0,4.77l-214.221,-0c-9.54,-0 -17.779,-7.806 -17.779,-17.78c-0,-9.973 7.805,-17.779 17.779,-17.779Z" style="fill:#215365;"/><path d="M2866.99,1262.08l0,-26.019l-208.583,0c-6.938,0 -13.009,6.071 -13.009,13.01c-0,6.938 6.071,13.009 13.009,13.009l208.583,0Z" style="fill:#e6e6e6;"/></g><rect x="2625.89" y="1610.73" width="314.392" height="55.94" style="fill:#634815;"/><rect x="2625.89" y="1474.13" width="314.392" height="27.753" style="fill:#634815;"/></g><g><rect x="738.667" y="1649.32" width="1949.23" height="17.346" style="fill:#ff5c00;"/><g><path d="M965.029,141.538l696.868,0c51.17,0 92.8,41.63 92.8,92.8l-0,1322.18c-0,51.17 -41.63,92.8 -92.8,92.8l-696.868,-0c-51.17,-0 -92.8,-41.63 -92.8,-92.8l0,-1322.18c0,-51.17 41.63,-92.8 92.8,-92.8Z" style="fill:#4d4d4d;"/><path d="M1727.81,333.209l-0,1196.86c-0,14.743 -11.709,26.452 -26.453,26.452l-776.224,-0c-14.744,-0 -26.452,-11.709 -26.452,-26.452l-0,-1196.86c-0,-14.744 11.708,-26.452 26.452,-26.452l776.224,-0c14.744,-0 26.453,12.142 26.453,26.452Z" style="fill:#ededed;"/><path d="M1214.81,225.665l196.875,0c3.469,0 6.071,2.602 6.071,6.071c-0,3.469 -2.602,6.071 -6.071,6.071l-196.875,0c-3.469,0 -6.071,-2.602 -6.071,-6.071c-0,-3.469 3.035,-6.071 6.071,-6.071Z" style="fill:#fff;"/></g><path d="M950.719,844.043l725.488,-0c5.637,-0 10.407,-4.771 10.407,-10.408l0,-345.181c0,-5.638 -4.77,-10.408 -10.407,-10.408l-725.488,0c-5.637,0 -10.407,4.77 -10.407,10.408l-0,345.181c-0,5.637 4.77,10.408 10.407,10.408Z" style="fill:#fff;"/><path d="M950.719,452.028l725.488,-0c5.637,-0 10.407,-4.77 10.407,-10.408l0,-75.454c0,-5.637 -4.77,-10.407 -10.407,-10.407l-725.488,-0c-5.637,-0 -10.407,4.77 -10.407,10.407l-0,75.454c-0,5.638 4.77,10.408 10.407,10.408Z" style="fill:#fff;"/><g><path d="M1324.52,790.704l-0,0Zm-144.837,-136.164l3.035,-1.301c3.469,2.168 7.806,3.903 12.576,3.035c3.903,-1.301 8.239,0 12.576,0.868c24.717,-3.903 53.771,-16.912 74.153,-11.709c15.177,-3.903 30.789,-7.805 45.966,-11.708c-2.602,-8.673 -5.637,-13.443 -9.974,-13.01l-6.071,0.434c-1.734,0 -3.469,-0.434 -4.336,-1.734c-1.301,-1.301 -1.735,-2.602 -1.735,-4.337l1.301,-17.779l-4.336,-6.071c-0.434,-0.868 -0.434,-1.735 -0,-2.602c0.433,-0.868 1.301,-1.301 2.168,-1.301l2.168,-0c-0.433,-1.301 -0.433,-2.602 -0.433,-3.903c-0,-8.239 6.504,-14.744 14.743,-14.744c0.434,-2.168 1.301,-4.336 2.602,-6.071c5.638,14.31 42.064,-5.637 42.931,26.019c0,9.106 30.355,12.575 17.78,39.461c13.443,3.036 12.575,26.453 -2.169,28.187c0.434,11.709 -3.469,26.019 -10.407,40.763c-15.178,31.656 0.434,85.428 -46.4,94.101c-0.434,-0 -0.867,-0 -1.735,0.434c-1.301,-0 -2.602,0.433 -3.903,0.433c-2.601,0 -5.203,-0.433 -7.805,-0.867l-109.279,-21.249c-30.788,28.187 -44.665,-1.301 -75.454,8.24c-1.734,20.381 -21.682,14.31 -32.523,6.938c-8.673,0.434 -16.912,3.903 -26.452,0.867c-6.071,-1.301 -7.372,-4.77 -1.735,-6.505l140.501,-37.727l40.762,-1.734c-11.274,-9.54 -22.549,-18.647 -33.39,-28.621c-37.294,18.213 -39.028,-12.575 -71.552,-12.142c-8.239,20.381 -22.983,12.142 -33.824,0c-8.673,-2.168 -17.346,-0.867 -25.585,-6.504c-5.637,-2.602 -5.637,-6.505 0,-6.505l143.103,-0l78.056,37.727c1.301,-11.708 5.204,-26.886 10.841,-37.727c-9.974,-3.903 -12.142,-10.841 -7.806,-20.815l-20.815,0.434c-18.646,9.973 -52.037,1.3 -78.056,2.168l-12.575,5.637l-35.125,2.168l-5.204,-3.035l31.656,-12.576c-3.903,-0.867 -6.505,-2.602 -8.239,-5.637Z" style="fill:#e71f54;"/><path d="M994.951,791.572l398.519,-0" style="fill:none;stroke:#1ccf94;stroke-width:3.07px;"/></g><g><g><path d="M1020.1,507.534c4.337,4.337 6.939,9.974 6.939,16.479c-0,6.504 -2.602,12.142 -6.939,16.478m-33.39,0c-4.337,-4.336 -6.939,-9.974 -6.939,-16.478c0,-6.505 2.602,-12.142 6.939,-16.479" style="fill:none;stroke:#999;stroke-width:3.07px;"/><path d="M1014.47,513.172c2.602,2.601 4.336,6.504 4.336,10.841c0,4.336 -1.734,8.239 -4.336,10.841m-22.116,-0c-2.602,-2.602 -4.336,-6.505 -4.336,-10.841c-0,-4.337 1.734,-8.24 4.336,-10.841" style="fill:none;stroke:#999;stroke-width:3.07px;"/></g><path d="M1003.19,531.385c3.903,-0 7.372,-3.469 7.372,-7.372c0,-3.903 -3.469,-7.372 -7.372,-7.372c-3.903,-0 -7.372,3.469 -7.372,7.372c0,3.903 3.469,7.372 7.372,7.372Z" style="fill:none;stroke:#999;stroke-width:3.07px;"/></g><g><g><path d="M1527.9,776.828c-6.071,-6.505 -7.805,-15.612 -7.805,-21.683c-0,-14.744 5.637,-29.487 18.213,-41.63c5.637,-5.637 12.142,-9.54 17.346,-11.708c1.734,-0.867 3.469,-1.301 4.336,-1.301c0.867,0 1.301,0.434 1.301,1.301c-0,0.867 -0.434,1.735 -0.867,1.735c-9.54,4.336 -25.152,17.345 -28.187,36.859c3.903,-3.469 9.106,-5.637 15.611,-5.637c14.744,0 20.815,13.009 20.815,20.815c-0,10.841 -3.036,16.045 -7.372,20.381c-4.336,4.77 -9.54,6.939 -16.912,6.939c-7.372,0.433 -13.01,-1.735 -16.479,-6.071Zm31.223,-17.346c-0,-10.408 -5.204,-19.514 -14.311,-19.514c-6.938,-0 -10.407,3.035 -11.708,5.637c-1.735,3.036 -2.602,7.806 -2.602,13.01c0,6.071 0.867,20.814 15.178,20.814c2.602,0 13.443,-1.3 13.443,-19.947Z" style="fill:#333;fill-rule:nonzero;"/><path d="M1591.21,730.428c3.036,-0.434 10.842,0.433 13.443,1.301c11.709,3.035 18.214,11.274 18.214,22.115c-0,16.913 -13.877,29.488 -29.922,29.488c-8.673,0 -15.611,-3.035 -15.611,-6.504c-0,-1.735 0.867,-3.036 2.602,-3.036c2.168,0 4.336,1.301 6.071,2.168c1.734,0.868 5.637,2.169 9.54,2.169c9.106,-0 18.647,-7.806 18.647,-18.214c-0,-8.239 -2.602,-14.743 -10.408,-18.213c-6.504,-3.035 -12.142,-3.035 -15.611,-2.601c-0.867,-0 -1.301,0.433 -2.168,-0.434c-0.434,-0.434 -0.868,-0.434 -0.434,-1.301l4.337,-33.391c-0,-1.301 0.433,-1.734 1.734,-1.734l25.585,-0c4.337,-0 5.204,-2.169 7.372,-6.071c0.434,-0.868 0.867,-0.868 1.301,-0.434c1.301,0.434 1.735,0.867 1.735,1.301l-4.337,11.708c-0.867,1.735 -1.301,2.169 -5.204,2.169l-24.717,-0l-2.169,19.514Z" style="fill:#333;fill-rule:nonzero;"/></g><g><path d="M1521.83,803.714l0,-6.939c0,-2.168 -0.867,-2.168 -2.602,-2.168l-1.3,0c-0.434,0 -0.434,0 -0.434,-0.434l-0,-0.867c-0,0 -0,-0.434 0.434,-0.434l9.973,0c3.036,0 5.638,0.434 6.939,0.868c2.168,1.301 3.035,3.035 3.035,5.203c0,3.903 -1.734,4.771 -4.77,6.505c3.903,1.301 6.505,3.469 6.505,7.806c-0,2.168 -1.301,4.77 -3.036,5.637c-1.734,0.867 -3.903,1.301 -7.372,1.301l-10.407,0c-0.434,0 -0.434,0 -0.434,-0.434l0,-0.867c0,0 0,-0.433 0.434,-0.433l1.734,-0c1.301,-0 1.301,-0.434 1.735,-1.735l-0,-13.009l-0.434,-0Zm3.469,1.734l2.169,0c2.168,0 3.902,-0.433 4.77,-0.867c1.734,-1.301 2.168,-3.036 2.168,-4.77c0,-1.301 -0.434,-3.036 -1.735,-3.903c-1.301,-0.867 -3.469,-1.301 -5.203,-1.301l-1.301,0c-0.434,0 -0.434,0.434 -0.434,0.867l0,9.974l-0.434,0Zm0,3.903l0,5.204c0,3.469 0.868,5.203 3.903,5.203c3.469,0 6.071,-1.734 6.071,-6.071c0,-3.035 -1.734,-5.203 -3.903,-6.071c-1.734,-0.433 -3.469,-0.867 -5.203,-0.867l-1.301,0l-0,2.602l0.433,-0Z" style="fill:#333;fill-rule:nonzero;"/><path d="M1550.88,810.652l-0,7.806c-0,0.867 0.433,1.3 1.3,1.3l2.602,0c0.434,0 0.434,0 0.434,0.434l-0,0.867c-0,0 -0,0.434 -0.434,0.434l-10.407,0c-0.434,0 -0.434,0 -0.434,-0.434l0,-0.867c0,0 0,-0.434 0.434,-0.434l1.734,0c1.301,0 1.735,0 1.735,-1.3l0,-22.55c0,-0.867 -0.434,-0.867 -1.301,-0.867l-2.168,-0c-0,-0 -0.434,-0 -0.434,-0.434l0,-0.867c0,-0 0,-0.434 0.434,-0.434l9.974,0c4.336,0 6.504,0.434 8.673,1.735c1.734,1.301 3.035,3.469 3.035,5.637c0,4.77 -3.903,7.806 -9.974,7.806l-4.336,-0l-0,2.168l-0.867,-0Zm-0,-3.469c0.867,0.433 2.168,0.433 3.469,0.433c2.168,0 4.336,-1.301 5.637,-2.601c0.867,-1.301 0.867,-2.602 0.867,-3.903c0,-5.204 -4.77,-6.505 -6.938,-6.505c-0.867,0 -2.168,0 -3.035,0.434l-0,12.142Z" style="fill:#333;fill-rule:nonzero;"/><path d="M1584.71,814.555c0.433,-0.434 4.336,-9.974 4.77,-10.408c0.434,-0.433 4.336,-9.54 4.77,-10.407c-0,-0.434 0.434,-0.434 0.867,-0.434l6.939,0c-0,0 0.433,0 0.433,0.434l0,0.867c0,0.434 0,0.434 -0.433,0.434l-1.735,-0c-1.301,-0 -1.301,0.867 -1.301,1.734l0,20.815c0,1.301 0.434,2.168 1.301,2.168l2.168,0c0.434,0 0.434,0 0.434,0.434l-0,0.867c-0,0.434 -0,0.434 -0.434,0.434l-11.275,0c-0.433,0 -0.433,0 -0.433,-0.434l-0,-0.867c-0,0 -0,-0.434 0.433,-0.434l2.602,0c0.868,0 0.868,-0.433 1.301,-1.3l0,-22.55c-0.433,0.434 -6.071,12.576 -6.071,13.009c-0.433,0.434 -4.336,10.408 -4.77,10.841c0,0.434 -0.433,0.868 -0.867,0.868c-0.434,-0 -0.434,-0.434 -0.434,-0.868c0,-0.433 -5.204,-12.575 -5.204,-13.009c-0.867,-1.734 -4.336,-10.407 -4.77,-10.841c0,0.434 -0.433,10.407 -0.433,10.841l-0,9.974c-0,2.168 0.433,3.035 1.734,3.035l1.735,0c0.434,0 0.434,0 0.434,0.434l-0,0.867c-0,0 -0,0.434 -0.434,0.434l-9.974,0c-0.434,0 -0.434,0 -0.434,-0.434l0,-0.867c0,0 0,-0.434 0.434,-0.434l2.168,0c1.301,0 1.735,-0.867 2.169,-2.168c0.433,-2.602 0.433,-12.575 0.433,-13.443l0,-7.372c0,-0.867 0,-1.301 -1.734,-1.301l-2.169,0c-0.433,0 -0.433,0 -0.433,-0.433l-0,-0.868c-0,0 -0,-0.433 0.433,-0.433l8.24,-0c0.433,-0 0.867,-0 0.867,0.867l8.673,19.948Z" style="fill:#333;fill-rule:nonzero;"/></g><path d="M1633.28,807.183c3.469,-3.469 3.469,-9.54 0,-13.01c-3.469,-3.469 -9.54,-3.469 -13.009,0c-3.469,-3.469 -9.541,-3.469 -13.01,0c-3.469,3.47 -3.469,9.541 0,13.01l10.841,10.841c1.301,1.301 3.47,1.301 4.771,-0l10.407,-10.841Z" style="fill:#333;"/></g><g><g><g><path d="M954.188,901.717l336.942,0c7.806,0 13.877,6.071 13.877,13.877l-0,271.895c-0,7.806 -6.071,13.877 -13.877,13.877l-336.942,-0c-7.805,-0 -13.876,-6.071 -13.876,-13.877l-0,-271.895c-0,-7.372 6.071,-13.877 13.876,-13.877Z" style="fill:#fff;"/><path d="M1335.8,901.717l336.942,0c7.805,0 13.876,6.071 13.876,13.877l0,271.895c0,7.806 -6.071,13.877 -13.876,13.877l-336.942,-0c-7.806,-0 -13.877,-6.071 -13.877,-13.877l0,-271.895c0,-7.372 6.505,-13.877 13.877,-13.877Z" style="fill:#fff;"/><path d="M954.188,1216.54l336.942,0c7.806,0 13.877,6.071 13.877,13.877l-0,271.895c-0,7.806 -6.071,13.877 -13.877,13.877l-336.942,-0c-7.805,-0 -13.876,-6.071 -13.876,-13.877l-0,-271.895c-0,-7.806 6.071,-13.877 13.876,-13.877Z" style="fill:#fff;"/><path d="M1335.8,1216.54l336.942,0c7.805,0 13.876,6.071 13.876,13.877l0,271.895c0,7.806 -6.071,13.877 -13.876,13.877l-336.942,-0c-7.806,-0 -13.877,-6.071 -13.877,-13.877l0,-271.895c0,-7.806 6.505,-13.877 13.877,-13.877Z" style="fill:#b3b3b3;"/></g><g><path d="M1462.85,1016.63l-0,-58.108c-0,-1.735 -1.735,-3.469 -3.47,-3.469l-6.938,-0c-1.734,-0 -3.469,1.734 -3.469,3.469l-0,58.108l-9.54,9.54l3.035,16.045l10.841,-10.841c1.301,-1.301 3.47,-1.301 4.771,0l11.274,11.275l3.036,-16.045l-9.54,-9.974Z" style="fill:#fac100;"/><path d="M1435.53,1129.81c6.071,-2.168 10.407,-7.805 10.407,-14.31l0,-78.056c0,-15.611 -11.274,-29.488 -17.779,-36.426c-2.602,-2.602 -6.938,-3.036 -9.974,-0.434c-13.876,10.841 -49.869,47.701 -53.772,136.165c-0.433,7.805 6.939,13.443 14.311,11.275l56.807,-18.214Z" style="fill:#fe7a00;"/><path d="M1476.73,1129.81c-6.071,-2.168 -10.407,-7.805 -10.407,-13.876l-0,-78.056c-0,-15.611 11.275,-29.488 17.779,-36.426c2.602,-2.602 6.939,-3.036 9.974,-0.434c13.877,10.841 49.869,47.701 53.772,135.731c0.434,7.805 -6.938,13.443 -14.31,11.275l-56.808,-18.214Z" style="fill:#fe7a00;"/></g><g><path d="M1184.45,1032.24c-0,-1.734 3.902,-8.239 0.433,-11.708c-3.469,-3.469 -9.973,0.867 -11.708,0.434c-2.602,-0.434 -3.903,-4.337 -8.239,-3.47c-3.903,0.868 -3.036,6.939 -5.204,7.806c-2.168,0.867 -3.903,-3.903 -8.239,-0.434c-4.337,3.47 0.867,15.612 2.168,18.213c0.867,2.169 1.734,3.47 3.035,4.771l6.071,-6.071l-3.035,-9.107c-0,-0.434 -0,-0.867 0.434,-0.867c0.433,-0 0.867,-0 0.867,0.433l2.602,8.673l5.203,-5.203l-1.3,-7.372c-0,-0.434 -0,-0.868 0.433,-0.868c0.434,0 0.867,0 0.867,0.434l0.868,6.505l6.071,-6.071c0.433,-0.434 1.301,-0.434 1.734,-0.434c0.434,0.434 0.434,0.867 -0.433,1.735l-6.071,6.071l6.504,0.867c0.434,-0 0.434,0.433 0.434,0.867c0,0.434 -0.434,0.434 -0.867,0.434l-7.372,-1.301l-5.204,5.204l8.673,2.601c0.434,0 0.434,0.434 0.434,0.868c-0,0.433 -0.434,0.433 -0.868,0.433l-9.106,-3.035l-19.948,19.948l0,-40.329c1.735,-0.434 3.036,-0.868 4.77,-1.301c3.036,-1.301 20.381,-8.24 19.514,-15.612c-0.867,-7.372 -7.372,-4.336 -8.673,-7.372c-0.867,-3.035 5.204,-8.672 2.169,-12.575c-3.47,-4.77 -8.673,-2.168 -11.275,-4.337c-2.168,-1.734 -3.903,-11.708 -10.841,-11.708l-0.434,-0c-6.505,-0 -8.673,9.974 -10.841,11.708c-2.602,2.169 -7.806,-0.433 -11.275,4.337c-3.035,4.336 3.469,9.54 2.602,12.575c-0.867,3.036 -7.372,0.434 -8.673,7.372c-0.867,7.372 16.045,14.311 19.08,15.612c2.602,1.301 5.204,1.734 7.372,1.734l0,-11.275l-11.708,-6.071c-0.434,-0.433 -0.434,-0.867 -0.434,-1.301c0.434,-0.433 0.868,-0.433 1.301,-0.433l10.841,5.637l0,-9.974l-8.239,-6.071c-0.433,-0.433 -0.433,-0.867 0,-1.301c0.434,-0.433 0.867,-0.433 1.301,0l6.938,5.204l0,-11.708c0,-0.868 0.434,-1.735 1.301,-1.735c0.868,0 1.301,0.867 1.301,1.735l0,11.708l6.939,-5.204c0.433,-0.433 0.867,0 1.301,0c0.433,0.434 -0,0.868 -0,1.301l-8.24,6.071l0,9.974l10.841,-5.637c0.434,-0.434 0.868,-0 1.301,0.433c0.434,0.434 0,0.868 -0.433,1.301l-11.709,6.071l0,46.4l-11.274,-11.274c0.433,-0.868 0.867,-1.735 1.3,-2.602c0.868,-2.168 5.638,-13.01 1.735,-15.611c-3.469,-2.602 -5.204,1.301 -6.938,0.433c-1.735,-0.867 -1.301,-6.071 -4.77,-6.504c-3.903,-0.868 -4.77,3.035 -6.939,3.035c-1.734,0 -6.938,-3.469 -9.974,-0.434c-3.035,3.036 0.434,8.24 0.434,9.974c-0.434,2.168 -3.903,3.036 -3.035,6.939c0.433,3.035 6.071,2.601 6.938,4.336c0.867,1.735 -3.036,3.469 -0.434,6.938c3.036,3.903 13.443,-0.867 15.611,-1.734c1.735,-0.868 3.036,-1.735 4.337,-2.602l-5.204,-5.204l-7.805,2.602c-0.434,0 -0.434,0 -0.868,-0.434c0,-0.433 0,-0.433 0.434,-0.867l7.372,-2.168l-4.337,-4.337l-6.504,0.868c-0.434,-0 -0.434,-0 -0.868,-0.434c0,-0.434 0,-0.434 0.434,-0.867l5.638,-0.868l-5.204,-5.203c-0.434,-0.434 -0.434,-0.868 -0.434,-1.301c0.434,-0.434 0.867,-0 1.301,0.433l5.204,5.204l0.867,-5.637c0,-0.434 0.434,-0.434 0.867,-0.434c0.434,0 0.434,0.434 0.434,0.867l-0.867,6.505l4.336,4.337l2.168,-7.372c0,-0.434 0.434,-0.434 0.868,-0.434c0.433,-0 0.433,0.434 0.433,0.867l-2.602,7.806l17.346,17.346l0,3.902c0,0.868 0.434,1.735 1.301,1.735c0.434,0 0.868,0 0.868,-0.434l15.177,-15.177c0.867,0.867 2.168,1.301 3.469,1.734c2.168,0.868 15.178,6.505 18.213,2.169c3.036,-4.337 -1.734,-6.071 -0.433,-8.24c0.867,-2.168 6.938,-1.734 7.805,-5.637c2.602,-4.336 -1.301,-5.637 -1.734,-7.806Z" style="fill:#15966c;"/><g><path d="M1027.91,1040.48c-2.168,-0.434 -5.637,3.035 -6.071,5.203c-0,1.301 0.867,2.602 1.734,2.602c0.868,0 2.169,-0.433 3.036,-0.867c1.735,-1.301 5.204,-6.071 1.301,-6.938Zm25.151,6.504c0.868,1.735 3.903,2.169 5.204,0.868c3.036,-5.204 -7.372,-6.071 -5.204,-0.868Zm-34.691,40.763c-0.434,0.867 -0.434,1.734 0.433,2.168c0.868,0.867 2.602,0.434 3.47,0c5.203,-2.602 9.106,-6.505 12.142,-10.841c0.867,-1.301 1.301,-3.036 -0.434,-3.469c-1.301,-0 -2.602,1.734 -3.469,2.168c-3.903,2.602 -7.806,4.337 -10.841,7.806c-0.434,0.867 -0.868,1.301 -1.301,2.168Zm46.4,-6.071c0.433,0.867 0.433,1.301 0.867,2.168c2.168,2.602 4.336,-0.434 5.204,-2.602c0.433,-1.734 0.433,-3.903 -0.868,-5.637c-0.867,-1.301 -2.168,-2.602 -3.902,-1.735c-3.036,1.301 -2.169,5.204 -1.301,7.806Zm-27.754,-51.604c-0.433,-0.433 -0.867,-1.301 -1.3,-1.734c-2.169,-1.301 -4.337,-3.036 -6.505,-4.337c2.602,-4.336 4.77,-6.938 4.77,-6.938c7.372,5.204 13.443,9.974 18.647,15.177c-0.868,0.434 -1.301,0.434 -2.169,0.868c-0.867,0.433 -1.734,0.867 -2.601,1.734c-0.434,0.868 -0.868,2.168 -0.434,3.036c0.434,0.867 1.301,1.301 2.168,1.301c0.867,-0 1.735,-0 2.602,-0.434c1.735,-0.434 3.469,-0.867 5.204,-1.301c4.77,5.204 8.673,10.841 11.275,16.045c-3.47,0.434 -6.939,1.301 -9.974,3.035c-1.301,0.868 -2.602,1.735 -3.036,3.036c-0.433,1.735 0.867,3.469 2.602,4.336c1.735,0.868 3.469,0.434 5.204,0.434c3.035,-0.434 6.504,-0.434 9.54,-0.434c3.469,11.709 2.168,22.116 -0.867,30.789c-1.301,-1.301 -3.036,-2.168 -4.77,-2.602c-1.735,-0.433 -3.47,-0.433 -4.77,0.868c-0.868,0.867 -1.301,2.168 -0.868,3.469c0,1.301 0.868,2.168 1.301,3.469c1.301,1.735 2.602,3.469 4.77,5.204c-6.938,12.575 -16.912,20.381 -16.912,20.381c0,-0 -11.708,-5.637 -22.549,-15.178c3.469,-2.168 6.071,-5.203 8.672,-8.239c0.868,-1.301 1.735,-3.035 0.868,-4.336c-0.868,-1.301 -2.602,-0.868 -3.903,-0.434c-3.469,1.735 -6.505,4.337 -9.54,6.938c-0.434,0.434 -0.868,0.868 -1.301,0.868c-7.372,-7.372 -13.443,-16.912 -13.443,-27.32c-0,-3.469 0.433,-6.938 0.867,-10.407c6.071,-1.735 11.709,-3.47 17.346,-5.638c1.301,-0.433 2.602,-0.867 3.903,-2.168c0.867,-0.867 1.301,-2.602 0.433,-3.903c-0.867,-0.867 -2.168,-1.301 -3.469,-1.301l-3.035,0c-4.337,0 -8.673,0.868 -12.576,2.168c3.036,-9.973 7.806,-19.514 12.142,-26.452c3.036,0.434 6.071,1.301 9.107,1.735c0.433,-0 1.301,0.433 1.734,-0c1.301,-0.434 1.301,-1.301 0.867,-1.735Z" style="fill:#17a778;"/></g><g><path d="M996.252,1090.35c-1.301,0.867 -1.735,4.336 -0.867,5.637c0.433,0.867 1.734,0.867 2.601,0.434c0.868,-0.434 0.868,-1.301 0.868,-2.168c0.433,-0.868 -0.434,-5.204 -2.602,-3.903Zm16.912,-9.107c1.301,0.434 3.469,-0.867 3.036,-2.168c-0.868,-3.903 -6.939,0.434 -3.036,2.168Zm1.301,39.896c0.434,0.433 0.867,1.3 1.301,1.3c0.867,0 1.734,-0.867 1.734,-1.734c0.868,-2.602 1.735,-5.637 1.735,-8.239c0,-1.301 0,-2.602 -0.434,-3.903c0,-0.867 -0.867,-2.602 -1.734,-1.735c-0.867,0.434 -0.434,2.168 -0.867,3.036c-0.868,3.469 -2.169,6.071 -2.169,9.54c0,0.434 0,0.867 0.434,1.735Zm22.116,-26.453c0.433,0.434 0.867,0.434 1.734,0.868c2.602,0.433 2.169,-2.602 1.735,-3.903c-0.867,-1.301 -1.735,-2.169 -3.469,-2.602c-1.301,-0.434 -2.602,-0 -3.036,0.867c-1.301,2.168 1.301,3.903 3.036,4.77Zm-40.763,-14.744l-1.734,0c-1.735,0 -3.903,0.434 -5.638,0.868c-0.433,-3.903 -0.867,-6.071 -0.867,-6.071c6.505,-0.868 12.142,-1.301 17.779,-0.868c-0.433,0.434 -0.433,0.868 -0.867,1.735c-0.434,0.867 -0.434,1.301 -0.434,2.168c0,0.867 0.434,1.301 1.301,1.735c0.434,-0 1.301,-0 1.735,-0.434c0.434,-0.434 0.867,-0.867 1.301,-1.301c0.867,-1.301 1.301,-2.168 2.168,-3.469c5.204,0.434 9.974,1.734 13.877,3.035c-1.735,2.169 -3.036,4.337 -3.903,6.505c-0.434,0.867 -0.867,2.168 -0,3.036c0.434,1.301 2.168,1.301 3.469,0.867c1.301,-0.434 2.168,-1.301 3.036,-2.168c1.734,-1.735 3.035,-3.469 4.77,-5.204c7.805,4.77 12.142,10.841 14.744,17.346c-1.301,-0 -2.602,0.433 -3.903,0.867c-0.867,0.434 -2.168,1.301 -2.168,2.602c-0,0.867 0.433,1.734 1.301,2.168c0.867,0.434 1.734,0.867 2.168,1.301c1.301,0.434 3.035,0.434 4.77,0.434l0.434,-0c2.601,10.407 0.867,19.514 0.867,19.514c-0,-0 -9.107,2.602 -19.948,3.035c0.434,-2.168 0.867,-4.77 0.867,-6.938l0,-1.735c0,-1.301 -0.433,-2.602 -1.734,-3.035c-0.867,-0 -1.735,0.867 -2.168,1.734c-1.301,2.602 -1.301,5.638 -1.735,8.24l0,1.301c-7.806,-0.434 -15.611,-2.602 -20.815,-8.24c-1.734,-1.734 -3.469,-3.902 -4.77,-6.071c2.602,-3.903 4.77,-7.805 6.938,-11.708c0.434,-0.867 0.868,-1.735 0.868,-3.036c-0,-0.867 -0.434,-2.168 -1.735,-2.601c-0.867,-0 -1.735,0.433 -2.602,0.867c-3.035,2.168 -5.637,5.204 -7.372,9.106c-3.035,-6.938 -5.204,-14.744 -6.504,-20.381c2.168,-1.301 3.902,-2.602 6.071,-3.469c0.433,-0.434 0.867,-0.434 0.867,-0.867c0.434,-0 -0,-0.434 -0.434,-0.868Z" style="fill:#1ccf94;"/></g><path d="M1180.99,1050.46l-126.191,0c-10.841,0 -19.514,8.673 -19.514,19.514c-0,5.204 2.168,9.974 5.637,13.443c2.602,2.602 5.638,4.337 9.107,5.204l-0,40.763c-0,2.602 2.168,4.336 4.336,4.336l126.191,0c2.602,0 4.336,-2.168 4.336,-4.336l0,-40.763c8.673,-2.168 14.744,-9.54 14.744,-18.647c0.868,-10.841 -7.805,-19.514 -18.646,-19.514Z" style="fill:#e6b88a;"/><path d="M1114.64,1055.23c8.239,-0 14.744,6.504 14.744,14.743c-0,8.24 -6.505,14.744 -14.744,14.744c-0,0 -0.434,0 -0.434,0.434l0,44.232l-58.975,-0l-0,-44.232c-3.903,0 -7.372,-1.735 -10.408,-4.336c-2.602,-2.602 -4.336,-6.505 -4.336,-10.408c-0,-8.239 6.504,-14.744 14.744,-14.744l59.409,0l-0,-0.433Zm-26.452,56.373c-0,-0.433 -0,-0.433 -0,0c-0,-0.433 -0.434,-0.433 -0,0l-0,-0.433c-0.434,-0 -0.434,-0 -0,0.433c-0.434,-0.433 -0.434,-0.433 -0.434,0l0.434,0c-0.434,0 -0,0 -0,0Zm8.672,-14.744l0,-0.433c-0.433,-0 -0.433,-0 0,0.433c-0.433,-0.433 -0.433,-0.433 -0.433,0c-0,-0.433 -0,0 0.433,0Z" style="fill:#fff;"/><path d="M1096.86,1092.09c-1.3,0 -2.168,0.434 -3.035,1.301c-0.867,0.868 -1.301,2.169 -1.301,3.036c-0,1.301 0.434,2.168 1.301,3.035c0.867,0.868 2.168,1.301 3.035,1.301c1.301,0 2.169,-0.433 3.036,-1.301c0.867,-0.867 1.301,-2.168 1.301,-3.035c-0,-1.301 -0.434,-2.168 -1.301,-3.036c-0.867,-0.867 -2.168,-1.301 -3.036,-1.301Z" style="fill:#ccc;"/><path d="M1090.79,1108.13c-0.867,-0.867 -1.734,-1.301 -3.035,-1.301c-1.301,0 -2.168,0.434 -3.036,1.301c-0.867,0.867 -1.301,2.168 -1.301,3.036c0,1.301 0.434,2.168 1.301,3.035c0.868,0.868 2.169,1.301 3.036,1.301c1.301,0 2.168,-0.433 3.035,-1.301c0.868,-0.867 1.301,-2.168 1.301,-3.035c0,-0.868 -0.433,-2.169 -1.301,-3.036Z" style="fill:#ccc;"/><path d="M1255.14,1077.78c-2.602,-9.106 -8.673,-14.744 -17.78,-16.478c-2.168,-0.434 -4.336,-0.868 -6.504,-0.868c-5.204,0 -9.541,1.735 -12.576,3.469c-0,-0.867 -0,-3.035 -0.434,-6.071l1.735,0c3.903,0 10.841,-0.867 15.177,-5.203c6.505,-6.505 5.204,-16.912 5.204,-17.78l-0.433,-2.168l-2.169,-0.434l-2.168,0c-3.903,0 -10.841,0.868 -15.177,5.204c-3.036,3.036 -4.337,6.505 -4.771,9.974c-1.3,-3.903 -3.469,-8.673 -6.071,-13.877c-0.867,-1.301 -2.601,-1.734 -3.902,-0.867c-1.301,0.867 -1.735,2.602 -0.868,3.903c8.24,14.744 8.24,25.585 8.24,27.319c-3.036,-1.734 -6.939,-3.469 -12.576,-3.469c-2.168,0 -4.337,0 -6.505,0.868c-8.673,2.168 -14.744,7.805 -17.779,16.478c-2.602,8.239 -1.735,17.346 -0.434,23.851c1.301,6.938 4.77,14.31 9.54,20.381c2.602,3.469 5.638,6.071 8.673,8.239c3.469,2.602 7.372,3.469 11.275,3.469c3.469,0 7.372,-1.301 10.407,-3.469c3.47,2.168 6.939,3.469 10.408,3.469c3.903,0 7.806,-1.301 11.275,-3.469c3.035,-2.168 6.071,-4.77 8.673,-8.239c4.77,-6.071 8.239,-13.443 9.54,-20.381c1.734,-6.071 2.602,-15.612 -0,-23.851Zm-2.602,0.867c-1.301,-3.902 -3.036,-6.938 -5.204,-9.106c2.602,2.168 4.337,5.637 5.204,9.106Z" style="fill:#ff2471;"/></g><g><rect x="1073.01" y="1370.05" width="34.258" height="12.142" style="fill:#fe7a00;"/><rect x="1108.13" y="1370.05" width="53.772" height="12.142" style="fill:#ccc;"/><rect x="1162.77" y="1370.05" width="5.204" height="12.142" style="fill:#633;"/><path d="M1166.67,1345.34c-0.433,-0.434 -1.301,-0.867 -1.734,-1.301c-0,-0.434 -0,-0.867 -0.434,-0.867l0,-1.735c0,-4.336 -3.469,-7.806 -7.806,-7.806c-2.168,0 -4.336,0.868 -5.637,2.169c-1.735,0.433 -3.469,1.301 -4.77,2.602l-1.735,-0c-4.336,-0 -7.805,3.469 -7.805,7.805c-0,4.337 3.469,7.806 7.372,7.806c0.867,3.469 3.903,6.504 7.805,6.504l0.868,0c6.938,4.337 14.31,4.771 14.31,4.771c-1.735,-7.372 3.035,-16.479 -0.434,-19.948Z" style="fill:#ccc;"/><path d="M1066.07,1317.58c-11.275,13.009 -18.213,29.921 -18.213,48.568c-0,41.196 33.39,74.153 74.153,74.153c18.647,0 35.559,-6.938 48.568,-18.213c2.602,-2.168 5.204,-4.77 7.806,-7.806c11.274,-13.009 18.213,-29.921 18.213,-48.568c-0,-41.196 -33.391,-74.153 -74.154,-74.153c-18.646,-0 -35.558,6.938 -48.568,18.213c-2.602,2.602 -5.203,5.204 -7.805,7.806Zm96.702,96.702c-10.841,9.107 -25.151,14.744 -40.329,14.744c-34.691,0 -62.444,-28.187 -62.444,-62.445c-0,-15.177 5.637,-29.487 14.744,-40.328l88.029,88.029Zm7.372,-7.805l-88.463,-88.464c10.841,-9.106 25.151,-14.744 40.329,-14.744c34.691,0 62.445,28.187 62.445,62.445c0.433,16.045 -4.77,29.922 -14.311,40.763Z" style="fill:#ed2f59;"/></g><rect x="1547.41" y="981.074" width="111.013" height="11.275" style="fill:#999;"/><rect x="1547.41" y="1001.46" width="111.013" height="11.275" style="fill:#999;"/></g><path d="M1448.11,1464.15l22.983,-0l-0,22.983l-22.983,-0l-0,-22.983Zm44.665,-0l22.983,-0l0,22.983l-22.983,-0l0,-22.983Zm44.666,-0l22.983,-0l-0,22.983l-22.983,-0l-0,-22.983Z" style="fill:#e6e6e6;"/></g><g><path d="M2043.5,921.231l6.071,-29.054c-20.815,-0.867 -58.976,11.709 -58.976,51.604c0,4.77 0.434,9.106 1.735,13.443l7.805,-0c4.337,-0 8.24,-1.735 10.842,-5.204c9.106,-12.142 19.947,-22.549 32.523,-30.789Z" style="fill:#1b1020;"/><path d="M2129.37,1574.73c-8.673,36.86 -38.161,65.48 -75.021,72.852c56.808,-10.407 86.729,-40.762 103.641,-80.224c30.789,-70.684 20.381,-170.422 53.338,-238.938c0.434,-0.868 0.434,-1.301 0.868,-2.168c23.417,-49.436 35.559,-97.571 34.691,-136.599c-1.301,-55.072 -29.487,-93.233 -89.33,-94.534c38.594,1.734 69.383,33.824 69.383,72.852c-0,27.32 -14.744,50.737 -36.86,63.312c-10.408,6.071 -22.983,9.541 -35.993,9.541c-15.177,-0 -29.487,-4.771 -41.196,-13.01c-4.336,-3.035 -8.673,-6.505 -12.142,-10.841l-54.639,1.735l-107.11,3.035c-1.735,3.903 -3.036,7.806 -4.337,11.275c-8.239,27.32 1.735,46.4 28.187,53.772c-19.08,36.86 -29.054,66.348 -33.824,105.809l54.205,26.453l94.535,45.966c32.523,15.611 54.639,49.002 54.639,87.162c-0.433,7.806 -1.301,15.178 -3.035,22.55Z" style="fill:#e71f54;"/><path d="M2044.81,1229.99l52.905,-1.301c17.345,18.647 69.816,15.178 91.499,3.036c22.115,-12.576 36.859,-36.426 36.859,-63.312c0,-39.028 -30.788,-70.684 -69.383,-72.852l-3.469,-0c-3.469,-0 -6.505,0.433 -9.54,0.433c-2.602,0.434 -5.637,0.867 -8.239,1.735c-9.107,2.168 -18.647,4.77 -27.754,6.938c-14.31,3.469 -28.187,7.372 -42.497,10.841c-14.31,3.469 -28.62,7.372 -42.931,10.841c10.841,16.479 17.346,34.692 20.815,55.507c1.735,11.708 2.602,24.284 2.169,37.293c-0,3.469 -0.434,6.939 -0.434,10.841Z" style="fill:#215365;"/><path d="M2185.74,960.693c25.152,-0 45.533,-20.381 45.533,-45.533c0,-25.151 -20.381,-45.532 -45.533,-45.532c-25.151,-0 -45.532,20.381 -45.532,45.532c-0,25.152 20.381,45.533 45.532,45.533Z" style="fill:#322638;"/><path d="M2155.82,975.003c20.815,0 37.293,-16.912 37.293,-37.293c0,-20.815 -16.912,-37.294 -37.293,-37.294c-20.815,0 -37.293,16.913 -37.293,37.294c-0.434,20.815 16.478,37.293 37.293,37.293Z" style="fill:#ff7e00;"/><path d="M2113.32,1055.23c28.62,14.31 49.869,2.168 61.577,-32.09c8.24,-23.851 11.709,-44.666 10.408,-62.445c-2.168,-28.187 -16.912,-48.568 -42.497,-60.277c-18.647,-8.673 -43.799,-12.575 -74.154,-11.274c-7.805,0.433 -14.744,-0.868 -20.381,4.336c-5.637,5.204 -8.239,12.142 -6.505,19.514c0.434,2.602 1.301,5.204 2.169,7.806c4.77,14.31 14.744,25.585 23.85,30.355c43.365,23.417 32.957,18.213 24.284,48.568c-6.071,21.249 0,44.665 21.249,55.507Z" style="fill:#322638;"/><path d="M2113.32,1055.23c-21.249,-10.842 -27.32,-34.258 -21.249,-55.073c8.673,-30.355 19.081,-25.152 -24.284,-48.569c-9.106,-4.77 -19.08,-16.044 -23.85,-30.355c-13.01,8.24 -23.851,18.647 -32.524,30.355c-2.602,3.47 -6.504,5.204 -10.841,5.204l-14.744,0c-3.035,0 -5.637,1.735 -6.938,4.337c-1.301,2.602 -1.301,5.637 0.867,8.239l15.178,20.815l-4.77,59.843c-0.434,6.071 1.301,11.275 5.637,15.177c3.903,4.337 9.107,6.505 15.178,6.071l20.381,-0.867c14.744,-1.301 26.019,15.178 34.258,44.666c14.31,-3.47 28.187,-7.372 42.497,-10.842c9.107,-2.168 18.647,-4.77 27.753,-6.938c2.602,-0.867 5.638,-1.301 8.24,-1.734c-7.372,-11.275 -12.576,-22.984 -15.178,-35.559c-5.204,-0.434 -10.407,-2.169 -15.611,-4.77Z" style="fill:#c97362;"/><g><path d="M2022.26,1125.91c10.841,16.478 17.346,34.691 20.815,55.506c1.735,11.709 2.602,24.284 2.169,37.294c-0,3.469 -0.434,7.372 -0.434,11.274l-52.905,1.301l-57.675,1.735l-13.009,0.434c-41.63,22.549 -103.641,12.575 -166.086,3.902c-8.673,-1.301 -17.779,-2.602 -26.452,-3.469c-13.877,-1.734 -27.753,-3.035 -41.63,-3.903c-9.54,-0.433 -19.08,-0.867 -28.621,-0.433l-42.497,19.947l-0.867,0l-118.819,6.939l-17.779,-10.408l73.286,-29.054l34.258,-13.443l4.336,-1.735l22.116,-8.672c0.867,-0.434 1.735,-0.434 2.602,-0.868c12.576,-3.903 27.32,0 43.364,3.469c9.107,-1.3 18.647,-3.469 28.187,-5.637c13.877,-3.035 27.754,-6.505 41.63,-10.407c8.673,-2.169 17.78,-4.77 26.453,-6.939c55.94,-14.744 111.013,-28.187 154.377,-17.346c30.789,-7.805 61.144,-15.611 91.933,-23.416c6.938,-2.169 13.876,-3.903 21.248,-6.071Z" style="fill:#c97362;"/><path d="M1590.35,1201.37l22.116,-8.673c0.867,-0.434 1.735,-0.434 2.602,-0.867c-16.045,2.168 -30.355,-3.47 -42.064,-10.841l-9.973,3.902c4.77,8.673 10.407,13.877 16.912,16.479c2.168,0.867 3.903,1.301 6.071,1.734l4.336,-1.734Z" style="fill:#d67c29;"/><path d="M1931.19,1590.78c13.009,11.275 26.019,22.549 38.594,33.824c10.841,9.974 23.851,17.346 38.595,21.249c8.239,2.168 17.346,3.469 26.452,3.469c4.77,-0 9.54,-0.434 13.877,-0.867c1.734,-0.434 3.469,-0.434 5.203,-0.868c37.294,-7.372 66.782,-35.992 75.021,-72.852c1.735,-6.938 2.602,-14.744 2.602,-22.116c-0,-38.594 -22.116,-71.551 -54.639,-87.163l-94.535,-45.966l-54.206,-26.452l-30.788,-14.744c-4.77,57.241 -30.355,97.57 -81.526,117.084c39.028,31.222 78.057,62.878 115.35,95.402Z" style="fill:#215365;"/><path d="M1742.99,1475.86c15.611,33.391 6.071,89.331 -15.177,115.783l280.568,54.206c-14.311,-3.903 -27.754,-11.275 -38.595,-21.249c-12.575,-11.275 -25.585,-22.549 -38.594,-33.824c-37.727,-32.524 -76.322,-64.18 -115.35,-95.836c-8.672,-6.938 -16.912,-13.876 -25.585,-20.815l-47.267,1.735Z" style="fill:#184656;"/><path d="M1727.81,1591.65c21.248,-26.452 30.788,-82.826 15.177,-115.783l-90.632,3.903l-476.575,127.925c-18.647,5.637 -14.31,17.779 6.504,21.682c32.524,10.408 59.41,-2.168 89.331,-3.035c36.426,25.151 104.509,45.532 110.58,-22.983c105.375,-33.391 152.643,67.214 256.284,-28.187l89.331,16.478Z" style="fill:#c97362;"/><path d="M1897.8,1377.86l-143.102,-69.817l-26.453,-13.009l-9.974,-4.77l-485.248,0c-19.514,0 -18.647,13.009 -0,22.55c23.417,16.044 47.701,16.044 71.551,19.514c4.77,0.867 9.974,1.734 14.744,3.035c0.867,0.867 1.735,2.168 2.602,3.036c37.294,39.895 85.428,64.613 112.748,-3.036c13.443,0 25.585,1.301 36.426,3.903c59.843,13.877 84.127,61.577 143.536,57.241c17.346,-1.301 37.727,-6.938 62.879,-19.08c3.035,2.601 6.071,5.637 9.106,8.239c13.443,12.142 27.32,24.284 41.63,35.992c8.673,7.372 17.78,14.744 26.453,22.55c11.708,9.974 23.85,19.948 35.992,29.921c8.673,6.939 16.912,13.877 25.585,20.815c50.737,-19.514 76.755,-59.843 81.525,-117.084Z" style="fill:#c97362;"/></g></g><path d="M2044.81,1229.99l97.136,-2.601m-44.231,1.3c17.345,18.647 69.816,15.178 91.499,3.036" style="fill:none;stroke:#163f4d;stroke-width:2.17px;"/></g><g><path d="M2419.91,1648.45l22.549,-0c19.514,-0 35.559,-16.045 35.559,-35.559c0,-19.514 -16.045,-35.559 -35.559,-35.559l-22.549,-0c-19.514,-0 -35.559,16.045 -35.559,35.559c-0,19.514 16.045,35.559 35.559,35.559Z" style="fill:#712ac8;"/><path d="M2419.91,1648.45c19.514,-0 35.558,-16.045 35.558,-35.559c0,-19.514 -16.044,-35.559 -35.558,-35.559c-19.514,-0 -35.559,16.045 -35.559,35.559c-0,19.514 16.045,35.559 35.559,35.559Z" style="fill:#9d6afc;"/><path d="M2287.21,1622.87l132.262,-0c5.637,-0 9.974,-4.337 9.974,-9.974c-0,-5.638 -4.337,-9.974 -9.974,-9.974l-132.262,-0c-5.637,-0 -9.974,4.336 -9.974,9.974c0,5.637 4.337,9.974 9.974,9.974Z" style="fill:#712ac8;"/><circle cx="2287.21" cy="1612.89" r="9.974" style="fill:#ccc;"/><path d="M2287.21,1648.45l22.55,-0c19.514,-0 35.559,-16.045 35.559,-35.559c-0,-19.514 -16.045,-35.559 -35.559,-35.559l-22.55,-0c-19.514,-0 -35.559,16.045 -35.559,35.559c0.434,19.514 16.045,35.559 35.559,35.559Z" style="fill:#712ac8;"/><path d="M2287.21,1648.45c19.514,-0 35.559,-16.045 35.559,-35.559c0,-19.514 -16.045,-35.559 -35.559,-35.559c-19.514,-0 -35.559,16.045 -35.559,35.559c0.434,19.514 16.045,35.559 35.559,35.559Z" style="fill:#9d6afc;"/><path d="M2374.38,1622.87l-11.708,-20.382l-19.081,0c0.867,3.036 1.301,6.505 1.301,9.974c0,3.469 -0.434,6.938 -1.301,9.974l30.789,-0l-0,0.434Z" style="fill:#531f92;"/></g></g></g></svg>