<?xml version="1.0" encoding="UTF-8" standalone="no"?><!DOCTYPE svg PUBLIC "-//W3C//DTD SVG 1.1//EN" "http://www.w3.org/Graphics/SVG/1.1/DTD/svg11.dtd"><svg width="100%" height="100%" viewBox="0 0 2623 2953" version="1.1" xmlns="http://www.w3.org/2000/svg" xmlns:xlink="http://www.w3.org/1999/xlink" xml:space="preserve" xmlns:serif="http://www.serif.com/" style="fill-rule:evenodd;clip-rule:evenodd;stroke-miterlimit:2.6131;"><g id="Layer_2"><g id="FPC:_Medical_Optimization"><path d="M2158.39,2952.76l-1775.74,-0c-72.17,-0.14 -131.515,-59.484 -131.655,-131.655l0.057,-1717.93c0.003,-83.875 35.246,-156.056 101.388,-207.636l230.792,-179.979c32.444,-24.537 51.297,-63.145 50.695,-103.818l0,-219.338l1273.18,-0l0,219.338c-0.601,40.673 18.251,79.281 50.695,103.818l230.792,179.979c66.142,51.58 101.385,123.761 101.389,207.636l0.056,1717.93c-0.14,72.171 -59.484,131.515 -131.655,131.655Z" style="fill:#00cbff;"/><rect x="565.417" y="0" width="1410.2" height="338.01" style="fill:#184656;"/><rect x="599.404" y="338.009" width="1342.23" height="54.388" style="fill:#577983;"/><rect x="251.047" y="1156.45" width="2038.88" height="1251.49" style="fill:#fff;"/><path d="M251.047,1156.45l1528.18,0c144.287,0.423 262.886,119.022 263.309,263.309l-0,724.874c-0.422,144.287 -119.022,262.887 -263.309,263.31l-1528.18,-0l0,-1251.49Z" style="fill:#e5e5e5;"/><path d="M654.534,1458.94l420.724,0c56.242,0 102.521,46.28 102.521,102.521l0,383.504c0,56.242 -46.279,102.521 -102.521,102.521l-420.725,0c-56.241,0 -102.521,-46.279 -102.521,-102.521l0,-383.503c0,-56.242 46.28,-102.522 102.522,-102.522Z" style="fill:#fff;fill-rule:nonzero;"/><rect x="1274.06" y="1458.94" width="581.554" height="72.115" style="fill:#4d4d4d;"/><rect x="1274.06" y="1584.5" width="581.554" height="72.115" style="fill:#4d4d4d;"/><rect x="1274.06" y="1710.06" width="581.554" height="72.113" style="fill:#4d4d4d;"/><rect x="1274.06" y="1835.62" width="290.785" height="72.113" style="fill:#4d4d4d;"/><path d="M1783.5,1979.85l-72.112,-0l-0,72.112l-72.113,0l0,72.113l72.113,-0l-0,72.112l72.112,0l0,-72.112l72.117,-0l-0,-72.113l-72.117,0l0,-72.112Z" style="fill:#e51e55;"/><path d="M589.908,338.012l0,-338.012m27.618,338.012l-0,-338.012m31.658,338.012l-0,-338.012m37.079,338.012l0,-338.012m44.757,338.012l0,-338.012m56.469,338.012l-0,-338.012m76.562,338.012l0,-338.012" style="fill:none;stroke:#577983;stroke-width:5.91px;"/><path d="M1951.13,338.012l-0,-338.012m-27.619,338.012l0,-338.012m-31.654,338.012l-0,-338.012m-37.084,338.012l0,-338.012m-44.755,338.012l-0,-338.012m-56.468,338.012l-0,-338.012m-76.563,338.012l-0,-338.012" style="fill:none;stroke:#577983;stroke-width:5.91px;"/><path d="M750.596,1696.76l76.2,76.2l152.4,-152.4l76.196,76.2l-228.596,228.6l-152.4,-152.4l76.2,-76.2Z" style="fill:#1cce93;"/><path d="M838.661,435.94l-103.288,0l-0,175.797c0.6,71.912 -32.681,140.068 -89.758,183.816l-230.792,179.979c-41.48,32.348 -62.324,75.038 -62.326,127.641l-0.057,1717.93c0.12,16.526 13.683,30.087 30.209,30.205l73.08,0l0.057,-1694.15c0.002,-52.602 20.846,-95.293 62.325,-127.641l230.792,-179.979c57.078,-43.749 90.358,-111.905 89.758,-183.817l-0,-229.778Z" style="fill:#fff;fill-opacity:0.5;"/><path d="M1863.57,435.94l-43.485,0l0,195.281c-0.6,54.081 24.445,105.37 67.46,138.153l230.792,179.978c55.556,43.324 84.621,102.853 84.623,173.305l0.048,1774.34c26.863,-15.813 43.432,-44.725 43.494,-75.897l-0.056,-1717.93c-0.003,-70.451 -29.069,-129.979 -84.624,-173.303l-230.792,-179.979c-43.016,-32.783 -68.06,-84.072 -67.46,-138.152l-0,-175.797Z" style="fill:#00b9ff;fill-opacity:0.25;"/></g></g></svg>