<?xml version="1.0" encoding="UTF-8" standalone="no"?><!DOCTYPE svg PUBLIC "-//W3C//DTD SVG 1.1//EN" "http://www.w3.org/Graphics/SVG/1.1/DTD/svg11.dtd"><svg width="100%" height="100%" viewBox="0 0 2948 2842" version="1.1" xmlns="http://www.w3.org/2000/svg" xmlns:xlink="http://www.w3.org/1999/xlink" xml:space="preserve" xmlns:serif="http://www.serif.com/" style="fill-rule:evenodd;clip-rule:evenodd;stroke-miterlimit:2.6131;"><g id="Layer_2"><g id="FPC:_Mental_Health_Support"><path d="M694.813,1878.27c35.329,24.91 71.246,51.582 107.573,78.836c9.594,7.197 19.216,14.428 28.866,21.692c31.914,24.007 64.1,48.216 96.469,71.884c36.515,26.699 73.266,52.707 110.125,76.949c37.754,24.831 75.621,47.81 113.468,67.784c-78.921,76.819 -181.316,125.071 -290.799,137.033c-7.887,0.874 -15.751,1.559 -23.591,2.055c-10.202,0.631 -20.422,0.947 -30.644,0.947c-272.301,0 -496.371,-224.07 -496.371,-496.371c-0,-6.569 0.13,-13.138 0.391,-19.701c41.361,8.956 83.898,11.172 125.966,6.563c0.293,-0.033 0.586,-0.064 0.879,-0.097c42.233,-4.64 83.437,-16.097 122.004,-33.922c2.304,1.258 4.613,2.531 6.925,3.818c44.319,25.252 87.29,52.8 128.739,82.53Z" style="fill:#da574a;stroke:#da574a;stroke-width:2.36px;"/><path d="M817.933,2790.09l94.827,51.499c185.6,-166.079 279.616,-412.23 251.988,-659.75c-80.416,84.544 -188.243,137.921 -304.233,150.601c-7.887,0.875 -15.75,1.559 -23.591,2.054c59.615,147.423 52.686,313.646 -18.991,455.596Z" style="fill:#e51e55;"/><path d="M352.418,1061.31c-189.374,20.846 -334.382,182.693 -334.382,373.211c0,205.974 169.491,375.465 375.465,375.465c13.913,-0 27.814,-0.773 41.641,-2.316c0.75,-0.083 1.5,-0.169 2.25,-0.257c42.524,-4.922 83.893,-17.097 122.305,-35.994c3.503,1.863 7.015,3.762 10.535,5.698c40.814,22.876 80.43,47.826 118.694,74.749c46.004,31.883 93.019,67.029 140.681,102.865c37.88,28.48 76.17,57.396 114.688,85.456c35.868,26.128 71.931,51.518 108.043,75.119c37.471,24.491 74.994,47.059 112.409,66.542c86.598,45.093 172.604,73.654 255.982,71.244c212.892,-6.161 330.1,-174.754 309.554,-358.315c120.255,-52.319 140.323,-207.656 43.634,-297.099c-112.846,-75.233 -291.193,-203.531 -323.383,-243.86c-82.724,-103.633 -57.939,-196.593 8.329,-252.163c81.618,-68.442 226.161,-80.167 310.275,14.728c36.905,-91.663 272.018,-188.635 396.814,-23.702c33.033,43.657 44.188,94.841 39.246,146.032l-0.001,0.002c-7.3,75.607 -49.719,151.22 -108.618,202.586l-10.123,8.827l-211.714,184.641c111.271,325.052 556.095,317.204 747.151,241.334c418.777,-166.31 369.907,-652.453 91.271,-776.895c0.111,-3.57 0.166,-7.14 0.166,-10.711c0,-189.408 -155.858,-345.266 -345.266,-345.266c-12.609,-0 -25.209,0.69 -37.742,2.069c-7.81,0.867 -15.524,1.984 -23.145,3.352c-68.493,-141.593 -212.533,-231.924 -369.822,-231.924c-104.882,-0 -205.883,40.165 -282.123,112.191c-80.905,-74.993 -187.244,-116.697 -297.56,-116.697c-151.925,0 -293.375,79.097 -372.921,208.533c-50.79,-21.565 -105.406,-32.68 -160.585,-32.68c-210.58,-0 -388.804,161.888 -408.985,371.5c-20.933,-1.163 -41.926,-0.583 -62.763,1.735Z" style="fill:#f48a73;"/><path d="M1761.54,1611.05c-3.718,-3.447 -5.833,-8.294 -5.833,-13.364c0,-9.999 8.228,-18.227 18.227,-18.227c4.58,-0 8.996,1.726 12.362,4.832c21.497,19.733 38.65,43.729 50.364,70.455c15.196,34.788 20.207,73.186 14.449,110.708c-5.685,37.326 -22.4,72.113 -47.987,99.876c-15.318,16.506 -33.412,30.198 -53.46,40.454c0.501,6.405 0.844,12.79 1.028,19.156c2.701,69.828 -15.662,138.88 -52.693,198.142c-37.934,59.513 -94.907,104.48 -161.605,127.549c-37.078,12.847 -75.934,19.831 -115.165,20.699c-193.633,5.597 -396.787,-147.217 -589.977,-292.54c-94.128,-70.805 -185.848,-139.798 -272.103,-186.876c-51.788,23.925 -108.161,36.317 -165.209,36.317c-199.721,0 -369.437,-151.886 -391.514,-350.383l-0.005,-0.056c-23.675,-214.649 133.361,-410.797 347.989,-434.662l0.037,-0.003c16.115,-1.787 32.325,-2.585 48.537,-2.389c28.974,-211.574 211.67,-370.955 425.219,-370.955c52.399,-0 104.359,9.596 153.302,28.313c84.334,-127.403 227.307,-204.221 380.093,-204.221c109.184,-0 214.815,39.229 297.531,110.497c78.158,-68.219 178.462,-105.837 282.205,-105.837c159.378,0 306.143,88.784 380.122,229.953c3.576,-0.504 7.197,-0.96 10.863,-1.366c13.229,-1.459 26.529,-2.191 39.839,-2.191c199.117,0 363.062,163.634 363.442,362.75c85.687,41.913 149.478,116.749 184.723,205.499c43.957,111.275 41.396,235.677 -7.103,345.049c-46.611,104.366 -137.202,197.877 -280.601,254.823c-7.176,2.849 -14.154,5.435 -20.932,7.758c-100.673,34.461 -255.074,51.264 -399.261,21.582c-146.239,-30.103 -282.381,-107.712 -343.793,-262.358c-2.708,-6.823 -5.11,-13.291 -7.205,-19.405c-0.636,-1.884 -0.96,-3.859 -0.96,-5.847c-0,-10.029 8.252,-18.281 18.281,-18.281c7.808,-0 14.794,5.003 17.307,12.396c2.225,6.502 4.389,12.397 6.49,17.685c56.012,141.05 181.773,212.162 317.177,240.037c137.459,28.295 284.469,12.343 380.231,-20.437c7.156,-2.449 13.561,-4.797 19.213,-7.043c133.606,-53.058 217.718,-139.53 260.712,-235.794c44.51,-100.391 46.864,-214.574 6.53,-316.715c-30.045,-75.656 -82.695,-140.057 -152.941,-178.907c-1.208,11.105 -2.917,22.078 -5.128,32.92c-7.517,36.975 -20.769,72.548 -39.274,105.429c-3.232,5.765 -9.346,9.348 -15.955,9.348c-10.034,-0 -18.29,-8.257 -18.29,-18.291c-0,-3.131 0.804,-6.211 2.335,-8.943c27.476,-48.873 41.912,-104.006 41.912,-160.073c-0,-179.19 -147.451,-326.641 -326.641,-326.641c-11.589,0 -23.17,0.617 -34.693,1.848c8.274,20.013 15.013,40.628 20.157,61.664c2.31,9.443 4.246,18.575 5.809,27.395c1.576,8.928 2.898,18.184 3.964,27.767c15.68,140.581 -39.244,280.169 -146.518,372.371c-3.317,2.87 -7.56,4.451 -11.947,4.451c-10.017,0 -18.26,-8.242 -18.26,-18.259c0,-5.298 2.306,-10.342 6.312,-13.809c98.159,-84.373 148.416,-212.106 134.067,-340.746c-0.925,-8.37 -2.152,-16.862 -3.679,-25.479c-1.575,-8.92 -3.321,-17.288 -5.237,-25.106c-42.997,-174.813 -201.038,-298.693 -381.061,-298.693c-93.664,0 -184.301,33.534 -255.41,94.496c40.574,40.961 72.993,89.267 95.525,142.337c0.944,2.242 1.431,4.65 1.431,7.083c-0,10.008 -8.236,18.244 -18.245,18.244c-7.325,0 -13.97,-4.411 -16.813,-11.162c-65.608,-154.63 -218.063,-255.555 -386.036,-255.555c-138.327,-0 -268.054,68.443 -346.14,182.622c57.597,28.089 108.216,68.668 148.162,118.775c2.577,3.236 3.981,7.252 3.981,11.389c-0,10.028 -8.253,18.281 -18.281,18.281c-5.575,-0 -10.855,-2.551 -14.321,-6.918c-40.527,-50.836 -93.004,-90.871 -152.742,-116.526c-0.584,-0.215 -1.157,-0.459 -1.716,-0.733l-2.301,-0.967c-47.647,-19.744 -98.722,-29.907 -150.299,-29.907c-194.305,-0 -360.85,144.243 -388.592,336.558c58.938,6.249 115.7,25.773 166.011,57.102c5.359,3.334 8.627,9.215 8.627,15.527c0,10.03 -8.254,18.285 -18.285,18.285c-3.413,-0 -6.759,-0.956 -9.658,-2.759c-67.623,-42.182 -147.518,-60.394 -226.742,-51.688c-0.676,0.114 -1.359,0.191 -2.044,0.229c-193.981,21.958 -335.828,199.155 -314.788,393.238c0.109,0.655 0.182,1.315 0.22,1.978c20.556,179.642 174.337,316.831 355.151,316.831c54.239,0 107.773,-12.344 156.536,-36.096c0.677,-0.388 1.379,-0.733 2.101,-1.032c53.517,-26.588 99.505,-66.202 133.724,-115.192c-20.288,-11.256 -39.277,-24.71 -56.623,-40.118c-59.604,-53.738 -89.939,-129.254 -66.126,-238.924c16.223,-74.716 59.76,-120.149 115.775,-145.461c63.716,-28.793 143.226,-30.599 215.705,-19.924c31.729,-145.61 161.748,-250.348 310.775,-250.348c108.634,0 210.019,55.655 268.341,147.306c1.867,2.928 2.858,6.33 2.858,9.802c0,10.006 -8.233,18.24 -18.239,18.24c-6.225,-0 -12.036,-3.187 -15.381,-8.437c-51.625,-81.136 -141.375,-130.408 -237.542,-130.408c-137.613,0 -256.067,100.892 -277.962,236.752l-0.164,1.163l-0.113,0.59c-3.749,24.492 -4.257,49.372 -1.508,73.997c0.073,0.666 0.11,1.334 0.11,2.004c-0,10.029 -8.253,18.282 -18.283,18.282c-9.275,0 -17.155,-7.059 -18.172,-16.278c-2.46,-22.093 -2.601,-44.382 -0.421,-66.505c-66.475,-9.762 -138.575,-8.38 -194.978,17.105c-45.911,20.746 -81.633,58.158 -95.027,119.845c-20.529,94.551 4.757,158.874 54.822,204.011c20.012,17.571 42.285,32.387 66.226,44.053l0.808,0.405c43.602,21.796 94.696,37.521 147.489,49.945l26.932,6.326c295.408,69.319 448.706,105.292 544.036,353.916c0.792,2.08 1.198,4.286 1.198,6.511c-0,10.038 -8.26,18.297 -18.297,18.297c-7.577,0 -14.404,-4.705 -17.1,-11.786c-88.365,-230.457 -235.193,-264.912 -518.137,-331.306l-26.933,-6.327c-49.641,-11.682 -98.059,-26.282 -141.168,-46.014c-30.501,44.775 -69.886,82.804 -115.702,111.719c-2.011,1.269 -4.035,2.519 -6.072,3.75c81.761,47.319 167.654,111.929 255.623,178.1c188.222,141.586 386.155,290.472 567.082,285.242c35.429,-0.784 70.52,-7.091 104.005,-18.694c58.998,-20.351 109.412,-60.072 143.003,-112.67c33.096,-53.125 49.463,-114.996 46.966,-177.537c-0.273,-9.439 -0.937,-18.945 -1.992,-28.518l-0.142,-1.261c-3.287,-28.322 -9.767,-56.181 -19.317,-83.047c-34.362,-97.257 -110.962,-181.328 -204.015,-244.384c-97.903,-66.344 -213.629,-109.219 -317.623,-119.74c0.331,5.761 0.818,11.546 1.46,17.354c2.34,21.153 6.746,42.026 13.154,62.32c6.372,20.206 14.723,39.733 24.931,58.298c1.504,2.712 2.294,5.764 2.294,8.866c-0,10.03 -8.254,18.283 -18.284,18.283c-6.69,-0 -12.866,-3.672 -16.062,-9.549c-11.376,-20.659 -20.686,-42.39 -27.792,-64.879c-36.797,-115.987 -12.498,-243.047 64.5,-337.272c3.465,-4.251 8.668,-6.723 14.152,-6.723c10.016,0 18.258,8.242 18.258,18.258c0,4.188 -1.441,8.251 -4.079,11.503c-43.366,53.003 -68.79,118.439 -72.584,186.817c110.741,10.515 234.161,55.815 338.137,126.273c99.104,67.154 180.915,157.344 218.038,262.413c7.578,21.402 13.4,43.385 17.409,65.731c38.039,-23.474 63.826,-62.595 70.404,-106.807c4.691,-30.691 0.572,-62.092 -11.873,-90.536c-9.681,-22.109 -23.861,-41.962 -41.635,-58.29Zm790.492,-159.687c-146.602,65.582 -315.709,59.167 -456.92,-17.335c-2.666,-1.439 -5.648,-2.192 -8.678,-2.192c-10.027,0 -18.278,8.251 -18.278,18.278c0,6.726 3.713,12.929 9.641,16.108c151.187,81.819 332.186,88.659 489.118,18.483c6.566,-2.931 10.815,-9.48 10.815,-16.671c-0,-10.015 -8.241,-18.257 -18.257,-18.257c-2.564,0 -5.1,0.541 -7.441,1.586l-0,-0Z" style="fill:#da574a;"/><path d="M1040.17,2101.71c3.346,-2.999 7.684,-4.659 12.177,-4.659c10.007,0 18.241,8.234 18.241,18.241c0,5.194 -2.217,10.147 -6.091,13.606c-71.12,63.531 -163.218,98.675 -258.582,98.675c-196.811,0 -364.049,-149.689 -385.778,-345.297c-1.393,-12.578 -2.169,-25.339 -2.326,-38.283c-0.164,-13.247 0.28,-25.942 1.332,-38.086c0.787,-9.437 8.773,-16.784 18.242,-16.784c10.042,-0 18.306,8.263 18.306,18.305c-0,0.495 -0.02,0.989 -0.06,1.482c-1.019,11.847 -1.463,23.398 -1.331,34.654c0.143,11.215 0.87,22.783 2.182,34.704c19.529,177.252 171.021,312.971 349.346,312.971c86.443,0 169.919,-31.891 234.342,-89.529Zm-106.256,-76.548c-37.637,25.97 -82.3,39.884 -128.028,39.884c-114.351,0 -211.504,-87.01 -224.062,-200.67c-1.538,-13.862 -1.798,-27.836 -0.777,-41.745c1.014,-13.804 3.306,-27.484 6.848,-40.864c0.404,-1.525 0.608,-3.095 0.608,-4.673c-0,-10.024 -8.248,-18.272 -18.272,-18.272c-8.283,0 -15.579,5.632 -17.677,13.644c-4.133,15.582 -6.809,31.514 -7.995,47.59c-0.477,6.444 -0.716,12.902 -0.716,19.363c0,143.784 118.317,262.101 262.101,262.101c31.274,-0 62.298,-5.598 91.6,-16.528c20.199,-7.524 39.385,-17.528 57.118,-29.782c4.932,-3.405 7.884,-9.03 7.884,-15.024c-0,-10.016 -8.242,-18.258 -18.258,-18.258c-3.706,0 -7.325,1.128 -10.374,3.234Zm-107.888,-88.322c-1.489,0.3 -3.009,0.576 -4.55,0.819c-0.844,0.132 -2.03,0.289 -3.584,0.469c-0.697,0.035 -1.39,0.11 -2.078,0.225c-53.484,5.46 -102.166,-33.518 -108.536,-86.901c-0.239,-9.88 -8.432,-17.877 -18.315,-17.877c-10.051,0 -18.321,8.271 -18.321,18.321c0,0.658 0.036,1.316 0.107,1.97l0.069,0.629c8.279,74.032 75.911,128.197 149.964,120.103l0.054,-0.005c1.561,-0.172 3.658,-0.469 6.218,-0.874c2.045,-0.321 4.087,-0.689 6.126,-1.104c8.49,-1.702 14.656,-9.227 14.656,-17.886c-0,-10.007 -8.235,-18.241 -18.242,-18.241c-1.198,-0 -2.393,0.118 -3.568,0.352Zm325.48,232.409c-90.095,94.476 -215.097,147.999 -345.644,147.999c-242.251,0 -448.077,-184.307 -474.719,-425.089c-1.701,-15.364 -2.673,-30.357 -2.915,-44.98c-0.253,-14.759 0.209,-29.732 1.386,-44.92c0.034,-0.452 0.051,-0.904 0.051,-1.356c-0,-10.037 -8.259,-18.295 -18.295,-18.295c-9.524,-0 -17.536,7.436 -18.245,16.933c-1.197,15.562 -1.659,31.632 -1.386,48.21c0.276,16.29 1.296,32.428 3.059,48.415c28.535,259.268 250.114,457.799 510.947,457.799c140.62,-0 275.256,-57.702 372.234,-159.531c3.23,-3.395 5.033,-7.906 5.033,-12.592c-0,-10.023 -8.247,-18.27 -18.27,-18.27c-5.001,0 -9.789,2.054 -13.236,5.677Z" style="fill:#b0463c;"/><path d="M1848.7,1666.22c-35.078,-18.534 -149.653,-95.55 -249.467,-168.259c-75.766,-55.193 -143.516,-108.348 -163.005,-132.767c-63.364,-79.378 -68.213,-154.006 -39.973,-213.082c13.542,-27.557 33.36,-51.557 57.857,-70.067c25.096,-19.135 53.56,-33.396 83.912,-42.04c75.283,-21.782 162.93,-11.191 226.957,46.341c11.535,-15.968 25.48,-30.049 41.335,-41.738c36.851,-27.101 79.31,-45.604 124.249,-54.145c47.951,-9.259 99.888,-7.42 148.327,12.082c40.508,16.528 75.688,43.907 101.658,79.116c41.997,55.502 51.616,121.824 38.827,186.103c-14.08,70.748 -55.589,139.143 -110.774,187.273l-239.373,208.758c-5.674,4.96 -13.858,5.927 -20.53,2.425Zm-228.004,-197.737c89.733,65.367 191.198,134.066 234.244,159.334l229.622,-200.254c49.325,-43.016 86.387,-103.947 98.898,-166.811c10.875,-54.663 2.972,-110.702 -32.1,-157.053c-21.964,-29.892 -51.746,-53.161 -86.063,-67.241c-41.355,-16.65 -86.19,-18.126 -127.864,-10.078c-39.443,7.462 -76.719,23.666 -109.081,47.419c-20.599,15.586 -35.592,32.827 -42.255,49.38c-1.07,2.634 -2.735,4.986 -4.865,6.87c-7.497,6.632 -19.123,5.921 -25.757,-1.575c-54.415,-61.388 -136.997,-73.751 -207.293,-53.413c-25.948,7.372 -50.285,19.546 -71.746,35.889c-19.983,15.015 -36.174,34.504 -47.271,56.902c-22.505,47.074 -17.543,107.911 35.682,174.59c17.39,21.786 82.461,72.582 155.849,126.041Z" style="fill:#da574a;"/><path d="M1849.86,1569.2l203.498,-177.467c197.67,-172.393 15.584,-413.955 -149.498,-302.452c-47.002,31.744 -87.809,86.646 -113.424,150.263l-70.509,-79.548c-95.531,-107.777 -321.781,16.588 -202.845,169.104c43.573,54.595 228.086,170.373 293.518,213.99c12.464,8.308 25.777,17.396 39.26,26.11Z" style="fill:#e51e55;"/></g></g></svg>