<svg width="42" height="48" viewBox="0 0 42 48" fill="none" xmlns="http://www.w3.org/2000/svg">
<path d="M22.5 6.07312C25.4719 6.32344 28.3031 6.92063 30.3563 7.42031C31.1625 7.61625 31.65 8.42719 31.4531 9.2325C31.2656 10.0406 30.45 10.5281 29.6438 10.3312C26.55 9.58125 21.9563 8.69156 17.9906 9.02344C16.0125 9.18937 14.3203 9.64687 13.0613 10.4719C11.8528 11.2687 10.9697 12.4312 10.6275 14.2406C10.365 15.6281 10.5309 16.6406 10.9078 17.4094C11.2931 18.2062 11.9681 18.9 12.9619 19.5375C15.0197 20.85 18.0281 21.6469 21.3844 22.5281L21.5344 22.5656C24.6938 23.3906 28.1531 24.3 30.6469 25.8938C31.9594 26.7281 33.0094 27.7969 33.7875 29.2312C34.4156 30.6844 34.6781 32.3625 34.3219 34.2656C33.7125 37.4813 31.4438 39.6469 28.4438 40.8187C26.7 41.5031 24.675 41.8687 22.5 41.9437V46.5C22.5 47.325 21.825 48 21 48C20.175 48 19.5 47.325 19.5 46.5V41.8594C18.9188 41.7281 18.3281 41.7469 17.7281 41.6531H17.7188C15.2616 41.2875 11.5603 40.4437 8.40656 39.0844C7.64531 38.7562 7.29469 37.7906 7.62281 37.1156C7.95094 36.3563 8.83312 36 9.59344 36.3281C12.4378 37.5563 15.8719 38.3438 18.1594 38.6906C21.8063 39.2063 25.0125 38.9438 27.3469 38.025C29.6438 37.125 31.0031 35.6531 31.3688 33.7125C31.6313 32.325 31.4719 31.3219 31.0875 30.5437C30.7031 29.7562 30.0281 29.0531 29.0344 28.425C26.9813 27.1125 23.9719 26.3063 20.6156 25.425L20.4656 25.3875C17.3063 24.5625 13.8478 23.6531 11.3494 22.0687C10.0444 21.2344 8.90719 20.1562 8.20969 18.7219C7.50469 17.2687 7.31906 15.5906 7.67906 13.6875C8.175 11.0625 9.53625 9.195 11.4197 7.96313C13.2525 6.765 15.4969 6.22313 17.7375 6.03469C18.3188 5.98594 18.9094 5.96062 19.5 5.95406V1.5C19.5 0.671625 20.175 0 21 0C21.825 0 22.5 0.671625 22.5 1.5V6.07312Z" fill="#1A73E8"/>
</svg>
