<svg xmlns="http://www.w3.org/2000/svg" xmlns:xlink="http://www.w3.org/1999/xlink" viewBox="0 0 708.85417 707.9029"><defs><clipPath id="clip-path"><path d="M230.21038,235.6656l-23.3569,45.3107-34.9577,67.8138a112.7823,112.7823,0,0,0-13.0226,58.1071l3.6192,103.3166c.2637,21.8072-6.7887,50.6574-22.337,78.6195l141.7952,69.8241c9.722-26.2358,26.6996-46.226,51.3216-60.4508,25.4849-14.7223,48.7298-30.1975,67.8637-80.204L283.68318,488.048q-.33255-1.77735-.7217-3.5147c-7.1306-31.8991-27.866-53.9617-42.2198-78.5517a33.82946,33.82946,0,0,1-1.9035-3.827,47.91927,47.91927,0,0,1-1.9272-5.5029c-4.7044-16.401-3.5062-40.1105,2.4494-53.2582l25.4744-56.232,3.0464-11.9443a38.89078,38.89078,0,0,0-5.781-22.58l-10.8936-18.3526a11.51987,11.51987,0,0,0-10.5718-5.7592,11.64735,11.64735,0,0,0-10.1117,6.5342Z" fill="none" clip-rule="evenodd"/></clipPath></defs><g id="Layer_2" data-name="Layer 2"><g id="Meet_PIA" data-name="Meet PIA"><path d="M696.52547,310.5051c-103.8736,194.1032-298.44339-43.8758-489.33889,120.1725-55.4939,47.689-165.6102,40.2152-198.15929-39.0294-26.6276-64.8294,7.8916-152.2034,74.11769-224.1895,268.3727-291.7148,704.61469-27.438,613.38049,143.0464ZM386.62188,407.5512c-85.7781,9.6709-124.255,101.4449-34.3491,144.1315,27.7577,13.1786,62.6,20.9214,94.29309,22.2746,87.804,3.7492,127.4213-64.5046,76.2976-122.9448C492.901,416.7632,433.59677,402.2541,386.62188,407.5512Z" fill="#fdeff2" fill-rule="evenodd"/><path d="M467.60657,279.2109l-35.9254,21.3242a13.31811,13.31811,0,0,0-4.64059,18.1973l11.45019,19.2909a13.31881,13.31881,0,0,0,18.1976,4.6406L492.6,321.347l.0133-.0076h.0003l35.9251-21.3242a19.69388,19.69388,0,0,0,6.8627-26.9082l-4.9612-8.3582a19.6937,19.6937,0,0,0-26.9081-6.8624Z" fill="#fab280" fill-rule="evenodd"/><polygon points="287.129 707.903 305.614 670.31 117.078 577.47 52.942 707.903 287.129 707.903" fill="#e5e5e5" fill-rule="evenodd"/><path d="M230.21038,235.6656l-23.3569,45.3107-34.9577,67.8138a112.7823,112.7823,0,0,0-13.0226,58.1071l3.6192,103.3166c.2637,21.8072-6.7887,50.6574-22.337,78.6195l141.7952,69.8241c9.722-26.2358,26.6996-46.226,51.3216-60.4508,25.4849-14.7223,48.7298-30.1975,67.8637-80.204L283.68318,488.048q-.33255-1.77735-.7217-3.5147c-7.1306-31.8991-27.866-53.9617-42.2198-78.5517a33.82946,33.82946,0,0,1-1.9035-3.827,47.91927,47.91927,0,0,1-1.9272-5.5029c-4.7044-16.401-3.5062-40.1105,2.4494-53.2582l25.4744-56.232,3.0464-11.9443a38.89078,38.89078,0,0,0-5.781-22.58l-10.8936-18.3526a11.51987,11.51987,0,0,0-10.5718-5.7592,11.64735,11.64735,0,0,0-10.1117,6.5342Z" fill="#fab280" fill-rule="evenodd"/><g clip-path="url(#clip-path)"><path d="M331.84828,114.0715,499.10117,156.727a23.04124,23.04124,0,0,1,16.5833,27.9368L428.56528,526.2596a23.04188,23.04188,0,0,1-27.9371,16.5833l-167.2538-42.6555a23.04108,23.04108,0,0,1-16.5829-27.9374l87.1194-341.5958A23.0396,23.0396,0,0,1,331.84828,114.0715Z" fill="#f99d6c" fill-rule="evenodd"/><path d="M282.23838,488.3145a1.46931,1.46931,0,1,1,2.8899-.5329,109.08394,109.08394,0,0,1,1.7186,24.7813,140.73645,140.73645,0,0,1-4.4305,28.9692,1.47268,1.47268,0,0,1-2.854-.7279,137.86289,137.86289,0,0,0,4.3492-28.372A106.1823,106.1823,0,0,0,282.23838,488.3145Z" fill="#d47655" fill-rule="evenodd"/></g><path d="M223.40408,292.5363c16.2182-26.2469,21.3818-42.9293,6.8063-56.8707l-23.3569,45.3107A36.04415,36.04415,0,0,1,223.40408,292.5363Z" fill="#ffd1cd" fill-rule="evenodd"/><path d="M338.98988,40.8824l187.60569,47.846a25.84475,25.84475,0,0,1,18.6006,31.3367l-97.7201,383.163a25.84534,25.84534,0,0,1-31.33669,18.601l-187.6057-47.846a25.84451,25.84451,0,0,1-18.6009-31.337L307.65288,59.483A25.8438,25.8438,0,0,1,338.98988,40.8824Z" fill="#394d56" fill-rule="evenodd"/><path d="M338.09528,44.39a22.223,22.223,0,0,0-26.9345,15.9877l-97.7201,383.163a22.22307,22.22307,0,0,0,15.9876,26.9345l187.6057,47.846a22.22351,22.22351,0,0,0,26.93419-15.9877l97.7205-383.163A22.22306,22.22306,0,0,0,525.701,92.2362l-78.6683-20.0633a8.4999,8.4999,0,0,0-10.1483,5.4451,7.15879,7.15879,0,0,1-13.82029-3.5246,8.50006,8.50006,0,0,0-6.3011-9.6404Z" fill="#fff" fill-rule="evenodd"/><path d="M220.775,137.2198l122.1392-10.2373a5.88948,5.88948,0,0,1,6.3488,5.3668l6.3337,75.5669a5.66708,5.66708,0,0,1-1.1489,4.0096L299.151,285.9216a5.878,5.878,0,0,1-8.7662.7348l-66.8426-63.7589a5.66443,5.66443,0,0,1-1.8003-3.7624l-6.3337-75.5668A5.88938,5.88938,0,0,1,220.775,137.2198Z" fill="#e51e55" fill-rule="evenodd"/><path d="M287.53828,379.2985a27.69482,27.69482,0,1,1-33.6801,19.9914,27.69477,27.69477,0,0,1,33.6801-19.9914Zm34.626,20.0452,79.6921,20.3253-1.2722,4.9878-79.6918-20.3252,1.2719-4.9879Zm-2.3485,9.2087-1.2722,4.9878,79.6921,20.325,1.2722-4.9879-79.6921-20.3249Zm-2.3485,9.2083-1.2722,4.9879,66.2627,16.9001,1.2722-4.9878-66.2627-16.9002Zm-2.3485,9.2086,25.2074,6.429-1.2719,4.9879-25.2077-6.429Z" fill="#1981dc" fill-rule="evenodd"/><path d="M436.64937,493.1025l39.8022-12.697a13.31748,13.31748,0,0,0,8.6153-16.6867l-6.8173-21.3718a13.31777,13.31777,0,0,0-16.687-8.6156l-39.80209,12.6967a19.69271,19.69271,0,0,0-12.7392,24.6741l2.954,9.2608A19.6932,19.6932,0,0,0,436.64937,493.1025Z" fill="#fab280" fill-rule="evenodd"/><path d="M434.74027,487.116l10.0474-3.2057a7.05174,7.05174,0,0,0,4.5386-8.7905l-6.8174-21.3721a7.05183,7.05183,0,0,0-8.791-4.5389l-10.04749,3.2057a13.446,13.446,0,0,0-8.6626,16.7789l2.9537,9.2594A13.44589,13.44589,0,0,0,434.74027,487.116Z" fill="#ffd1cd" fill-rule="evenodd"/><path d="M442.287,431.5572l41.775-.5048a13.318,13.318,0,0,0,13.1179-13.4388l-.2713-22.4314a13.31781,13.31781,0,0,0-13.4387-13.1179l-41.7751.5051a19.69266,19.69266,0,0,0-19.39659,19.8715l.1174,9.7197A19.69264,19.69264,0,0,0,442.287,431.5572Z" fill="#fab280" fill-rule="evenodd"/><path d="M442.21127,425.2742l11.0183-.1335a7.05189,7.05189,0,0,0,6.9105-7.0798l-.2709-22.4311a7.05236,7.05236,0,0,0-7.0801-6.9106l-11.0177.1332a13.44625,13.44625,0,0,0-13.19019,13.5131l.1176,9.7186A13.44518,13.44518,0,0,0,442.21127,425.2742Z" fill="#ffd1cd" fill-rule="evenodd"/><path d="M455.67017,382.3999l41.775-.5048a13.31783,13.31783,0,0,0,13.1179-13.4388l-.2713-22.4311a13.31742,13.31742,0,0,0-13.4387-13.1179l-41.7751.5049a19.6929,19.6929,0,0,0-19.3966,19.8714l.1174,9.7197A19.69271,19.69271,0,0,0,455.67017,382.3999Z" fill="#fab280" fill-rule="evenodd"/><path d="M455.59477,376.1169l12.1385-.1465a7.0521,7.0521,0,0,0,6.9106-7.0801l-.271-22.4311a7.05223,7.05223,0,0,0-7.0801-6.9106l-12.1382.1465a13.44619,13.44619,0,0,0-13.1905,13.5131l.1177,9.7186A13.44569,13.44569,0,0,0,455.59477,376.1169Z" fill="#ffd1cd" fill-rule="evenodd"/><rect x="200.65735" y="531.1835" width="9.19336" height="210.15524" transform="translate(-456.22875 539.31804) rotate(-63.78303)" fill="#e51e55"/><circle cx="594.60872" cy="56.47268" r="56.47285" transform="translate(-2.05635 83.66609) rotate(-8.03485)" fill="#1981dc"/><circle cx="652.38132" cy="172.04335" r="56.47287" transform="translate(69.42505 511.69359) rotate(-45)" fill="#1981dc"/><circle cx="626.79545" cy="299.8326" r="56.47259" transform="translate(103.16072 756.53687) rotate(-66.65881)" fill="#1981dc"/><path d="M618.40747,48.8914V43.6813a1.61151,1.61151,0,0,0-1.6115-1.6112h-9.9102V38.5194a1.61125,1.61125,0,0,0-1.6112-1.6112h-18.7319a1.61151,1.61151,0,0,0-1.6115,1.6112v3.5507H575.021a1.61125,1.61125,0,0,0-1.6112,1.6112v5.2101h11.5214v3.2224h-11.5214V72.6783a1.61125,1.61125,0,0,0,1.6112,1.6112h14.25a1.61125,1.61125,0,0,0,1.6112-1.6112V62.5552a1.61144,1.61144,0,0,1,1.6115-1.6115h6.7853a1.61151,1.61151,0,0,1,1.6112,1.6115V72.6783a1.61125,1.61125,0,0,0,1.6112,1.6112h14.2949a1.61151,1.61151,0,0,0,1.6115-1.6112l-.0003-20.5645h-11.5214V48.8914Zm-19.0882-.1879h-1.7995v1.7991a1.61135,1.61135,0,1,1-3.2227,0V48.7035h-1.7994a1.61135,1.61135,0,0,1,0-3.2227h1.7994V43.6813a1.61135,1.61135,0,0,1,3.2227,0v1.7995h1.7995a1.61135,1.61135,0,0,1,0,3.2227Z" fill="#fff" fill-rule="evenodd"/><path d="M623.50527,278.0016a8.04442,8.04442,0,0,0-7.2689,4.5958h-8.8171v2.2984l4.5958,2.298v29.8738h-4.5958v4.5958h24.129V299.8327h10.3408v21.8307h9.1922v-4.5958h-4.5958V287.1938l4.5958-2.298v-2.2984h-20.3068a8.0442,8.0442,0,0,0-7.2692-4.5958Zm-1.5667,3.447h3.1334v4.1782h4.1783v3.1337H625.072v4.1783h-3.1334v-4.1783h-4.1783v-3.1337h4.1783v-4.1782Zm-4.1783,18.3841h8.0431v8.0427h-8.0431Z" fill="#fff" fill-rule="evenodd"/><path d="M667.13357,174.0611a4.0357,4.0357,0,1,0,4.036-4.0354,4.03673,4.03673,0,0,0-4.036,4.0354Zm-12.1048-28.2475a6.053,6.053,0,0,1,6.0531,6.052v8.0711a14.09173,14.09173,0,0,1-6.0531,11.5837,17.79006,17.79006,0,0,0-6.0536,12.6301,10.08835,10.08835,0,0,0,20.1767-.0017V181.849a8.07136,8.07136,0,1,1,4.0354,0v2.3015c0,.0331-.0006.0666-.0009.0998v.0079a14.12351,14.12351,0,0,1-28.2466-.1077,17.78665,17.78665,0,0,0-6.0126-12.6301,14.08491,14.08491,0,0,1-6.0928-11.582v-8.0711a6.05327,6.05327,0,0,1,6.0534-6.0537h2.0177a2.0177,2.0177,0,1,1,0,4.0354h-2.0177a2.01708,2.01708,0,0,0-2.018,2.0166v8.0711a10.08835,10.08835,0,0,0,20.1767.0017v-8.0711a2.0175,2.0175,0,0,0-2.0177-2.0183h-2.0177a2.0177,2.0177,0,1,1,0-4.0354Z" fill="#fff" fill-rule="evenodd"/><line x1="422.29648" y1="172.0434" x2="546.52847" y2="86.1097" fill="none" stroke="#000" stroke-linecap="round" stroke-linejoin="round" stroke-width="1.4173" stroke-dasharray="2.8346 7.0866"/><line x1="597.19407" y1="184.0796" x2="430.77208" y2="208.5585" fill="none" stroke="#000" stroke-linecap="round" stroke-linejoin="round" stroke-width="1.4173" stroke-dasharray="2.8346 7.0866"/><circle cx="645.17247" cy="81.6494" r="17.6193" fill="#fff"/><line x1="572.25657" y1="285.1259" x2="430.16488" y2="243.36" fill="none" stroke="#000" stroke-linecap="round" stroke-linejoin="round" stroke-width="1.4173" stroke-dasharray="2.8346 7.0866"/><circle cx="645.17247" cy="81.6494" r="14.455" fill="#1cce93"/><polygon points="639.653 77.97 643.332 81.649 650.692 74.29 654.372 77.97 643.332 89.009 635.973 81.649 639.653 77.97" fill="#fff" fill-rule="evenodd"/><circle cx="683.49922" cy="219.1768" r="17.61931" transform="translate(220.65722 767.79956) rotate(-67.62699)" fill="#fff"/><path d="M683.49917,233.6318a14.455,14.455,0,1,0-14.4547-14.455A14.48291,14.48291,0,0,0,683.49917,233.6318Z" fill="#1cce93" fill-rule="evenodd"/><polygon points="677.98 215.497 681.659 219.177 689.019 211.817 692.698 215.497 681.659 226.536 674.3 219.177 677.98 215.497" fill="#fff" fill-rule="evenodd"/><path d="M647.22527,370.1154a17.61915,17.61915,0,1,0-17.6193-17.619A17.65326,17.65326,0,0,0,647.22527,370.1154Z" fill="#fff" fill-rule="evenodd"/><path d="M647.22527,366.9511a14.45485,14.45485,0,1,0-14.4549-14.4547A14.48265,14.48265,0,0,0,647.22527,366.9511Z" fill="#1cce93" fill-rule="evenodd"/><polygon points="641.706 348.816 645.386 352.496 652.745 345.137 656.425 348.816 645.386 359.856 638.026 352.496 641.706 348.816" fill="#fff" fill-rule="evenodd"/></g></g></svg>