<svg width="64" height="64" viewBox="0 0 64 64" fill="none" xmlns="http://www.w3.org/2000/svg">
<path d="M58.825 13.175C60.3875 14.7375 60.3875 17.2625 58.825 18.825L42.825 34.825C41.2625 36.3875 38.7375 36.3875 37.175 34.825L29.8875 27.6625L18.825 38.825C17.2625 40.3875 14.7375 40.3875 13.175 38.825C11.61 37.2625 11.61 34.7375 13.175 33.175L27.175 19.175C28.7375 17.6125 31.2625 17.6125 32.825 19.175L40 26.3375L53.175 13.175C54.7375 11.61 57.2625 11.61 58.825 13.175Z" fill="#1EC69C"/>
<path opacity="0.4" d="M4 4C6.20875 4 8 5.79125 8 8V50C8 51.1 8.895 52 10 52H60C62.2125 52 64 53.7875 64 56C64 58.2125 62.2125 60 60 60H10C4.4775 60 0 55.525 0 50V8C0 5.79125 1.79125 4 4 4Z" fill="#1EC69C"/>
</svg>
