<svg width="100%" height="100%" viewBox="0 0 3667 1688" version="1.1" xmlns="http://www.w3.org/2000/svg" xmlns:xlink="http://www.w3.org/1999/xlink" xml:space="preserve" xmlns:serif="http://www.serif.com/" style="fill-rule:evenodd;clip-rule:evenodd;stroke-miterlimit:2.6131;"><g><g><g><g><path d="M502.312,1045.08l-460.708,0l0,-918.583l921.375,-0l0,918.5l-460.667,0l0,0.083Zm493.334,-951.25l-986.709,0l0,983.917l986.709,-0l-0,-983.917Z" style="fill:#80502e;"/><g><g><rect x="502.25" y="328.312" width="464.167" height="99.333" style="fill:#e5e5e5;"/><g><g><path d="M543.851,328.312l98.548,99.333l-48.973,0l-91.176,-91.902l0,-7.431l41.601,-0Zm211.445,99.333l-16.807,0l-98.539,-99.333l16.808,-0l98.538,99.333Zm63.766,0l-34.933,0l-98.541,-99.333l34.924,-0l98.55,99.333Z" style="fill:#fff;fill-opacity:0.5;"/></g></g></g><g><rect x="38.042" y="328.312" width="464.167" height="99.333" style="fill:#e5e5e5;"/><g><g><path d="M79.642,328.312l98.548,99.333l-48.973,0l-91.175,-91.902l-0,-7.431l41.6,-0Zm211.446,99.333l-16.808,0l-98.538,-99.333l16.807,-0l98.539,99.333Zm63.766,0l-34.933,0l-98.541,-99.333l34.924,-0l98.55,99.333Z" style="fill:#fff;fill-opacity:0.5;"/></g></g></g><g><rect x="502.229" y="225.833" width="464.167" height="99.333" style="fill:#e5e5e5;"/><g><g><path d="M543.83,225.833l98.548,99.334l-48.973,-0l-91.176,-91.902l0,-7.432l41.601,0Zm211.445,99.334l-16.807,-0l-98.539,-99.334l16.808,0l98.538,99.334Zm63.766,-0l-34.933,-0l-98.54,-99.334l34.923,0l98.55,99.334Z" style="fill:#fff;fill-opacity:0.5;"/></g></g></g><g><rect x="38.021" y="225.833" width="464.167" height="99.333" style="fill:#e5e5e5;"/><g><g><path d="M79.621,225.833l98.549,99.334l-48.973,-0l-91.176,-91.902l-0,-7.432l41.6,0Zm211.446,99.334l-16.808,-0l-98.538,-99.334l16.807,0l98.539,99.334Zm63.766,-0l-34.933,-0l-98.541,-99.334l34.924,0l98.55,99.334Z" style="fill:#fff;fill-opacity:0.5;"/></g></g></g><g><rect x="502.208" y="122.642" width="464.167" height="99.333" style="fill:#e5e5e5;"/><g><g><path d="M543.809,122.642l98.548,99.333l-48.973,0l-91.176,-91.902l0,-7.431l41.601,0Zm211.446,99.333l-16.808,0l-98.539,-99.333l16.808,0l98.539,99.333Zm63.765,0l-34.933,0l-98.54,-99.333l34.923,0l98.55,99.333Z" style="fill:#fff;fill-opacity:0.5;"/></g></g></g><g><rect x="38" y="122.642" width="464.167" height="99.333" style="fill:#e5e5e5;"/><g><g><path d="M79.601,122.642l98.548,99.333l-48.973,0l-91.176,-91.902l0,-7.431l41.601,0Zm211.445,99.333l-16.807,0l-98.539,-99.333l16.808,0l98.538,99.333Zm63.766,0l-34.933,0l-98.541,-99.333l34.924,0l98.55,99.333Z" style="fill:#fff;fill-opacity:0.5;"/></g></g></g><g><rect x="502.312" y="945.75" width="464.167" height="99.333" style="fill:#e5e5e5;"/><g><g><path d="M543.913,945.75l98.548,99.333l-48.973,0l-91.176,-91.902l0,-7.431l41.601,-0Zm211.446,99.333l-16.808,0l-98.539,-99.333l16.808,-0l98.539,99.333Zm63.766,0l-34.933,0l-98.541,-99.333l34.923,-0l98.551,99.333Z" style="fill:#fff;fill-opacity:0.5;"/></g></g></g><g><rect x="38.104" y="945.75" width="464.167" height="99.333" style="fill:#e5e5e5;"/><g><g><path d="M79.705,945.75l98.548,99.333l-48.973,0l-91.176,-91.902l0,-7.431l41.601,-0Zm211.445,99.333l-16.807,0l-98.539,-99.333l16.808,-0l98.538,99.333Zm63.766,0l-34.933,0l-98.54,-99.333l34.923,-0l98.55,99.333Z" style="fill:#fff;fill-opacity:0.5;"/></g></g></g><g><rect x="502.292" y="842.875" width="464.167" height="99.333" style="fill:#e5e5e5;"/><g><g><path d="M543.892,842.875l98.548,99.333l-48.973,0l-91.175,-91.902l-0,-7.431l41.6,0Zm211.446,99.333l-16.808,0l-98.538,-99.333l16.807,0l98.539,99.333Zm63.766,0l-34.933,0l-98.541,-99.333l34.924,0l98.55,99.333Z" style="fill:#fff;fill-opacity:0.5;"/></g></g></g><g><rect x="38.083" y="842.875" width="464.167" height="99.333" style="fill:#e5e5e5;"/><g><g><path d="M79.684,842.875l98.548,99.333l-48.973,0l-91.176,-91.902l0,-7.431l41.601,0Zm211.446,99.333l-16.808,0l-98.539,-99.333l16.808,0l98.539,99.333Zm63.765,0l-34.933,0l-98.54,-99.333l34.923,0l98.55,99.333Z" style="fill:#fff;fill-opacity:0.5;"/></g></g></g><g><rect x="502.271" y="740.042" width="464.167" height="99.333" style="fill:#e5e5e5;"/><g><g><path d="M543.871,740.042l98.549,99.333l-48.973,-0l-91.176,-91.902l-0,-7.431l41.6,-0Zm211.446,99.333l-16.808,-0l-98.538,-99.333l16.808,-0l98.538,99.333Zm63.766,-0l-34.933,-0l-98.541,-99.333l34.924,-0l98.55,99.333Z" style="fill:#fff;fill-opacity:0.5;"/></g></g></g><g><rect x="38.062" y="740.042" width="464.167" height="99.333" style="fill:#e5e5e5;"/><g><g><path d="M79.663,740.042l98.548,99.333l-48.973,-0l-91.176,-91.902l0,-7.431l41.601,-0Zm211.446,99.333l-16.808,-0l-98.539,-99.333l16.808,-0l98.539,99.333Zm63.766,-0l-34.933,-0l-98.541,-99.333l34.923,-0l98.551,99.333Z" style="fill:#fff;fill-opacity:0.5;"/></g></g></g><g><rect x="502.313" y="637.015" width="464.167" height="99.333" style="fill:#e5e5e5;"/><g><g><path d="M543.913,637.015l98.548,99.334l-48.973,-0l-91.175,-91.903l-0,-7.431l41.6,0Zm211.446,99.334l-16.808,-0l-98.539,-99.334l16.808,0l98.539,99.334Zm63.766,-0l-34.933,-0l-98.541,-99.334l34.923,0l98.551,99.334Z" style="fill:#fff;fill-opacity:0.5;"/></g></g></g><g><rect x="38.104" y="637.015" width="464.167" height="99.333" style="fill:#e5e5e5;"/><g><g><path d="M79.705,637.015l98.548,99.334l-48.973,-0l-91.176,-91.903l0,-7.431l41.601,0Zm211.445,99.334l-16.807,-0l-98.539,-99.334l16.808,0l98.538,99.334Zm63.766,-0l-34.933,-0l-98.54,-99.334l34.923,0l98.55,99.334Z" style="fill:#fff;fill-opacity:0.5;"/></g></g></g><g><rect x="502.313" y="534.296" width="464.167" height="99.333" style="fill:#e5e5e5;"/><g><g><path d="M543.913,534.296l98.548,99.333l-48.973,-0l-91.175,-91.902l-0,-7.431l41.6,-0Zm211.446,99.333l-16.808,-0l-98.539,-99.333l16.808,-0l98.539,99.333Zm63.766,-0l-34.933,-0l-98.541,-99.333l34.923,-0l98.551,99.333Z" style="fill:#fff;fill-opacity:0.5;"/></g></g></g><g><rect x="38.104" y="534.296" width="464.167" height="99.333" style="fill:#e5e5e5;"/><g><g><path d="M79.705,534.296l98.548,99.333l-48.973,-0l-91.176,-91.902l0,-7.431l41.601,-0Zm211.445,99.333l-16.807,-0l-98.539,-99.333l16.808,-0l98.538,99.333Zm63.766,-0l-34.933,-0l-98.54,-99.333l34.923,-0l98.55,99.333Z" style="fill:#fff;fill-opacity:0.5;"/></g></g></g><g><rect x="502.292" y="431.403" width="464.167" height="99.333" style="fill:#e5e5e5;"/><g><g><path d="M543.892,431.403l98.548,99.334l-48.973,-0l-91.175,-91.903l-0,-7.431l41.6,0Zm211.446,99.334l-16.808,-0l-98.538,-99.334l16.807,0l98.539,99.334Zm63.766,-0l-34.933,-0l-98.541,-99.334l34.924,0l98.55,99.334Z" style="fill:#fff;fill-opacity:0.5;"/></g></g></g><g><rect x="38.083" y="431.403" width="464.167" height="99.333" style="fill:#e5e5e5;"/><g><g><path d="M79.684,431.403l98.548,99.334l-48.973,-0l-91.176,-91.903l0,-7.431l41.601,0Zm211.446,99.334l-16.808,-0l-98.539,-99.334l16.808,0l98.539,99.334Zm63.765,-0l-34.933,-0l-98.54,-99.334l34.923,0l98.55,99.334Z" style="fill:#fff;fill-opacity:0.5;"/></g></g></g></g><path d="M502.312,111.375l0,948.833" style="fill:none;stroke:#80502e;stroke-width:11.81px;"/></g><path d="M1757.65,395.5l432.875,-0c14.875,-0 28.667,-4.958 39.791,-13.25c2.125,1.292 4.292,2.458 6.542,3.583c13.75,6.834 28.333,9.917 42.667,9.667c-13.334,-8.792 -23.792,-20.583 -30.875,-34.042c5.5,-9.666 8.625,-20.833 8.625,-32.708l-0,-32.75c-0,-36.708 -30.042,-66.75 -66.75,-66.75l-432.875,-0c-36.708,-0 -66.75,30.042 -66.75,66.75l-0,32.75c-0,36.708 30.041,66.75 66.75,66.75Z" style="fill:#e4e3e9;"/><path d="M1579.06,166.25l432.874,0c36.709,0 66.75,-30.042 66.75,-66.75l0,-32.75c0,-36.708 -30.041,-66.75 -66.749,-66.75l-432.875,0c-36.709,0 -66.75,30.042 -66.75,66.75l-0,32.75c-0,11.875 3.125,23.042 8.625,32.708c-7.084,13.459 -17.542,25.25 -30.875,34.042c14.333,0.25 28.916,-2.875 42.666,-9.667c2.25,-1.125 4.417,-2.291 6.542,-3.583c11.125,8.333 24.917,13.25 39.792,13.25Z" style="fill:#0b81ff;"/><path d="M1275.44,309.333l-0.001,-33.25c0,-7.166 -5.833,-13.041 -13.041,-13.041l-33.25,-0c-7.167,-0 -13.042,5.833 -13.042,13.041l0,33.25c0,7.167 5.833,13.042 13.042,13.042l33.25,-0c7.208,-0 13.041,-5.833 13.041,-13.042Zm-46.25,-72.75l33.25,0c7.167,0 13.042,-5.833 13.042,-13.041l0,-8.5c0,-5.5 3.208,-10.167 8.333,-12.125c39.209,-15.209 67.042,-53.334 67.042,-97.917c0,-57.958 -47,-104.958 -105,-104.958c-52.958,-0 -96.708,39.166 -103.917,90.125c-0.541,3.875 0.5,7.416 3.042,10.375c2.542,2.958 5.917,4.5 9.833,4.5l34.417,-0c6.125,-0 11.334,-4.125 12.708,-10.125c4.584,-20.042 22.5,-34.959 43.917,-34.959c24.875,0 45.084,20.167 45.084,45.084c-0,24.875 -20.167,45.083 -45.084,45.083l-16.625,-0c-7.167,-0 -13.041,5.833 -13.041,13.042l-0,60.458c-0.042,7.125 5.833,12.958 12.999,12.958Z" style="fill:#e61f54;"/><rect x="2675.19" y="1051.29" width="941.875" height="317.75" style="fill:#e5b789;"/><rect x="2675.19" y="1369.04" width="941.875" height="317.75" style="fill:#e5b789;"/><path d="M3657.73,93.833l-1023.21,0l-0,1592.96l40.666,-0l0,-635.5l941.875,-0l0,635.5l40.667,-0l0,-1592.96Z" style="fill:#80502e;"/><path d="M3617.06,552.25l-941.876,0l0.001,-417.75l941.874,0l0.001,417.75Z" style="fill:#53351b;"/><path d="M3617.06,592.875l-0.001,417.75l-941.874,0l-0.001,-417.75l941.876,0Z" style="fill:#53351b;"/><path d="M2808.85,757.667c25.542,-25.584 49.125,-50 24.833,-89.834c-19.041,57.417 -102.708,53.792 -102.666,133.542c-0,90.792 114.083,78.583 80.5,151.583c41.5,-71.708 -53.292,-61.083 -43.833,-132.083c3.416,-25.833 22.791,-44.833 41.166,-63.208Z" style="fill:#ffcb00;"/><path d="M2818.44,952.958c75.875,-72.625 64.458,-136.958 -9.584,-195.291c-18.333,18.375 -37.75,37.375 -41.166,63.208c-9.459,71 85.375,60.375 43.833,132.083l6.916,0Z" style="fill:#e39400;"/><path d="M2879.35,1010.62l0,-57.667l-116.75,0l0,57.667l116.75,0Z" style="fill:#e5b789;"/><rect x="2941.4" y="876.667" width="204.75" height="33.5" style="fill:#e5e5e5;"/><rect x="2941.4" y="910.167" width="204.75" height="33.5" style="fill:#e5e5e5;"/><path d="M3159.9,943.667l-232.25,-0l-0,66.958l232.25,0l-0,-66.958Z" style="fill:#876df3;"/><path d="M3248.35,1010.62l54.75,-240.125l0.292,-2.167l-70,-15.958l-55.25,242.25l70.208,16Z" style="fill:#f60;"/><path d="M3334.94,1010.62l38.624,-284.5l-63.249,-8.625l-6.917,50.833l0.166,0.042l-0.458,2.125l-31.458,231.542l63.291,8.583Z" style="fill:#215365;"/><rect x="3374.06" y="652.708" width="89.167" height="357.917" style="fill:#ff9866;"/><rect x="3471.27" y="738.5" width="63.875" height="272.125" style="fill:#cbff66;"/><rect x="3543.27" y="688.292" width="63.875" height="322.333" style="fill:#876df3;"/><path d="M2983.95,295.617l-71.179,10.829l37.368,245.626l71.179,-10.829l-37.368,-245.626Z" style="fill:#f60;"/><path d="M2909.96,261.645l-63.753,3.948l17.744,286.579l63.754,-3.947l-17.745,-286.58Z" style="fill:#876df3;"/><path d="M2756.94,229.917l-0.001,322.333l89.209,0l-0,-322.333l-89.208,-0Z" style="fill:#cbff66;"/><rect x="2684.94" y="229.917" width="63.875" height="322.333" style="fill:#ff9866;"/><path d="M3095.19,1174.79c-6.084,-0 -11.084,-5 -11.084,-11.084c0,-6.083 5,-11.083 11.083,-11.083l101.875,0c6.084,0 11.084,5 11.084,11.083c-0,6.084 -5,11.084 -11.084,11.084l-101.875,-0Z" style="fill:#80502e;"/><path d="M3084.1,1481.46c0,-6.083 5,-11.083 11.083,-11.083l101.875,0c6.084,0 11.084,5 11.084,11.083c-0,6.084 -5,11.084 -11.084,11.084l-101.875,-0c-6.083,-0 -11.083,-4.959 -11.083,-11.084Z" style="fill:#80502e;"/><path d="M3617.06,1369.04l-941.876,-0" style="fill:none;stroke:#80502e;stroke-width:5.91px;"/><path d="M2934.52,943.667l6.875,-0l-0,66.958l-6.875,0l-0,-66.958Zm14.458,-0l6.875,-0l0,66.958l-6.875,0l0,-66.958Z" style="fill:#6e58c5;"/><g><path d="M1116.15,1374.58l588.583,0l0,-669.083c0,-26.875 -21.958,-48.833 -48.833,-48.833l-490.917,-0c-26.875,-0 -48.833,21.958 -48.833,48.833l-0,669.083Z" style="fill:#989898;"/><path d="M1551.94,409.875c39.333,37.375 54.999,95.917 35.124,150.125c-1,2.708 -2.083,5.5 -3.291,8.375c-11,26.292 -30.584,58.667 -54.792,88.292c-19.458,23.791 -41.917,45.75 -65.375,61.375c-30.042,19.958 -61.667,29.416 -90.792,18.75c-29.333,-10.75 -47.416,-38.792 -57.416,-73.792c-0.584,-2.083 -1.167,-4.167 -1.667,-6.292c-16.042,-63.666 -6.958,-147.458 9.833,-193.25c26.667,-72.75 107.292,-110.125 180.042,-83.458c18.583,6.75 34.833,17.083 48.333,29.875Z" style="fill:#ed915d;"/><path d="M917.229,1309.54c0,17.708 14.5,32.208 32.209,32.208l134.499,0c17.709,0 32.209,-14.5 32.209,-32.208c-0,-17.709 -14.5,-32.209 -32.209,-32.209l-134.5,0c-17.708,0 -32.208,14.5 -32.208,32.209Z" style="fill:#808080;"/><rect x="989.354" y="1341.71" width="54.667" height="32.875" style="fill:#4d4d4d;"/><rect x="188.854" y="1565.17" width="2445.67" height="121.667" style="fill:#92654d;"/><path d="M2398.69,1374.58l-1974.04,0l-235.792,190.584l2445.67,-0l-235.833,-190.584Z" style="fill:#ff983b;"/><path d="M2326.44,1483.12c-14.626,33.292 -173.459,27.583 -185.667,0l-92.834,-249.375l371.376,-0l-92.876,249.375Z" style="fill:#49778e;"/><path d="M2498.77,1140.71c-83.125,-60.791 -177.084,-37.958 -223.417,22.167c-15.458,20.042 -25.625,44.25 -28.292,70.875l47.542,-0c13.584,-67.083 73.042,-75.708 109.792,-72.417c45.375,4.084 75.25,23.167 94.375,-20.625Z" style="fill:#1cce93;"/><path d="M2041.6,1261.67c39.083,-55.792 89.375,-99.625 142.083,-27.959c-5.958,-19.75 -13.083,-36.791 -21.083,-51.708c-5.75,-10.667 -11.916,-20.25 -18.5,-28.958c-111.208,-47.292 -193.75,48.833 -174.292,156.5c22.5,7.5 52.501,-20.292 71.792,-47.875Z" style="fill:#1cce93;"/><path d="M2144.1,1153.04c6.542,8.708 12.75,18.291 18.5,28.958c8.042,14.917 15.167,31.958 21.083,51.708l46.5,0c-3.416,-14.708 -7.208,-28.833 -11.333,-42.25c-3.292,-10.666 -6.792,-20.916 -10.542,-30.75c-6.791,-17.833 -14.333,-34.25 -22.666,-49.208c-46.042,-82.75 -116.209,-121.333 -215.792,-106.208c45.042,64.666 121.292,77.458 174.25,147.75Z" style="fill:#1cce93;"/><path d="M2208.31,1160.75c3.749,9.833 7.249,20.083 10.541,30.75c2.292,-38.542 9.5,-66.875 20.083,-88.292c-28.083,-169.916 120.542,-142.166 141.125,-224.125c-130.916,-5.583 -224.083,37.542 -194.375,232.459c8.292,14.958 15.834,31.375 22.625,49.208Z" style="fill:#1cce93;"/><path d="M2238.9,1103.17c-10.584,21.458 -17.75,49.75 -20.042,88.291c4.125,13.417 7.917,27.542 11.334,42.25l16.916,0c2.708,-26.625 12.833,-50.833 28.292,-70.875c33.083,-107.375 170.833,-57.958 152.375,-197.666c-54.459,75.208 -147.542,54.041 -188.875,138Z" style="fill:#1cce93;"/><path d="M2162.6,1182c-79.167,-32.667 -124.167,1.5 -158.333,51.708m212.125,0c-41.292,-133.166 -99.917,-186.375 -165.334,-208.375m179.084,208.375c2.708,-152.125 109.875,-167.291 180.708,-222.958m-147.25,222.958c31.625,-91.916 106.75,-118.041 199.375,-87.5m-254.667,14.542c-17.083,-135.375 11.917,-233.958 112.25,-255.542" style="fill:none;stroke:#15956c;stroke-width:4.13px;stroke-linecap:round;stroke-linejoin:round;"/><path d="M1107.35,1423.29l-372.375,-0l-134.708,123.333l641.791,0l-134.708,-123.333Z" style="fill:#fff;"/><path d="M1704.73,1309.54c0,17.708 14.5,32.208 32.208,32.208l134.5,0c17.709,0 32.209,-14.5 32.209,-32.208c-0,-17.709 -14.5,-32.209 -32.209,-32.209l-134.499,0c-17.709,0 -32.209,14.5 -32.209,32.209Z" style="fill:#808080;"/><rect x="1776.85" y="1341.71" width="54.667" height="32.875" style="fill:#4d4d4d;"/><path d="M942.646,1278.04c-2.375,10.625 -5.417,22.125 -8.167,34.541c-4.667,-3.083 -9.417,-6.083 -14.292,-8.958c-0.708,-0.417 -1.416,-0.833 -2.125,-1.208c-6.458,-3.375 -13.416,-4.917 -20.291,-4.625c-6.917,0.291 -13.75,2.416 -20.042,6.416l-65.5,41.375c-4.25,-78.291 -6.167,-138.291 39.292,-149.791c12.041,-3.042 27.416,-2.709 46.916,1.625c27.209,8.208 40.375,19.25 45.625,33.25c4.875,13.166 2.75,28.916 -1.416,47.375Z" style="fill:#ed915d;"/><path d="M944.021,1230.62c36.75,-53.458 71.916,-122.625 95.583,-182.042c-42.291,-8.416 -78.958,-24.166 -111.041,-45.875c-27.5,45.084 -62.25,137.125 -77.084,193.042c12.042,-3.042 27.417,-2.708 46.917,1.625c27.208,8.25 40.417,19.292 45.625,33.25Z" style="fill:#ed915d;"/><path d="M1316.35,1090.92c18.125,55 22.625,61.166 80.208,57.708c11.292,-0.667 21.292,6.167 24.709,16.917c25.333,79.083 32.958,142.583 58.875,209.083l157.541,-0c34.417,-79.625 50.875,-184.958 53.209,-273.333c-43.292,14.333 -89.542,17.125 -138.042,11.333c-6.542,37.125 -11.458,73.875 -14.708,110.208c-7.209,-11.875 -14.375,-25.333 -21.125,-41.625c-31.792,-76.791 -34.042,-132.375 -118.833,-177.416l6.833,36.791l-103.875,0.167l-5.583,-0c-4.334,-0 -8.125,1.542 -10.75,4.958c-5.834,7.667 -0.625,22.25 8.833,24.209c12.541,2.583 18.708,8.833 22.708,21Z" style="fill:#ed915d;"/><path d="M1552.9,1112.58c48.5,5.792 94.75,3.042 138.042,-11.333c4.625,-1.542 9.25,-3.208 13.833,-5.042c6,-2.375 11.917,-4.958 17.75,-7.833c3.792,-70 -1.583,-118.458 -17.75,-153.5c-9.542,-20.625 -22.833,-36.667 -40.208,-49.708c-54.292,-40.75 -130.25,-51.334 -174.5,-78.667l-101.542,145l-6.708,9.583l-42.75,-7.833l-42.834,-7.875l-4.333,-16.708l-33.208,-128.542c-33.459,25.292 -77.959,35.417 -123.542,27.125c24.292,-18.375 31.583,-49.75 33.417,-86.667c-19.417,1 -36.792,3.125 -52.459,6.209c-157.333,31.125 -138.666,160.5 -210.333,238.958c7.333,6 14.917,11.667 22.75,16.958c32.083,21.667 68.75,37.459 111.042,45.875c5.333,1.042 10.75,2 16.291,2.834c-9.625,53.333 11.959,83.333 54.792,127.958c1.917,2 3.708,4.125 5.458,6.333c28.167,36.667 29.667,105.25 17.834,188.834l346.166,-0c-25.916,-66.5 -33.5,-129.959 -58.875,-209.084c-3.458,-10.75 -13.416,-17.583 -24.708,-16.916c-57.583,3.458 -62.083,-2.667 -80.208,-57.709c-4,-12.166 -10.167,-18.416 -22.709,-21c-9.5,-1.958 -14.708,-16.541 -8.833,-24.208c2.625,-3.458 6.458,-4.958 10.75,-4.958l5.583,-0l103.875,-0.167l-6.833,-36.792c84.792,45.042 87.042,100.667 118.833,177.417c6.75,16.292 13.917,29.75 21.125,41.625c3.334,-36.333 8.209,-73.083 14.792,-110.167Z" style="fill:#686fc9;"/><path d="M1258.69,800.167l33.208,128.541l4.333,16.709l42.833,7.875l42.75,7.833l6.709,-9.583l-3,-16.167l3,16.167l101.541,-145c-17.291,-10.667 -29.708,-23.875 -34.166,-42.417c-0.584,7.792 -0.75,15.5 -0.584,23.167l-98.999,141.416l-17.209,24.584l-6.333,-24.584l-42,-162.583c-8.875,13.333 -19.709,24.708 -32.084,34.042Z" style="fill:#3a429d;"/><path d="M1332.73,928.708l6.333,24.584l17.209,-24.584l99,-141.416c-0.167,-7.667 0.041,-15.417 0.583,-23.167c1.125,-15.167 3.667,-30.542 7.667,-46.125c-30.042,19.958 -61.667,29.417 -90.792,18.75c-29.333,-10.75 -47.417,-38.792 -57.417,-73.792c2.875,41.334 -6.75,76.209 -24.666,103.209l42.083,162.541Z" style="fill:#d27845;"/><path d="M1287.35,928.708l90.167,0c3.958,0 7.292,2.75 8,6.667l3,16.167l9.667,52.166l6.833,36.792l-103.875,0.167l-21.75,-102.125c-0.542,-2.5 0.042,-4.834 1.625,-6.834c1.583,-1.958 3.792,-3 6.333,-3Z" style="fill:#fff;"/><path d="M1313.69,656.667c-16.042,-63.667 -6.959,-147.459 9.833,-193.25c-142.959,14.416 -155.417,104.375 -155.167,193.25c0.083,29 1.5,57.875 0.208,84c-1.833,36.916 -9.125,68.333 -33.416,86.666c45.583,8.292 90.083,-1.875 123.541,-27.125c12.334,-9.333 23.167,-20.75 32,-34.041c17.917,-27 27.542,-61.875 24.667,-103.209c-0.542,-2.083 -1.125,-4.208 -1.667,-6.291Z" style="fill:#97003d;"/><path d="M1323.56,463.375c68.208,49.25 180.791,27.625 223.499,-44.458c1.5,-3.042 3.125,-6.084 4.875,-9.042c-13.5,-12.792 -29.75,-23.125 -48.333,-29.958c-72.75,-26.667 -153.375,10.708 -180.042,83.458Z" style="fill:#650028;"/><path d="M1547.06,418.958c-28.251,57.834 -9.084,125.375 36.666,149.417c1.208,-2.875 2.292,-5.667 3.292,-8.375c19.875,-54.208 4.208,-112.75 -35.125,-150.125c-1.458,3.125 -3.083,6.125 -4.833,9.083Z" style="fill:#650028;"/><path d="M1379.15,652c1.583,1.667 3.208,3.208 4.917,4.625c11.708,9.958 26.291,14.708 44.25,13.167c1.083,-0.084 2.041,0.375 2.625,1.291c0.583,0.917 0.583,1.959 0.083,2.917c-7.292,12.667 -22.834,18.625 -37.042,13.417c-13.083,-4.792 -20.917,-17.584 -20,-30.792c0.083,-1.042 0.208,-2.125 0.375,-3.208c0.167,-1.084 0.917,-1.875 1.958,-2.209c1,-0.25 2.084,0 2.834,0.792Z" style="fill:#fff;"/><path d="M1084.06,971.708c-15.042,32.209 -24.209,57.917 -28.126,79.75" style="fill:none;stroke:#414898;stroke-width:4.13px;"/><path d="M1600.52,1334.54c-12.917,-50 -38.042,-71.792 -62.333,-111.75" style="fill:none;stroke:#c87844;stroke-width:2.95px;stroke-linecap:round;stroke-linejoin:round;"/><path d="M1583.73,977.125c-12.75,45.708 -23,90.875 -30.875,135.417" style="fill:none;stroke:#3a429d;stroke-width:4.13px;"/><path d="M965.771,1485.96c-1.584,0 -2.834,-1.291 -2.834,-2.833c0,-1.583 1.292,-2.833 2.834,-2.833l152.416,-0c1.584,-0 2.834,1.291 2.834,2.833c-0,1.583 -1.292,2.833 -2.834,2.833l-152.416,0Zm-102.917,25.917c-1.583,-0 -2.833,-1.292 -2.833,-2.833c-0,-1.584 1.291,-2.834 2.833,-2.834l291.333,0c1.584,0 2.834,1.292 2.834,2.834c-0,1.583 -1.292,2.833 -2.834,2.833l-291.333,-0Z" style="fill:#49778e;"/><path d="M920.187,1285.29l6.167,27.333l6.292,27.917l7.666,34.041l0.917,4l10.083,44.667l4.834,21.542l1.792,7.875l-0.25,27.333l-14.917,-24.417l-2.458,-7.291l-8.417,-25l-11.083,-32.875l-5.334,-15.792l-25.833,-76.75l-12.042,-35.75c-1.583,-4.667 -1.208,-9.208 1.042,-13.583c4.625,-9 17,-12.709 25.833,-7.584c4.375,2.542 7.167,6.375 8.292,11.292l7.416,33.042Z" style="fill:#666;"/><path d="M851.479,1195.79c12.042,-3.042 27.417,-2.709 46.917,1.625c27.208,8.208 40.375,19.25 45.625,33.25" style="fill:none;stroke:#c87844;stroke-width:2.95px;stroke-linecap:round;stroke-linejoin:round;"/><path d="M1375.15,944.875c-0.667,-2.083 -2.792,-3.25 -4.792,-2.583c-2,0.625 -3.083,2.833 -2.417,4.875c0.667,2.083 2.792,3.25 4.792,2.583c1.958,-0.625 3.042,-2.833 2.417,-4.875Z" style="fill:#1a1a1a;"/><path d="M1378.94,959.458c-0.667,-2.083 -2.792,-3.25 -4.792,-2.583c-2,0.625 -3.084,2.833 -2.417,4.875c0.667,2.083 2.792,3.25 4.792,2.583c2,-0.625 3.083,-2.791 2.416,-4.875Z" style="fill:#1a1a1a;"/><path d="M921.146,1391.46l-0.375,-1.083l-5.333,-15.792l-25.459,-75.666l-2.333,-7c-19.209,0.666 -53.709,10.708 -61.375,13.166c-15.792,9.917 -2.625,22.875 -14.417,33.167c-1.5,1.292 -3.375,2.542 -5.75,3.75c-18.042,9.042 -6.5,20.667 -9.5,32.542c-0.625,2.416 -1.833,4.875 -4,7.291c-8.375,9.292 -1.75,26.959 7.542,41.375c6.166,9.625 13.541,17.834 18.333,21.209c18.417,12.833 60,15.833 91.292,11.958c12.625,-1.583 23.583,-4.292 30.625,-7.917c5.291,-2.75 8.375,-6 8.375,-9.708c-0,-6.25 -0.042,-11.292 -0.292,-15.5c-0.167,-2.833 -0.417,-5.292 -0.791,-7.417c-2.126,-11.625 -8.376,-14.791 -26.542,-24.375Z" style="fill:#ed915d;"/><path d="M944.896,1390.88c-14.5,13.208 -27.708,-2.917 -23.417,-20.625c5,-20.625 6.708,-28.417 6.708,-49.458l-1.833,-8.209l-1.375,-6.041l-1.708,-7.625c4.916,1.208 9.375,2.458 13.5,3.75c20.042,6.458 31,15.375 35.791,39.041c1.75,8.75 2.709,19.5 2.917,32.875c0.042,3.542 0.083,7.25 0.042,11.167c-0.125,15.917 -12.667,24.25 -26.084,29.417l-5.333,-23.584c0.292,-0.25 0.542,-0.458 0.792,-0.708Z" style="fill:#ed915d;"/><path d="M960.396,1363.71c-18.125,51.792 -44.75,30.667 -38.917,6.542c5,-20.625 6.708,-28.417 6.708,-49.458" style="fill:none;stroke:#c87844;stroke-width:2.95px;stroke-linecap:round;stroke-linejoin:round;"/><path d="M867.062,1328.04c0,3.25 -1.041,17.333 -0.708,19.583c3.417,21.792 38.208,35 47.667,40.083c33.5,17.917 34.666,15.334 34.666,51.084c0,20.916 -98.833,27.583 -130.333,5.708c-12.042,-8.375 -39.833,-47.083 -25.875,-62.583c12.958,-14.375 -8.208,-28.959 13.5,-39.834c21.292,-10.708 2.417,-25.75 20.167,-36.916c7.708,-2.459 42.208,-12.5 61.375,-13.167m35.708,6.917c39.958,9.958 52.792,19.833 52.25,86.833c-0.125,16.625 -13.792,24.958 -27.833,30.083" style="fill:none;stroke:#c87844;stroke-width:2.95px;stroke-linecap:round;stroke-linejoin:round;"/><path d="M948.437,1423.29c-28.291,0.458 -66.541,-11.667 -88.458,-27.542" style="fill:none;stroke:#c87844;stroke-width:2.95px;stroke-linecap:round;stroke-linejoin:round;"/><path d="M945.854,1444.67c-28.625,3.5 -61.583,-1.334 -89.333,-11.125" style="fill:none;stroke:#c87844;stroke-width:2.95px;stroke-linecap:round;stroke-linejoin:round;"/></g><g><path d="M1116.15,1374.58l588.583,0l0,-669.083c0,-26.875 -21.958,-48.833 -48.833,-48.833l-490.917,-0c-26.875,-0 -48.833,21.958 -48.833,48.833l-0,669.083Z" style="fill:#989898;"/><path d="M1551.94,409.875c39.333,37.375 54.999,95.917 35.124,150.125c-1,2.708 -2.083,5.5 -3.291,8.375c-11,26.292 -30.584,58.667 -54.792,88.292c-19.458,23.791 -41.917,45.75 -65.375,61.375c-30.042,19.958 -61.667,29.416 -90.792,18.75c-29.333,-10.75 -47.416,-38.792 -57.416,-73.792c-0.584,-2.083 -1.167,-4.167 -1.667,-6.292c-16.042,-63.666 -6.958,-147.458 9.833,-193.25c26.667,-72.75 107.292,-110.125 180.042,-83.458c18.583,6.75 34.833,17.083 48.333,29.875Z" style="fill:#ed915d;"/><path d="M917.229,1309.54c0,17.708 14.5,32.208 32.209,32.208l134.499,0c17.709,0 32.209,-14.5 32.209,-32.208c-0,-17.709 -14.5,-32.209 -32.209,-32.209l-134.5,0c-17.708,0 -32.208,14.5 -32.208,32.209Z" style="fill:#808080;"/><rect x="989.354" y="1341.71" width="54.667" height="32.875" style="fill:#4d4d4d;"/><rect x="188.854" y="1565.17" width="2445.67" height="121.667" style="fill:#92654d;"/><path d="M2398.69,1374.58l-1974.04,0l-235.792,190.584l2445.67,-0l-235.833,-190.584Z" style="fill:#ff983b;"/><path d="M2326.44,1483.12c-14.626,33.292 -173.459,27.583 -185.667,0l-92.834,-249.375l371.376,-0l-92.876,249.375Z" style="fill:#49778e;"/><path d="M2498.77,1140.71c-83.125,-60.791 -177.084,-37.958 -223.417,22.167c-15.458,20.042 -25.625,44.25 -28.292,70.875l47.542,-0c13.584,-67.083 73.042,-75.708 109.792,-72.417c45.375,4.084 75.25,23.167 94.375,-20.625Z" style="fill:#1cce93;"/><path d="M2041.6,1261.67c39.083,-55.792 89.375,-99.625 142.083,-27.959c-5.958,-19.75 -13.083,-36.791 -21.083,-51.708c-5.75,-10.667 -11.916,-20.25 -18.5,-28.958c-111.208,-47.292 -193.75,48.833 -174.292,156.5c22.5,7.5 52.501,-20.292 71.792,-47.875Z" style="fill:#1cce93;"/><path d="M2144.1,1153.04c6.542,8.708 12.75,18.291 18.5,28.958c8.042,14.917 15.167,31.958 21.083,51.708l46.5,0c-3.416,-14.708 -7.208,-28.833 -11.333,-42.25c-3.292,-10.666 -6.792,-20.916 -10.542,-30.75c-6.791,-17.833 -14.333,-34.25 -22.666,-49.208c-46.042,-82.75 -116.209,-121.333 -215.792,-106.208c45.042,64.666 121.292,77.458 174.25,147.75Z" style="fill:#1cce93;"/><path d="M2208.31,1160.75c3.749,9.833 7.249,20.083 10.541,30.75c2.292,-38.542 9.5,-66.875 20.083,-88.292c-28.083,-169.916 120.542,-142.166 141.125,-224.125c-130.916,-5.583 -224.083,37.542 -194.375,232.459c8.292,14.958 15.834,31.375 22.625,49.208Z" style="fill:#1cce93;"/><path d="M2238.9,1103.17c-10.584,21.458 -17.75,49.75 -20.042,88.291c4.125,13.417 7.917,27.542 11.334,42.25l16.916,0c2.708,-26.625 12.833,-50.833 28.292,-70.875c33.083,-107.375 170.833,-57.958 152.375,-197.666c-54.459,75.208 -147.542,54.041 -188.875,138Z" style="fill:#1cce93;"/><path d="M2162.6,1182c-79.167,-32.667 -124.167,1.5 -158.333,51.708m212.125,0c-41.292,-133.166 -99.917,-186.375 -165.334,-208.375m179.084,208.375c2.708,-152.125 109.875,-167.291 180.708,-222.958m-147.25,222.958c31.625,-91.916 106.75,-118.041 199.375,-87.5m-254.667,14.542c-17.083,-135.375 11.917,-233.958 112.25,-255.542" style="fill:none;stroke:#15956c;stroke-width:4.13px;stroke-linecap:round;stroke-linejoin:round;"/><path d="M1107.35,1423.29l-372.375,-0l-134.708,123.333l641.791,0l-134.708,-123.333Z" style="fill:#fff;"/><path d="M1704.73,1309.54c0,17.708 14.5,32.208 32.208,32.208l134.5,0c17.709,0 32.209,-14.5 32.209,-32.208c-0,-17.709 -14.5,-32.209 -32.209,-32.209l-134.499,0c-17.709,0 -32.209,14.5 -32.209,32.209Z" style="fill:#808080;"/><rect x="1776.85" y="1341.71" width="54.667" height="32.875" style="fill:#4d4d4d;"/><path d="M942.646,1278.04c-2.375,10.625 -5.417,22.125 -8.167,34.541c-4.667,-3.083 -9.417,-6.083 -14.292,-8.958c-0.708,-0.417 -1.416,-0.833 -2.125,-1.208c-6.458,-3.375 -13.416,-4.917 -20.291,-4.625c-6.917,0.291 -13.75,2.416 -20.042,6.416l-65.5,41.375c-4.25,-78.291 -6.167,-138.291 39.292,-149.791c12.041,-3.042 27.416,-2.709 46.916,1.625c27.209,8.208 40.375,19.25 45.625,33.25c4.875,13.166 2.75,28.916 -1.416,47.375Z" style="fill:#ed915d;"/><path d="M944.021,1230.62c36.75,-53.458 71.916,-122.625 95.583,-182.042c-42.291,-8.416 -78.958,-24.166 -111.041,-45.875c-27.5,45.084 -62.25,137.125 -77.084,193.042c12.042,-3.042 27.417,-2.708 46.917,1.625c27.208,8.25 40.417,19.292 45.625,33.25Z" style="fill:#ed915d;"/><path d="M1316.35,1090.92c18.125,55 22.625,61.166 80.208,57.708c11.292,-0.667 21.292,6.167 24.709,16.917c25.333,79.083 32.958,142.583 58.875,209.083l157.541,-0c34.417,-79.625 50.875,-184.958 53.209,-273.333c-43.292,14.333 -89.542,17.125 -138.042,11.333c-6.542,37.125 -11.458,73.875 -14.708,110.208c-7.209,-11.875 -14.375,-25.333 -21.125,-41.625c-31.792,-76.791 -34.042,-132.375 -118.833,-177.416l6.833,36.791l-103.875,0.167l-5.583,-0c-4.334,-0 -8.125,1.542 -10.75,4.958c-5.834,7.667 -0.625,22.25 8.833,24.209c12.541,2.583 18.708,8.833 22.708,21Z" style="fill:#ed915d;"/><path d="M1552.9,1112.58c48.5,5.792 94.75,3.042 138.042,-11.333c4.625,-1.542 9.25,-3.208 13.833,-5.042c6,-2.375 11.917,-4.958 17.75,-7.833c3.792,-70 -1.583,-118.458 -17.75,-153.5c-9.542,-20.625 -22.833,-36.667 -40.208,-49.708c-54.292,-40.75 -130.25,-51.334 -174.5,-78.667l-101.542,145l-6.708,9.583l-42.75,-7.833l-42.834,-7.875l-4.333,-16.708l-33.208,-128.542c-33.459,25.292 -77.959,35.417 -123.542,27.125c24.292,-18.375 31.583,-49.75 33.417,-86.667c-19.417,1 -36.792,3.125 -52.459,6.209c-157.333,31.125 -138.666,160.5 -210.333,238.958c7.333,6 14.917,11.667 22.75,16.958c32.083,21.667 68.75,37.459 111.042,45.875c5.333,1.042 10.75,2 16.291,2.834c-9.625,53.333 11.959,83.333 54.792,127.958c1.917,2 3.708,4.125 5.458,6.333c28.167,36.667 29.667,105.25 17.834,188.834l346.166,-0c-25.916,-66.5 -33.5,-129.959 -58.875,-209.084c-3.458,-10.75 -13.416,-17.583 -24.708,-16.916c-57.583,3.458 -62.083,-2.667 -80.208,-57.709c-4,-12.166 -10.167,-18.416 -22.709,-21c-9.5,-1.958 -14.708,-16.541 -8.833,-24.208c2.625,-3.458 6.458,-4.958 10.75,-4.958l5.583,-0l103.875,-0.167l-6.833,-36.792c84.792,45.042 87.042,100.667 118.833,177.417c6.75,16.292 13.917,29.75 21.125,41.625c3.334,-36.333 8.209,-73.083 14.792,-110.167Z" style="fill:#686fc9;"/><path d="M1258.69,800.167l33.208,128.541l4.333,16.709l42.833,7.875l42.75,7.833l6.709,-9.583l-3,-16.167l3,16.167l101.541,-145c-17.291,-10.667 -29.708,-23.875 -34.166,-42.417c-0.584,7.792 -0.75,15.5 -0.584,23.167l-98.999,141.416l-17.209,24.584l-6.333,-24.584l-42,-162.583c-8.875,13.333 -19.709,24.708 -32.084,34.042Z" style="fill:#3a429d;"/><path d="M1332.73,928.708l6.333,24.584l17.209,-24.584l99,-141.416c-0.167,-7.667 0.041,-15.417 0.583,-23.167c1.125,-15.167 3.667,-30.542 7.667,-46.125c-30.042,19.958 -61.667,29.417 -90.792,18.75c-29.333,-10.75 -47.417,-38.792 -57.417,-73.792c2.875,41.334 -6.75,76.209 -24.666,103.209l42.083,162.541Z" style="fill:#d27845;"/><path d="M1287.35,928.708l90.167,0c3.958,0 7.292,2.75 8,6.667l3,16.167l9.667,52.166l6.833,36.792l-103.875,0.167l-21.75,-102.125c-0.542,-2.5 0.042,-4.834 1.625,-6.834c1.583,-1.958 3.792,-3 6.333,-3Z" style="fill:#fff;"/><path d="M1313.69,656.667c-16.042,-63.667 -6.959,-147.459 9.833,-193.25c-142.959,14.416 -155.417,104.375 -155.167,193.25c0.083,29 1.5,57.875 0.208,84c-1.833,36.916 -9.125,68.333 -33.416,86.666c45.583,8.292 90.083,-1.875 123.541,-27.125c12.334,-9.333 23.167,-20.75 32,-34.041c17.917,-27 27.542,-61.875 24.667,-103.209c-0.542,-2.083 -1.125,-4.208 -1.667,-6.291Z" style="fill:#97003d;"/><path d="M1323.56,463.375c68.208,49.25 180.791,27.625 223.499,-44.458c1.5,-3.042 3.125,-6.084 4.875,-9.042c-13.5,-12.792 -29.75,-23.125 -48.333,-29.958c-72.75,-26.667 -153.375,10.708 -180.042,83.458Z" style="fill:#650028;"/><path d="M1547.06,418.958c-28.251,57.834 -9.084,125.375 36.666,149.417c1.208,-2.875 2.292,-5.667 3.292,-8.375c19.875,-54.208 4.208,-112.75 -35.125,-150.125c-1.458,3.125 -3.083,6.125 -4.833,9.083Z" style="fill:#650028;"/><path d="M1379.15,652c1.583,1.667 3.208,3.208 4.917,4.625c11.708,9.958 26.291,14.708 44.25,13.167c1.083,-0.084 2.041,0.375 2.625,1.291c0.583,0.917 0.583,1.959 0.083,2.917c-7.292,12.667 -22.834,18.625 -37.042,13.417c-13.083,-4.792 -20.917,-17.584 -20,-30.792c0.083,-1.042 0.208,-2.125 0.375,-3.208c0.167,-1.084 0.917,-1.875 1.958,-2.209c1,-0.25 2.084,0 2.834,0.792Z" style="fill:#fff;"/><path d="M1084.06,971.708c-15.042,32.209 -24.209,57.917 -28.126,79.75" style="fill:none;stroke:#414898;stroke-width:4.13px;"/><path d="M1600.52,1334.54c-12.917,-50 -38.042,-71.792 -62.333,-111.75" style="fill:none;stroke:#c87844;stroke-width:2.95px;stroke-linecap:round;stroke-linejoin:round;"/><path d="M1583.73,977.125c-12.75,45.708 -23,90.875 -30.875,135.417" style="fill:none;stroke:#3a429d;stroke-width:4.13px;"/><path d="M965.771,1485.96c-1.584,0 -2.834,-1.291 -2.834,-2.833c0,-1.583 1.292,-2.833 2.834,-2.833l152.416,-0c1.584,-0 2.834,1.291 2.834,2.833c-0,1.583 -1.292,2.833 -2.834,2.833l-152.416,0Zm-102.917,25.917c-1.583,-0 -2.833,-1.292 -2.833,-2.833c-0,-1.584 1.291,-2.834 2.833,-2.834l291.333,0c1.584,0 2.834,1.292 2.834,2.834c-0,1.583 -1.292,2.833 -2.834,2.833l-291.333,-0Z" style="fill:#49778e;"/><path d="M920.187,1285.29l6.167,27.333l6.292,27.917l7.666,34.041l0.917,4l10.083,44.667l4.834,21.542l1.792,7.875l-0.25,27.333l-14.917,-24.417l-2.458,-7.291l-8.417,-25l-11.083,-32.875l-5.334,-15.792l-25.833,-76.75l-12.042,-35.75c-1.583,-4.667 -1.208,-9.208 1.042,-13.583c4.625,-9 17,-12.709 25.833,-7.584c4.375,2.542 7.167,6.375 8.292,11.292l7.416,33.042Z" style="fill:#666;"/><path d="M851.479,1195.79c12.042,-3.042 27.417,-2.709 46.917,1.625c27.208,8.208 40.375,19.25 45.625,33.25" style="fill:none;stroke:#c87844;stroke-width:2.95px;stroke-linecap:round;stroke-linejoin:round;"/><path d="M1375.15,944.875c-0.667,-2.083 -2.792,-3.25 -4.792,-2.583c-2,0.625 -3.083,2.833 -2.417,4.875c0.667,2.083 2.792,3.25 4.792,2.583c1.958,-0.625 3.042,-2.833 2.417,-4.875Z" style="fill:#1a1a1a;"/><path d="M1378.94,959.458c-0.667,-2.083 -2.792,-3.25 -4.792,-2.583c-2,0.625 -3.084,2.833 -2.417,4.875c0.667,2.083 2.792,3.25 4.792,2.583c2,-0.625 3.083,-2.791 2.416,-4.875Z" style="fill:#1a1a1a;"/><path d="M921.146,1391.46l-0.375,-1.083l-5.333,-15.792l-25.459,-75.666l-2.333,-7c-19.209,0.666 -53.709,10.708 -61.375,13.166c-15.792,9.917 -2.625,22.875 -14.417,33.167c-1.5,1.292 -3.375,2.542 -5.75,3.75c-18.042,9.042 -6.5,20.667 -9.5,32.542c-0.625,2.416 -1.833,4.875 -4,7.291c-8.375,9.292 -1.75,26.959 7.542,41.375c6.166,9.625 13.541,17.834 18.333,21.209c18.417,12.833 60,15.833 91.292,11.958c12.625,-1.583 23.583,-4.292 30.625,-7.917c5.291,-2.75 8.375,-6 8.375,-9.708c-0,-6.25 -0.042,-11.292 -0.292,-15.5c-0.167,-2.833 -0.417,-5.292 -0.791,-7.417c-2.126,-11.625 -8.376,-14.791 -26.542,-24.375Z" style="fill:#ed915d;"/><path d="M944.896,1390.88c-14.5,13.208 -27.708,-2.917 -23.417,-20.625c5,-20.625 6.708,-28.417 6.708,-49.458l-1.833,-8.209l-1.375,-6.041l-1.708,-7.625c4.916,1.208 9.375,2.458 13.5,3.75c20.042,6.458 31,15.375 35.791,39.041c1.75,8.75 2.709,19.5 2.917,32.875c0.042,3.542 0.083,7.25 0.042,11.167c-0.125,15.917 -12.667,24.25 -26.084,29.417l-5.333,-23.584c0.292,-0.25 0.542,-0.458 0.792,-0.708Z" style="fill:#ed915d;"/><path d="M960.396,1363.71c-18.125,51.792 -44.75,30.667 -38.917,6.542c5,-20.625 6.708,-28.417 6.708,-49.458" style="fill:none;stroke:#c87844;stroke-width:2.95px;stroke-linecap:round;stroke-linejoin:round;"/><path d="M867.062,1328.04c0,3.25 -1.041,17.333 -0.708,19.583c3.417,21.792 38.208,35 47.667,40.083c33.5,17.917 34.666,15.334 34.666,51.084c0,20.916 -98.833,27.583 -130.333,5.708c-12.042,-8.375 -39.833,-47.083 -25.875,-62.583c12.958,-14.375 -8.208,-28.959 13.5,-39.834c21.292,-10.708 2.417,-25.75 20.167,-36.916c7.708,-2.459 42.208,-12.5 61.375,-13.167m35.708,6.917c39.958,9.958 52.792,19.833 52.25,86.833c-0.125,16.625 -13.792,24.958 -27.833,30.083" style="fill:none;stroke:#c87844;stroke-width:2.95px;stroke-linecap:round;stroke-linejoin:round;"/><path d="M948.437,1423.29c-28.291,0.458 -66.541,-11.667 -88.458,-27.542" style="fill:none;stroke:#c87844;stroke-width:2.95px;stroke-linecap:round;stroke-linejoin:round;"/><path d="M945.854,1444.67c-28.625,3.5 -61.583,-1.334 -89.333,-11.125" style="fill:none;stroke:#c87844;stroke-width:2.95px;stroke-linecap:round;stroke-linejoin:round;"/></g></g></g></g></svg>