<?xml version="1.0" encoding="UTF-8" standalone="no"?><!DOCTYPE svg PUBLIC "-//W3C//DTD SVG 1.1//EN" "http://www.w3.org/Graphics/SVG/1.1/DTD/svg11.dtd"><svg width="100%" height="100%" viewBox="0 0 4204 3204" version="1.1" xmlns="http://www.w3.org/2000/svg" xmlns:xlink="http://www.w3.org/1999/xlink" xml:space="preserve" xmlns:serif="http://www.serif.com/" style="fill-rule:evenodd;clip-rule:evenodd;stroke-miterlimit:2.6131;"><g><g><g><g><path d="M436.574,1741.25c-172.833,-14.875 -293,138.833 -251.5,308.083c71,289.208 550.833,212.583 457.292,-132.083c-27.75,-102.417 -130.125,-172.375 -205.792,-176Z" style="fill:#fdeff2;"/><path d="M234.574,2593.88c-483.625,-7.209 -91.75,635.583 173.25,246.541c121.708,-178.708 -163.042,-246.375 -173.25,-246.541Z" style="fill:#fdeff2;"/><path d="M168.491,1271.59c212.041,244.917 544.333,-347.25 104.916,-347.25c-127.125,-0.042 -244.375,186.167 -104.916,347.25Z" style="fill:#fdeff2;"/><path d="M880.407,126.378c-143.708,-1.584 -325.333,90.375 -248.833,266.791c76.625,176.667 435.042,189.25 414,-130c-1.542,-23.833 -121.583,-164.208 -165.167,-136.791Z" style="fill:#fdeff2;"/><path d="M2126.87,346.419c113.416,26.125 399.375,-129.416 219.708,-309.083c-135.333,-135.375 -627.25,215.25 -219.708,309.083Z" style="fill:#fdeff2;"/><path d="M3162.41,441.919c63.375,189.959 574.417,123.042 333.125,-203.125c-28.208,-38.041 -394.75,18.5 -333.125,203.125Z" style="fill:#fdeff2;"/><path d="M3782.87,991.628c4.208,132.375 172.375,243 312.458,124.291c119.917,-101.583 129.125,-180.208 55.25,-305.708c-35.5,-60.417 -373.458,-0.125 -367.708,181.417Z" style="fill:#fdeff2;"/><path d="M4062.87,1740.25c-66.417,-47 -264.959,-3.667 -279.625,81.791c-11.792,68.75 -92.167,135.75 25.083,281c47.375,58.667 245.208,35.834 311.75,-60.583c75.458,-109.333 11,-298.25 -57.208,-302.208Z" style="fill:#fdeff2;"/><path d="M3865.53,2656.63c-98.125,-14.042 -203.25,40.708 -217.416,151.291c-36.75,286.375 291.125,341.084 362.25,113.417c34.875,-111.75 -14.792,-246.083 -144.834,-264.708Z" style="fill:#fdeff2;"/></g><path d="M2419.7,1026c492.667,-0 892.083,399.416 892.083,892.083c0,492.667 -399.416,892.083 -892.083,892.083c-162.75,0 -315.333,-43.625 -446.667,-119.75c-50.041,-29 -111.166,-21.083 -152.125,19.709c-58.541,58.291 -139.291,94.375 -228.458,94.375c-178.792,-0 -323.75,-144.959 -323.75,-323.75c-0,-50.167 11.417,-97.709 31.792,-140.084c26.666,-55.458 10.166,-120.583 -39.667,-156.666c-63.167,-45.709 -104.833,-119.292 -106.958,-202.709c-0.959,-36.958 -15.917,-68.375 -43.959,-92.458c-106.083,-90.875 -173.291,-225.792 -173.291,-376.458c-0,-273.709 221.875,-495.584 495.583,-495.584c133.667,0 254.958,52.917 344.083,138.959c42.792,41.291 106.625,47.375 156.417,14.833c140,-91.417 307.292,-144.583 487,-144.583Z" style="fill:#e61f54;fill-opacity:0.07;"/><path d="M166.366,2865.21l-41.084,-129.833l48.625,25.25c2.792,1.458 6.209,0.5 7.875,-2.084l30.125,-39.041l-31.041,113.958c-0.875,3.208 1.041,6.542 4.25,7.458c2.458,0.667 4.958,-0.291 6.416,-2.166l50.917,-61.834l-0,15.625c-0,2.334 1.333,4.375 3.25,5.417l50.5,26.25l-129.833,41Zm-44.75,-145.458l53.458,27.75l46,-59.625c2.042,-2.667 5.833,-3.125 8.458,-1.084c2,1.542 2.75,4.084 2.125,6.375l-31.625,116.167l43.834,-53.292c2.125,-2.583 5.958,-2.958 8.541,-0.833c1.542,1.25 2.292,3.125 2.209,5l-0.042,28.583l56.583,29.375c29.042,-15.5 44,-50.125 33.709,-82.583c-11.584,-36.583 -50.959,-57.042 -87.542,-45.458c-11.583,-36.584 -50.958,-57.042 -87.542,-45.459c-32.458,10.25 -52.208,42.417 -48.166,75.084Z" style="fill:#e61f54;"/><g><path d="M3897.03,1838.17l33.75,-14.375c8.917,-3.791 19.334,0.375 23.167,9.334l12.208,28.625c3.792,8.916 -0.375,19.333 -9.333,23.166l-33.75,14.375c-8.917,3.792 -19.333,-0.375 -23.167,-9.333l-12.208,-28.625c-3.75,-8.917 0.417,-19.333 9.333,-23.167Zm31.875,74.709l33.75,-14.375c16.417,-7 24.125,-26.167 17.125,-42.542l-12.208,-28.625c-7,-16.417 -26.125,-24.125 -42.542,-17.125l-33.75,14.375c-16.416,7 -24.125,26.125 -17.125,42.542l12.209,28.625c6.958,16.416 26.125,24.125 42.541,17.125Z" style="fill:#254b6e;"/><path d="M4047.71,1804.56l-240.044,102.28l67.62,158.7l240.044,-102.28l-67.62,-158.7Z" style="fill:#e5e5e5;"/><path d="M3836.72,1894.45l-29.018,12.364l67.62,158.7l29.018,-12.364l-67.62,-158.7Z" style="fill:#e61f54;"/><path d="M4047.53,1804.84l-29.019,12.361l67.603,158.7l29.018,-12.361l-67.602,-158.7Z" style="fill:#e61f54;"/><path d="M3926.37,1897.88l32.333,-13.75l11.917,28l28,-11.959l13.791,32.334l-28,11.958l11.917,28l-32.333,13.75l-11.917,-28l-28,11.958l-13.792,-32.333l28,-11.958l-11.916,-28Z" style="fill:#e61f54;"/></g><g><path d="M467.991,1954.37l-46.862,16.071l53.094,154.812l46.861,-16.071l-53.093,-154.812Z" style="fill:#cbcbcb;"/><path d="M534.793,2148.43l-46.862,16.077l3.732,10.878l46.862,-16.077l-3.732,-10.878Z" style="fill:#666;"/><path d="M504.07,2114.94l-12.573,4.311l13.49,39.334l12.572,-4.312l-13.489,-39.333Z" style="fill:#b2b2b2;"/><path d="M442.743,1919.1l-22.977,7.883l13.494,39.333l22.977,-7.882l-13.494,-39.334Z" style="fill:#e61f54;"/><path d="M389.918,1787.59l-4.887,1.678l45.932,133.791l4.886,-1.678l-45.931,-133.791Z" style="fill:#666;"/></g><g><path d="M4042.07,957.253l38.542,-55.084l-72.125,-50.458l-117.917,168.5c-13.875,19.833 -9,47.417 10.833,61.292c19.834,13.875 47.417,9 61.292,-10.834l79.375,-113.416Z" style="fill:#fff;"/><path d="M3950.16,953.669l-50.833,72.625c-10.5,15 -6.792,35.959 8.208,46.459c15,10.5 35.959,6.791 46.459,-8.209l68.458,-97.875c-17.125,4.75 -45.375,15.417 -72.292,-13Z" style="fill:#e61f54;"/><path d="M4008.49,851.669l72.125,50.5l11.791,8.25l24.167,-34.583l-95.667,-66.958l-24.208,34.583l11.792,8.208Z" style="fill:#e5e5e5;"/></g><g><path d="M801.147,176.638l-92.787,259.227l201.755,72.216l92.788,-259.226l-201.756,-72.217Z" style="fill:#333;"/><path d="M812.866,190.919l171.958,61.542l-82.125,229.458l-136.458,-48.875l-22.792,-48.208l69.417,-193.917Z" style="fill:#e5e5e5;"/><path d="M778.949,397.544l-35.5,-12.708l22.792,48.208l12.708,-35.5Z" style="fill:#b2b2b2;"/><path d="M838.699,222.836l12.875,4.583l-3.958,11.167l11.125,4l-4.584,12.875l-11.166,-4l-4,11.167l-12.875,-4.625l4,-11.125l-11.167,-4l4.625,-12.917l11.125,4l4,-11.125Z" style="fill:#e61f54;"/><path d="M808.032,273.336l128.417,45.958l-3.292,9.209l-128.416,-45.959l3.291,-9.208Zm-6.708,18.75l-3.292,9.208l128.417,45.959l3.292,-9.209l-128.417,-45.958Zm-6.708,18.708l-3.292,9.209l128.417,45.958l3.291,-9.208l-128.416,-45.959Zm-6.709,18.75l128.417,45.959l-3.292,9.208l-128.416,-45.958l3.291,-9.209Zm-6.708,18.75l62.542,22.375l-3.292,9.209l-62.542,-22.375l3.292,-9.209Z" style="fill:#254b6e;"/><path d="M871.824,183.461l7.583,2.708c6.125,2.167 12.792,-0.541 15.625,-6.375c4,-8.25 13.667,-12.291 22.459,-9.166c8.833,3.166 13.708,12.416 11.541,21.333c-1.5,6.292 1.917,12.667 8.042,14.875l7.583,2.708c5.75,2.042 8.75,8.459 6.709,14.167l-8.959,25.083l-93.75,-33.541l8.959,-25.084c2.083,-5.75 8.5,-8.75 14.208,-6.708Zm42.708,-4.458c-4.833,-1.709 -10.166,0.791 -11.875,5.625c-1.708,4.833 0.792,10.166 5.625,11.875c4.834,1.75 10.167,-0.792 11.875,-5.625c1.709,-4.834 -0.791,-10.125 -5.625,-11.875Z" style="fill:#808080;"/></g><g><g><path d="M3369.87,420.628l17.291,-84.209" style="fill:none;stroke:#000;stroke-width:2.08px;"/><path d="M3295.32,405.294l74.5,15.334l17.333,-84.209l-74.5,-15.333c-23.166,-4.75 -46,10.292 -50.75,33.458c-4.791,23.167 10.292,46 33.417,50.75Z" style="fill:#e5e5e5;"/><path d="M3387.16,336.419l-17.333,84.209l74.5,15.333c23.167,4.75 46,-10.292 50.75,-33.458c4.75,-23.167 -10.292,-46 -33.458,-50.75l-74.459,-15.334Z" style="fill:#e61f54;"/></g></g><g><g><path d="M333.282,1066.09l73.875,89.542c7.209,8.708 4.917,22.583 -5.041,30.833l-94.292,77.792c-9.958,8.208 -24,7.833 -31.208,-0.917l-73.875,-89.542l-3.459,-37.416l97.917,-80.792l36.083,10.5Z" style="fill:#cbcbcb;"/><path d="M346.823,1082.54l-130.559,107.71l49.082,59.495l130.559,-107.711l-49.082,-59.494Z" style="fill:#e5e5e5;"/><path d="M260.075,1172.67l-20.857,17.209l15.353,18.608l20.857,-17.21l-15.353,-18.607Z" style="fill:#e61f54;"/><path d="M272.199,1158.38l43.417,-35.792l4.291,5.208l-43.416,35.792l-4.292,-5.208Zm10.917,13.208l4.291,5.208l43.417,-35.791l-4.292,-5.209l-43.416,35.792Z" style="fill:#254b6e;"/><path d="M275.405,1029.24l-97.935,80.796l21.823,26.453l97.936,-80.796l-21.824,-26.453Z" style="fill:#254b6e;"/></g></g><g><path d="M2063.03,202.753c-5.583,-18.334 -12.291,-27.834 -18.166,-30.792c-3.292,-1.625 -6.25,-0.708 -8.292,2.125c-2.583,3.625 -3.958,9.917 -3.25,18.083c1.875,21.625 18.167,54.709 63.5,84.959l-3.542,5.291c-47.25,-31.541 -64.333,-66.625 -66.291,-89.666c-0.834,-9.75 1,-17.584 4.416,-22.375c3.959,-5.584 9.834,-7.375 16.292,-4.125c7.208,3.625 15.208,14.375 21.375,34.583l-6.042,1.917Zm222.417,-76.084c-7.542,-19.75 -7.833,-33.125 -4.333,-40.458c3.125,-6.542 8.833,-8.708 15.416,-6.75c5.625,1.667 11.875,6.75 17.209,14.958c12.583,19.417 20.666,57.625 2.708,111.5l-6.042,-2c17.209,-51.666 9.792,-87.833 -2,-106.041c-4.458,-6.875 -9.375,-11 -13.666,-12.292c-3.375,-1 -6.292,0.083 -7.875,3.417c-2.834,5.916 -2.292,17.5 4.541,35.458l-5.958,2.208Z" style="fill:#254b6e;"/><path d="M2140.16,138.253l-76.291,57.125c-3.584,2.666 -4.584,7.5 -2.375,11.375c11.583,20.25 17,41.083 19.291,62.291c0.292,2.625 1.584,4.792 3.75,6.292c46.75,32.042 94.542,52.917 145.459,41.917c46.916,-22.584 71.875,-68.417 89.125,-122.417c0.791,-2.542 0.5,-5 -0.875,-7.292c-11.167,-18.125 -19.709,-37.958 -23,-61.041c-0.625,-4.417 -4.375,-7.625 -8.834,-7.542l-95.291,1.708c-19.167,0.417 -35.584,6.042 -50.959,17.584Z" style="fill:#49778e;"/><path d="M2127.49,218.128c19.208,-10.417 38.625,-19.417 58.916,-26.375c20.25,-6.959 41.125,-11.792 62.667,-15.334c17.917,-2.958 38.042,-5.208 58.083,-6.791c1.125,2.375 2.292,4.708 3.542,7.041l-231.75,79.5c-0.458,-2.583 -0.958,-5.166 -1.542,-7.708c16.875,-11.083 34.167,-21.667 50.084,-30.333Zm188.791,-31.709c-18.666,42.75 -61.5,66.292 -103.958,80.875c-42.458,14.584 -90.708,22.292 -131.708,-0.041l0.666,3.916c5.667,3.875 11.417,7.375 17.167,10.5c39.417,21.375 80.708,25 123.708,14.334c40.5,-18 70.834,-46.209 88.875,-87.25c2.625,-6 5,-12.25 7.084,-18.834l-1.834,-3.5Z" style="fill:#254b6e;"/></g><g><path d="M3877.62,2796.46l8.166,1.625c2.542,-20.667 -0.5,-40.833 -3.791,-59.167c-6,-1.625 -15.959,-2.041 -14.834,5.375c0.334,2.459 13.25,20.709 10.459,52.167Z" style="fill:#980000;"/><path d="M3969.78,2760.84l-83.125,17.625c3.542,2.917 7.5,5.417 11.834,7.417c26.708,12.291 58.208,1.083 71.291,-25.042Z" style="fill:#033;"/><path d="M3957.95,2753.46c4.333,2 8.292,4.5 11.833,7.417l-83.125,17.625c13.042,-26.167 44.584,-37.375 71.292,-25.042Z" style="fill:#33cb33;"/><path d="M3845.82,2763.21c-47.833,-27.083 -92.708,16.792 -104.167,62.167c-8.541,33.916 -9.541,129.916 35.709,139.333c9.125,1.917 18.041,-0.667 25.791,3.125c7.959,3.417 11.75,11.875 19.125,17.542c36.542,28.25 108.875,-34.917 129.084,-63.459c27.041,-38.208 31.208,-100.833 -20.459,-119.583c-16.166,-5.875 -35.208,-3.667 -47.375,-9.083c-12.041,-5.667 -22.75,-21.542 -37.708,-30.042Z" style="fill:#e61f54;"/></g><g><g><path d="M2692.57,1054.96l-54.958,47.208l-33.459,-2.875l-26.583,-2.291l-13.667,-48.292c-46.333,165.208 -38.125,418.292 -31.791,687.833c67.166,13.334 136.125,11.334 202.166,-1.625c-39.25,-281.333 -75.083,-540.625 -41.708,-679.958Z" style="fill:#00ceef;"/><path d="M2697.37,957.169c22.75,0 41.291,-18.541 41.291,-41.291c0,-22.75 -18.541,-41.292 -41.291,-41.292c-22.75,0 -41.292,18.542 -41.292,41.292c-0,22.75 18.542,41.291 41.292,41.291Z" style="fill:#3c3835;"/><path d="M2499.7,747.336c37.125,0 67.25,30.125 67.25,67.25c-0,24.083 -12.625,45.167 -31.625,57.042c1.792,4.75 2.792,9.916 2.792,15.333c-0,23.917 -19.375,43.292 -43.25,43.292c-23.917,-0 -43.292,-19.375 -43.292,-43.292c-0,-7.458 1.875,-14.458 5.208,-20.583c-14.875,-12.334 -24.333,-30.959 -24.333,-51.792c-0,-37.125 30.125,-67.25 67.25,-67.25Z" style="fill:#3c3835;"/><path d="M2672.16,2025.54l100.917,353.625l78.167,499.834c37.291,10.958 68.541,7.333 105.833,-12.75l-32.542,-485.292l-80.041,-627.417l-107.542,0.459c-0.875,-6.375 -1.792,-12.75 -2.667,-19.084c-70.541,7.209 -139.5,9.25 -202.166,1.625c0.125,6.084 0.291,12.209 0.416,18.334l-20.625,0.083l-69.916,590.333l-38.209,518.042c35.209,24.917 68,23.833 113.167,12.875l76.708,-498.25l78.5,-352.417Z" style="fill:#3e5fbe;"/><path d="M2563.82,1739.54l-1.417,35.209c24.917,2.166 49.75,3 74.459,2.666l1.583,-0.041c-0.625,-12.5 -1.083,-24.625 -1.458,-36.25l6.25,-0.167c0.333,11.625 0.833,23.75 1.458,36.292c23.583,-0.584 47.042,-2.209 70.458,-4.75l-2.583,-35.584c3.375,-0.291 6.792,-0.583 10.167,-0.916l2.541,35.333c4.625,-0.542 9.209,-1.167 13.834,-1.792l0.833,6.167c-4.75,0.625 -9.458,1.25 -14.208,1.833l0.25,3.334l-10.167,-0l-0.167,-2.167c-23.416,2.542 -46.958,4.167 -70.583,4.75c1.875,35.375 4.875,73.583 9.167,111.625c5.125,45.375 12.041,90.333 21.041,129.708l-6.083,1.375c-9.083,-39.625 -16.042,-84.875 -21.167,-130.416c-4.291,-38.167 -7.333,-76.584 -9.208,-112.167l-1.833,0.042c-24.792,0.333 -49.709,-0.5 -74.792,-2.667l-0.208,5.333l-10.167,0l0.25,-6.291c-6.458,-0.667 -12.958,-1.375 -19.417,-2.209l0.792,-6.166c6.292,0.791 12.583,1.541 18.875,2.166l1.375,-35.041c3.292,0.291 6.708,0.583 10.125,0.791Z" style="fill:#324d9a;"/><path d="M3176.57,2192l-65.958,-298.667l-6.792,1.5c-0,-0.125 -0,-0.25 -0.042,-0.375l-3.083,-45.958l-2.792,-41.542l-101.083,0l4.917,-49.917l78.416,-1.416l31.584,-0.584l17.458,-0.333l20.083,-346.625l-168.541,-295.417c-50.667,-88.791 -181.667,-107.583 -285.5,-113.625c2.916,5.625 6.291,10.917 10.208,15.959c-5.125,11.916 -9.417,25.291 -12.958,40c-33.375,139.333 2.458,398.625 41.666,679.958c26,186.5 53.417,382.625 63.167,559.958c2.375,43.084 3.667,85.042 3.667,125.459c34.5,-1.375 69.208,-4.417 103.791,-9.334c104,-14.75 206.75,-46.208 298.459,-97.791l-26.667,-121.25Z" style="fill:#e5e5e5;stroke:#cbcbcb;stroke-width:2.08px;stroke-linecap:round;stroke-linejoin:round;"/><path d="M2849.62,2273.71l-33,-315.417l418.708,-92.541l25.708,305.125l-411.416,102.833Z" style="fill:#1cce93;"/><path d="M3111.78,1755l-31.583,0.583l-78.458,1.417l-4.917,49.916l109.75,0l5.208,-51.916Z" style="fill:#00afcb;"/><path d="M3001.74,1757l-15.709,0.25l23,-325.875l-110.25,-195.084" style="fill:none;stroke:#cbcbcb;stroke-width:2.08px;stroke-linecap:round;stroke-linejoin:round;"/><path d="M3097.91,1806.92l-86.666,0l-7.667,28.834l-30.625,42.083l-3.917,46.75l27.959,-6.167l9.458,97.417l13.75,-7.125l20.167,-45.25l47.75,-33.917c11.416,-8.125 16.583,-20.75 15.75,-34.708c-0,-0.125 -0,-0.25 -0.042,-0.375l-3.083,-45.958l-2.834,-41.584Z" style="fill:#c26f0b;"/><path d="M1940.32,1211.09l-19.125,-5.458l-10,57.833l-6.25,36.125c0.5,1.875 0.958,3.792 1.458,5.667l55.125,11.041l18.75,-93.708l-39.958,-11.5Z" style="fill:#00afcb;"/><path d="M1921.07,1206.38l-8.792,-10.709l-70.375,-57.625l-18.833,-15.416c-3.292,-2.709 -7.958,-2.709 -11.25,-0l-0.75,0.583c-3.792,3.083 -4.333,8.708 -1.25,12.5l28.167,34.417l3.666,8.791c-37.708,-6.833 -75.458,-13.666 -113.166,-20.5c-7.584,28.625 -5.25,57.542 31.333,87.417c3.958,2.333 7.958,4.583 12,6.667c40.417,21.083 84.042,30.625 129.5,33.583c1.917,0.125 3.875,0.25 5.792,0.333l4,-23.041l9.958,-57Z" style="fill:#c26f0b;"/><path d="M2575.07,1013.54c-178.708,38.084 -166.125,145 -254.042,285.667l-338.791,-86.667l-2,10l-18.75,93.709l-6.834,34.208l384.125,102.417l95.542,-119.084c12.208,44.542 38.875,80.75 26.375,141.084l-169.958,819.791c44.458,32 100.416,59.125 163.958,79.959c18.833,6.166 38.333,11.791 58.375,16.833c4.667,-33.667 8.417,-68.125 11.458,-103.125c15.334,-176.542 11.875,-368 7.584,-551.792c-6.334,-269.541 -14.542,-522.583 31.791,-687.833c3.375,-12.208 7.125,-23.958 11.167,-35.167Z" style="fill:#e5e5e5;stroke:#cbcbcb;stroke-width:2.08px;stroke-linecap:round;stroke-linejoin:round;"/><path d="M2563.87,1048.71l13.666,48.292l26.584,2.291l-26.042,-86.416c-1.042,0.208 -2.042,0.416 -3.042,0.625c-4,11.25 -7.75,23 -11.166,35.208Z" style="fill:#00afcb;"/><path d="M2705.53,1014.96l-101.375,84.333l33.459,2.875l54.958,-47.208c3.5,-14.708 7.792,-28.083 12.958,-40Z" style="fill:#00afcb;"/><path d="M2683.78,954.878c-1.083,-20.5 2.542,-43.834 11.375,-70.167c-3.083,-2.625 -5.916,-5.542 -8.416,-8.708c-3.417,-4.334 -6.292,-9.125 -8.459,-14.25c-18.375,27.916 -47.5,50.125 -88.625,67.083c8.209,25.583 14.5,63.208 -11.541,84.083l26.041,86.417l101.375,-84.333c-3.916,-5 -7.333,-10.334 -10.208,-15.959c-6.75,-13.041 -10.667,-27.708 -11.542,-44.166Z" style="fill:#b55a18;"/><path d="M2701.66,794.919c23.959,-106.791 -68.666,-162.375 -129.708,-128.708c-85.833,47.333 -83.542,144.25 -37.792,265.542c2.959,7.875 11.459,12.083 19.5,9.708c93.209,-27.542 139.209,-74.833 147.709,-144.917c0.083,-0.625 0.166,-1.083 0.291,-1.625Z" style="fill:#c26f0b;"/><path d="M2572.62,650.711c3,9 4.666,18.625 4.666,28.625c0,43.958 -31.541,80.542 -73.208,88.417c-5.958,-11.167 -9.375,-23.917 -9.375,-37.459c-0,-43.375 34.75,-78.666 77.917,-79.583Z" style="fill:#3c3835;"/><path d="M2460.66,1193.5c-36.625,63.333 -36.166,104.5 -26.375,140.25" style="fill:none;stroke:#cbcbcb;stroke-width:2.08px;stroke-linecap:round;stroke-linejoin:round;"/><path d="M2612.12,630.503c15.75,-0 30.083,5.958 40.958,15.708c4.958,-1.417 10.167,-2.167 15.583,-2.167c31.25,0 56.542,25.334 56.542,56.542c-0,3.292 -0.292,6.5 -0.833,9.625c6.791,5.667 12.208,12.917 15.75,21.125c9.291,-4.083 19.583,-6.375 30.416,-6.375c41.667,0 75.459,33.792 75.459,75.458c-0,21.292 -8.792,40.5 -22.959,54.209c-7.375,25.625 -30.958,44.375 -58.958,44.375l-0.958,-0c0.625,2.416 0.916,4.916 0.916,7.541c0,16.917 -13.708,30.667 -30.666,30.667c-16.917,0 -30.667,-13.75 -30.667,-30.667c-0,-5.125 1.25,-9.958 3.5,-14.25c-19.5,-10.333 -32.833,-30.833 -32.833,-54.416c-0,-10.167 2.458,-19.792 6.833,-28.25c-27.542,-3.834 -48.708,-27.417 -48.708,-56c-0,-1.209 0.041,-2.417 0.125,-3.625c-6.167,2.083 -12.75,3.208 -19.584,3.208c-33.875,0 -61.333,-27.458 -61.333,-61.333c0.083,-33.917 27.542,-61.375 61.417,-61.375Z" style="fill:#544646;"/><path d="M2499.37,1095.5l-0.584,1.958l-1.666,1.125c-4.792,3.208 -12.709,5.375 -18.25,8.125c-9.542,4.792 -17.125,11.5 -23.584,20.125c-13.5,17.958 -19.125,51.417 -24.875,73.417c-3.541,13.583 -19.541,68.583 -16.75,79.5c0.459,1.833 1.084,3.541 1.834,5.166c3.666,7.834 10.625,12.792 19.666,13.75l10.75,1.125l12.125,1.292l0.125,0c0.834,0.125 3.209,0.583 5.875,1.083c3.875,0.709 8.417,1.5 9.875,1.375c0.625,-1.541 0.667,-5.708 0.542,-9.291c-0.083,-2.417 -0.208,-4.584 -0.25,-5.5c-0,-0.209 -0.083,-0.75 -0.167,-1c-2.375,-0.959 -13.666,2.166 -16.083,2.791c-4.583,1.125 -9.667,2.209 -14.625,2.292c-4.542,0.083 -9,-0.708 -12.917,-3.125c-5.416,-3.333 -8.25,-7.292 -9.5,-11.708c-2.166,-7.542 0.334,-16.334 2.5,-25.125c1.625,-6.709 3.334,-13.417 5,-20.125c1.167,-4.709 2.375,-9.417 3.542,-14.125c5.125,-20.459 9.25,-48.292 18.75,-70.542c4.25,-10 9.625,-18.875 16.625,-25.458c6.708,-6.292 18.042,-13.417 26.875,-15.917l4.292,-1.208l2.041,4.083c3.084,6.125 9.25,10 16,10c2.75,0 5.417,-0.625 7.792,-1.833c3.458,-1.709 6.333,-4.542 8.167,-8.125l2.083,-4.084l4.333,1.25c17.042,4.959 34.792,21.375 42.042,37.792c2.333,5.25 4.083,11.792 5.625,17.333c2.417,8.625 4.667,17.334 6.833,26.042c1.084,4.375 2.167,8.75 3.25,13.083c2.875,11.792 5.667,23.584 8.542,35.375c2.667,10.875 6.833,20.584 7.375,32.042c0.792,17 -8.708,25.458 -25.25,24.167c-7.875,-0.584 -20.125,-5.084 -28.667,-4.917c-0.625,4.417 -0.541,10.875 -0.041,15.542c4.791,-0 11.208,-1.5 15.083,-2.084c17.25,-2.5 39.375,0.584 45.292,-20.958c3.083,-11.208 -13.375,-66.917 -16.917,-80.875c-0.167,-0.708 -0.333,-1.375 -0.5,-2.083c-8.917,-36.209 -13,-72.667 -49.083,-91.417c-5.292,-2.75 -11.167,-3.417 -16.417,-6.958l-1.708,-1.125l-0.584,-2c-0.958,-3.334 -2.833,-6.292 -5.291,-8.542c-1.584,-1.458 -3.459,-2.667 -5.5,-3.458c-1.125,-0.459 -2.209,-0.875 -3.334,-1.334c-0.25,-18.166 17.25,-65.291 65.792,-76.875l4.083,-6.041c-57.333,9.625 -75.291,63.958 -76.666,83.041l-3.167,1.334c-4.875,2.083 -8.75,6.375 -10.333,11.625Z" style="fill:#989898;"/><path d="M2695.28,1000.46c18.084,6.417 30.875,27.958 38.459,58.083c3.625,14.417 4.958,30.75 6.083,45.042c3.458,43.292 -22.417,113.958 -22.25,157.25c-2.708,0.542 -5.167,1.917 -7.042,3.792c-2.541,2.541 -4.125,6.041 -4.125,9.875c0,3.875 1.584,7.375 4.084,9.875c2.541,2.541 6.041,4.083 9.875,4.083c3.875,0 7.375,-1.583 9.875,-4.083c2.541,-2.542 4.083,-6.042 4.083,-9.875c-0,-3.875 -1.583,-7.334 -4.083,-9.875c-1.917,-1.917 -4.334,-3.25 -7.084,-3.834c-0.166,-43.583 25.709,-114.375 22.25,-157.708c-3.5,-44.208 -13,-93.583 -52.833,-108.75l2.708,6.125Zm25.125,282.417c-2.333,-0 -4.416,-0.917 -5.916,-2.417c-1.5,-1.5 -2.459,-3.625 -2.459,-5.917c0,-2.333 0.917,-4.416 2.417,-5.916c1.5,-1.5 3.625,-2.459 5.917,-2.459c2.291,0 4.375,0.917 5.916,2.459c1.5,1.5 2.459,3.583 2.459,5.916c-0,2.292 -0.959,4.417 -2.459,5.917c-1.458,1.5 -3.583,2.417 -5.875,2.417Z" style="fill:#989898;"/><path d="M2604.91,2327.34c51.417,-4.375 116.625,2 156.75,12l-89.541,-313.792l-67.209,301.792Z" style="fill:#b2b2b2;"/><path d="M2499.78,2879.96c-27.166,5.208 -50.041,5.458 -72.5,-3.583c-0.083,24.875 -1.625,49.875 -8,75.333c-7.458,29.75 -33.958,52.458 -62.875,73.208c16.709,29.875 66.084,33.75 129.417,-18.708c6.625,-5.458 9.542,-13.458 8.083,-21.917c-0.25,-1.333 -0.458,-2.708 -0.666,-4.041c-5.542,-36.167 -0.375,-68.709 6.541,-100.292Z" style="fill:#c26f0b;"/><path d="M2485.87,3006.17c-63.334,52.459 -112.709,48.584 -129.417,18.709c-47.417,19.833 -92.292,43.875 -123.292,78.5c-40.333,45.041 104.292,41.166 130.209,14.75c52.208,-42.042 99.5,-15.709 140.208,-44.042c12.375,-46.75 9.667,-80.042 -10.292,-93.833c0.209,1.333 0.417,2.666 0.667,4.041c1.458,8.417 -1.5,16.417 -8.083,21.875Z" style="fill:#3e5fbe;"/><path d="M2876.53,2987.34c-12.083,29.667 -11.208,59.375 2.042,89.083c120.25,6.792 174.708,64.459 264.875,30.334c-8.583,-46 -77.167,-76.042 -120.5,-89.084c-17.208,37.709 -53.292,41.5 -146.417,-30.333Z" style="fill:#3e5fbe;"/><path d="M2876.53,2987.34c93.125,71.833 129.209,68.042 146.417,30.333c-70.333,-40.541 -85.667,-79.041 -87.583,-141.333c-21.75,8.375 -42.084,10.625 -63.917,7.292c5.75,34.041 9.792,68.291 5.083,103.708Z" style="fill:#c26f0b;"/></g><g><g><g><path d="M1752.7,3004.17l-0,93.375l90.875,0l-0,-18.583c101.833,7.833 83.5,53.708 239.917,14.167c7.5,-1.917 13.041,-7.209 15.208,-14.625c2.208,-7.417 0.417,-14.875 -4.875,-20.542c-44.208,-47.458 -109.542,-25.625 -170.875,-81.208c-53.292,-4.625 -106.333,7.041 -170.25,27.416Z" style="fill:#980000;"/><path d="M1448.12,3048.59c-49.292,-27.292 -115.834,-36.25 -172.792,-25.042c-34.542,60.417 -116.875,67.917 -163.083,136.292c-4.042,6 -4.667,13.125 -1.667,19.708c3,6.584 8.708,10.834 15.917,11.75c214.583,27.167 178.791,-59.791 276.458,-85.916l-0,22.875l44.75,-23.709l0.417,-55.958Z" style="fill:#980000;"/><path d="M1922.95,2976.75l-43.667,-562.375c-14.5,-248.084 -75.25,-357.459 -112.875,-536.167c-105.208,60.417 -312.5,53.458 -426.125,-6.333c-24.541,196.125 -79.875,372.958 -73.541,588.333l-16.834,563.75c62.917,25.75 134.917,43.458 229.667,36.5l-39.958,-551.583c-1.792,-25 0.958,-46.667 9,-70.417l129.625,-382.042l122,374.417c5.958,18.333 8.625,34.75 8.791,54l4.209,532.458c85.333,9.417 154.75,-11.791 209.708,-40.541Z" style="fill:#333;"/><path d="M1766.41,1878.17c-11.416,-98 -21.541,-199.833 -3.5,-300.541c-41.875,-7.25 -83.333,-19.5 -124.333,-36.542l-164.292,82.583c-19.166,9.625 -41.5,5.75 -56.291,-9.791l-121.5,-127.584c35.583,136.25 46.958,245.709 43.791,385.5c113.625,59.834 320.917,66.792 426.125,6.375Z" style="fill:#08b9b3;"/><path d="M1638.57,1541.09c41,17.042 82.458,29.292 124.333,36.542c52.375,9.083 105.417,10.333 159.25,3.375c5.5,-113.292 -17.5,-218.292 -55.875,-328.292c-38.208,-109.458 -134.916,-157.042 -297.166,-178.708c-1.959,18.916 -1.792,42 -0.25,67.875c0.375,6.583 -3,12.416 -8.917,15.291c-5.917,2.917 -12.625,2 -17.583,-2.333c-40.25,-35.25 -82.334,-66.375 -127.334,-90.917c-200.958,66.834 -327.208,203.292 -221.208,314.542l102.708,107.833l121.5,127.584c14.792,15.541 37.125,19.416 56.292,9.791l164.25,-82.583Z" style="fill:#08b9b3;"/><path d="M1296.49,1486.34l121.5,127.583c14.791,15.542 37.125,19.417 56.291,9.792l164.292,-82.583l177.833,-89.417c-0.958,-6.417 -2.5,-12.375 -4.5,-17.875c-10.416,-28.375 -40.333,-44.125 -69.625,-36.625l-209.541,53.833c-20.417,5.25 -41.084,1.625 -54.334,-14.833l-128.375,-159.708" style="fill:none;stroke:#08938f;stroke-width:2.08px;stroke-linecap:round;stroke-linejoin:round;"/><path d="M1758.74,1395.38l7.666,-143.625" style="fill:none;stroke:#08938f;stroke-width:2.08px;stroke-linecap:round;stroke-linejoin:round;"/><path d="M1569.12,1074c2.416,-23.542 8.041,-40.709 18.125,-48.917c-43.542,-9.75 -81.375,-24.75 -113.834,-44.667l-24.625,-86.291c27.625,-17.75 8.375,-94.459 -15.916,-93.042c-19,1.125 -21.459,43.833 -17.792,117.542c12.125,49.125 11.667,97.541 -0,145.333c45,24.542 87.083,55.667 127.333,90.917c4.959,4.333 11.667,5.208 17.584,2.333c5.916,-2.875 9.333,-8.75 8.916,-15.292c-1.625,-25.958 -1.75,-49 0.209,-67.916Z" style="fill:#fd9683;"/><path d="M1473.37,980.419c32.458,19.917 70.291,34.917 113.833,44.667c26.542,5.917 55.167,9.917 86.042,11.875c6.666,0.417 12.583,-1.958 17.083,-6.917c4.5,-4.958 6.333,-11.041 5.292,-17.666c-4.959,-31.584 -13,-60.125 -29.042,-80.625l-93.375,15.541l5.875,-38.166c1.125,-7.375 7,-12.875 14.417,-13.5l40.166,-3.459l-4.458,-16.333l-57.708,3.75c-5.959,0.375 -10.875,3.708 -13.417,9.125l-23.375,49.417c-2.708,5.708 -8.125,9.166 -14.458,9.166l-2.625,0c-7.75,0 -14.209,-5.333 -15.709,-12.916l-22.791,-116.875c-3.25,-16.75 7.166,-33.042 23.708,-37.167l97.583,-24.167l26.75,-69.041c5.209,-13.417 2.625,-27.625 -6.958,-38.334c-9.583,-10.708 -23.417,-14.875 -37.333,-11.208l-163.542,43.167c-35.833,9.458 -57.875,45.416 -50.042,81.625l26.5,122.5l19.167,33.75c-3.625,-73.709 -1.208,-116.417 17.792,-117.542c24.291,-1.417 43.541,75.292 15.916,93.042l24.709,86.291Z" style="fill:#333;"/><path d="M1520.32,947.294c6.333,0 11.75,-3.416 14.458,-9.166l23.375,-49.417c2.542,-5.375 7.459,-8.75 13.417,-9.125l57.708,-3.75l4.459,16.333l-40.167,3.459c-7.458,0.625 -13.292,6.125 -14.417,13.5l-5.875,38.166l93.375,-15.541l-17.958,-66.5l20.375,-12.75l-41.292,-25.792l-27.291,-70.5l-97.584,24.167c-16.541,4.083 -26.958,20.416 -23.708,37.166l22.792,116.875c1.458,7.584 7.958,12.917 15.708,12.917l2.625,0l-0,-0.042Z" style="fill:#fd9683;"/><path d="M1490.28,1401.46c50.5,-13.667 110.125,24.75 97.417,35.417c-40.167,33.791 -37,4.708 -69.542,48.875c-4.583,6.208 -19.666,4.833 -54.833,-6.042c-64.542,-19.875 -3.667,-69.958 26.958,-78.25Z" style="fill:#fd9683;"/><path d="M1448.2,1426.88l42.083,-25.417c-8,0.417 -69.208,1.917 -70.166,3.167c-8.875,12 6.166,22.208 21.666,22.208c2.167,0.042 4.292,0.042 6.417,0.042Z" style="fill:#cd7a6b;"/><path d="M1762.91,1577.63c-41.875,-7.25 -83.333,-19.5 -124.333,-36.542" style="fill:none;stroke:#08938f;stroke-width:2.08px;stroke-linecap:round;stroke-linejoin:round;"/></g></g><path d="M1402.99,3105.34c-15.834,4.25 -28.209,10.083 -38.667,16.792l38.667,6.083l-0,-22.875Z" style="fill:#7c0000;"/></g></g></g></g></g></svg>