<?xml version="1.0" encoding="UTF-8" standalone="no"?><!DOCTYPE svg PUBLIC "-//W3C//DTD SVG 1.1//EN" "http://www.w3.org/Graphics/SVG/1.1/DTD/svg11.dtd"><svg width="100%" height="100%" viewBox="0 0 2917 1667" version="1.1" xmlns="http://www.w3.org/2000/svg" xmlns:xlink="http://www.w3.org/1999/xlink" xml:space="preserve" xmlns:serif="http://www.serif.com/" style="fill-rule:evenodd;clip-rule:evenodd;stroke-linecap:round;stroke-linejoin:round;stroke-miterlimit:2.6131;"><g id="Post-Discharge_Monitoring"><g><path d="M2123.16,1665.77l0,-540.495c-607.488,392.881 -860.703,-484.477 -1591.2,-90.082l-0,630.577l1591.2,-0Z" style="fill:#e71f54;fill-opacity:0.07;"/><path d="M651.566,1376.97c19.682,0 35.579,15.897 35.579,35.579c-0,1.892 -0,4.163 -0.379,6.056c8.706,-4.542 18.925,-6.813 29.144,-6.813c1.514,-19.303 17.79,-34.443 37.85,-34.443c20.818,-0 37.85,17.032 37.85,37.849c-0,3.407 -0.379,6.813 -1.514,10.22c11.355,3.785 19.303,14.004 19.303,26.495c0,3.028 -0.378,5.677 -1.135,8.327c26.495,7.57 47.312,29.901 51.854,57.91c5.299,-0.757 10.976,-1.514 16.275,-1.514c52.99,-0 95.76,42.77 95.76,95.76c0,20.06 -6.056,38.606 -16.654,53.746l-479.556,0l-0,-156.319l54.125,-0c-34.443,-10.598 -59.803,-42.77 -59.803,-80.62c0,-46.555 37.85,-84.405 84.405,-84.405c31.037,-0 58.289,16.654 72.672,41.635c6.813,-6.056 15.14,-9.463 24.224,-9.463Z" style="fill:#15966c;stroke:#117a57;stroke-width:3.76px;"/><g><path d="M478.592,1310.36c-20.438,63.587 -9.084,113.549 83.27,127.932c76.456,-147.236 246.402,-129.825 306.583,-205.146c56.018,-70.401 -14.005,-150.642 -89.326,-158.969c-121.876,-14.383 -262.677,134.367 -300.527,236.183Z" style="fill:#17a778;"/><path d="M790.474,1164.64c-113.549,34.065 -210.444,93.489 -273.275,205.524m180.922,-213.472c-7.57,13.247 -11.733,29.144 -10.219,48.826c25.737,-0.379 48.447,5.299 69.265,14.383m-61.695,56.017c-32.551,-10.976 -65.481,-13.247 -99.167,-6.434m-23.088,23.088c-4.921,-19.682 -3.407,-37.85 1.892,-55.639" style="fill:none;stroke:#0f6e4e;stroke-width:3.76px;"/></g><g><path d="M526.662,1428.83l-10.977,211.202c32.172,27.252 83.27,15.14 87.055,-13.626c4.542,-35.579 44.662,-23.088 66.994,-8.327c37.849,24.981 63.587,2.65 51.854,-25.738c-18.168,-43.906 27.63,-50.718 62.073,-40.878c100.681,28.388 61.696,-56.774 -44.284,-87.054c-49.204,-14.004 -54.503,-17.411 -37.471,-54.504c17.032,-36.714 -28.009,-42.013 -45.42,-19.681c-20.817,26.494 -48.447,14.382 -75.699,14.382c-29.523,-0.378 -46.555,10.22 -54.125,24.224Z" style="fill:#1ccf94;"/><path d="M718.181,1515.88c-65.48,-11.355 -129.824,-14.005 -186.599,40.12m131.717,8.706c-13.626,-22.331 -31.794,-39.742 -55.639,-50.34c7.57,-20.818 19.682,-38.229 39.364,-49.205m-56.018,99.545c-8.705,-11.734 -18.925,-21.953 -33.308,-29.144c2.271,-14.005 7.57,-25.738 16.654,-34.444" style="fill:none;stroke:#0f6e4e;stroke-width:3.76px;"/></g><g><clipPath id="_clip1"><path d="M413.869,1665.77l0,-938.296l-275.546,0l0,938.296l275.546,-0Zm-301.662,-0l-0,-938.296l-46.555,0l-0,938.296l46.555,-0Z"/></clipPath><g clip-path="url(#_clip1)"><rect x="65.652" y="727.472" width="348.218" height="938.295" style="fill:#3cadb4;fill-opacity:0.2;"/></g></g><g><g><clipPath id="_clip2"><path d="M413.869,1665.77l0,-938.296l-275.546,0l0,938.296l275.546,-0Zm-301.662,-0l-0,-938.296l-46.555,0l-0,938.296l46.555,-0Z"/></clipPath><g clip-path="url(#_clip2)"><path d="M-207.245,1411.04l856.918,-850.106l-33.686,-34.064l-857.297,850.105l34.065,34.065Zm238.832,-149.128l-16.276,-16.276l412.184,-408.777l16.276,16.275l-412.184,408.778Zm-243.374,521.569l-47.312,-47.69l1200.97,-1191.13l47.313,47.691l-1200.97,1191.13Z" style="fill:#fff;fill-opacity:0.3;"/></g></g></g><path d="M413.869,1665.77l0,-938.296l-275.546,0l0,938.296l275.546,-0Zm-301.662,-0l-0,-938.296l-46.555,0l-0,938.296l46.555,-0Z" style="fill:none;stroke:#369ca2;stroke-width:1.89px;"/><rect x="65.652" y="0" width="466.309" height="123.769" style="fill:#e6e6e6;stroke:#e3e3e3;stroke-width:3.76px;"/><path d="M1467.99,1635.49c-0.378,9.462 1.514,21.953 6.813,30.28c0.378,-0 60.938,-17.79 68.13,-21.575c3.028,-1.514 11.733,-6.056 11.733,-10.598c-0,-2.649 -1.514,-4.163 -3.028,-5.677c-4.163,-3.406 -14.383,-3.785 -20.817,-3.028c-3.028,0.378 -4.164,0.757 -5.299,1.514l-0.379,0.378c-1.135,0.757 -1.514,1.893 -3.406,3.785c-5.678,5.299 -25.36,5.678 -32.551,5.299c-3.785,0 -18.546,-1.514 -21.196,-0.378Z" style="fill:#633;"/><path d="M1467.99,1635.49c2.65,-1.136 17.411,0.378 21.196,0.757c7.57,0.378 26.873,-0 32.551,-5.299c1.892,-1.514 2.649,-3.028 3.406,-3.785c-5.299,3.785 -24.981,-2.271 -30.28,-12.112c-1.514,-3.028 -2.649,-6.056 -3.406,-9.084c-8.327,3.785 -17.411,6.435 -26.873,7.57c2.649,5.299 4.163,12.112 3.406,21.953Z" style="fill:#ee925d;"/><path d="M1484.64,1160.1c-3.785,-15.518 -19.303,-40.499 -30.28,-47.691c11.355,30.659 -1.892,65.48 -9.084,102.952c7.57,7.57 26.495,10.219 36.336,10.598c20.817,0.757 57.532,-26.117 68.129,-50.719c1.514,-3.407 1.893,-7.192 1.136,-10.598c-0.757,-3.407 -2.271,-6.434 -4.542,-8.705l-6.056,-6.813c-2.271,-2.271 -4.92,-4.164 -7.57,-5.299c-3.028,-1.136 -6.056,-1.136 -9.084,-0.757c-12.112,2.271 -28.009,8.705 -38.985,17.032Z" style="fill:#a8173d;"/><path d="M1481.61,1161.99c11.355,-9.083 28.766,-16.653 41.635,-18.924" style="fill:none;stroke:#881332;stroke-width:2.68px;"/><path d="M1553.9,1134.36l25.359,1.893c2.271,-0 4.164,-0.757 5.678,-2.271l39.742,-44.663c0.379,-0.379 0.379,-1.136 0.379,-1.514c-0.379,-0.379 -0.757,-0.757 -1.136,-0.757l-25.359,-1.893c-2.271,0 -4.164,0.757 -5.678,2.271l-39.742,44.663c-0.379,0.379 -0.379,1.136 -0.379,1.514c0.379,0.379 0.757,0.379 1.136,0.757Z" style="fill:#fff;"/><path d="M1572.83,1107.48c-10.22,1.892 -21.953,6.434 -23.089,20.817c-1.135,1.514 -1.892,3.028 -3.027,4.542l16.275,18.925c3.028,-1.514 6.056,-2.271 9.462,-2.649l10.598,-1.514l0.757,-6.435l-0.378,0c-1.136,0.379 -2.65,0.757 -3.785,0.757l-25.36,-1.892c-0.757,-0 -1.135,-0.379 -1.514,-0.757c-0.378,-0.379 -0.757,-0.757 -1.135,-1.136c-0,-0.378 -0,-0.378 -0.379,-0.757l-0.378,-3.785l-0,-0.757c-0,-0.378 0.378,-1.135 0.757,-1.514l21.196,-23.845Z" style="fill:#ee925d;"/><path d="M1545.2,1130.95l-12.491,12.49c3.028,1.136 5.678,2.65 7.57,5.299l6.056,6.813c2.271,2.65 3.785,5.677 4.542,8.705l12.869,-11.733l-0.757,-0.757l-16.275,-18.925l-1.514,-1.892Z" style="fill:#881332;stroke:#881332;stroke-width:3.76px;"/><path d="M1579.26,1136.25l-25.359,-1.893c-0.379,0 -1.136,-0.378 -1.136,-0.757c-0.378,-0.378 0,-1.135 0.379,-1.514l39.742,-44.663c1.514,-1.514 3.407,-2.649 5.678,-2.271l25.359,1.893c0.379,-0 1.136,0.378 1.136,0.757c0.378,0.378 -0,1.135 -0.379,1.514l-39.742,44.663c-1.136,1.514 -3.407,2.271 -5.678,2.271Zm-28.009,-3.028l0.379,3.785c-0,0.378 -0,0.378 0.378,0.757c0.379,0.378 0.379,1.135 1.136,1.135c0.378,0.379 1.135,0.379 1.514,0.757l25.359,1.893c1.514,-0 2.65,-0 3.785,-0.757c1.136,-0.379 2.271,-1.136 3.407,-2.271l39.742,-44.663c0.378,-0.379 0.757,-1.136 0.757,-1.514l-0,-0.757l-0.379,-3.785c0,-0.379 0,-0.379 -0.378,-0.757c-0.379,-0.379 -0.379,-1.136 -1.135,-1.136c-0.379,-0.378 -1.136,-0.378 -1.514,-0.757l-25.36,-1.892c-1.514,-0 -2.649,-0 -3.785,0.757c-1.135,0.378 -2.271,1.135 -3.406,2.271l-39.743,44.663c-0.378,0.378 -0.757,0.757 -0.757,1.514l0,0.757Z" style="fill:#808080;"/><path d="M1602.35,1107.86l-10.598,9.463c-3.407,3.028 -6.056,6.813 -6.435,11.355l-0.757,5.677l-1.514,13.248l17.411,-15.14c4.542,-4.164 7.192,-9.084 7.57,-15.14l0.379,-6.435c-0,-0.757 -0,-1.514 -0.379,-1.892c-0.378,-0.379 -0.757,-1.136 -1.514,-1.136c-1.514,-1.135 -3.028,-1.135 -4.163,0Z" style="fill:#ee925d;"/><path d="M2123.16,583.265l640.797,-358.059l-0,1440.56l-640.797,-0l0,-1082.5Z" style="fill:#ff993b;"/><rect x="2244.66" y="871.68" width="339.891" height="794.088" style="fill:#82342a;"/><rect x="2260.18" y="887.577" width="308.097" height="778.191" style="fill:#b6512f;"/><rect x="2640.95" y="871.68" width="123.012" height="371.306" style="fill:#82342a;"/><rect x="2656.85" y="887.577" width="107.115" height="339.891" style="fill:#e6e6e6;"/><g><g><path d="M2656.85,1182.54l107.115,-106.269l-0,52.781l-99.204,98.42l-7.911,-0l-0,-44.932Zm107.115,-210.061l-107.115,106.235l-0,-18.093l107.115,-106.236l-0,18.094Zm-0,-49.345l-107.115,106.268l-0,-37.7l104.951,-104.121l2.164,-0l-0,35.553Z" style="fill:#fff;fill-opacity:0.5;"/></g></g><rect x="2656.85" y="887.577" width="107.115" height="339.891" style="fill:none;stroke:#e3e3e3;stroke-width:3.76px;"/><rect x="2244.66" y="756.617" width="339.891" height="115.063" style="fill:#93654d;"/><g><g><path d="M2865.78,1376.6c-34.064,-24.981 -72.671,-15.519 -91.596,9.084c-6.434,8.326 -10.598,18.167 -11.733,29.144l19.682,-0c5.677,-27.63 29.901,-31.037 45.041,-29.523c18.546,1.514 30.658,9.084 38.606,-8.705Z" style="fill:#1ccf94;"/><path d="M2678.04,1426.18c15.897,-22.71 36.714,-40.878 58.288,-11.355c-2.271,-7.949 -5.299,-15.14 -8.705,-21.196c-2.271,-4.542 -4.921,-8.327 -7.57,-11.733c-45.42,-19.304 -79.485,20.06 -71.536,64.344c9.462,2.65 21.953,-8.705 29.523,-20.06Z" style="fill:#1ccf94;"/><path d="M2720.05,1381.52c2.649,3.407 5.299,7.57 7.57,11.733c3.406,6.056 6.056,13.248 8.705,21.196l18.925,0c-1.514,-6.056 -3.028,-11.733 -4.542,-17.411c-1.514,-4.541 -2.649,-8.705 -4.163,-12.49c-2.65,-7.191 -6.056,-14.004 -9.463,-20.06c-18.925,-34.065 -47.69,-49.583 -88.568,-43.528c18.546,26.495 49.962,31.794 71.536,60.56Z" style="fill:#1ccf94;"/><path d="M2746.55,1384.54c1.514,4.164 3.028,8.327 4.163,12.49c0.757,-15.896 3.785,-27.251 8.327,-36.335c-11.355,-69.644 49.583,-58.289 57.91,-91.975c-53.746,-2.271 -91.975,15.518 -79.863,95.381c3.407,6.435 6.813,13.248 9.463,20.439Z" style="fill:#1ccf94;"/><path d="M2759.04,1361.08c-4.163,8.706 -7.191,20.439 -8.327,36.336c1.514,5.677 3.407,11.355 4.542,17.411l6.813,-0c1.136,-10.977 5.299,-20.818 11.734,-29.144c13.625,-43.906 70.022,-23.846 62.452,-80.999c-21.953,30.658 -60.181,21.953 -77.214,56.396Z" style="fill:#1ccf94;"/></g><path d="M2733.3,1495.07l47.313,0l6.812,-21.574l11.734,-38.607l-84.405,0l11.733,38.607l6.813,21.574Z" style="fill:#e6b88a;"/><path d="M2707.57,1434.88l100.68,0l-0,-20.06l-100.68,-0l-0,20.06Z" style="fill:#a87746;"/><path d="M2787.43,1471.6c0.757,0 1.514,0.379 1.893,1.136l77.97,191.52c0.379,1.135 0,1.892 -1.135,2.271c-1.136,0.378 -1.893,-0 -2.271,-1.136l-30.28,-74.564l-49.961,0l11.354,73.429c0,1.135 -0.378,1.892 -1.514,2.271c-1.135,-0 -1.892,-0.379 -2.271,-1.514l-11.733,-74.186l-98.788,0l-30.28,74.564c-0.378,1.136 -1.514,1.514 -2.271,1.136c-1.135,-0.379 -1.514,-1.514 -1.135,-2.271l77.97,-191.52c0.379,-0.757 1.136,-1.136 1.893,-1.136l60.559,0Zm-1.135,3.785l-20.817,0l17.411,112.036l49.204,-0l-45.798,-112.036Zm-24.981,0l-33.686,0l-45.798,112.036l97.274,-0l-17.79,-112.036Z" style="fill:#630;"/><path d="M2727.62,1393.63c-32.551,-13.247 -51.097,0.757 -64.723,21.196m87.054,-0c-17.032,-54.504 -40.877,-76.457 -67.751,-85.541m73.429,85.541c1.135,-62.452 45.041,-68.508 74.185,-91.218m-60.559,91.218c12.869,-37.85 43.905,-48.448 81.755,-35.957m-104.465,5.677c-7.192,-55.639 4.92,-95.76 46.176,-104.844" style="fill:none;stroke:#15966c;stroke-width:3.76px;"/></g><path d="M1069.05,293.714c9.462,0 18.167,1.514 26.494,4.542l0,-1.135c0,-24.224 19.682,-43.906 43.906,-43.906c11.734,-0 22.331,4.542 30.28,12.112c13.626,-55.639 63.966,-97.274 124.147,-97.274c18.547,-0 35.957,3.785 51.854,10.976c21.196,-45.041 66.616,-76.078 119.606,-76.078c66.994,0 122.254,49.962 130.96,114.685c2.649,-0.378 5.677,-0.757 8.327,-0.757c22.331,0 40.877,17.032 43.527,38.607c13.247,-8.327 28.766,-12.869 45.42,-12.869c34.821,-0 64.723,20.439 78.349,50.34c9.84,-4.163 20.438,-6.434 31.793,-6.434c11.355,-0 22.332,2.271 32.173,6.434c28.387,12.112 43.905,42.013 37.471,71.915c-6.056,30.279 -32.172,51.475 -62.831,51.475l-770.242,0c-17.411,0 -32.173,-7.57 -42.013,-21.953c-9.841,-14.004 -12.112,-30.658 -6.056,-46.933c11.355,-31.416 41.634,-53.747 76.835,-53.747Z" style="fill:#f3f8fe;"/><path d="M763.223,577.587c8.705,0 16.653,1.893 23.845,5.299c17.789,-46.555 62.452,-79.484 115.442,-79.484c56.017,-0 103.33,37.471 118.469,88.568c7.192,-1.514 14.762,-2.271 22.71,-2.271c23.467,0 45.42,7.57 63.209,20.061c12.869,9.084 18.168,24.98 13.248,40.12c-4.921,15.14 -18.168,24.981 -34.065,24.981l-328.157,0c-21.953,0 -40.5,-14.383 -46.177,-35.579c-5.678,-21.195 3.785,-42.77 23.088,-53.746c8.327,-5.299 18.168,-7.949 28.388,-7.949Z" style="fill:#f3f8fe;"/><path d="M125.076,714.225l-59.424,-0l-0,13.247l46.555,0l-0,938.296l12.869,-0l-0,-951.543Z" style="fill:#0096ff;stroke:#007acf;stroke-width:3.76px;"/><path d="M2518.32,1306.57c7.191,-0 12.869,-5.678 12.869,-12.869c-0,-7.192 -5.678,-12.869 -12.869,-12.869c-7.192,-0 -12.869,5.677 -12.869,12.869c-0,7.191 5.677,12.869 12.869,12.869Z" style="fill:#633;"/><path d="M1343.84,1383.79c-23.467,-16.654 -43.527,-30.658 -48.448,-55.639c-0.378,41.256 15.519,76.835 -0.757,123.39c-15.897,19.682 -28.387,44.284 -38.985,71.536c-8.327,21.196 -15.14,43.906 -21.574,67.751c6.055,4.164 12.111,7.949 18.924,10.598c8.327,3.407 17.79,5.299 27.631,6.056c6.056,0.379 12.49,0.379 18.925,-0.378l51.854,-134.367l15.14,-72.293c-7.192,-6.056 -15.14,-11.355 -22.71,-16.654Z" style="fill:#3e5fbf;"/><path d="M1291.23,1641.54c-7.949,0.757 -23.467,-10.977 -29.145,-15.897c-3.028,-2.649 -13.626,-12.869 -16.654,-13.626c-6.056,7.57 -12.49,18.168 -13.247,28.387c0,0.379 59.046,23.089 66.994,24.603c1.514,0.378 4.921,0.757 8.327,0.757l0.379,-0c3.028,-0 5.677,-0.379 6.813,-2.271c1.514,-2.271 1.514,-4.164 1.135,-6.056c-1.135,-5.299 -9.084,-11.734 -14.383,-15.14c-2.649,-1.514 -3.785,-1.893 -4.92,-1.893l-0.379,0c-1.135,0.379 -2.271,0.757 -4.92,1.136Z" style="fill:#633;"/><path d="M1296.53,1640.41c-6.435,0 -18.547,-17.032 -16.654,-28.008c0.378,-1.514 0.757,-3.028 1.135,-4.921c-9.841,-0.757 -19.303,-2.649 -27.63,-6.056c-1.893,3.407 -4.164,6.813 -7.57,10.22c2.649,0.757 13.626,10.976 16.654,13.625c5.677,4.921 21.196,16.654 29.144,15.897c2.271,0 3.407,-0.378 4.921,-0.757Z" style="fill:#ee925d;"/><path d="M1343.84,1383.79c7.57,5.299 15.518,10.976 23.467,17.032c14.761,11.734 29.901,25.738 42.77,45.42l35.2,167.675c6.813,0.378 13.626,0.378 20.061,-0.379c9.462,-1.135 18.167,-3.406 26.873,-7.57c9.841,-4.542 18.925,-10.976 27.252,-19.682l-13.626,-46.555l-33.687,-116.199l-19.681,-56.017l-3.407,-9.463l-19.682,-56.774c-18.168,4.92 -35.578,7.191 -52.611,7.191c-6.056,0 -12.112,-0.378 -18.168,-1.135c-1.514,-0.379 -3.028,-0.379 -4.542,-0.757c-7.57,-1.136 -14.761,-3.028 -22.331,-5.299c-5.678,-1.893 -11.355,-4.164 -16.654,-6.435c-5.677,-2.649 -10.976,-5.677 -16.654,-9.084c-1.514,5.299 -2.649,10.22 -3.406,15.14c-1.514,10.598 -1.514,19.303 -0,27.252c5.677,24.981 25.359,38.985 48.826,55.639Z" style="fill:#4d75ec;"/><path d="M1308.64,1450.4l-14.005,1.135l9.841,7.192" style="fill:none;stroke:#3856ac;stroke-width:2.15px;"/><path d="M1460.79,1197.19c11.733,-7.949 15.518,-18.547 15.518,-29.902c0.378,-26.494 -29.901,-87.432 -53.747,-94.624c-1.135,2.271 -1.514,2.65 -0.757,10.976c2.65,17.411 -44.284,-3.406 -38.985,-21.195c-54.125,6.813 -87.811,30.658 -109.386,64.344c-7.57,11.355 -13.626,24.224 -18.546,37.85c-31.794,61.317 -11.734,119.984 40.499,136.259c4.921,1.514 10.22,0.757 14.383,-1.514c1.514,-0.757 3.028,-2.271 4.164,-3.406l0.757,-0.757l8.705,-9.463l-8.705,9.463c5.298,2.649 10.976,4.542 16.653,6.434l6.056,-7.191c3.028,-0.379 7.949,1.892 12.869,5.677c1.514,0 14.762,4.921 20.061,4.542c3.406,0 5.677,1.893 6.056,3.785c17.032,0.379 34.443,-2.271 52.611,-7.191c18.168,-30.28 14.761,-86.298 31.794,-104.087Z" style="fill:#e71f54;"/><path d="M1354.06,1306.57l3.785,7.57c1.136,-0 3.407,-0 6.056,-0.379c3.028,-0.378 6.056,-0.757 7.192,-0.757c4.163,-0.757 6.056,-2.649 6.056,-4.542c-0,-2.271 -2.65,-4.163 -6.056,-3.785c-4.921,0.379 -18.168,-4.542 -20.061,-4.542l3.028,6.435Z" style="fill:#c1764c;"/><path d="M1351.03,1300.14c-4.92,-3.785 -9.841,-6.434 -12.869,-5.677l-6.056,7.191l-9.084,10.598c-1.135,23.845 26.495,21.196 25.738,33.686c-0.757,18.168 7.57,9.841 10.598,-2.271c-0.378,17.411 10.598,-4.163 10.977,-4.92c2.271,-7.57 -0.757,-17.033 -6.435,-24.981c-1.514,-2.271 -3.406,-4.542 -5.299,-6.434c-2.271,-2.65 -4.92,-5.299 -7.57,-7.192Z" style="fill:#ee925d;"/><path d="M1326.43,1282.35c2.649,-4.164 3.028,-9.463 1.892,-14.383c-5.299,-18.547 -17.41,-34.065 -30.658,-45.42c29.901,-14.761 47.312,-47.691 52.233,-56.018" style="fill:none;stroke:#881332;stroke-width:2.68px;"/><path d="M1446.79,976.524c-55.639,-18.925 -25.738,12.49 -47.312,58.288c-3.407,5.678 -11.355,23.467 -16.654,28.009c-5.677,17.79 41.256,38.607 38.985,21.196c-0.757,-8.327 -0.378,-8.705 0.757,-10.976c0.379,-0.379 0.379,-0.757 0.757,-1.136c8.327,-12.49 16.276,-18.925 23.089,-16.275l9.841,3.785c3.028,1.135 5.677,0.757 8.327,-0.757c2.649,-1.514 4.542,-3.785 5.299,-6.813l7.191,-30.28l10.976,-7.949c1.136,-0.757 1.893,-2.271 1.514,-4.163c-0.378,-1.514 -1.135,-2.65 -2.649,-3.407l-3.407,-1.135l-3.785,-1.135c-2.271,-0.757 -3.785,-2.271 -4.542,-4.542c-2.649,-7.192 -6.434,-14.005 -11.354,-20.439c-4.921,6.813 -11.734,-0.379 -17.033,-2.271Z" style="fill:#ee925d;"/><path d="M1315.45,1294.84l-0.757,0.757c-1.136,1.514 -2.65,2.65 -4.164,3.407l12.49,12.869l9.084,-10.598l6.056,-7.192l-11.733,-11.733c-0.757,1.135 -1.514,2.271 -2.271,3.028l-8.705,9.462Z" style="fill:#881332;stroke:#881332;stroke-width:3.76px;"/><path d="M1409.7,1086.67c13.248,-6.812 8.327,-34.443 8.327,-46.176c0,-3.785 0.379,-7.57 1.514,-12.112c6.813,-28.009 1.893,-33.308 27.252,-38.228c14.383,-2.65 24.224,-19.304 24.224,-32.93c-3.028,2.271 -2.271,4.164 -7.191,5.678c-17.033,5.677 -31.416,-1.893 -51.476,-1.514c-0.757,-0 -1.514,-0 -2.271,0.378c-11.355,1.514 -17.032,11.734 -21.196,15.897c-24.602,23.467 -59.424,21.953 -64.723,69.644c-1.514,14.383 6.056,28.009 14.383,31.794c10.976,4.92 18.546,-6.056 37.471,-1.893c7.949,2.271 20.817,16.275 33.686,9.462Z" style="fill:#3c3835;"/><path d="M1463.44,979.173c4.921,6.056 8.705,12.869 11.355,20.061c0.757,2.271 2.271,3.785 4.542,4.542l1.892,0.757c15.519,-12.869 0.379,-40.121 -12.49,-35.201c-1.514,3.785 -3.785,6.056 -5.299,9.841Z" style="fill:#1e1c1a;"/><path d="M1464.58,1058.66c-2.65,1.514 -5.678,1.514 -8.327,0.757l-9.841,-3.785c-6.813,-3.028 -14.762,3.785 -23.089,16.275c-0.378,0.379 -0.378,0.757 -0.757,1.136c14.762,10.219 24.981,23.845 31.794,39.363c1.893,1.514 4.164,3.407 6.435,5.678c15.518,-5.299 2.271,-34.065 11.733,-39.364c13.247,-7.191 3.406,-30.658 0.378,-39.364l-3.027,12.491c-0.757,3.028 -2.65,5.299 -5.299,6.813Z" style="fill:#1e1c1a;"/><path d="M1421.81,1427.31l-11.733,18.547l18.168,-9.463" style="fill:none;stroke:#3856ac;stroke-width:2.15px;"/><path d="M1410.08,1445.86l19.682,2.271" style="fill:none;stroke:#3856ac;stroke-width:2.15px;"/><g><g><rect x="1831.34" y="1397.79" width="359.573" height="29.523" style="fill:#81502e;"/><rect x="1875.63" y="1427.31" width="29.144" height="238.453" style="fill:#81502e;"/><rect x="1958.14" y="1427.31" width="29.144" height="238.453" style="fill:#81502e;"/><rect x="2040.65" y="1427.31" width="29.144" height="238.453" style="fill:#81502e;"/><rect x="2123.16" y="1427.31" width="29.144" height="238.453" style="fill:#81502e;"/><rect x="1831.34" y="1531.78" width="359.573" height="29.523" style="fill:#81502e;"/></g><rect x="1875.63" y="1427.31" width="29.144" height="29.523" style="fill:#53351b;"/><rect x="1958.14" y="1427.31" width="29.144" height="29.523" style="fill:#53351b;"/><rect x="2040.65" y="1427.31" width="29.144" height="29.523" style="fill:#53351b;"/><rect x="2123.16" y="1427.31" width="29.144" height="29.523" style="fill:#53351b;"/><rect x="1875.63" y="1561.3" width="29.144" height="29.523" style="fill:#53351b;"/><rect x="1958.14" y="1561.3" width="29.144" height="29.523" style="fill:#53351b;"/><rect x="2040.65" y="1561.3" width="29.144" height="29.523" style="fill:#53351b;"/><rect x="2123.16" y="1561.3" width="29.144" height="29.523" style="fill:#53351b;"/></g><g><g><path d="M2071.31,1383.03c14.005,-12.49 9.463,-44.663 -6.434,-55.639c-18.168,-12.49 -43.528,-17.789 -60.181,-35.2c-31.037,-31.794 -6.435,-42.771 -12.112,-65.102c-4.921,5.678 -10.22,10.976 -18.168,14.383c-21.196,-7.57 -21.196,3.785 -37.85,-0c-6.056,19.303 -0,31.794 16.275,41.256c13.626,7.949 9.463,33.686 18.168,57.153c2.65,17.033 -1.135,32.93 -10.219,48.448c-12.491,-3.406 -19.304,-1.135 -18.547,9.462l26.117,0c5.299,-12.111 10.219,-24.223 15.518,-36.335c7.192,7.191 17.033,13.247 31.037,17.411c3.406,9.462 -27.63,-0 -25.359,18.546l80.62,-0c3.406,-0 3.785,-3.785 2.271,-7.191c-0.757,-1.893 -2.271,-4.164 -4.164,-5.299c0.757,-0 1.893,-0.757 3.028,-1.893Z" style="fill:#fcb37e;"/><path d="M2067.9,1302.03c39.742,13.247 37.471,74.564 3.028,81.377c-0.757,0.757 -1.893,1.514 -3.028,2.271c1.892,1.135 3.406,3.028 4.163,5.299c48.069,-11.355 57.91,-91.975 8.706,-104.844c-14.762,-4.164 -23.846,12.112 -12.869,15.897Z" style="fill:#fcb37e;"/></g><path d="M2029.3,1333.83c-18.168,3.407 -26.873,30.28 -14.383,45.42" style="fill:none;stroke:#b96e60;stroke-width:1.89px;stroke-linecap:butt;stroke-linejoin:miter;"/><path d="M1983.88,1361.83c2.271,-5.299 4.542,-10.219 6.813,-15.518" style="fill:none;stroke:#b96e60;stroke-width:1.89px;stroke-linecap:butt;stroke-linejoin:miter;"/><path d="M1960.41,1253.96c1.136,0 1.893,-0.757 1.893,-1.892c-0,-1.136 -0.757,-1.893 -1.893,-1.893c-1.135,0 -1.892,0.757 -1.892,1.893c-0,1.135 0.757,1.892 1.892,1.892Z"/></g><path d="M1609.92,991.285l87.054,0c7.191,0 13.247,6.056 13.247,13.248l0,6.434c0,2.271 -0.757,4.542 -1.892,6.434c1.514,2.65 3.406,4.921 6.056,6.813c-3.028,0 -5.678,-0.757 -8.706,-1.892c-0.378,-0.379 -0.757,-0.379 -1.135,-0.757c-2.271,1.514 -4.92,2.649 -7.948,2.649l-87.055,0c-7.191,0 -13.247,-6.056 -13.247,-13.247l-0,-6.434c0.378,-7.192 6.434,-13.248 13.626,-13.248Z" style="fill:#0b82ff;"/><path d="M1637.55,1037.08l-87.055,0c-7.191,0 -13.247,6.056 -13.247,13.248l0,6.434c0,2.271 0.757,4.542 1.893,6.435c-1.514,2.649 -3.407,4.92 -6.056,6.813c3.028,-0 5.677,-0.757 8.705,-1.893c0.379,-0.378 0.757,-0.378 1.136,-0.757c2.271,1.514 4.92,2.65 7.948,2.65l87.054,-0c7.192,-0 13.248,-6.056 13.248,-13.248l-0,-6.434c-0,-7.192 -6.056,-13.248 -13.626,-13.248Z" style="fill:#e5e4ea;"/><path d="M531.961,1665.77l-0,-1202.49l-466.309,0l-0,81.377l361.465,-0l-0,1121.11l104.844,-0Z" style="fill:#e6e6e6;stroke:#e3e3e3;stroke-width:3.76px;"/><path d="M125.076,714.225l-0,951.543l13.247,-0l0,-938.296l275.546,0l0,938.296l13.248,-0l-0,-951.543l-302.041,-0Z" style="fill:#0096ff;stroke:#007acf;stroke-width:3.76px;"/><path d="M427.117,544.658l-361.465,-0l-0,169.567l361.465,-0l-0,-169.567Z" style="fill:#fff;stroke:#ccc;stroke-width:3.76px;"/><rect x="65.652" y="124.147" width="549.957" height="339.134" style="fill:#fff;stroke:#ccc;stroke-width:3.76px;"/><path d="M275.718,183.193l80.998,-0l0,70.022l70.401,-0l-0,80.998l-70.401,0l0,70.022l-80.998,0l-0,-70.022l-70.022,0l-0,-80.998l70.022,-0l-0,-70.022Z" style="fill:#e71f54;"/><path d="M2023.62,637.768l740.342,-412.562l-0,-63.588l-740.342,412.563l0,63.587Z" style="fill:#93654d;"/><path d="M2763.96,155.184l-758.131,422.403" style="fill:none;stroke:#999;stroke-width:5.36px;stroke-linecap:butt;stroke-linejoin:miter;"/></g></g></svg>