<?xml version="1.0" encoding="UTF-8" standalone="no"?><!DOCTYPE svg PUBLIC "-//W3C//DTD SVG 1.1//EN" "http://www.w3.org/Graphics/SVG/1.1/DTD/svg11.dtd"><svg width="100%" height="100%" viewBox="0 0 2917 1667" version="1.1" xmlns="http://www.w3.org/2000/svg" xmlns:xlink="http://www.w3.org/1999/xlink" xml:space="preserve" xmlns:serif="http://www.serif.com/" style="fill-rule:evenodd;clip-rule:evenodd;stroke-linecap:round;stroke-linejoin:round;stroke-miterlimit:2.6131;"><g id="Preoperative_Evaluation"><g><g><path d="M1637.33,1232.87c187.992,6.423 333.162,261.219 -43.679,332.305c-736.554,139.603 -417.095,-348.15 43.679,-332.305Zm-1310.38,-799.075c-188.849,143.028 -303.186,343.868 -303.186,578.965c-0,220.966 134.035,420.093 353.717,491.179c618.362,199.126 853.032,-570.829 1569.89,-437.222c444.073,82.648 624.786,-98.921 625.214,-480.473c0.428,-690.305 -1705.64,-560.979 -2245.63,-152.449Z" style="fill:#e71f54;fill-opacity:0.07;"/><g><path d="M1519.14,0l769.955,0c56.527,0 102.347,46.249 102.347,102.347l-0,1461.55c-0,56.526 -46.249,102.346 -102.347,102.346l-769.955,0c-56.526,0 -102.347,-46.248 -102.347,-102.346l0,-1461.55c-0.428,-56.098 45.821,-102.347 102.347,-102.347Z" style="fill:#4d4d4d;"/><path d="M2362.32,211.973l0,1322.8c0,16.273 -13.275,29.12 -29.119,29.12l-858.171,-0c-16.272,-0 -29.119,-13.275 -29.119,-29.12l-0,-1322.8c-0,-16.272 13.275,-29.119 29.119,-29.119l857.743,-0c16.272,-0.429 29.547,12.847 29.547,29.119Z" style="fill:#fff;"/><path d="M1568.39,1506.08l138.318,-0c8.993,-0 16.701,-7.708 16.701,-16.701l-0,-132.751c-0,-8.993 -7.708,-16.701 -16.701,-16.701l-138.318,0c-8.993,0 -16.701,7.708 -16.701,16.701l0,132.751c0,8.993 7.28,16.701 16.701,16.701Z" style="fill:#e6e6e6;"/><path d="M1901.55,392.258l286.914,-0l-0,12.418l-286.914,0l0,-12.418Zm0,-32.546l286.914,0l-0,12.419l-286.914,-0l0,-12.419Zm0,-32.545l286.914,-0l-0,12.418l-286.914,0l0,-12.418Z" style="fill:#4d4d4d;"/><path d="M1901.55,756.68l143.457,0l-0,12.419l-143.457,0l0,-12.419Zm0,-32.973l286.914,-0l-0,12.418l-286.914,0l0,-12.418Zm0,-32.546l286.914,0l-0,12.419l-286.914,-0l0,-12.419Z" style="fill:#4d4d4d;"/><path d="M1901.55,1131.81l286.914,-0l-0,12.418l-286.914,0l0,-12.418Zm0,-32.546l106.629,0l0,12.419l-106.629,0l0,-12.419Zm0,-32.545l178.143,0l0,12.419l-178.143,-0l0,-12.419Z" style="fill:#4d4d4d;"/><path d="M1637.33,1370.33c-29.12,0 -52.672,23.553 -52.672,52.672c-0,29.12 23.552,52.673 52.672,52.673c29.12,-0 52.672,-23.553 52.672,-52.673c0,-29.119 -23.552,-52.672 -52.672,-52.672Zm-0,15.417c9.421,-0 17.557,7.708 17.557,17.557c0,9.421 -7.708,17.557 -17.557,17.557c-9.421,0 -17.557,-7.708 -17.557,-17.557c0.428,-9.421 8.136,-17.557 17.557,-17.557Zm-0,75.796c-9.421,0 -18.414,-3.426 -25.266,-9.421c-1.712,-1.285 -2.569,-3.426 -2.569,-5.567c0,-24.837 55.242,-24.837 55.242,0c-0,2.141 -0.857,4.282 -2.57,5.567c-6.423,5.995 -14.988,9.421 -24.837,9.421Z" style="fill:#1ccf94;"/><path d="M1771.8,1506.08l468.054,-0c8.993,-0 16.701,-7.708 16.701,-16.701l-0,-132.751c-0,-8.993 -7.708,-16.701 -16.701,-16.701l-468.054,0c-8.993,0 -16.701,7.708 -16.701,16.701l-0,132.751c-0,8.993 7.28,16.701 16.701,16.701Z" style="fill:#e6e6e6;"/><path d="M2012.89,1427.29c-4.283,-11.562 -20.555,-11.562 -24.409,-0l-9.421,-0c-2.142,-0 -3.854,1.713 -4.283,3.426l-3.854,24.409l-13.275,-93.783c-0.856,-4.71 -7.708,-5.138 -8.564,0l-10.706,66.376c-0.857,-0.428 -1.713,-0.856 -2.57,-0.856l-13.703,-0c-4.282,-11.563 -20.555,-11.563 -24.409,-0l-92.926,-0l0,8.564l95.924,0c2.569,0 4.282,-2.141 4.282,-4.282c0,-2.57 2.141,-4.282 4.282,-4.282c2.57,-0 4.283,2.141 4.283,4.282c-0,2.569 2.141,4.282 4.282,4.282l14.131,0l3.426,9.849c1.285,4.283 7.708,3.854 8.565,-0.856l8.564,-53.957l13.276,92.926c0.856,4.71 7.708,5.138 8.564,-0l8.136,-48.39l9.421,-0c2.57,-0 4.283,-2.141 4.283,-4.282c-0,-2.57 2.141,-4.283 4.282,-4.283c2.569,0 4.282,2.141 4.282,4.283c0,2.569 2.141,4.282 4.283,4.282l49.674,-0c2.57,-0 4.282,-2.141 4.282,-4.282c0,-2.57 2.142,-4.283 4.283,-4.283c2.569,0 4.282,2.141 4.282,4.283c0,2.569 2.141,4.282 4.282,4.282l130.182,-0l-0,-8.565l-126.756,0c-4.282,-11.562 -20.555,-11.562 -24.409,0l-41.966,0l-0,0.857Z" style="fill:#e71f54;"/><path d="M1804.77,1443.56c6.424,0 11.991,-5.567 11.991,-11.99c-0,-6.423 -5.567,-11.99 -11.991,-11.99c-6.423,-0 -11.99,5.567 -11.99,11.99c0,6.423 5.567,11.99 11.99,11.99Z" style="fill:#e71f54;"/><path d="M2206.45,1443.56c6.424,0 11.991,-5.567 11.991,-11.99c-0,-6.423 -5.567,-11.99 -11.991,-11.99c-6.423,-0 -11.99,5.567 -11.99,11.99c-0,6.423 5.567,11.99 11.99,11.99Z" style="fill:#e71f54;"/><g><circle cx="1678.87" cy="372.559" r="74.512" style="fill:#1ccf94;"/><path d="M1643.33,360.14l22.268,22.268l48.818,-48.818l14.56,14.56l-63.378,62.95l-36.399,-36.4l14.131,-14.56Z" style="fill:#fff;"/></g><g><circle cx="1678.87" cy="732.271" r="74.512" style="fill:#1ccf94;"/><path d="M1643.33,720.281l22.268,22.268l48.818,-48.818l14.56,14.131l-63.378,63.378l-36.399,-36.828l14.131,-14.131Z" style="fill:#fff;"/></g><g><circle cx="1678.87" cy="1106.97" r="74.512" style="fill:#1ccf94;"/><path d="M1643.33,1094.55l22.268,22.268l48.818,-48.818l14.56,14.56l-63.378,63.377l-36.399,-36.827l14.131,-14.56Z" style="fill:#fff;"/></g><path d="M1553.4,372.559c0,69.373 56.098,125.471 125.471,125.471c69.373,0 125.471,-56.098 125.471,-125.471c0,-69.373 -56.098,-125.471 -125.471,-125.471c-17.129,0 -33.83,3.426 -48.818,9.849l19.699,47.105c8.992,-3.854 18.842,-5.995 29.119,-5.995c41.11,0 74.512,33.402 74.512,74.512c0,41.11 -33.402,74.512 -74.512,74.512c-41.11,-0 -74.512,-33.402 -74.512,-74.512c0,-2.998 0,-5.995 0.429,-8.993l-50.531,-5.995c-0.429,4.711 -0.857,9.849 -0.857,14.988Z" style="fill:#215365;"/><path d="M1554.26,357.571l50.531,5.995c0.856,-7.28 2.997,-14.559 5.567,-20.983l-46.677,-20.555c-4.711,11.134 -8.137,23.124 -9.421,35.543Z" style="fill:#fac100;"/><path d="M1563.68,322.028l46.677,20.555c7.708,-17.557 21.839,-31.689 39.397,-38.969l-19.699,-47.105c-29.548,12.419 -53.1,35.971 -66.375,65.519Z" style="fill:#e71f54;"/><path d="M1794.07,681.74c-19.699,-44.107 -63.806,-74.94 -114.766,-74.94c-43.679,0 -82.22,22.268 -104.487,56.098l42.394,28.263c13.275,-20.126 36.4,-33.401 62.093,-33.401c30.405,-0 56.527,18.413 68.517,44.535l46.249,-20.555Z" style="fill:#fac100;"/><path d="M1794.07,681.74l-46.677,20.555c4.282,9.421 6.423,19.271 6.423,30.405l50.959,-0c0,-18.414 -3.854,-35.543 -10.705,-50.96Z" style="fill:#e71f54;"/><path d="M1804.77,732.271l-50.959,0c0,41.11 -33.402,74.512 -74.512,74.512c-41.11,0 -74.511,-33.402 -74.511,-74.512c-0,-15.416 4.71,-29.547 12.418,-41.538l-42.394,-28.263c-13.276,20.127 -20.984,43.679 -20.984,69.801c0,69.373 56.098,125.471 125.471,125.471c68.945,0.429 125.471,-56.098 125.471,-125.471Z" style="fill:#215365;"/><path d="M1791.92,1051.73c-20.555,-41.538 -63.378,-70.229 -112.625,-70.229c-20.555,-0 -39.825,4.71 -56.526,13.275l23.125,45.392c10.277,-5.139 21.411,-8.136 33.83,-8.136c20.126,-0 38.54,8.136 51.815,20.983c8.137,7.708 14.56,17.557 18.414,28.691l47.962,-17.129c-2.141,-4.282 -3.854,-8.993 -5.995,-12.847Z" style="fill:#fac100;"/><path d="M1645.47,1040.17l-23.124,-45.392c-11.99,5.995 -22.696,14.131 -32.117,23.552l35.971,35.971c5.567,-5.995 11.99,-10.705 19.27,-14.131Z" style="fill:#215365;"/><path d="M1626.2,1053.87l-35.971,-35.971c-17.558,17.557 -29.976,40.253 -34.687,65.947c-1.284,7.28 -2.141,14.988 -2.141,22.696c0,69.373 56.098,125.471 125.471,125.471c69.373,0 125.471,-56.098 125.471,-125.471c0,-14.988 -2.569,-29.119 -7.28,-42.394l-47.961,17.129c2.997,7.708 4.282,16.273 4.282,25.265c0,41.11 -33.402,74.512 -74.512,74.512c-41.11,0 -74.512,-33.402 -74.512,-74.512c0,-13.703 3.854,-26.55 10.278,-37.684c2.997,-5.139 7.28,-10.277 11.562,-14.988Z" style="fill:#e71f54;"/></g><g><path d="M1078.07,521.583l0,-56.098c0,-1.713 -1.285,-3.426 -3.426,-3.426l-6.423,-0c-1.713,-0 -3.426,1.285 -3.426,3.426l0,56.098l-9.421,9.421l2.998,15.416l10.705,-10.706c1.285,-1.284 3.426,-1.284 4.711,0l10.706,10.706l2.997,-15.416l-9.421,-9.421Z" style="fill:#fac100;"/><path d="M1051.94,630.353c5.995,-1.713 9.849,-7.28 9.849,-13.703l0,-74.941c0,-14.988 -10.705,-28.263 -17.129,-35.114c-2.569,-2.57 -6.851,-2.998 -9.421,-0.429c-13.275,10.706 -47.533,45.821 -51.387,130.61c-0.428,7.28 6.851,12.847 13.703,10.706l54.385,-17.129Z" style="fill:#fe7a00;"/><path d="M1091.34,630.353c-5.995,-1.713 -9.849,-7.28 -9.849,-13.703l-0,-74.512c-0,-14.988 10.706,-28.263 17.129,-34.687c2.569,-2.569 6.852,-2.997 9.421,-0.428c13.275,10.277 47.534,45.82 51.388,130.182c0.428,7.279 -6.852,12.846 -13.704,10.705l-54.385,-17.557Z" style="fill:#fe7a00;"/></g><path d="M1553.4,372.559l-314.32,0l0,-160.157l-56.526,-0" style="fill:none;stroke:#666;stroke-width:6.07px;"/><path d="M1553.4,732.271l-314.32,0l0,-144.741l-56.526,-0" style="fill:none;stroke:#666;stroke-width:6.07px;"/><path d="M1553.4,1092.41l-314.32,-0l0,-83.077l-56.526,0" style="fill:none;stroke:#666;stroke-width:6.07px;"/><path d="M1795.35,106.201l217.541,-0c3.426,-0 6.423,-2.998 6.423,-6.424c0,-3.426 -2.997,-6.423 -6.423,-6.423l-217.541,-0c-3.425,-0 -6.423,2.997 -6.423,6.423c-0.428,3.426 2.569,6.424 6.423,6.424Z" style="fill:#fff;"/><path d="M1099.48,1104.83c19.698,-51.387 35.543,-92.497 4.282,-163.583c-8.136,-17.986 -14.132,-32.974 -18.414,-49.246c-1.285,0.428 -2.569,0.856 -3.854,1.284l4.71,29.12c0,0.856 0,1.285 -0.428,1.713c-0.428,0.428 -0.856,0.428 -1.284,0.428c-1.285,0 -2.142,-0.428 -2.57,-1.713l-4.71,-28.691c-2.998,0.428 -5.567,0.428 -8.137,0.428c-3.854,13.703 -9.421,27.835 -17.557,46.249c-0,0.428 -0.428,0.428 -0.428,0.428c-0.429,0.428 -1.713,0.856 -2.141,0.428c-0.857,-0.428 -1.713,-1.713 -1.285,-2.997c8.136,-18.414 13.275,-31.689 17.129,-44.964c-3.426,-0.857 -5.995,-1.713 -7.708,-2.57c-4.282,16.273 -10.278,31.261 -18.414,49.247c-31.261,71.086 -15.416,112.196 4.282,163.583c0.857,2.569 2.141,5.139 2.998,7.28c3.854,10.277 8.136,20.555 11.134,37.256c3.854,-1.713 7.708,-2.57 11.134,-2.998c-1.713,-14.988 -4.282,-23.124 -7.28,-32.117c-0.856,-2.998 -1.713,-5.995 -2.569,-9.421c-7.28,-25.694 -13.276,-49.246 -14.132,-75.368c-1.285,-28.263 3.854,-55.67 15.416,-86.503c0.429,-1.284 1.713,-1.712 2.57,-1.284c1.284,0.428 1.713,1.713 1.284,2.569c-24.409,63.378 -15.844,105.773 -1.284,159.301c0.856,3.426 1.713,5.995 2.569,8.993c2.569,8.565 5.567,17.557 7.28,32.974c5.567,0.428 10.277,2.141 12.419,2.997c2.997,-17.129 7.279,-27.406 11.134,-37.684c2.141,0 2.997,-2.569 3.854,-5.139Zm-5.567,-15.416c-1.285,-0.428 -1.713,-1.713 -1.285,-2.569c11.134,-29.548 14.131,-56.098 9.849,-83.505c0,-1.285 0.428,-2.141 1.713,-2.569c1.285,-0 2.141,0.428 2.569,1.713c4.283,27.835 1.285,55.241 -10.277,85.645c-0,0.429 -0.428,0.429 -0.428,0.857c-0.428,0.428 -1.285,0.856 -2.141,0.428Zm-47.534,-133.607c-11.134,29.548 -14.131,56.098 -9.849,83.504c-0,0.857 -0,1.285 -0.428,1.713c-0.429,0.429 -0.857,0.429 -1.285,0.429c-1.285,-0 -2.141,-0.429 -2.569,-1.713c-4.283,-27.835 -1.285,-55.242 10.277,-85.646c0.428,-1.285 1.713,-1.713 2.569,-1.285c0.857,0.857 1.713,2.141 1.285,2.998Z" style="fill:#b32f08;"/><path d="M1048.52,296.334c11.134,0 20.555,-8.992 20.555,-20.555c0,-9.421 -6.423,-17.557 -14.988,-19.698c-1.284,-0.428 -2.141,-1.713 -1.713,-3.426c0.429,-1.285 1.713,-2.141 3.426,-1.713c5.567,1.713 10.278,4.711 13.704,8.993l-0,-65.519c-0,-4.711 -3.855,-8.993 -8.993,-8.993c-1.713,0 -2.57,-1.285 -2.57,-2.569c0,-1.713 1.285,-2.57 2.57,-2.57c3.426,0 6.423,1.285 8.993,2.998l-0,-35.115c-0,-4.71 -3.855,-8.993 -8.993,-8.993c-5.567,0 -12.419,2.57 -19.271,6.852c5.139,1.285 9.421,4.711 11.563,9.421c0.856,1.285 -0,2.998 -1.285,3.854c-1.285,0.857 -2.998,0 -3.426,-1.285c-2.141,-4.282 -5.995,-6.851 -10.706,-6.851c-1.284,-0 -2.997,0.428 -4.282,0.856l-0.428,0c-4.282,1.713 -7.28,5.995 -7.28,10.706c-0,2.141 0.428,4.282 1.713,5.995c11.99,0.857 21.411,10.706 21.411,23.125c0,1.712 -1.284,2.569 -2.569,2.569c-1.285,-0 -2.569,-1.285 -2.569,-2.569c-0,-9.85 -7.709,-17.558 -17.558,-17.558c-9.849,0 -17.557,7.708 -17.557,17.558c-0,2.141 0.428,4.282 1.285,6.423c0.428,1.285 -0,2.141 -0.857,2.998c-3.854,3.425 -6.423,8.136 -6.423,13.703c-0,9.849 7.708,17.557 17.557,17.557c1.713,0 2.569,1.285 2.569,2.57c0,1.284 -1.284,2.569 -2.569,2.569c-5.995,0 -11.134,-2.141 -15.416,-5.567c-1.713,2.569 -2.57,5.567 -2.57,8.993c0,6.852 4.283,13.275 10.278,16.273c1.285,0.428 1.713,1.712 1.713,2.997c-0.428,1.285 -0.428,2.57 -0.428,4.282c-0,9.421 6.423,17.558 14.988,19.699c0.856,-0 1.284,0.856 1.712,1.285c3.855,6.851 10.706,10.705 18.414,10.705Zm5.567,-58.239c0,1.713 -1.284,2.57 -2.569,2.57c-9.849,-0 -17.557,7.708 -17.557,17.557l-0,1.713c8.564,3.426 14.559,11.562 14.559,21.411c0,1.713 -1.284,2.57 -2.569,2.57c-1.285,-0 -2.569,-1.285 -2.569,-2.57c-0,-9.849 -7.709,-17.557 -17.558,-17.557c-1.713,-0 -2.569,-1.285 -2.569,-2.569c-0,-1.285 1.285,-2.57 2.569,-2.57l2.998,0l-0,-0.428c-0,-12.847 10.277,-23.124 23.124,-23.124c0.857,0.428 2.141,1.713 2.141,2.997Zm-5.995,-23.552c-1.285,8.136 -8.564,14.559 -17.129,14.559c-1.713,0 -2.569,-1.284 -2.569,-2.569c-0,-1.285 1.284,-2.569 2.569,-2.569c5.567,-0 10.277,-3.854 11.562,-9.421c-11.134,-1.285 -20.127,-11.134 -20.127,-22.696c0,-1.713 1.285,-2.57 2.57,-2.57c1.284,0 2.569,1.285 2.569,2.57c0,9.849 7.708,17.557 17.557,17.557c4.711,-0 9.422,-1.713 12.419,-5.139c0.857,-1.285 2.57,-1.285 3.854,0c1.285,0.857 1.285,2.57 0,3.854c-2.997,3.426 -8.136,5.995 -13.275,6.424Zm58.239,38.112c0,0 0,0.428 0,0c0.857,0.428 2.141,0 2.998,0c1.713,0 2.569,1.285 2.569,2.569c0,1.713 -1.284,2.57 -2.569,2.57c-9.849,-0 -17.558,7.708 -17.558,17.557c0,1.713 -1.284,2.57 -2.569,2.57c-1.713,-0 -2.569,-1.285 -2.569,-2.57c-0,-9.849 5.995,-17.985 14.559,-21.411l0,-1.713c0,-9.849 -7.708,-17.558 -17.557,-17.558c-1.713,0 -2.569,-1.284 -2.569,-2.569c-0,-1.713 1.284,-2.569 2.569,-2.569c12.419,-0 22.696,10.277 22.696,23.124Zm-32.117,23.124c0,11.134 8.993,20.555 20.555,20.555c7.708,0 14.56,-4.282 17.986,-11.134c0.428,-0.856 0.856,-1.284 1.713,-1.284c8.992,-2.57 14.988,-10.706 14.988,-19.699c-0,-1.284 -0,-2.569 -0.429,-4.282c-0.428,-1.285 0.429,-2.569 1.713,-2.998c6.424,-2.997 10.278,-8.992 10.278,-16.272c-0,-2.998 -0.857,-5.996 -2.57,-8.993c-3.854,3.426 -9.421,5.567 -15.416,5.567c-1.713,-0 -2.569,-1.285 -2.569,-2.57c-0,-1.284 1.284,-2.569 2.569,-2.569c9.849,0 17.558,-7.708 17.558,-17.557c-0,-5.139 -2.142,-10.278 -6.424,-13.704c-0.856,-0.856 -1.285,-2.141 -0.856,-2.997c0.856,-2.141 1.284,-4.283 1.284,-6.424c0,-9.849 -7.708,-17.557 -17.557,-17.557c-9.849,-0 -17.557,7.708 -17.557,17.557c-0,1.713 -1.285,2.57 -2.57,2.57c-1.713,-0 -2.569,-1.285 -2.569,-2.57c-0,-12.418 9.421,-22.268 21.411,-23.124c1.285,-1.713 1.713,-3.854 1.713,-5.995c0,-4.711 -2.997,-8.993 -7.28,-10.706l-0.428,0c-1.285,-0.428 -2.569,-0.856 -4.282,-0.856c-4.711,-0 -8.565,2.569 -10.706,6.851c-0.856,1.285 -2.141,1.713 -3.854,1.285c-1.285,-0.857 -1.713,-2.141 -1.285,-3.854c2.141,-4.711 6.424,-8.137 11.562,-9.421c-6.851,-4.282 -13.703,-6.852 -19.27,-6.852c-4.71,0 -8.993,3.854 -8.993,8.993l0,23.553c2.57,-2.142 5.567,-2.998 8.993,-2.998c1.713,-0 2.57,1.285 2.57,2.569c-0,1.285 -1.285,2.57 -2.57,2.57c-4.71,-0 -8.993,3.854 -8.993,8.992l0,90.785c1.285,1.285 1.285,2.141 1.285,2.569Zm44.108,-49.246c-8.565,0 -15.845,-6.423 -17.13,-14.56c-5.138,-0.428 -10.277,-2.997 -14.131,-6.851c-0.857,-1.285 -0.857,-2.998 -0,-3.854c1.285,-0.857 2.998,-0.857 3.854,-0c3.426,3.425 7.708,5.138 12.419,5.138c9.849,0 17.557,-7.708 17.557,-17.557c0,-1.713 1.285,-2.569 2.569,-2.569c1.713,-0 2.57,1.284 2.57,2.569c-0,11.562 -8.565,21.411 -20.127,22.696c1.285,5.139 5.995,9.421 11.562,9.421c1.713,0 2.57,1.285 2.57,2.569c0.856,1.713 -0.429,2.998 -1.713,2.998Z" style="fill:#666;"/></g><path d="M405.319,705.721c6.851,-16.273 14.131,-32.973 20.983,-49.246c-0,-1.713 -0,-3.426 0.428,-5.139l-64.663,-14.131l-17.557,-3.855c-20.127,50.103 -7.28,211.117 7.708,262.077l-15.416,47.533l19.27,78.794l1.713,1.713c1.713,1.713 4.282,2.141 6.424,1.285c2.141,-0.857 3.854,-2.57 3.854,-5.139c2.141,-21.412 10.277,-38.969 11.562,-58.667c-0,-2.57 1.713,-4.711 4.282,-5.139c2.57,-0.857 4.711,-0 6.424,1.713c3.854,4.282 6.851,9.421 8.564,14.988c2.57,-2.57 5.139,-5.567 7.708,-8.137c0.857,-23.124 -10.277,-30.404 -15.416,-45.82c-10.706,-80.079 37.256,-180.713 14.132,-212.83Z" style="fill:#81502e;"/><path d="M362.067,636.776l64.235,13.704l0.428,-0c1.285,-17.13 2.141,-33.83 3.426,-48.818l-83.077,-17.986l-14.131,46.677l11.134,2.569l17.985,3.854Z" style="fill:#e71f54;"/><path d="M430.156,602.09c-0.857,15.416 -2.141,31.689 -3.426,48.818l1.285,0.428c-0.428,1.285 -1.285,2.569 -1.713,3.854c-4.282,68.945 -7.28,150.308 7.28,222.251c-0,17.986 74.083,29.548 148.595,30.832l27.835,0c64.663,-1.284 122.473,-10.705 122.473,-30.832c9.85,-80.935 10.278,-161.014 7.709,-220.966c-0.857,-1.713 -1.285,-3.426 -2.142,-5.139l1.713,-0.428c-0.856,-18.842 -2.141,-35.115 -2.997,-48.818l82.22,-17.986l-24.409,-81.363c-6.852,-22.696 -20.984,-39.397 -42.395,-50.103l-123.33,-62.522l0,7.709c0,30.404 -92.497,28.263 -92.497,-0l-0,-7.709l-123.33,62.522c-20.983,10.706 -35.543,27.835 -42.395,50.103l-24.409,81.363l83.933,17.986Z" style="fill:#fff;"/><path d="M737.196,602.09c1.285,13.703 2.141,30.404 2.998,48.818l64.234,-13.703l17.985,-3.855l11.134,-2.569l-14.131,-46.677l-82.22,17.986Z" style="fill:#e71f54;"/><path d="M804.856,636.776l-64.234,13.704c-0,1.713 -0,3.425 0.428,5.567c6.852,16.272 14.132,32.973 20.983,49.246c-23.124,32.545 24.838,133.179 14.132,212.401c-5.139,15.417 -16.273,22.697 -15.416,45.821c2.569,2.569 5.138,5.567 7.708,8.136c1.713,-5.567 4.71,-10.705 8.564,-14.988c1.713,-1.713 4.283,-2.569 6.424,-1.713c2.569,0.857 3.854,2.998 4.282,5.139c1.285,20.127 9.849,37.256 11.562,58.667c0.428,2.57 1.713,4.283 3.854,5.139c2.141,0.857 4.711,0.428 6.424,-1.285l1.713,-1.712l19.27,-78.795l-15.416,-47.533c15.416,-50.959 28.263,-212.401 7.708,-262.076l-17.986,4.282Z" style="fill:#81502e;"/><path d="M431.869,575.111c-0.857,16.273 -2.141,34.687 -3.426,54.814m310.038,-11.991c-1.285,-18.842 -2.998,-33.83 -4.283,-44.107" style="fill:none;stroke:#b3b3b3;stroke-width:4.25px;stroke-linecap:butt;stroke-linejoin:miter;"/><path d="M582.605,1010.62l0,-102.775c-71.514,-1.285 -142.6,-11.99 -148.167,-28.691c-34.686,104.488 -43.251,210.688 -40.253,315.176c-29.976,128.469 -15.845,230.387 -19.271,352.004c8.137,1.713 17.13,3.426 26.122,5.139c14.56,2.141 30.405,3.854 45.821,4.282c23.124,0.857 45.392,-0.428 63.806,-4.71c5.995,-1.285 11.562,-2.998 16.273,-5.139c-11.991,-123.758 -15.845,-224.82 2.141,-341.726c6.851,-65.091 20.126,-128.897 46.677,-188.421c1.713,-2.998 3.854,-4.711 6.851,-5.139Z" style="fill:#215365;"/><path d="M582.605,1010.62l0,-102.775c71.515,-1.285 142.601,-11.99 148.168,-28.691c34.686,104.488 43.251,210.688 40.253,315.176c29.976,128.469 15.845,230.387 19.27,352.004c-8.136,1.713 -17.129,3.426 -26.122,5.139c-14.559,2.141 -30.404,3.854 -45.82,4.282c-23.124,0.857 -45.392,-0.428 -63.806,-4.71c-5.995,-1.285 -11.562,-2.998 -16.273,-5.139c11.991,-123.758 15.845,-224.82 -2.141,-341.726c-6.852,-65.091 -20.127,-128.897 -46.677,-188.421c-1.713,-2.998 -3.854,-4.711 -6.852,-5.139Z" style="fill:#215365;"/><path d="M610.44,948.955l0,-41.11l-27.835,0l0,65.091l18.414,-8.993c5.567,-2.997 9.421,-8.564 9.421,-14.988Z" style="fill:#215365;stroke:#1d4756;stroke-width:2.14px;stroke-linecap:butt;stroke-linejoin:miter;"/><path d="M677.244,1188.76c-12.419,8.565 -30.833,13.275 -41.538,14.988c17.557,8.137 27.406,8.993 41.966,5.995" style="fill:none;stroke:#1a414f;stroke-width:2.14px;stroke-linecap:butt;stroke-linejoin:miter;"/><path d="M487.539,1188.76c12.418,8.565 30.832,13.275 41.538,14.988c-17.558,8.137 -27.407,8.993 -41.967,5.995" style="fill:none;stroke:#1a414f;stroke-width:2.14px;stroke-linecap:butt;stroke-linejoin:miter;"/><path d="M510.663,1641.4l-0,-90.356c-17.986,4.282 -40.682,5.567 -63.806,4.71c-15.416,-0.428 -31.261,-2.141 -45.821,-4.282c-21.839,32.545 -40.253,41.538 -59.095,52.672c-8.565,5.139 -17.129,10.706 -26.55,18.842c-7.709,7.28 -10.278,17.558 -6.424,27.407c3.854,9.849 12.847,15.844 23.124,15.844l153.735,0c13.703,0 24.837,-11.134 24.837,-24.837Z" style="fill:#666;"/><path d="M823.27,1604.14c-18.842,-11.134 -37.256,-20.127 -59.096,-52.672c-14.559,2.141 -30.404,3.854 -45.82,4.282c-23.124,0.857 -45.392,-0.428 -63.806,-4.71l-0,90.356c-0,13.703 11.134,25.266 24.837,25.266l152.878,-0c10.705,-0 19.27,-5.996 23.124,-15.845c3.854,-9.849 1.285,-20.555 -6.423,-27.406c-8.565,-8.993 -17.129,-14.56 -25.694,-19.271Z" style="fill:#666;"/><path d="M426.73,1586.59l20.555,-31.261c-15.416,-0.428 -31.261,-2.141 -45.82,-4.282c-21.84,32.545 -40.254,41.538 -59.096,52.672l35.971,4.711c19.27,2.997 37.256,-5.139 48.39,-21.84Z" style="fill:#ccc;"/><path d="M717.926,1555.76l20.555,31.261c10.705,16.273 29.119,24.837 48.39,21.84l35.971,-4.711c-18.842,-11.134 -37.256,-20.127 -59.096,-52.672c-14.56,2.141 -29.976,3.426 -45.82,4.282Z" style="fill:#ccc;"/><path d="M629.711,349.863c-29.977,-5.139 -66.804,-18.842 -83.505,-41.11c-2.998,-4.282 -5.567,-8.565 -6.852,-13.275c-0.856,-0 -1.284,-0 -2.141,0.428l0,101.49c0,28.263 92.498,30.405 92.498,0l-0,-47.533Z" style="fill:#81502e;"/><path d="M568.474,270.641c17.985,-5.139 -14.132,-38.113 22.268,-44.964c12.847,-2.57 32.117,-3.854 42.823,-11.563c6.423,-4.71 9.849,-12.418 6.851,-23.98c-5.139,-19.699 -29.548,-22.697 -44.536,-8.565c-4.282,3.854 -59.952,-6.852 -55.669,16.273c-50.96,-9.85 -60.381,33.402 -47.534,54.813c-19.27,12.419 -12.847,37.684 5.995,46.677c-8.136,27.835 29.977,40.682 45.393,28.263c0.856,0.857 1.713,1.285 2.569,2.141c2.569,4.282 5.567,8.137 9.421,11.562c20.555,18.842 59.096,25.694 89.5,25.266c7.28,-0 13.275,-2.998 17.557,-8.565c4.711,-5.567 5.996,-11.99 4.711,-18.842c-0.428,-2.141 -0.428,-2.141 -0.857,-4.71c-3.425,0.428 -8.564,8.993 -25.265,11.99c-15.416,2.998 -23.124,-10.706 -13.703,-25.265c5.567,-8.565 15.416,-17.13 32.973,-18.414c-0.428,-2.998 -1.284,-5.995 -1.713,-8.993c-37.684,-2.569 -44.964,35.115 -57.382,34.258c-8.565,-0.428 -15.417,-1.713 -20.555,-3.426c-27.835,-16.272 -50.96,-43.679 -12.847,-53.956Z" style="fill:#ccc;"/><path d="M660.543,302.758c-17.557,1.284 -27.407,9.849 -32.974,18.414c-9.421,14.559 -1.713,28.263 13.704,25.265c16.701,-2.997 21.839,-11.562 25.265,-11.99c-2.141,-10.278 -3.854,-20.983 -5.995,-31.689Z" style="fill:#81502e;"/><path d="M601.447,328.023c12.419,0.857 19.699,-36.827 57.383,-34.258c-0.856,-3.854 -1.285,-7.708 -2.141,-11.99c4.282,-0.857 8.565,-1.713 12.847,-2.57c-1.285,-2.569 -2.57,-5.139 -3.854,-7.708c-3.854,-8.136 -8.137,-15.844 -11.991,-23.981c-2.997,-5.995 -5.995,-12.418 -9.421,-18.414c-2.997,-6.423 -6.851,-11.562 -11.134,-15.844c-10.705,8.136 -29.547,9.421 -42.823,11.562c-36.399,6.852 -4.282,39.825 -22.267,44.964c-38.113,10.706 -14.988,38.113 12.418,54.385c5.567,2.141 12.419,3.426 20.983,3.854Z" style="fill:#81502e;"/></g></g></svg>