<svg viewBox="0 0 147 32" fill="none" xmlns="http://www.w3.org/2000/svg">
<path d="M17.0709 1.1306V11.6106C17.0709 11.8578 16.9956 12.0871 16.867 12.2735L16.8041 12.3438L16.8035 12.3449L16.7982 12.3511L16.7266 12.4303L16.7261 12.4309L16.725 12.432L16.6734 12.4894L13.2104 16.3514L11.3173 18.4628L11.207 18.5853C11.1054 18.6943 10.9978 18.7971 10.8843 18.8921C10.8886 18.905 10.8929 18.9179 10.8973 18.9309L8.90515 21.1523L8.85946 21.2034C8.77447 21.2866 8.66102 21.3372 8.53568 21.3372C8.40823 21.3372 8.2926 21.285 8.20761 21.1996L8.20656 21.1984L8.16944 21.1574L8.16839 21.1563L7.68222 20.613L7.67786 20.6085L7.57564 20.495L7.57516 20.4944L6.1736 18.9314C6.17732 18.9184 6.18217 18.9056 6.18654 18.8921C6.0671 18.7915 5.95308 18.6825 5.84658 18.5667L5.84067 18.56L5.76967 18.4813L5.76595 18.4768L5.76482 18.4757L3.86044 16.352L0.39802 12.491L0.397454 12.4904L0.206531 12.2775L0.205479 12.2764C0.076337 12.0892 0 11.8589 0 11.6106V1.1306C0 0.856949 0.212434 0.63562 0.474357 0.63562H16.597C16.8584 0.63562 17.0709 0.856949 17.0709 1.1306" fill="#E71F54"/>
<path d="M47.7674 12.6684C47.8321 12.6684 47.8644 12.7007 47.9291 12.7007C48.0909 12.7007 48.1879 12.6037 48.2203 12.4743L48.9966 9.30438C49.0613 9.11031 48.9642 8.94857 48.7701 8.88388C48.2849 8.7545 47.4439 8.49573 46.4412 8.49573C44.8886 8.49573 43.5624 9.175 42.592 10.1454L42.2686 9.14265C42.2362 8.98092 42.1068 8.81919 41.8481 8.81919H39.7456C39.5515 8.81919 39.4221 8.94857 39.4221 9.14265V23.6661C39.4221 23.8602 39.5515 23.9896 39.7456 23.9896H42.7861C43.0125 23.9896 43.1096 23.8602 43.1096 23.6661V14.0593C43.6594 12.8948 44.6945 12.2155 45.7296 12.2155C46.4736 12.2155 47.3469 12.4743 47.7674 12.6684V12.6684Z" fill="#191818"/>
<path d="M53.7191 15.1267C54.1073 13.2506 55.4981 11.9891 57.73 11.9891C59.9619 11.9891 61.3528 13.2506 61.741 15.1267H53.7191ZM53.7838 17.8761H65.2667C65.4931 17.8761 65.5902 17.7467 65.5902 17.5527C65.6225 11.3745 62.4849 8.52808 57.73 8.52808C53.0398 8.52808 49.8699 11.698 49.8699 16.4205C49.8699 21.1431 53.1045 24.3454 57.9241 24.313C60.5441 24.313 62.6467 23.6338 64.0699 22.1135C64.1993 21.9518 64.1669 21.7577 64.0375 21.6283L62.1291 19.6552C62.0644 19.5905 61.9997 19.5581 61.9027 19.5581C61.8057 19.5581 61.7086 19.5905 61.5792 19.6875C60.8676 20.3668 59.6708 20.852 58.1182 20.8843C55.7893 20.8843 54.269 19.6552 53.7838 17.8761Z" fill="#191818"/>
<path d="M81.5367 21.1754C81.6661 21.0137 81.6014 20.8196 81.5043 20.6902L79.4018 18.7495C79.3371 18.6848 79.2724 18.6524 79.1754 18.6524C79.0784 18.6524 78.949 18.7171 78.8519 18.8465C78.205 19.7199 77.0406 20.6902 75.0674 20.6902C72.5444 20.6902 70.8624 18.9759 70.8624 16.4205C70.8624 13.8652 72.5444 12.1508 75.0674 12.1508C76.7171 12.1508 78.0433 12.8948 78.9166 14.1563C78.9813 14.2857 79.1107 14.318 79.2078 14.318C79.3048 14.318 79.3695 14.318 79.4342 14.2534L81.7308 12.3449C81.8601 12.2479 81.8601 12.0538 81.7631 11.8921C80.1781 9.49846 77.8169 8.49573 75.0027 8.49573C71.0889 8.56042 67.2073 11.1805 67.2073 16.4205C67.2073 21.1107 70.3772 24.3454 75.0674 24.3454C77.9786 24.3454 80.2105 23.1809 81.5367 21.1754V21.1754Z" fill="#191818"/>
<path d="M87.9736 9.11037C87.9736 8.9163 87.8442 8.81926 87.6501 8.81926H84.6419C84.4155 8.78691 84.2861 8.94864 84.2861 9.14272V23.6662C84.2861 23.8602 84.4155 23.9896 84.6096 23.9896H87.6501C87.8442 23.9896 87.9736 23.8602 87.9736 23.6662V9.11037V9.11037ZM83.7362 3.64387C83.7362 5.0671 84.7066 6.03748 86.1299 6.03748C87.5854 6.03748 88.4911 5.0671 88.4911 3.64387C88.4911 2.22063 87.5854 1.28259 86.1299 1.28259C84.7066 1.28259 83.7362 2.22063 83.7362 3.64387V3.64387Z" fill="#191818"/>
<path d="M90.82 22.6311C91.4023 23.0839 93.6665 24.2807 96.6747 24.2807C100.265 24.3131 102.691 22.437 102.626 19.4288C102.529 16.7441 100.718 15.612 97.354 14.8033C95.4132 14.3505 94.4752 13.9623 94.4428 13.089C94.4428 12.442 95.3485 11.8922 96.7071 11.8922C96.9011 11.8922 97.0629 11.8922 97.2569 11.9245C98.8419 12.0862 99.877 12.7332 100.33 12.9919C100.395 13.0243 100.459 13.0243 100.524 13.0243C100.621 13.0243 100.75 12.9596 100.783 12.8625L102.012 10.5336C102.109 10.3719 102.044 10.1778 101.915 10.0484C101.397 9.66026 99.4888 8.4958 96.8688 8.46345C93.4401 8.43111 90.6583 10.1778 90.7877 13.2183C90.8524 15.5473 92.3727 16.9058 95.4456 17.7468C97.5481 18.3614 98.9389 18.7172 98.9389 19.6876C98.9389 20.8197 96.8688 20.8844 96.1248 20.8844C94.4105 20.755 93.0843 20.0434 92.405 19.6552C92.3403 19.6229 92.2756 19.5905 92.2109 19.5905C92.1139 19.5905 92.0169 19.6552 91.9522 19.7523L90.723 22.1782C90.626 22.34 90.6583 22.5341 90.82 22.6311V22.6311Z" fill="#191818"/>
<path d="M108.158 15.1267C108.546 13.2506 109.937 11.9891 112.169 11.9891C114.4 11.9891 115.791 13.2506 116.179 15.1267H108.158V15.1267ZM108.222 17.8761H119.705C119.932 17.8761 120.029 17.7467 120.029 17.5527C120.061 11.3745 116.923 8.52808 112.169 8.52808C107.478 8.52808 104.308 11.698 104.308 16.4205C104.308 21.1431 107.543 24.3454 112.363 24.313C114.983 24.313 117.085 23.6338 118.508 22.1135C118.638 21.9518 118.605 21.7577 118.476 21.6283L116.568 19.6552C116.503 19.5905 116.438 19.5581 116.341 19.5581C116.244 19.5581 116.147 19.5905 116.018 19.6875C115.306 20.3668 114.109 20.852 112.557 20.8843C110.228 20.8843 108.707 19.6552 108.222 17.8761Z" fill="#191818"/>
<path d="M126.304 0.959082C126.304 0.765005 126.174 0.63562 125.98 0.63562H122.94C122.746 0.63562 122.616 0.765005 122.616 0.959082L122.649 23.6661C122.649 23.8602 122.778 23.9896 122.94 23.9896H126.013C126.174 23.9896 126.304 23.8602 126.304 23.6661V0.959082Z" fill="#191818"/>
<path d="M128.115 9.23971L133.97 23.8925L131.188 30.944C131.091 31.1704 131.188 31.3645 131.479 31.3645H134.584C134.779 31.3645 134.94 31.2351 135.005 31.0734L143.706 9.23971C143.803 8.98095 143.706 8.81921 143.415 8.81921H140.245C140.051 8.81921 139.889 8.91625 139.825 9.11033L135.749 19.3641L132.061 9.11033C131.997 8.91625 131.835 8.81921 131.641 8.81921H128.374C128.148 8.81921 128.018 8.98095 128.115 9.23971V9.23971Z" fill="#191818"/>
<path d="M26.1601 5.19638V23.6661C26.1601 23.8601 25.9984 23.9895 25.8043 23.9895H22.6021C22.408 23.9895 22.2462 23.8601 22.2462 23.6661L22.2786 1.89707C22.2786 1.67064 22.408 1.54126 22.6021 1.54126H30.4945C34.9907 1.54126 37.6754 4.35538 37.7077 8.39866C37.6754 12.4743 34.9907 15.2884 30.4945 15.2884H28.1546V11.6009H30.1711C32.2412 11.6009 33.8262 10.6629 33.8262 8.431C33.8262 6.19911 32.2736 5.19638 30.1711 5.19638H26.1601V5.19638Z" fill="#191818"/>
</svg>
