<svg viewBox="0 0 148 30" height="auto" fill="none" xmlns="http://www.w3.org/2000/svg">
<g clip-path="url(#clip0_86_686)">
<path d="M17.2409 0.485679V10.7727C17.2434 11.0059 17.173 11.2338 17.0399 11.4237L16.9776 11.4931L16.9052 11.5706L16.853 11.6257L13.3557 15.4173L11.4442 17.4886L11.3317 17.609C11.2295 17.7165 11.1207 17.8174 11.006 17.911C11.006 17.9233 11.006 17.9355 11.0201 17.9498L9.01017 20.1292L8.96394 20.1803C8.87479 20.2656 8.75687 20.3132 8.63431 20.3132C8.51175 20.3132 8.39383 20.2656 8.30468 20.1803V20.1803L8.26649 20.1415L7.77607 19.6089L7.67356 19.4987L6.2666 17.9641C6.2704 17.9508 6.2751 17.9379 6.28067 17.9253C6.15902 17.8266 6.04418 17.7196 5.93697 17.6049V17.6049L5.86461 17.5274L3.9411 15.4418L0.443802 11.6523L0.242808 11.4482C0.109614 11.2567 0.0392801 11.0275 0.0418142 10.7931V0.485679C0.0423433 0.357034 0.0929129 0.23381 0.182509 0.142844C0.272106 0.051877 0.393473 0.000537148 0.520181 0H16.8007C16.9207 0.0102284 17.0325 0.0658178 17.114 0.155763C17.1955 0.245708 17.2408 0.363449 17.2409 0.485679V0.485679Z" fill="#E71F54"/>
<path d="M21.3257 23.0536V0.373474H31.3231C35.879 0.373474 38.1569 2.50394 38.1569 6.76488C38.1569 11.3904 35.0382 14.1875 28.8007 15.1561L28.1977 11.4135C31.9496 10.7252 33.8255 9.21845 33.8255 6.89344C33.8255 5.01057 32.8989 4.06914 31.0458 4.06914H25.4642V23.0474L21.3257 23.0536Z" fill="#0D0D0D"/>
<path d="M58.0511 6.40155C63.0304 6.40155 65.5194 8.98165 65.518 14.1418C65.5181 14.8313 65.4711 15.52 65.3773 16.2029H54.4895C54.4895 18.5497 56.1872 19.7231 59.5827 19.7231C61.2505 19.723 62.9147 19.5638 64.5533 19.2476V22.578C62.8144 22.9232 61.0447 23.0826 59.2731 23.0535C53.3277 23.0535 50.3544 20.2149 50.353 14.5377C50.3503 9.11362 52.9164 6.40155 58.0511 6.40155ZM54.4895 13.2848H61.4881V13.1644C61.4881 10.8516 60.3424 9.69521 58.0511 9.69521C55.8643 9.69521 54.6771 10.8917 54.4895 13.2848V13.2848Z" fill="#0D0D0D"/>
<path d="M80.7336 22.5781C79.3491 22.8995 77.9329 23.059 76.5127 23.0536C70.6799 23.0536 67.7634 20.1728 67.7634 14.4113C67.7634 9.07151 70.6799 6.40162 76.5127 6.40162C77.9329 6.3962 79.3491 6.55573 80.7336 6.8771V10.2075C79.4537 9.89965 78.1435 9.74013 76.8283 9.73201C73.548 9.73201 71.9079 11.2918 71.9079 14.4113C71.9079 17.9485 73.548 19.717 76.8283 19.717C78.1436 19.7099 79.4539 19.5504 80.7336 19.2416V22.5781Z" fill="#0D0D0D"/>
<path d="M87.6073 0.373474V3.70386H83.4668V0.373474H87.6073ZM87.6073 6.40163V23.0536H83.4668V6.40163H87.6073Z" fill="#0D0D0D"/>
<path d="M91.5131 22.2618V18.7722C93.3368 19.5123 95.4405 19.8823 97.8243 19.8823C99.6051 19.8823 100.495 19.3007 100.495 18.1375C100.495 17.0274 99.8965 16.4724 98.6986 16.4724H95.7319C92.3968 16.4724 90.7299 14.8072 90.7312 11.4768C90.7312 7.98722 93.1632 6.24244 98.0273 6.24244C100.009 6.22853 101.979 6.54992 103.856 7.19339V10.683C101.965 9.93046 99.9496 9.5536 97.9188 9.57282C95.6797 9.57282 94.5601 10.1544 94.5601 11.3176C94.5601 12.4277 95.2107 12.9828 96.5118 12.9828H99.1669C102.813 12.9828 104.636 14.648 104.636 17.9784C104.636 21.4679 102.313 23.2127 97.6675 23.2127C95.5784 23.2432 93.4987 22.9218 91.5131 22.2618V22.2618Z" fill="#0D0D0D"/>
<path d="M114.446 6.40155C119.423 6.40155 121.912 8.98165 121.913 14.1418C121.913 14.8313 121.865 15.5199 121.773 16.2029H110.885C110.885 18.5497 112.582 19.7231 115.976 19.7231C117.643 19.7227 119.307 19.5635 120.945 19.2476V22.578C119.206 22.9232 117.436 23.0826 115.665 23.0535C109.718 23.0535 106.744 20.2149 106.744 14.5377C106.744 9.11362 109.312 6.40155 114.446 6.40155ZM110.885 13.2848H117.881V13.1644C117.881 10.8516 116.736 9.69521 114.446 9.69521C112.258 9.69521 111.071 10.8917 110.885 13.2848V13.2848Z" fill="#0D0D0D"/>
<path d="M129.161 0.373474V23.0536H125.02V0.373474H129.161Z" fill="#0D0D0D"/>
<path d="M131.112 6.40155H135.504L139.644 18.3905L143.691 6.40155H148.002L141.19 23.5432C139.984 26.5675 138.053 28.7198 135.395 29.9999L133.386 27.1287C135.168 26.3648 136.598 24.9416 137.385 23.1474L131.112 6.40155Z" fill="#0D0D0D"/>
<path d="M49.499 6.3404C49.0142 6.32814 48.5292 6.35133 48.0478 6.40978V6.40978C46.8994 6.42912 45.7816 6.78873 44.8319 7.44441C44.3327 7.71962 43.8823 8.07759 43.4993 8.50352L42.9908 6.34652H39.8713V22.9495H43.7827V11.7462C44.848 10.9503 45.4127 10.3993 46.281 10.0912C47.3267 9.79487 48.4208 9.71712 49.4969 9.86261L49.499 6.3404Z" fill="#0D0D0D"/>
</g>
</svg>
