<svg viewBox="0 0 25 24" fill="none" xmlns="http://www.w3.org/2000/svg">
<path d="M21.7099 15.89C21.0737 17.3944 20.0787 18.7202 18.8118 19.7513C17.5449 20.7823 16.0447 21.4874 14.4424 21.8047C12.84 22.1221 11.1843 22.0421 9.62006 21.5718C8.05578 21.1014 6.63054 20.255 5.46893 19.1066C4.30733 17.9582 3.44473 16.5427 2.95655 14.9839C2.46837 13.4251 2.36948 11.7704 2.66851 10.1646C2.96755 8.55874 3.65541 7.05058 4.67196 5.77199C5.68851 4.49339 7.0028 3.48327 8.49992 2.82996" stroke="currentColor" stroke-width="1.5" stroke-linecap="round" stroke-linejoin="round"/>
<path d="M22.5 12C22.5 10.6868 22.2413 9.38642 21.7388 8.17317C21.2362 6.95991 20.4997 5.85752 19.5711 4.92893C18.6425 4.00035 17.5401 3.26375 16.3268 2.7612C15.1136 2.25866 13.8132 2 12.5 2V12H22.5Z" stroke="currentColor" stroke-width="1.5" stroke-linecap="round" stroke-linejoin="round"/>
</svg>
